<svg xmlns="http://www.w3.org/2000/svg" xmlns:xlink="http://www.w3.org/1999/xlink" contentStyleType="text/css" height="390px" preserveAspectRatio="none" style="width:266px;height:390px;background:#FFFFFF;" version="1.1" viewBox="0 0 266 390" width="266px" zoomAndPan="magnify"><defs/><g><g id="elem_London"><rect fill="#F1F1F1" height="36.2969" style="stroke:#181818;stroke-width:0.5;" width="65.5635" x="194.8" y="129.65"/><text fill="#000000" font-family="sans-serif" font-size="14" lengthAdjust="spacing" textLength="51.5635" x="201.8" y="144.6451">London</text><line style="stroke:#181818;stroke-width:0.5;" x1="195.8" x2="259.3635" y1="149.9469" y2="149.9469"/></g><g id="elem_Washington"><rect fill="#F1F1F1" height="36.2969" style="stroke:#181818;stroke-width:0.5;" width="97.166" x="7" y="252.3"/><text fill="#000000" font-family="sans-serif" font-size="14" lengthAdjust="spacing" textLength="83.166" x="14" y="267.2951">Washington</text><line style="stroke:#181818;stroke-width:0.5;" x1="8" x2="103.166" y1="272.5969" y2="272.5969"/></g><g id="elem_Berlin"><rect fill="#F1F1F1" height="36.2969" style="stroke:#181818;stroke-width:0.5;" width="54.626" x="130.27" y="348.59"/><text fill="#000000" font-family="sans-serif" font-size="14" lengthAdjust="spacing" textLength="40.626" x="137.27" y="363.5851">Berlin</text><line style="stroke:#181818;stroke-width:0.5;" x1="131.27" x2="183.896" y1="368.8869" y2="368.8869"/></g><g id="elem_NewYork"><rect fill="#F1F1F1" height="36.2969" style="stroke:#181818;stroke-width:0.5;" width="75.5166" x="68.82" y="7"/><text fill="#000000" font-family="sans-serif" font-size="14" lengthAdjust="spacing" textLength="61.5166" x="75.82" y="21.9951">NewYork</text><line style="stroke:#181818;stroke-width:0.5;" x1="69.82" x2="143.3366" y1="27.2969" y2="27.2969"/></g><g id="elem_CapitalCity"><rect fill="#F1F1F1" height="81.1875" style="stroke:#181818;stroke-width:0.5;" width="90.5283" x="61.58" y="107.3"/><text fill="#000000" font-family="sans-serif" font-size="14" lengthAdjust="spacing" textLength="76.5283" x="68.58" y="122.2951">CapitalCity</text><line style="stroke:#181818;stroke-width:1.0;" x1="61.58" x2="152.1083" y1="127.5969" y2="127.5969"/><text fill="#000000" font-family="sans-serif" font-size="14" lengthAdjust="spacing" textLength="19.4277" x="97.1303" y="142.592">UK</text><line style="stroke:#181818;stroke-width:1.0;" x1="61.58" x2="152.1083" y1="147.8938" y2="147.8938"/><text fill="#000000" font-family="sans-serif" font-size="14" lengthAdjust="spacing" textLength="28.7109" x="92.4887" y="162.8889">USA</text><line style="stroke:#181818;stroke-width:1.0;" x1="61.58" x2="152.1083" y1="168.1906" y2="168.1906"/><text fill="#000000" font-family="sans-serif" font-size="14" lengthAdjust="spacing" textLength="64.5928" x="74.5478" y="183.1857">Germany</text></g><!--link CapitalCity to London--><g id="link_CapitalCity_London"><path d="M152.58,136.8 C166.35,143.84 175.5998,148.3146 188.5198,151.7346 " fill="none" id="CapitalCity-to-London" style="stroke:#181818;stroke-width:1.0;"/><polygon fill="#181818" points="194.32,153.27,186.6432,147.1001,189.4865,151.9905,184.5961,154.8338,194.32,153.27" style="stroke:#181818;stroke-width:1.0;"/></g><!--link CapitalCity to Washington--><g id="link_CapitalCity_Washington"><path d="M60.58,157.8 C23.33,157.8 37.2797,214.8957 47.5197,246.2957 " fill="none" id="CapitalCity-to-Washington" style="stroke:#181818;stroke-width:1.0;"/><polygon fill="#181818" points="49.38,252,50.3925,242.2033,47.8298,247.2464,42.7867,244.6837,49.38,252" style="stroke:#181818;stroke-width:1.0;"/></g><!--link CapitalCity to Berlin--><g id="link_CapitalCity_Berlin"><path d="M152.58,177.8 C186.53,177.8 169.6156,295.9549 161.7056,342.4849 " fill="none" id="CapitalCity-to-Berlin" style="stroke:#181818;stroke-width:1.0;"/><polygon fill="#181818" points="160.7,348.4,166.1518,340.1977,161.538,343.4707,158.2649,338.8569,160.7,348.4" style="stroke:#181818;stroke-width:1.0;"/></g><!--link NewYork to CapitalCity--><g id="link_NewYork_CapitalCity"><path codeLine="12" d="M120.18,43.63 C147.06,79.44 206.4,157.8 158.58,157.8 " fill="none" id="NewYork-to-CapitalCity" style="stroke:#181818;stroke-width:1.0;"/><polygon fill="#181818" points="152.58,157.8,161.58,161.8,157.58,157.8,161.58,153.8,152.58,157.8" style="stroke:#181818;stroke-width:1.0;"/></g><!--SRC=[oq_AIaqkKV39pql9p-FAX_324uipClFIIn0YJgb5EPbmdbzgUMH-KJONLsvYWO9pOa5cIMAESsP9fK8rbqAejuAMhXtCG8NGO4SW7oY0PAQ2UsfHRc9U9KW2A0CrkvQB2sgk0aWKoLWhAw0f0000]--></g></svg>