<?xml version="1.0" encoding="us-ascii" standalone="no"?><svg xmlns="http://www.w3.org/2000/svg" xmlns:xlink="http://www.w3.org/1999/xlink" contentStyleType="text/css" height="390px" preserveAspectRatio="none" style="width:271px;height:390px;background:#FFFFFF;" version="1.1" viewBox="0 0 271 390" width="271px" zoomAndPan="magnify"><defs/><g><g id="elem_London"><rect fill="#F1F1F1" height="36.2969" style="stroke:#181818;stroke-width:0.5;" width="67" x="198" y="129.5"/><text fill="#000000" font-family="sans-serif" font-size="14" lengthAdjust="spacing" textLength="53" x="205" y="144.4951">London</text><line style="stroke:#181818;stroke-width:0.5;" x1="199" x2="264" y1="149.7969" y2="149.7969"/></g><g id="elem_Washington"><rect fill="#F1F1F1" height="36.2969" style="stroke:#181818;stroke-width:0.5;" width="99" x="7" y="252"/><text fill="#000000" font-family="sans-serif" font-size="14" lengthAdjust="spacing" textLength="85" x="14" y="266.9951">Washington</text><line style="stroke:#181818;stroke-width:0.5;" x1="8" x2="105" y1="272.2969" y2="272.2969"/></g><g id="elem_Berlin"><rect fill="#F1F1F1" height="36.2969" style="stroke:#181818;stroke-width:0.5;" width="56" x="131.5" y="348"/><text fill="#000000" font-family="sans-serif" font-size="14" lengthAdjust="spacing" textLength="42" x="138.5" y="362.9951">Berlin</text><line style="stroke:#181818;stroke-width:0.5;" x1="132.5" x2="186.5" y1="368.2969" y2="368.2969"/></g><g id="elem_NewYork"><rect fill="#F1F1F1" height="36.2969" style="stroke:#181818;stroke-width:0.5;" width="77" x="69" y="7"/><text fill="#000000" font-family="sans-serif" font-size="14" lengthAdjust="spacing" textLength="63" x="76" y="21.9951">NewYork</text><line style="stroke:#181818;stroke-width:0.5;" x1="70" x2="145" y1="27.2969" y2="27.2969"/></g><g id="elem_CapitalCity"><rect fill="#F1F1F1" height="81.1875" style="stroke:#181818;stroke-width:0.5;" width="94" x="60.5" y="107"/><text fill="#000000" font-family="sans-serif" font-size="14" lengthAdjust="spacing" textLength="80" x="67.5" y="121.9951">CapitalCity</text><line style="stroke:#181818;stroke-width:1.0;" x1="60.5" x2="154.5" y1="127.2969" y2="127.2969"/><text fill="#000000" font-family="sans-serif" font-size="14" lengthAdjust="spacing" textLength="19" x="98" y="142.292">UK</text><line style="stroke:#181818;stroke-width:1.0;" x1="60.5" x2="154.5" y1="147.5938" y2="147.5938"/><text fill="#000000" font-family="sans-serif" font-size="14" lengthAdjust="spacing" textLength="28" x="93.5" y="162.5889">USA</text><line style="stroke:#181818;stroke-width:1.0;" x1="60.5" x2="154.5" y1="167.8906" y2="167.8906"/><text fill="#000000" font-family="sans-serif" font-size="14" lengthAdjust="spacing" textLength="65" x="75" y="182.8857">Germany</text></g><!--link CapitalCity to London--><g id="link_CapitalCity_London"><path d="M155.5,137.5 C169.424,137.5 178.7455,138.3036 191.8385,140.3136 " fill="none" id="CapitalCity-to-London" style="stroke:#181818;stroke-width:1.0;"/><polygon fill="#181818" points="197.769,141.224,189.4802,135.9047,192.8269,140.4653,188.2663,143.812,197.769,141.224" style="stroke:#181818;stroke-width:1.0;"/></g><!--link CapitalCity to Washington--><g id="link_CapitalCity_Washington"><path d="M59.5,157.5 C22.3199,157.5 37.2727,214.5446 48.0478,245.9036 " fill="none" id="CapitalCity-to-Washington" style="stroke:#181818;stroke-width:1.0;"/><polygon fill="#181818" points="49.9975,251.578,50.8558,241.7666,48.3727,246.8494,43.29,244.3663,49.9975,251.578" style="stroke:#181818;stroke-width:1.0;"/></g><!--link CapitalCity to Berlin--><g id="link_CapitalCity_Berlin"><path d="M155.5,177.5 C189.362,177.5 171.875,295.3694 163.738,341.7866 " fill="none" id="CapitalCity-to-Berlin" style="stroke:#181818;stroke-width:1.0;"/><polygon fill="#181818" points="162.702,347.6965,168.1959,339.5224,163.5653,342.7716,160.3161,338.141,162.702,347.6965" style="stroke:#181818;stroke-width:1.0;"/></g><!--link NewYork to CapitalCity--><g id="link_NewYork_CapitalCity"><path codeLine="12" d="M121.185,43.191 C148.591,78.836 209.62,157.5 161.5,157.5 " fill="none" id="NewYork-to-CapitalCity" style="stroke:#181818;stroke-width:1.0;"/><polygon fill="#181818" points="155.5,157.5,164.5,161.5,160.5,157.5,164.5,153.5,155.5,157.5" style="stroke:#181818;stroke-width:1.0;"/></g><!--SRC=[oq_AIaqkKV39pql9p-FAX_324uipClFIIn0YJgb5EPbmdbzgUMH-KJONLsvYWO9pOa5cIMAESsP9fK8rbqAejuAMhXtCG8NGO4SW7oY0PAQ2UsfHRc9U9KW2A0CrkvQB2sgk0aWKoLWhAw0f0000]--></g></svg>