<svg xmlns="http://www.w3.org/2000/svg" xmlns:xlink="http://www.w3.org/1999/xlink" contentStyleType="text/css" height="390px" preserveAspectRatio="none" style="width:263px;height:390px;background:#FFFFFF;" version="1.1" viewBox="0 0 263 390" width="263px" zoomAndPan="magnify"><defs/><g><g id="elem_London"><rect fill="#F1F1F1" height="36.2969" style="stroke:#181818;stroke-width:0.5;" width="66" x="191" y="129.65"/><text fill="#000000" font-family="sans-serif" font-size="14" lengthAdjust="spacing" textLength="52" x="198" y="144.6451">London</text><line style="stroke:#181818;stroke-width:0.5;" x1="192" x2="256" y1="149.9469" y2="149.9469"/></g><g id="elem_Washington"><rect fill="#F1F1F1" height="36.2969" style="stroke:#181818;stroke-width:0.5;" width="96" x="7" y="252.3"/><text fill="#000000" font-family="sans-serif" font-size="14" lengthAdjust="spacing" textLength="82" x="14" y="267.2951">Washington</text><line style="stroke:#181818;stroke-width:0.5;" x1="8" x2="102" y1="272.5969" y2="272.5969"/></g><g id="elem_Berlin"><rect fill="#F1F1F1" height="36.2969" style="stroke:#181818;stroke-width:0.5;" width="53" x="129.5" y="348.59"/><text fill="#000000" font-family="sans-serif" font-size="14" lengthAdjust="spacing" textLength="39" x="136.5" y="363.5851">Berlin</text><line style="stroke:#181818;stroke-width:0.5;" x1="130.5" x2="181.5" y1="368.8869" y2="368.8869"/></g><g id="elem_NewYork"><rect fill="#F1F1F1" height="36.2969" style="stroke:#181818;stroke-width:0.5;" width="75" x="67.5" y="7"/><text fill="#000000" font-family="sans-serif" font-size="14" lengthAdjust="spacing" textLength="61" x="74.5" y="21.9951">NewYork</text><line style="stroke:#181818;stroke-width:0.5;" x1="68.5" x2="141.5" y1="27.2969" y2="27.2969"/></g><g id="elem_CapitalCity"><rect fill="#F1F1F1" height="81.1875" style="stroke:#181818;stroke-width:0.5;" width="85" x="62.5" y="107.3"/><text fill="#000000" font-family="sans-serif" font-size="14" lengthAdjust="spacing" textLength="71" x="69.5" y="122.2951">CapitalCity</text><line style="stroke:#181818;stroke-width:1.0;" x1="62.5" x2="147.5" y1="127.5969" y2="127.5969"/><text fill="#000000" font-family="sans-serif" font-size="14" lengthAdjust="spacing" textLength="19" x="95.5" y="142.592">UK</text><line style="stroke:#181818;stroke-width:1.0;" x1="62.5" x2="147.5" y1="147.8938" y2="147.8938"/><text fill="#000000" font-family="sans-serif" font-size="14" lengthAdjust="spacing" textLength="28" x="91" y="162.8889">USA</text><line style="stroke:#181818;stroke-width:1.0;" x1="62.5" x2="147.5" y1="168.1906" y2="168.1906"/><text fill="#000000" font-family="sans-serif" font-size="14" lengthAdjust="spacing" textLength="62" x="74" y="183.1857">Germany</text></g><!--link CapitalCity to London--><g id="link_CapitalCity_London"><path d="M148.5,137.3 C162.35,144.54 171.6898,149.0928 184.6898,152.4428 " fill="none" id="CapitalCity-to-London" style="stroke:#181818;stroke-width:1.0;"/><polygon fill="#181818" points="190.5,153.94,182.7829,147.8207,185.6582,152.6923,180.7866,155.5676,190.5,153.94" style="stroke:#181818;stroke-width:1.0;"/></g><!--link CapitalCity to Washington--><g id="link_CapitalCity_Washington"><path d="M61.5,157.3 C24.05,157.3 37.3281,214.6538 47.1981,246.1938 " fill="none" id="CapitalCity-to-Washington" style="stroke:#181818;stroke-width:1.0;"/><polygon fill="#181818" points="48.99,251.92,50.1196,242.1361,47.4967,247.1482,42.4847,244.5254,48.99,251.92" style="stroke:#181818;stroke-width:1.0;"/></g><!--link CapitalCity to Berlin--><g id="link_CapitalCity_Berlin"><path d="M148.5,177.3 C182.55,177.3 167.1501,295.7725 159.8301,342.4225 " fill="none" id="CapitalCity-to-Berlin" style="stroke:#181818;stroke-width:1.0;"/><polygon fill="#181818" points="158.9,348.35,164.2468,340.0789,159.6751,343.4104,156.3435,338.8387,158.9,348.35" style="stroke:#181818;stroke-width:1.0;"/></g><!--link NewYork to CapitalCity--><g id="link_NewYork_CapitalCity"><path codeLine="12" d="M118.2,43.56 C144.26,79.24 201.88,157.3 154.5,157.3 " fill="none" id="NewYork-to-CapitalCity" style="stroke:#181818;stroke-width:1.0;"/><polygon fill="#181818" points="148.5,157.3,157.5,161.3,153.5,157.3,157.5,153.3,148.5,157.3" style="stroke:#181818;stroke-width:1.0;"/></g><!--SRC=[oq_AIaqkKV39pql9p-FAX_324uipClFIIn0YJgb5EPbmdbzgUMH-KJONLsvYWO9pOa5cIMAESsP9fK8rbqAejuAMhXtCG8NGO4SW7oY0PAQ2UsfHRc9U9KW2A0CrkvQB2sgk0aWKoLWhAw0f0000]--></g></svg>