<svg xmlns="http://www.w3.org/2000/svg" xmlns:xlink="http://www.w3.org/1999/xlink" contentStyleType="text/css" height="444px" preserveAspectRatio="none" style="width:420px;height:444px;background:#FFFFFF;" version="1.1" viewBox="0 0 420 444" width="420px" zoomAndPan="magnify"><defs><filter height="1" id="bv3dnt9fnzvzu0" width="1" x="0" y="0"><feFlood flood-color="#5F9EA0" result="flood"/><feComposite in="SourceGraphic" in2="flood" operator="over"/></filter></defs><g><line style="stroke:#181818;stroke-width:0.5;stroke-dasharray:5.0,5.0;" x1="154" x2="154" y1="36.2969" y2="75.4297"/><line style="stroke:#A80036;stroke-width:1.0;stroke-dasharray:1.0,4.0;" x1="154" x2="154" y1="75.4297" y2="116.2344"/><line style="stroke:#181818;stroke-width:0.5;stroke-dasharray:5.0,5.0;" x1="154" x2="154" y1="116.2344" y2="408.8125"/><line style="stroke:#181818;stroke-width:0.5;stroke-dasharray:5.0,5.0;" x1="345" x2="345" y1="36.2969" y2="75.4297"/><line style="stroke:#A80036;stroke-width:1.0;stroke-dasharray:1.0,4.0;" x1="345" x2="345" y1="75.4297" y2="116.2344"/><line style="stroke:#181818;stroke-width:0.5;stroke-dasharray:5.0,5.0;" x1="345" x2="345" y1="116.2344" y2="408.8125"/><rect fill="#E2E2F0" height="30.2969" rx="2.5" ry="2.5" style="stroke:#181818;stroke-width:0.5;" width="46" x="131" y="5"/><text fill="#000000" font-family="sans-serif" font-size="14" lengthAdjust="spacing" textLength="32" x="138" y="24.9951">Alice</text><rect fill="#E2E2F0" height="30.2969" rx="2.5" ry="2.5" style="stroke:#181818;stroke-width:0.5;" width="46" x="131" y="407.8125"/><text fill="#000000" font-family="sans-serif" font-size="14" lengthAdjust="spacing" textLength="32" x="138" y="427.8076">Alice</text><rect fill="#E2E2F0" height="30.2969" rx="2.5" ry="2.5" style="stroke:#181818;stroke-width:0.5;" width="138" x="276" y="5"/><text fill="#000000" font-family="sans-serif" font-size="14" lengthAdjust="spacing" textLength="27" x="283" y="24.9951">The</text><text fill="#000000" font-family="sans-serif" font-size="14" font-weight="bold" lengthAdjust="spacing" textLength="61" x="314" y="24.9951">Famous</text><text fill="#000000" font-family="sans-serif" font-size="14" lengthAdjust="spacing" textLength="28" x="379" y="24.9951">Bob</text><rect fill="#E2E2F0" height="30.2969" rx="2.5" ry="2.5" style="stroke:#181818;stroke-width:0.5;" width="138" x="276" y="407.8125"/><text fill="#000000" font-family="sans-serif" font-size="14" lengthAdjust="spacing" textLength="27" x="283" y="427.8076">The</text><text fill="#000000" font-family="sans-serif" font-size="14" font-weight="bold" lengthAdjust="spacing" textLength="61" x="314" y="427.8076">Famous</text><text fill="#000000" font-family="sans-serif" font-size="14" lengthAdjust="spacing" textLength="28" x="379" y="427.8076">Bob</text><polygon fill="#181818" points="333,63.4297,343,67.4297,333,71.4297,337,67.4297" style="stroke:#181818;stroke-width:1.0;"/><line style="stroke:#181818;stroke-width:1.0;" x1="154" x2="339" y1="67.4297" y2="67.4297"/><text fill="#000000" font-family="sans-serif" font-size="13" lengthAdjust="spacing" textLength="30" x="161" y="62.3638">hello</text><text fill="#000000" font-family="sans-serif" font-size="13" lengthAdjust="spacing" text-decoration="line-through" textLength="34" x="195" y="62.3638">there</text><text fill="#000000" font-family="sans-serif" font-size="11" lengthAdjust="spacing" textLength="33" x="202" y="99.6401">Some</text><text fill="#000000" font-family="sans-serif" font-size="11" lengthAdjust="spacing" text-decoration="wavy underline" textLength="58" x="239" y="99.6401">long delay</text><text fill="#000000" font-family="sans-serif" font-size="11" lengthAdjust="spacing" textLength="4" x="297" y="99.6401">&#160;</text><polygon fill="#181818" points="165,174.1992,155,178.1992,165,182.1992,161,178.1992" style="stroke:#181818;stroke-width:1.0;"/><line style="stroke:#181818;stroke-width:1.0;" x1="159" x2="344" y1="178.1992" y2="178.1992"/><text fill="#000000" font-family="sans-serif" font-size="13" lengthAdjust="spacing" textLength="15" x="171" y="173.1333">ok</text><path d="M5,121.2344 L5,221.2344 L149,221.2344 L149,131.2344 L139,121.2344 L5,121.2344 " fill="#FEFFDD" style="stroke:#181818;stroke-width:0.5;"/><path d="M139,121.2344 L139,131.2344 L149,131.2344 L139,121.2344 " fill="#FEFFDD" style="stroke:#181818;stroke-width:0.5;"/><text fill="#000000" font-family="sans-serif" font-size="13" lengthAdjust="spacing" textLength="39" x="11" y="138.3013">This is</text><text fill="#000000" font-family="sans-serif" font-size="13" font-weight="bold" lengthAdjust="spacing" textLength="33" x="54" y="138.3013">bold</text><text fill="#000000" font-family="sans-serif" font-size="13" lengthAdjust="spacing" textLength="39" x="11" y="153.4341">This is</text><text fill="#000000" font-family="sans-serif" font-size="13" font-style="italic" lengthAdjust="spacing" textLength="36" x="54" y="153.4341">italics</text><text fill="#000000" font-family="sans-serif" font-size="13" lengthAdjust="spacing" textLength="39" x="11" y="168.5669">This is</text><text fill="#000000" font-family="monospace" font-size="13" lengthAdjust="spacing" textLength="80" x="54" y="168.5669">monospaced</text><text fill="#000000" font-family="sans-serif" font-size="13" lengthAdjust="spacing" textLength="39" x="11" y="183.6997">This is</text><text fill="#000000" font-family="sans-serif" font-size="13" lengthAdjust="spacing" text-decoration="line-through" textLength="48" x="54" y="183.6997">stroked</text><text fill="#000000" font-family="sans-serif" font-size="13" lengthAdjust="spacing" textLength="39" x="11" y="198.8325">This is</text><text fill="#000000" font-family="sans-serif" font-size="13" lengthAdjust="spacing" text-decoration="underline" textLength="67" x="54" y="198.8325">underlined</text><text fill="#000000" font-family="sans-serif" font-size="13" lengthAdjust="spacing" textLength="39" x="11" y="213.9653">This is</text><text fill="#000000" font-family="sans-serif" font-size="13" lengthAdjust="spacing" text-decoration="wavy underline" textLength="40" x="54" y="213.9653">waved</text><polygon fill="#181818" points="333,244.1641,343,248.1641,333,252.1641,337,248.1641" style="stroke:#181818;stroke-width:1.0;"/><line style="stroke:#181818;stroke-width:1.0;" x1="154" x2="339" y1="248.1641" y2="248.1641"/><text fill="#000000" font-family="sans-serif" font-size="13" lengthAdjust="spacing" textLength="9" x="161" y="243.0981">A</text><text fill="#000000" font-family="sans-serif" font-size="13" font-style="italic" lengthAdjust="spacing" textLength="91" x="174" y="243.0981">well formatted</text><text fill="#000000" font-family="sans-serif" font-size="13" lengthAdjust="spacing" textLength="59" x="269" y="243.0981">message</text><path d="M159,261.1641 L159,307.1641 L306,307.1641 L306,271.1641 L296,261.1641 L159,261.1641 " fill="#FEFFDD" style="stroke:#181818;stroke-width:0.5;"/><path d="M296,261.1641 L296,271.1641 L306,271.1641 L296,261.1641 " fill="#FEFFDD" style="stroke:#181818;stroke-width:0.5;"/><text fill="#000000" font-family="sans-serif" font-size="13" lengthAdjust="spacing" textLength="39" x="165" y="284.0513">This is</text><text fill="#000000" filter="url(#bv3dnt9fnzvzu0)" font-family="sans-serif" font-size="18" lengthAdjust="spacing" textLength="83" x="208" y="282.8721">displayed</text><text fill="#000000" font-family="sans-serif" font-size="13" lengthAdjust="spacing" text-decoration="underline" textLength="36" x="165" y="299.1841">left of</text><text fill="#000000" font-family="sans-serif" font-size="13" lengthAdjust="spacing" textLength="34" x="205" y="299.1841">Alice.</text><path d="M196,317.25 L196,357.25 L340,357.25 L340,327.25 L330,317.25 L196,317.25 " fill="#FEFFDD" style="stroke:#181818;stroke-width:0.5;"/><path d="M330,317.25 L330,327.25 L340,327.25 L330,317.25 " fill="#FEFFDD" style="stroke:#181818;stroke-width:0.5;"/><text fill="#000000" font-family="sans-serif" font-size="13" lengthAdjust="spacing" text-decoration="underline" textLength="25" x="202" y="334.3169">This</text><text fill="#000000" font-family="sans-serif" font-size="13" lengthAdjust="spacing" textLength="10" x="231" y="334.3169">is</text><text fill="#118888" font-family="sans-serif" font-size="13" lengthAdjust="spacing" textLength="60" x="245" y="334.3169">displayed</text><text fill="#800080" font-family="sans-serif" font-size="13" font-weight="bold" lengthAdjust="spacing" textLength="45" x="202" y="349.4497">left of</text><text fill="#000000" font-family="sans-serif" font-size="13" font-weight="bold" lengthAdjust="spacing" textLength="5" x="247" y="349.4497">&#160;</text><text fill="#000000" font-family="sans-serif" font-size="13" font-weight="bold" lengthAdjust="spacing" text-decoration="line-through" textLength="35" x="252" y="349.4497">Alice</text><text fill="#000000" font-family="sans-serif" font-size="13" font-weight="bold" lengthAdjust="spacing" textLength="29" x="292" y="349.4497">Bob</text><text fill="#000000" font-family="sans-serif" font-size="13" lengthAdjust="spacing" textLength="4" x="321" y="349.4497">.</text><path d="M110,367.5156 L110,393.5156 L388,393.5156 L388,377.5156 L378,367.5156 L110,367.5156 " fill="#FEFFDD" style="stroke:#181818;stroke-width:0.5;"/><path d="M378,367.5156 L378,377.5156 L388,377.5156 L378,367.5156 " fill="#FEFFDD" style="stroke:#181818;stroke-width:0.5;"/><text fill="#000000" font-family="sans-serif" font-size="13" lengthAdjust="spacing" text-decoration="wavy underline" textLength="87" x="129.5" y="385.7466">This is hosted</text><text fill="#000000" font-family="sans-serif" font-size="13" lengthAdjust="spacing" textLength="15" x="220.5" y="385.7466">by</text><text fill="#000000" font-family="monospace" font-size="14" lengthAdjust="spacing" textLength="120" x="239.5" y="385.5107">(Cannot&#160;decode)</text><!--SRC=[PL71QeGm4BtdAmPx2zMmz5940jk3Fz3U9PfPJJSwaiGkxS5lR-9kjz9AGF9cvhqtBxDomNHcLbE0epKTidc7P6y30kUr6cdndCCBjHaed_wCRUsGotI34WQqbY3Fmu0EyvmLHG6lD2AigwMf1urMVQuhH9obYJXuPIY1pcoYW63n51Z0ss0ynCDvIrPpleE4C475AI_43isoaIRoi-fGPzckaES-E3gZZdv-qQPP9etEcWbrq-mAwtfH7wZNbU6a8Ldwj-KnMhZ4JU54RbGXe1O2HlHUzNXTmfb-242dMvntygfLtRdibCRGsWLbvSqNbeTdgOsVOpIeAv4WMOdKALdqcGA9L4rp9Ij-VTtpIahfEQ1QIeTQ9hbAB7AJxCYIWuV3uJb-Uw6j42Kul_NCYvijoXlZJmDKVYFTrAEzuCmPjoWu_sk6Fj1TRJxU35tAXxf-Ugfh-PF1G3ua-Ok4zXCgC_RWQN4TnZHxBDxdNjvPlm40]--></g></svg>