<?xml version="1.0" encoding="us-ascii" standalone="no"?><svg xmlns="http://www.w3.org/2000/svg" xmlns:xlink="http://www.w3.org/1999/xlink" contentStyleType="text/css" height="145px" preserveAspectRatio="none" style="width:787px;height:145px;background:#FFFFFF;" version="1.1" viewBox="0 0 787 145" width="787px" zoomAndPan="magnify"><defs/><g><!--entity CC--><g id="elem_CC"><rect fill="#FFFFCC" height="36.2969" rx="2.5" ry="2.5" style="stroke:#181818;stroke-width:0.5;" width="149" x="420.5" y="7"/><text fill="#000000" font-family="sans-serif" font-size="14" lengthAdjust="spacing" textLength="129" x="430.5" y="29.9951">components-core</text></g><!--entity CF--><g id="elem_CF"><rect fill="#FFFFCC" height="36.2969" rx="2.5" ry="2.5" style="stroke:#181818;stroke-width:0.5;" width="177" x="604.5" y="7"/><text fill="#000000" font-family="sans-serif" font-size="14" lengthAdjust="spacing" textLength="157" x="614.5" y="29.9951">components-function</text></g><!--entity CO1--><g id="elem_CO1"><rect fill="#FFFFCC" height="36.2969" rx="2.5" ry="2.5" style="stroke:#181818;stroke-width:0.5;" width="172" x="7" y="7"/><text fill="#000000" font-family="sans-serif" font-size="14" lengthAdjust="spacing" textLength="152" x="17" y="29.9951">components-other-1</text></g><!--entity CO2--><g id="elem_CO2"><rect fill="#FFFFCC" height="36.2969" rx="2.5" ry="2.5" style="stroke:#181818;stroke-width:0.5;" width="171" x="214.5" y="7"/><text fill="#000000" font-family="sans-serif" font-size="14" lengthAdjust="spacing" textLength="151" x="224.5" y="29.9951">components-other-2</text></g><!--entity ERC--><g id="elem_ERC"><rect fill="#F1F1F1" height="36.2969" rx="2.5" ry="2.5" style="stroke:#181818;stroke-width:0.5;" width="76" x="405" y="103"/><text fill="#000000" font-family="sans-serif" font-size="14" lengthAdjust="spacing" textLength="56" x="415" y="125.9951">&#19994;&#21153;&#31995;&#32479;</text></g><!--entity ASSETS--><g id="elem_ASSETS"><rect fill="#F1F1F1" height="36.2969" rx="2.5" ry="2.5" style="stroke:#181818;stroke-width:0.5;" width="104" x="516" y="103"/><text fill="#000000" font-family="sans-serif" font-size="14" lengthAdjust="spacing" textLength="84" x="526" y="125.9951">&#36164;&#20135;&#31649;&#29702;&#31995;&#32479;</text></g><!--entity TICKET--><g id="elem_TICKET"><rect fill="#F1F1F1" height="36.2969" rx="2.5" ry="2.5" style="stroke:#181818;stroke-width:0.5;" width="104" x="195" y="103"/><text fill="#000000" font-family="sans-serif" font-size="14" lengthAdjust="spacing" textLength="84" x="205" y="125.9951">&#24037;&#21333;&#31649;&#29702;&#31995;&#32479;</text></g><!--entity OTHERS--><g id="elem_OTHERS"><rect fill="#F1F1F1" height="36.2969" rx="2.5" ry="2.5" style="stroke:#181818;stroke-width:0.5;" width="35" x="334.5" y="103"/><text fill="#000000" font-family="sans-serif" font-size="14" lengthAdjust="spacing" textLength="15" x="344.5" y="125.9951">...</text></g><!--link CC to ERC--><g id="link_CC_ERC"><path d="M485.462,43.241 C476.08,60.2017 465.7116,78.9453 456.3496,95.8681 " fill="none" id="CC-to-ERC" style="stroke:#181818;stroke-width:1.0;"/><polygon fill="#181818" points="452.477,102.8683,458.9747,97.3203,453.7246,94.4159,452.477,102.8683" style="stroke:#181818;stroke-width:1.0;"/></g><!--link CC to ASSETS--><g id="link_CC_ASSETS"><path d="M508.389,43.241 C521.561,60.2017 536.6459,79.6272 549.7889,96.55 " fill="none" id="CC-to-ASSETS" style="stroke:#181818;stroke-width:1.0;"/><polygon fill="#181818" points="554.696,102.8683,552.1583,94.7099,547.4196,98.3902,554.696,102.8683" style="stroke:#181818;stroke-width:1.0;"/></g><!--link CC to TICKET--><g id="link_CC_TICKET"><path d="M450.089,43.0227 C405.283,60.0057 344.3117,83.1157 299.4757,100.11 " fill="none" id="CC-to-TICKET" style="stroke:#181818;stroke-width:1.0;"/><polygon fill="#181818" points="291.995,102.9454,300.539,102.9152,298.4124,97.3047,291.995,102.9454" style="stroke:#181818;stroke-width:1.0;"/></g><!--link CC to OTHERS--><g id="link_CC_OTHERS"><path d="M469.104,43.0227 C440.29,61.9633 401.2031,87.6572 376.2741,104.0435 " fill="none" id="CC-to-OTHERS" style="stroke:#181818;stroke-width:1.0;"/><polygon fill="#181818" points="369.589,108.4377,377.9219,106.5504,374.6263,101.5365,369.589,108.4377" style="stroke:#181818;stroke-width:1.0;"/></g><!--link CF to ERC--><g id="link_CF_ERC"><path d="M647.727,43.0227 C600.167,60.9051 533.6682,85.9089 488.8722,102.7519 " fill="none" id="CF-to-ERC" style="stroke:#181818;stroke-width:1.0;"/><polygon fill="#181818" points="481.384,105.5674,489.928,105.56,487.8164,99.9438,481.384,105.5674" style="stroke:#181818;stroke-width:1.0;"/></g><!--link CF to ASSETS--><g id="link_CF_ASSETS"><path d="M670.363,43.0227 C647.85,59.9528 619.8869,80.9814 597.2849,97.9781 " fill="none" id="CF-to-ASSETS" style="stroke:#181818;stroke-width:1.0;"/><polygon fill="#181818" points="590.891,102.7863,599.0879,100.3758,595.4818,95.5804,590.891,102.7863" style="stroke:#181818;stroke-width:1.0;"/></g><!--link CF to TICKET--><g id="link_CF_TICKET"><path d="M605.059,43.0727 C528.735,58.1135 415.35,80.9947 317,103 C311.264,104.2834 313.061,103.8305 307.104,105.2368 " fill="none" id="CF-to-TICKET" style="stroke:#181818;stroke-width:1.0;"/><polygon fill="#181818" points="299.318,107.0749,307.7933,108.1566,306.4147,102.3171,299.318,107.0749" style="stroke:#181818;stroke-width:1.0;"/></g><!--link CF to OTHERS--><g id="link_CF_OTHERS"><path d="M605.508,43.0036 C543.519,56.2557 458.933,76.7967 387,103 C381.287,105.0809 382.4493,104.2784 377.0413,106.9295 " fill="none" id="CF-to-OTHERS" style="stroke:#181818;stroke-width:1.0;"/><polygon fill="#181818" points="369.858,110.4509,378.3618,109.6233,375.7208,104.2358,369.858,110.4509" style="stroke:#181818;stroke-width:1.0;"/></g><!--link CO1 to ERC--><g id="link_CO1_ERC"><path d="M161.224,43.074 C220.941,58.208 309.95,81.2238 387,103 C392.769,104.6304 391.1877,104.1223 397.1357,105.8992 " fill="none" id="CO1-to-ERC" style="stroke:#181818;stroke-width:1.0;"/><polygon fill="#181818" points="404.801,108.1891,397.9945,103.0247,396.277,108.7737,404.801,108.1891" style="stroke:#181818;stroke-width:1.0;"/></g><!--link CO1 to ASSETS--><g id="link_CO1_ASSETS"><path d="M179.371,41.1201 C261.541,55.812 388.523,79.3149 498,103 C503.745,104.2429 501.9496,103.7832 507.9086,105.1747 " fill="none" id="CO1-to-ASSETS" style="stroke:#181818;stroke-width:1.0;"/><polygon fill="#181818" points="515.699,106.9939,508.5908,102.2533,507.2264,108.0961,515.699,106.9939" style="stroke:#181818;stroke-width:1.0;"/></g><!--link CO1 to TICKET--><g id="link_CO1_TICKET"><path d="M120.888,43.0227 C148.712,60.0057 184.3896,81.783 212.2306,98.7773 " fill="none" id="CO1-to-TICKET" style="stroke:#181818;stroke-width:1.0;"/><polygon fill="#181818" points="219.059,102.9454,213.7936,96.2167,210.6676,101.338,219.059,102.9454" style="stroke:#181818;stroke-width:1.0;"/></g><!--link CO1 to OTHERS--><g id="link_CO1_OTHERS"><path d="M147.686,43.0443 C193.211,57.6698 259.482,79.9772 316,103 C322.017,105.451 321.2473,104.9523 327.0033,107.6956 " fill="none" id="CO1-to-OTHERS" style="stroke:#181818;stroke-width:1.0;"/><polygon fill="#181818" points="334.225,111.1375,328.294,104.9875,325.7126,110.4038,334.225,111.1375" style="stroke:#181818;stroke-width:1.0;"/></g><!--link CO2 to ERC--><g id="link_CO2_ERC"><path d="M325.896,43.0227 C351.652,59.9528 384.2709,81.3953 410.1279,98.392 " fill="none" id="CO2-to-ERC" style="stroke:#181818;stroke-width:1.0;"/><polygon fill="#181818" points="416.813,102.7863,411.7758,95.8851,408.4801,100.8989,416.813,102.7863" style="stroke:#181818;stroke-width:1.0;"/></g><!--link CO2 to ASSETS--><g id="link_CO2_ASSETS"><path d="M348.533,43.0227 C396.953,60.0057 463.3749,83.3033 511.8269,100.2976 " fill="none" id="CO2-to-ASSETS" style="stroke:#181818;stroke-width:1.0;"/><polygon fill="#181818" points="519.376,102.9454,512.8198,97.4667,510.834,103.1285,519.376,102.9454" style="stroke:#181818;stroke-width:1.0;"/></g><!--link CO2 to TICKET--><g id="link_CO2_TICKET"><path d="M290.279,43.241 C280.716,60.2017 270.1303,78.9769 260.5883,95.8997 " fill="none" id="CO2-to-TICKET" style="stroke:#181818;stroke-width:1.0;"/><polygon fill="#181818" points="256.659,102.8683,263.2015,97.3732,257.975,94.4263,256.659,102.8683" style="stroke:#181818;stroke-width:1.0;"/></g><!--link CO2 to OTHERS--><g id="link_CO2_OTHERS"><path d="M309.538,43.241 C318.92,60.2017 329.2884,78.9453 338.6504,95.8681 " fill="none" id="CO2-to-OTHERS" style="stroke:#181818;stroke-width:1.0;"/><polygon fill="#181818" points="342.523,102.8683,341.2754,94.4159,336.0253,97.3203,342.523,102.8683" style="stroke:#181818;stroke-width:1.0;"/></g><!--SRC=[AyxEp2j8B4hCLIXAJIv9p4lFIRMnIKhDI2pBp2-oirEevb80WgByqhmKv_oYlDGY1IDJhbekk685fUJyt8BylDIyacBTvFoYL2K5XSHY1MTd1GLbfzBYpBpKuc8SgjDAyv9BClFpe3hS2El8Byb8BT8rX6hmDoHMXn5CXn4E7Kzsp7hQjV3vvjtFTy-7g7KDSaPMy69hovDTov-lM_XyGXkoCiVWODUGO6ILJxSlVTex5LDbYAUpjsi8iaezFJs8b7-8XsjGC1SNAD1qK_BBytI10Gzo08e0n2e5L46egIXYSEFSq8rpmsQS6nRZtB0P1mflLFDGHE06eeZ2J4GHH1XfX66a4LOZZR0PQOHX9000]--></g></svg>