<svg xmlns="http://www.w3.org/2000/svg" xmlns:xlink="http://www.w3.org/1999/xlink" contentStyleType="text/css" height="145px" preserveAspectRatio="none" style="width:758px;height:145px;background:#FFFFFF;" version="1.1" viewBox="0 0 758 145" width="758px" zoomAndPan="magnify"><defs/><g><!--entity CC--><g id="elem_CC"><rect fill="#FFFFCC" height="36.2969" rx="2.5" ry="2.5" style="stroke:#181818;stroke-width:0.5;" width="144" x="405" y="7"/><text fill="#000000" font-family="sans-serif" font-size="14" lengthAdjust="spacing" textLength="124" x="415" y="29.9951">components-core</text></g><!--entity CF--><g id="elem_CF"><rect fill="#FFFFCC" height="36.2969" rx="2.5" ry="2.5" style="stroke:#181818;stroke-width:0.5;" width="169" x="583.5" y="7"/><text fill="#000000" font-family="sans-serif" font-size="14" lengthAdjust="spacing" textLength="149" x="593.5" y="29.9951">components-function</text></g><!--entity CO1--><g id="elem_CO1"><rect fill="#FFFFCC" height="36.2969" rx="2.5" ry="2.5" style="stroke:#181818;stroke-width:0.5;" width="164" x="7" y="7"/><text fill="#000000" font-family="sans-serif" font-size="14" lengthAdjust="spacing" textLength="144" x="17" y="29.9951">components-other-1</text></g><!--entity CO2--><g id="elem_CO2"><rect fill="#FFFFCC" height="36.2969" rx="2.5" ry="2.5" style="stroke:#181818;stroke-width:0.5;" width="164" x="206" y="7"/><text fill="#000000" font-family="sans-serif" font-size="14" lengthAdjust="spacing" textLength="144" x="216" y="29.9951">components-other-2</text></g><!--entity ERC--><g id="elem_ERC"><rect fill="#F1F1F1" height="36.2969" rx="2.5" ry="2.5" style="stroke:#181818;stroke-width:0.5;" width="76" x="389" y="103.29"/><text fill="#000000" font-family="sans-serif" font-size="14" lengthAdjust="spacing" textLength="56" x="399" y="126.2851">&#19994;&#21153;&#31995;&#32479;</text></g><!--entity ASSETS--><g id="elem_ASSETS"><rect fill="#F1F1F1" height="36.2969" rx="2.5" ry="2.5" style="stroke:#181818;stroke-width:0.5;" width="104" x="500" y="103.29"/><text fill="#000000" font-family="sans-serif" font-size="14" lengthAdjust="spacing" textLength="84" x="510" y="126.2851">&#36164;&#20135;&#31649;&#29702;&#31995;&#32479;</text></g><!--entity TICKET--><g id="elem_TICKET"><rect fill="#F1F1F1" height="36.2969" rx="2.5" ry="2.5" style="stroke:#181818;stroke-width:0.5;" width="104" x="183" y="103.29"/><text fill="#000000" font-family="sans-serif" font-size="14" lengthAdjust="spacing" textLength="84" x="193" y="126.2851">&#24037;&#21333;&#31649;&#29702;&#31995;&#32479;</text></g><!--entity OTHERS--><g id="elem_OTHERS"><rect fill="#F1F1F1" height="36.2969" rx="2.5" ry="2.5" style="stroke:#181818;stroke-width:0.5;" width="32" x="322" y="103.29"/><text fill="#000000" font-family="sans-serif" font-size="14" lengthAdjust="spacing" textLength="12" x="332" y="126.2851">...</text></g><!--link CC to ERC--><g id="link_CC_ERC"><path d="M467.83,43.44 C458.86,60.35 449.0398,78.8932 440.0298,95.8732 " fill="none" id="CC-to-ERC" style="stroke:#181818;stroke-width:1.0;"/><polygon fill="#181818" points="436.28,102.94,442.6798,97.2794,437.3798,94.4671,436.28,102.94" style="stroke:#181818;stroke-width:1.0;"/></g><!--link CC to ASSETS--><g id="link_CC_ASSETS"><path d="M490.76,43.44 C504.2,60.35 519.5891,79.6998 533.0991,96.6798 " fill="none" id="CC-to-ASSETS" style="stroke:#181818;stroke-width:1.0;"/><polygon fill="#181818" points="538.08,102.94,535.4467,94.8119,530.7515,98.5476,538.08,102.94" style="stroke:#181818;stroke-width:1.0;"/></g><!--link CC to TICKET--><g id="link_CC_TICKET"><path d="M431.77,43.77 C388.4,60.67 330.7642,83.1258 287.4642,99.9958 " fill="none" id="CC-to-TICKET" style="stroke:#181818;stroke-width:1.0;"/><polygon fill="#181818" points="280.01,102.9,288.5533,102.7911,286.3751,97.2004,280.01,102.9" style="stroke:#181818;stroke-width:1.0;"/></g><!--link CC to OTHERS--><g id="link_CC_OTHERS"><path d="M451.18,43.66 C422.76,62.94 384.5703,88.8487 360.7503,105.0087 " fill="none" id="CC-to-OTHERS" style="stroke:#181818;stroke-width:1.0;"/><polygon fill="#181818" points="354.13,109.5,362.4345,107.4913,359.066,102.5261,354.13,109.5" style="stroke:#181818;stroke-width:1.0;"/></g><!--link CF to ERC--><g id="link_CF_ERC"><path d="M622.95,43.77 C577.59,61.52 515.7897,85.6941 472.9197,102.4741 " fill="none" id="CF-to-ERC" style="stroke:#181818;stroke-width:1.0;"/><polygon fill="#181818" points="465.47,105.39,474.0131,105.2677,471.8262,99.6805,465.47,105.39" style="stroke:#181818;stroke-width:1.0;"/></g><!--link CF to ASSETS--><g id="link_CF_ASSETS"><path d="M646.45,43.66 C625.62,60.6 600.4375,81.0635 579.6375,97.9735 " fill="none" id="CF-to-ASSETS" style="stroke:#181818;stroke-width:1.0;"/><polygon fill="#181818" points="573.43,103.02,581.5299,100.3013,577.745,95.6457,573.43,103.02" style="stroke:#181818;stroke-width:1.0;"/></g><!--link CF to TICKET--><g id="link_CF_TICKET"><path d="M583.12,43.41 C509.45,58.58 400,81.57 305,103.29 C299.27,104.6 301.0585,104.1405 295.1085,105.5705 " fill="none" id="CF-to-TICKET" style="stroke:#181818;stroke-width:1.0;"/><polygon fill="#181818" points="287.33,107.44,295.8096,108.4875,294.4075,102.6536,287.33,107.44" style="stroke:#181818;stroke-width:1.0;"/></g><!--link CF to OTHERS--><g id="link_CF_OTHERS"><path d="M583.21,42.84 C522.92,55.99 440.62,76.55 371,103.29 C365.45,105.42 366.7073,104.5101 361.5273,107.2401 " fill="none" id="CF-to-OTHERS" style="stroke:#181818;stroke-width:1.0;"/><polygon fill="#181818" points="354.45,110.97,362.926,109.8941,360.1286,104.5861,354.45,110.97" style="stroke:#181818;stroke-width:1.0;"/></g><!--link CO1 to ERC--><g id="link_CO1_ERC"><path d="M155.54,43.74 C212.78,59.03 297.51,81.99 371,103.29 C376.76,104.96 375.1827,104.4535 381.1327,106.2535 " fill="none" id="CO1-to-ERC" style="stroke:#181818;stroke-width:1.0;"/><polygon fill="#181818" points="388.79,108.57,382.0014,103.382,380.264,109.125,388.79,108.57" style="stroke:#181818;stroke-width:1.0;"/></g><!--link CO1 to ASSETS--><g id="link_CO1_ASSETS"><path d="M171.12,40.98 C251,55.71 375.66,79.46 483,103.29 C488.42,104.5 486.2874,103.9577 491.9174,105.2977 " fill="none" id="CO1-to-ASSETS" style="stroke:#181818;stroke-width:1.0;"/><polygon fill="#181818" points="499.7,107.15,492.612,102.3792,491.2228,108.2161,499.7,107.15" style="stroke:#181818;stroke-width:1.0;"/></g><!--link CO1 to TICKET--><g id="link_CO1_TICKET"><path d="M116.12,43.66 C142.34,60.6 175.1299,81.7694 201.3099,98.6794 " fill="none" id="CO1-to-TICKET" style="stroke:#181818;stroke-width:1.0;"/><polygon fill="#181818" points="208.03,103.02,202.9376,96.1594,199.6822,101.1994,208.03,103.02" style="stroke:#181818;stroke-width:1.0;"/></g><!--link CO1 to OTHERS--><g id="link_CO1_OTHERS"><path d="M143.61,43.68 C187.5,58.26 250.44,80.28 304,103.29 C309.83,105.8 308.9458,105.2005 314.4658,108.0205 " fill="none" id="CO1-to-OTHERS" style="stroke:#181818;stroke-width:1.0;"/><polygon fill="#181818" points="321.59,111.66,315.8306,105.3489,313.101,110.692,321.59,111.66" style="stroke:#181818;stroke-width:1.0;"/></g><!--link CO2 to ERC--><g id="link_CO2_ERC"><path d="M313.82,43.66 C338.79,60.6 369.7802,81.618 394.7002,98.528 " fill="none" id="CO2-to-ERC" style="stroke:#181818;stroke-width:1.0;"/><polygon fill="#181818" points="401.32,103.02,396.3847,96.0456,393.0157,101.0104,401.32,103.02" style="stroke:#181818;stroke-width:1.0;"/></g><!--link CO2 to ASSETS--><g id="link_CO2_ASSETS"><path d="M337.35,43.77 C384.66,60.67 448.1362,83.339 495.3662,100.209 " fill="none" id="CO2-to-ASSETS" style="stroke:#181818;stroke-width:1.0;"/><polygon fill="#181818" points="502.9,102.9,496.3753,97.3838,494.3571,103.0342,502.9,102.9" style="stroke:#181818;stroke-width:1.0;"/></g><!--link CO2 to TICKET--><g id="link_CO2_TICKET"><path d="M278.28,43.44 C268.78,60.35 258.2986,78.9854 248.7586,95.9654 " fill="none" id="CO2-to-TICKET" style="stroke:#181818;stroke-width:1.0;"/><polygon fill="#181818" points="244.84,102.94,251.374,97.4349,246.1431,94.496,244.84,102.94" style="stroke:#181818;stroke-width:1.0;"/></g><!--link CO2 to OTHERS--><g id="link_CO2_OTHERS"><path d="M297.17,43.44 C306.14,60.35 315.9602,78.8932 324.9702,95.8732 " fill="none" id="CO2-to-OTHERS" style="stroke:#181818;stroke-width:1.0;"/><polygon fill="#181818" points="328.72,102.94,327.6202,94.4671,322.3202,97.2794,328.72,102.94" style="stroke:#181818;stroke-width:1.0;"/></g><!--SRC=[AyxEp2j8B4hCLIXAJIv9p4lFIRMnIKhDI2pBp2-oirEevb80WgByqhmKv_oYlDGY1IDJhbekk685fUJyt8BylDIyacBTvFoYL2K5XSHY1MTd1GLbfzBYpBpKuc8SgjDAyv9BClFpe3hS2El8Byb8BT8rX6hmDoHMXn5CXn4E7Kzsp7hQjV3vvjtFTy-7g7KDSaPMy69hovDTov-lM_XyGXkoCiVWODUGO6ILJxSlVTex5LDbYAUpjsi8iaezFJs8b7-8XsjGC1SNAD1qK_BBytI10Gzo08e0n2e5L46egIXYSEFSq8rpmsQS6nRZtB0P1mflLFDGHE06eeZ2J4GHH1XfX66a4LOZZR0PQOHX9000]--></g></svg>