<svg xmlns="http://www.w3.org/2000/svg" xmlns:xlink="http://www.w3.org/1999/xlink" contentStyleType="text/css" height="145px" preserveAspectRatio="none" style="width:753px;height:145px;background:#FFFFFF;" version="1.1" viewBox="0 0 753 145" width="753px" zoomAndPan="magnify"><defs/><g><!--entity CC--><g id="elem_CC"><rect fill="#FFFFCC" height="36.2969" rx="2.5" ry="2.5" style="stroke:#181818;stroke-width:0.5;" width="142.1787" x="402.31" y="7"/><text fill="#000000" font-family="sans-serif" font-size="14" lengthAdjust="spacing" textLength="122.1787" x="412.31" y="29.9951">components-core</text></g><!--entity CF--><g id="elem_CF"><rect fill="#FFFFCC" height="36.2969" rx="2.5" ry="2.5" style="stroke:#181818;stroke-width:0.5;" width="168.7363" x="579.03" y="7"/><text fill="#000000" font-family="sans-serif" font-size="14" lengthAdjust="spacing" textLength="148.7363" x="589.03" y="29.9951">components-function</text></g><!--entity CO1--><g id="elem_CO1"><rect fill="#FFFFCC" height="36.2969" rx="2.5" ry="2.5" style="stroke:#181818;stroke-width:0.5;" width="162.8027" x="7" y="7"/><text fill="#000000" font-family="sans-serif" font-size="14" lengthAdjust="spacing" textLength="142.8027" x="17" y="29.9951">components-other-1</text></g><!--entity CO2--><g id="elem_CO2"><rect fill="#FFFFCC" height="36.2969" rx="2.5" ry="2.5" style="stroke:#181818;stroke-width:0.5;" width="162.8027" x="205" y="7"/><text fill="#000000" font-family="sans-serif" font-size="14" lengthAdjust="spacing" textLength="142.8027" x="215" y="29.9951">components-other-2</text></g><!--entity ERC--><g id="elem_ERC"><rect fill="#F1F1F1" height="36.2969" rx="2.5" ry="2.5" style="stroke:#181818;stroke-width:0.5;" width="75.9998" x="386.4" y="103.29"/><text fill="#000000" font-family="sans-serif" font-size="14" lengthAdjust="spacing" textLength="55.9998" x="396.4" y="126.2851">&#19994;&#21153;&#31995;&#32479;</text></g><!--entity ASSETS--><g id="elem_ASSETS"><rect fill="#F1F1F1" height="36.2969" rx="2.5" ry="2.5" style="stroke:#181818;stroke-width:0.5;" width="103.9996" x="497.4" y="103.29"/><text fill="#000000" font-family="sans-serif" font-size="14" lengthAdjust="spacing" textLength="83.9996" x="507.4" y="126.2851">&#36164;&#20135;&#31649;&#29702;&#31995;&#32479;</text></g><!--entity TICKET--><g id="elem_TICKET"><rect fill="#F1F1F1" height="36.2969" rx="2.5" ry="2.5" style="stroke:#181818;stroke-width:0.5;" width="103.9996" x="178.4" y="103.29"/><text fill="#000000" font-family="sans-serif" font-size="14" lengthAdjust="spacing" textLength="83.9996" x="188.4" y="126.2851">&#24037;&#21333;&#31649;&#29702;&#31995;&#32479;</text></g><!--entity OTHERS--><g id="elem_OTHERS"><rect fill="#F1F1F1" height="36.2969" rx="2.5" ry="2.5" style="stroke:#181818;stroke-width:0.5;" width="33.3506" x="317.73" y="103.29"/><text fill="#000000" font-family="sans-serif" font-size="14" lengthAdjust="spacing" textLength="13.3506" x="327.73" y="126.2851">...</text></g><!--link CC to ERC--><g id="link_CC_ERC"><path d="M464.41,43.44 C455.63,60.35 446.0077,78.8606 437.1877,95.8406 " fill="none" id="CC-to-ERC" style="stroke:#181818;stroke-width:1.0;"/><polygon fill="#181818" points="433.5,102.94,439.8499,97.2235,434.5254,94.4578,433.5,102.94" style="stroke:#181818;stroke-width:1.0;"/></g><!--link CC to ASSETS--><g id="link_CC_ASSETS"><path d="M487.34,43.44 C500.97,60.35 516.591,79.7303 530.271,96.7103 " fill="none" id="CC-to-ASSETS" style="stroke:#181818;stroke-width:1.0;"/><polygon fill="#181818" points="535.29,102.94,532.6071,94.8281,527.9348,98.5924,535.29,102.94" style="stroke:#181818;stroke-width:1.0;"/></g><!--link CC to TICKET--><g id="link_CC_TICKET"><path d="M427.98,43.77 C384.43,60.67 326.5281,83.1356 283.0581,100.0056 " fill="none" id="CC-to-TICKET" style="stroke:#181818;stroke-width:1.0;"/><polygon fill="#181818" points="275.6,102.9,284.1434,102.8024,281.9727,97.2089,275.6,102.9" style="stroke:#181818;stroke-width:1.0;"/></g><!--link CC to OTHERS--><g id="link_CC_OTHERS"><path d="M447.58,43.66 C419.48,62.73 381.9601,88.1785 357.9501,104.4685 " fill="none" id="CC-to-OTHERS" style="stroke:#181818;stroke-width:1.0;"/><polygon fill="#181818" points="351.33,108.96,359.6345,106.951,356.2658,101.9859,351.33,108.96" style="stroke:#181818;stroke-width:1.0;"/></g><!--link CF to ERC--><g id="link_CF_ERC"><path d="M618.73,43.77 C573.74,61.52 512.5115,85.6733 469.9915,102.4533 " fill="none" id="CF-to-ERC" style="stroke:#181818;stroke-width:1.0;"/><polygon fill="#181818" points="462.55,105.39,471.0928,105.2439,468.8902,99.6627,462.55,105.39" style="stroke:#181818;stroke-width:1.0;"/></g><!--link CF to ASSETS--><g id="link_CF_ASSETS"><path d="M642.23,43.66 C621.75,60.6 597.064,81.0105 576.624,97.9205 " fill="none" id="CF-to-ASSETS" style="stroke:#181818;stroke-width:1.0;"/><polygon fill="#181818" points="570.46,103.02,578.5363,100.232,574.7117,95.609,570.46,103.02" style="stroke:#181818;stroke-width:1.0;"/></g><!--link CF to TICKET--><g id="link_CF_TICKET"><path d="M578.89,43.34 C505.22,58.51 395.55,81.53 300.4,103.29 C294.67,104.6 296.4585,104.1405 290.5085,105.5705 " fill="none" id="CF-to-TICKET" style="stroke:#181818;stroke-width:1.0;"/><polygon fill="#181818" points="282.73,107.44,291.2096,108.4875,289.8075,102.6536,282.73,107.44" style="stroke:#181818;stroke-width:1.0;"/></g><!--link CF to OTHERS--><g id="link_CF_OTHERS"><path d="M578.7,43.66 C519.21,57.1 438.27,77.68 369.4,103.29 C363.44,105.51 364.298,104.8374 358.708,107.6274 " fill="none" id="CF-to-OTHERS" style="stroke:#181818;stroke-width:1.0;"/><polygon fill="#181818" points="351.55,111.2,360.0477,110.3117,357.3683,104.9432,351.55,111.2" style="stroke:#181818;stroke-width:1.0;"/></g><!--link CO1 to ERC--><g id="link_CO1_ERC"><path d="M154.46,43.78 C211.29,59.09 295.41,82.07 368.4,103.29 C374.16,104.97 372.5827,104.4635 378.5327,106.2635 " fill="none" id="CO1-to-ERC" style="stroke:#181818;stroke-width:1.0;"/><polygon fill="#181818" points="386.19,108.58,379.4014,103.392,377.664,109.135,386.19,108.58" style="stroke:#181818;stroke-width:1.0;"/></g><!--link CO1 to ASSETS--><g id="link_CO1_ASSETS"><path d="M170.25,41.17 C249.52,55.99 372.99,79.77 479.4,103.29 C485.14,104.56 483.3549,104.0982 489.3149,105.5082 " fill="none" id="CO1-to-ASSETS" style="stroke:#181818;stroke-width:1.0;"/><polygon fill="#181818" points="497.1,107.35,490.0056,102.5888,488.6242,108.4276,497.1,107.35" style="stroke:#181818;stroke-width:1.0;"/></g><!--link CO1 to TICKET--><g id="link_CO1_TICKET"><path d="M114.78,43.66 C140.28,60.6 172.046,81.6839 197.506,98.5939 " fill="none" id="CO1-to-TICKET" style="stroke:#181818;stroke-width:1.0;"/><polygon fill="#181818" points="204.17,103.02,199.1658,96.0949,195.8462,101.0929,204.17,103.02" style="stroke:#181818;stroke-width:1.0;"/></g><!--link CO1 to OTHERS--><g id="link_CO1_OTHERS"><path d="M141.02,43.66 C184.08,58.4 246.3,80.65 299.4,103.29 C305.38,105.84 304.617,105.3476 310.307,108.1576 " fill="none" id="CO1-to-OTHERS" style="stroke:#181818;stroke-width:1.0;"/><polygon fill="#181818" points="317.48,111.7,311.6354,105.4678,308.9786,110.8475,317.48,111.7" style="stroke:#181818;stroke-width:1.0;"/></g><!--link CO2 to ERC--><g id="link_CO2_ERC"><path d="M312.03,43.66 C336.82,60.6 367.5545,81.5969 392.3045,98.5069 " fill="none" id="CO2-to-ERC" style="stroke:#181818;stroke-width:1.0;"/><polygon fill="#181818" points="398.91,103.02,393.9969,96.0299,390.6121,100.984,398.91,103.02" style="stroke:#181818;stroke-width:1.0;"/></g><!--link CO2 to ASSETS--><g id="link_CO2_ASSETS"><path d="M335.56,43.77 C382.69,60.67 445.8994,83.3299 492.9494,100.1999 " fill="none" id="CO2-to-ASSETS" style="stroke:#181818;stroke-width:1.0;"/><polygon fill="#181818" points="500.48,102.9,493.962,97.3759,491.9369,103.0238,500.48,102.9" style="stroke:#181818;stroke-width:1.0;"/></g><!--link CO2 to TICKET--><g id="link_CO2_TICKET"><path d="M276.13,43.44 C266.09,60.35 254.9637,79.0808 244.8837,96.0608 " fill="none" id="CO2-to-TICKET" style="stroke:#181818;stroke-width:1.0;"/><polygon fill="#181818" points="240.8,102.94,247.4634,97.5922,242.3041,94.5294,240.8,102.94" style="stroke:#181818;stroke-width:1.0;"/></g><!--link CO2 to OTHERS--><g id="link_CO2_OTHERS"><path d="M295.21,43.44 C303.81,60.35 313.222,78.83 321.862,95.81 " fill="none" id="CO2-to-OTHERS" style="stroke:#181818;stroke-width:1.0;"/><polygon fill="#181818" points="325.49,102.94,324.5358,94.4495,319.1882,97.1705,325.49,102.94" style="stroke:#181818;stroke-width:1.0;"/></g><!--SRC=[AyxEp2j8B4hCLIXAJIv9p4lFIRMnIKhDI2pBp2-oirEevb80WgByqhmKv_oYlDGY1IDJhbekk685fUJyt8BylDIyacBTvFoYL2K5XSHY1MTd1GLbfzBYpBpKuc8SgjDAyv9BClFpe3hS2El8Byb8BT8rX6hmDoHMXn5CXn4E7Kzsp7hQjV3vvjtFTy-7g7KDSaPMy69hovDTov-lM_XyGXkoCiVWODUGO6ILJxSlVTex5LDbYAUpjsi8iaezFJs8b7-8XsjGC1SNAD1qK_BBytI10Gzo08e0n2e5L46egIXYSEFSq8rpmsQS6nRZtB0P1mflLFDGHE06eeZ2J4GHH1XfX66a4LOZZR0PQOHX9000]--></g></svg>