<svg xmlns="http://www.w3.org/2000/svg" xmlns:xlink="http://www.w3.org/1999/xlink" contentStyleType="text/css" height="338px" preserveAspectRatio="none" style="width:2443px;height:338px;background:#FFFFFF;" version="1.1" viewBox="0 0 2443 338" width="2443px" zoomAndPan="magnify"><defs/><g><!--entity Root--><g id="elem_Root"><rect fill="#F1F1F1" height="36.2969" rx="2.5" ry="2.5" style="stroke:#181818;stroke-width:0.5;" width="48.3486" x="844.6" y="7"/><text fill="#000000" font-family="sans-serif" font-size="14" lengthAdjust="spacing" textLength="28.3486" x="854.6" y="29.9951">ERC</text></g><!--entity Client--><g id="elem_Client"><rect fill="#F1F1F1" height="36.2969" rx="2.5" ry="2.5" style="stroke:#181818;stroke-width:0.5;" width="75.9998" x="876.78" y="103.3"/><text fill="#000000" font-family="sans-serif" font-size="14" lengthAdjust="spacing" textLength="55.9998" x="886.78" y="126.2951">&#23458;&#25143;&#27169;&#22359;</text></g><!--entity Position--><g id="elem_Position"><rect fill="#F1F1F1" height="36.2969" rx="2.5" ry="2.5" style="stroke:#181818;stroke-width:0.5;" width="75.9998" x="785.78" y="199.6"/><text fill="#000000" font-family="sans-serif" font-size="14" lengthAdjust="spacing" textLength="55.9998" x="795.78" y="222.5951">&#32844;&#20301;&#27169;&#22359;</text></g><!--entity COMMON_STYLE--><g id="elem_COMMON_STYLE"><rect fill="#F1F1F1" height="36.2969" rx="2.5" ry="2.5" style="stroke:#181818;stroke-width:0.5;" width="239.4401" x="276.06" y="199.6"/><text fill="#000000" font-family="sans-serif" font-size="14" lengthAdjust="spacing" textLength="219.4401" x="286.06" y="222.5951">&#20844;&#20849;&#26679;&#24335;&#25991;&#20214;(style.module.scss)</text></g><!--entity ClientForm--><g id="elem_ClientForm"><rect fill="#F1F1F1" height="36.2969" rx="2.5" ry="2.5" style="stroke:#181818;stroke-width:0.5;" width="163.4656" x="550.05" y="199.6"/><text fill="#000000" font-family="sans-serif" font-size="14" lengthAdjust="spacing" textLength="143.4656" x="560.05" y="222.5951">&#34920;&#21333;&#32452;&#20214;(ClientForm)</text></g><!--entity ClientList--><g id="elem_ClientList"><rect fill="#F1F1F1" height="36.2969" rx="2.5" ry="2.5" style="stroke:#181818;stroke-width:0.5;" width="151.9265" x="1781.81" y="199.6"/><text fill="#000000" font-family="sans-serif" font-size="14" lengthAdjust="spacing" textLength="131.9265" x="1791.81" y="222.5951">&#21015;&#34920;&#32452;&#20214;(ClientList)</text></g><!--entity ClientDetail--><g id="elem_ClientDetail"><rect fill="#F1F1F1" height="36.2969" rx="2.5" ry="2.5" style="stroke:#181818;stroke-width:0.5;" width="168.6951" x="961.43" y="199.6"/><text fill="#000000" font-family="sans-serif" font-size="14" lengthAdjust="spacing" textLength="148.6951" x="971.43" y="222.5951">&#35814;&#24773;&#32452;&#20214;(ClientDetail)</text></g><!--entity ClientBaseForm--><g id="elem_ClientBaseForm"><rect fill="#F1F1F1" height="36.2969" rx="2.5" ry="2.5" style="stroke:#181818;stroke-width:0.5;" width="225.5563" x="7" y="295.89"/><text fill="#000000" font-family="sans-serif" font-size="14" lengthAdjust="spacing" textLength="205.5563" x="17" y="318.8851">&#23458;&#25143;&#34920;&#21333;&#32452;&#20214;(ClientBaseForm)</text></g><!--entity PositionForm--><g id="elem_PositionForm"><rect fill="#F1F1F1" height="36.2969" rx="2.5" ry="2.5" style="stroke:#181818;stroke-width:0.5;" width="205.944" x="528.81" y="295.89"/><text fill="#000000" font-family="sans-serif" font-size="14" lengthAdjust="spacing" textLength="185.944" x="538.81" y="318.8851">&#32844;&#20301;&#34920;&#21333;&#32452;&#20214;(PositionForm)</text></g><!--entity ContactsForm--><g id="elem_ContactsForm"><rect fill="#F1F1F1" height="36.2969" rx="2.5" ry="2.5" style="stroke:#181818;stroke-width:0.5;" width="226.6978" x="267.43" y="295.89"/><text fill="#000000" font-family="sans-serif" font-size="14" lengthAdjust="spacing" textLength="206.6978" x="277.43" y="318.8851">&#32852;&#31995;&#20154;&#34920;&#21333;&#32452;&#20214;(ContactsForm)</text></g><!--entity ClientFilter--><g id="elem_ClientFilter"><rect fill="#F1F1F1" height="36.2969" rx="2.5" ry="2.5" style="stroke:#181818;stroke-width:0.5;" width="191.1442" x="1531.21" y="295.89"/><text fill="#000000" font-family="sans-serif" font-size="14" lengthAdjust="spacing" textLength="171.1442" x="1541.21" y="318.8851">&#21015;&#34920;&#31579;&#36873;&#32452;&#20214;(ClientFilter)</text></g><!--entity clientColumns--><g id="elem_clientColumns"><rect fill="#F1F1F1" height="36.2969" rx="2.5" ry="2.5" style="stroke:#181818;stroke-width:0.5;" width="200.2839" x="1757.64" y="295.89"/><text fill="#000000" font-family="sans-serif" font-size="14" lengthAdjust="spacing" textLength="180.2839" x="1767.64" y="318.8851">&#21015;&#34920;&#21015;&#37197;&#32622;(clientColumns)</text></g><!--entity ClientStatus--><g id="elem_ClientStatus"><rect fill="#F1F1F1" height="36.2969" rx="2.5" ry="2.5" style="stroke:#181818;stroke-width:0.5;" width="200.0651" x="1992.75" y="295.89"/><text fill="#000000" font-family="sans-serif" font-size="14" lengthAdjust="spacing" textLength="180.0651" x="2002.75" y="318.8851">&#21015;&#34920;&#29366;&#24577;&#32452;&#20214;(ClientStatus)</text></g><!--entity ClientOptions--><g id="elem_ClientOptions"><rect fill="#F1F1F1" height="36.2969" rx="2.5" ry="2.5" style="stroke:#181818;stroke-width:0.5;" width="209.4713" x="2228.04" y="295.89"/><text fill="#000000" font-family="sans-serif" font-size="14" lengthAdjust="spacing" textLength="189.4713" x="2238.04" y="318.8851">&#21015;&#34920;&#25805;&#20316;&#32452;&#20214;(ClientOptions)</text></g><!--entity ClientDetailHead--><g id="elem_ClientDetailHead"><rect fill="#F1F1F1" height="36.2969" rx="2.5" ry="2.5" style="stroke:#181818;stroke-width:0.5;" width="241.908" x="988.82" y="295.89"/><text fill="#000000" font-family="sans-serif" font-size="14" lengthAdjust="spacing" textLength="221.908" x="998.82" y="318.8851">&#35814;&#24773;Head&#32452;&#20214;(ClientDetailHead)</text></g><!--entity ClientDetailBase--><g id="elem_ClientDetailBase"><rect fill="#F1F1F1" height="36.2969" rx="2.5" ry="2.5" style="stroke:#181818;stroke-width:0.5;" width="230.7858" x="1265.39" y="295.89"/><text fill="#000000" font-family="sans-serif" font-size="14" lengthAdjust="spacing" textLength="210.7858" x="1275.39" y="318.8851">&#35814;&#24773;&#22522;&#26412;&#20449;&#24687;(ClientDetailBase)</text></g><!--entity PositionDetail--><g id="elem_PositionDetail"><rect fill="#F1F1F1" height="36.2969" rx="2.5" ry="2.5" style="stroke:#181818;stroke-width:0.5;" width="183.1736" x="770.19" y="295.89"/><text fill="#000000" font-family="sans-serif" font-size="14" lengthAdjust="spacing" textLength="163.1736" x="780.19" y="318.8851">&#32844;&#20301;&#35814;&#24773;(PositionDetail)</text></g><!--link Root to Client--><g id="link_Root_Client"><path d="M877.22,43.45 C885.46,60.35 894.4536,78.7694 902.7336,95.7494 " fill="none" id="Root-to-Client" style="stroke:#181818;stroke-width:1.0;"/><polygon fill="#181818" points="906.24,102.94,905.4301,94.4345,900.0371,97.0643,906.24,102.94" style="stroke:#181818;stroke-width:1.0;"/></g><!--link Root to Position--><g id="link_Root_Position"><path d="M864.63,43.74 C856.05,80.05 838.3296,155.1444 829.7596,191.4144 " fill="none" id="Root-to-Position" style="stroke:#181818;stroke-width:1.0;"/><polygon fill="#181818" points="827.92,199.2,832.6792,192.1042,826.84,190.7245,827.92,199.2" style="stroke:#181818;stroke-width:1.0;"/></g><!--link Client to COMMON_STYLE--><g id="link_Client_COMMON_STYLE"><path d="M876.61,129.38 C796.5,143.94 616.5012,176.6401 500.7412,197.6701 " fill="none" id="Client-to-COMMON_STYLE" style="stroke:#181818;stroke-width:1.0;"/><polygon fill="#181818" points="492.87,199.1,501.2774,200.6217,500.2049,194.7184,492.87,199.1" style="stroke:#181818;stroke-width:1.0;"/></g><!--link Client to ClientForm--><g id="link_Client_ClientForm"><path d="M876.32,135.26 C826.75,151.78 747.9195,178.0402 692.2095,196.6102 " fill="none" id="Client-to-ClientForm" style="stroke:#181818;stroke-width:1.0;"/><polygon fill="#181818" points="684.62,199.14,693.1581,199.4562,691.2608,193.7641,684.62,199.14" style="stroke:#181818;stroke-width:1.0;"/></g><!--link Client to ClientList--><g id="link_Client_ClientList"><path d="M953.21,126.29 C1094.98,140.47 1582.3597,189.2039 1773.6397,208.3339 " fill="none" id="Client-to-ClientList" style="stroke:#181818;stroke-width:1.0;"/><polygon fill="#181818" points="1781.6,209.13,1773.9383,205.3488,1773.3412,211.319,1781.6,209.13" style="stroke:#181818;stroke-width:1.0;"/></g><!--link Client to ClientDetail--><g id="link_Client_ClientDetail"><path d="M939.11,139.96 C962.64,156.9 991.596,177.7479 1015.086,194.6479 " fill="none" id="Client-to-ClientDetail" style="stroke:#181818;stroke-width:1.0;"/><polygon fill="#181818" points="1021.58,199.32,1016.8381,192.2127,1013.334,197.0831,1021.58,199.32" style="stroke:#181818;stroke-width:1.0;"/></g><!--link Position to PositionDetail--><g id="link_Position_PositionDetail"><path d="M830.75,236.04 C837.56,252.95 844.8908,271.1394 851.7308,288.1194 " fill="none" id="Position-to-PositionDetail" style="stroke:#181818;stroke-width:1.0;"/><polygon fill="#181818" points="854.72,295.54,854.5135,286.9985,848.9481,289.2404,854.72,295.54" style="stroke:#181818;stroke-width:1.0;"/></g><!--link Position to PositionForm--><g id="link_Position_PositionForm"><path d="M788.11,236.26 C753.74,253.14 709.1803,275.0224 674.7603,291.9324 " fill="none" id="Position-to-PositionForm" style="stroke:#181818;stroke-width:1.0;"/><polygon fill="#181818" points="667.58,295.46,676.0831,294.625,673.4374,289.2398,667.58,295.46" style="stroke:#181818;stroke-width:1.0;"/></g><!--link ClientForm to ClientBaseForm--><g id="link_ClientForm_ClientBaseForm"><path d="M549.8,233.84 C458.69,250.62 319.6178,276.2414 223.3178,293.9714 " fill="none" id="ClientForm-to-ClientBaseForm" style="stroke:#181818;stroke-width:1.0;"/><polygon fill="#181818" points="215.45,295.42,223.861,296.9219,222.7746,291.021,215.45,295.42" style="stroke:#181818;stroke-width:1.0;"/></g><!--link ClientForm to PositionForm--><g id="link_ClientForm_PositionForm"><path d="M631.78,236.04 C631.78,252.95 631.78,270.56 631.78,287.54 " fill="none" id="ClientForm-to-PositionForm" style="stroke:#181818;stroke-width:1.0;"/><polygon fill="#181818" points="631.78,295.54,634.78,287.54,628.78,287.54,631.78,295.54" style="stroke:#181818;stroke-width:1.0;"/></g><!--link ClientForm to ContactsForm--><g id="link_ClientForm_ContactsForm"><path d="M584.86,236.37 C539.88,253.27 479.8591,275.8168 434.9491,292.6868 " fill="none" id="ClientForm-to-ContactsForm" style="stroke:#181818;stroke-width:1.0;"/><polygon fill="#181818" points="427.46,295.5,436.004,295.4952,433.8941,289.8784,427.46,295.5" style="stroke:#181818;stroke-width:1.0;"/></g><!--link ClientList to ClientFilter--><g id="link_ClientList_ClientFilter"><path d="M1814.6,236.37 C1773.2,253.27 1718.4767,275.6067 1677.1467,292.4767 " fill="none" id="ClientList-to-ClientFilter" style="stroke:#181818;stroke-width:1.0;"/><polygon fill="#181818" points="1669.74,295.5,1678.2805,295.2543,1676.013,289.6992,1669.74,295.5" style="stroke:#181818;stroke-width:1.0;"/></g><!--link ClientList to clientColumns--><g id="link_ClientList_clientColumns"><path d="M1857.78,236.04 C1857.78,252.95 1857.78,270.56 1857.78,287.54 " fill="none" id="ClientList-to-clientColumns" style="stroke:#181818;stroke-width:1.0;"/><polygon fill="#181818" points="1857.78,295.54,1860.78,287.54,1854.78,287.54,1857.78,295.54" style="stroke:#181818;stroke-width:1.0;"/></g><!--link ClientList to ClientStatus--><g id="link_ClientList_ClientStatus"><path d="M1901.7,236.37 C1943.82,253.27 1999.6055,275.6507 2041.6455,292.5207 " fill="none" id="ClientList-to-ClientStatus" style="stroke:#181818;stroke-width:1.0;"/><polygon fill="#181818" points="2049.07,295.5,2042.7627,289.7365,2040.5282,295.3049,2049.07,295.5" style="stroke:#181818;stroke-width:1.0;"/></g><!--link ClientList to ClientOptions--><g id="link_ClientList_ClientOptions"><path d="M1934.1,233.9 C2018.67,250.69 2147.033,276.1727 2236.273,293.8827 " fill="none" id="ClientList-to-ClientOptions" style="stroke:#181818;stroke-width:1.0;"/><polygon fill="#181818" points="2244.12,295.44,2236.857,290.9401,2235.6891,296.8254,2244.12,295.44" style="stroke:#181818;stroke-width:1.0;"/></g><!--link ClientDetail to ClientDetailHead--><g id="link_ClientDetail_ClientDetailHead"><path d="M1057.52,236.04 C1068.99,252.95 1081.8759,271.9416 1093.4059,288.9216 " fill="none" id="ClientDetail-to-ClientDetailHead" style="stroke:#181818;stroke-width:1.0;"/><polygon fill="#181818" points="1097.9,295.54,1095.8878,287.2363,1090.924,290.6069,1097.9,295.54" style="stroke:#181818;stroke-width:1.0;"/></g><!--link ClientDetail to ClientDetailBase--><g id="link_ClientDetail_ClientDetailBase"><path d="M1108.4,236.37 C1168.33,253.24 1250.5493,276.3823 1310.4793,293.2523 " fill="none" id="ClientDetail-to-ClientDetailBase" style="stroke:#181818;stroke-width:1.0;"/><polygon fill="#181818" points="1318.18,295.42,1311.2922,290.3645,1309.6664,296.1401,1318.18,295.42" style="stroke:#181818;stroke-width:1.0;"/></g><!--link ClientDetail to PositionDetail--><g id="link_ClientDetail_PositionDetail"><path d="M1011.6,236.26 C978.66,253.14 936.1892,274.9008 903.1992,291.8108 " fill="none" id="ClientDetail-to-PositionDetail" style="stroke:#181818;stroke-width:1.0;"/><polygon fill="#181818" points="896.08,295.46,904.5677,294.4805,901.8308,289.1411,896.08,295.46" style="stroke:#181818;stroke-width:1.0;"/></g><!--SRC=[XLExJXj15EtdAqQke802YGvHn11H08uWJIeqsAEmOZs3TiQWA8g45In8X4N1mmKWS8g8WeSG4aWsLdvcTmn_aNrvToup5YxMsdFFkUVkVOXrXsqGZrInHykIiAykdPfQfMjaq-7Uz3J-Zd3uytYDLOhSOzJ34vFe1q8ee-F2x5AnW34HU8bpgGU2spzgxqbTjOFpLi8ekWvbWFDIt_TxJPtpYGj7Efm1Zw1n7JJkrULJy7oWJdRzxkE8aDzSEbxbbLhu9yf2Z1PYYzB2GcbnPVdpb_bPODI-2fh7_UvEf4tg-CYzQYhAte7fNYjK0Scy8wGkYTw1ozrVzRC193DK4iVLHGc2p5PPQln017rRvm0p-mWI31gPotK4Ye_w3rs_qu45S2P9MGhDNaEGfLCtfw_Rls2B7LTI3pGvHann-7njDFkzsv5op2jojrPbwL01P37-_QYswy1uMH9P4xfnWfXYTTZqUsT0NDg8kWJKAOJCOSzHKh4CF8BDeKUecIAuwAYpQ_zVMzNlG99eqcQI2BNCFawLJLrVEuWX51qg7glmBJOMtdXwb13Chp09QtJzm8nWVaZsK7mmzj2Wke6rMKpA64v85ZClugr5TZas2aXYpG7MF_yUu_EJ5RSHu28FJv4kwt12jezwx-mTZNVkVLgyLNOQxFz_]--></g></svg>