<?xml version="1.0" encoding="us-ascii" standalone="no"?><svg xmlns="http://www.w3.org/2000/svg" xmlns:xlink="http://www.w3.org/1999/xlink" contentStyleType="text/css" height="337px" preserveAspectRatio="none" style="width:2477px;height:337px;background:#FFFFFF;" version="1.1" viewBox="0 0 2477 337" width="2477px" zoomAndPan="magnify"><defs/><g><!--entity Root--><g id="elem_Root"><rect fill="#F1F1F1" height="36.2969" rx="2.5" ry="2.5" style="stroke:#181818;stroke-width:0.5;" width="49" x="854.5" y="7"/><text fill="#000000" font-family="sans-serif" font-size="14" lengthAdjust="spacing" textLength="29" x="864.5" y="29.9951">ERC</text></g><!--entity Client--><g id="elem_Client"><rect fill="#F1F1F1" height="36.2969" rx="2.5" ry="2.5" style="stroke:#181818;stroke-width:0.5;" width="76" x="887" y="103"/><text fill="#000000" font-family="sans-serif" font-size="14" lengthAdjust="spacing" textLength="56" x="897" y="125.9951">&#23458;&#25143;&#27169;&#22359;</text></g><!--entity Position--><g id="elem_Position"><rect fill="#F1F1F1" height="36.2969" rx="2.5" ry="2.5" style="stroke:#181818;stroke-width:0.5;" width="76" x="796" y="199"/><text fill="#000000" font-family="sans-serif" font-size="14" lengthAdjust="spacing" textLength="56" x="806" y="221.9951">&#32844;&#20301;&#27169;&#22359;</text></g><!--entity COMMON_STYLE--><g id="elem_COMMON_STYLE"><rect fill="#F1F1F1" height="36.2969" rx="2.5" ry="2.5" style="stroke:#181818;stroke-width:0.5;" width="241" x="280.5" y="199"/><text fill="#000000" font-family="sans-serif" font-size="14" lengthAdjust="spacing" textLength="221" x="290.5" y="221.9951">&#20844;&#20849;&#26679;&#24335;&#25991;&#20214;(style.module.scss)</text></g><!--entity ClientForm--><g id="elem_ClientForm"><rect fill="#F1F1F1" height="36.2969" rx="2.5" ry="2.5" style="stroke:#181818;stroke-width:0.5;" width="166" x="557" y="199"/><text fill="#000000" font-family="sans-serif" font-size="14" lengthAdjust="spacing" textLength="146" x="567" y="221.9951">&#34920;&#21333;&#32452;&#20214;(ClientForm)</text></g><!--entity ClientList--><g id="elem_ClientList"><rect fill="#F1F1F1" height="36.2969" rx="2.5" ry="2.5" style="stroke:#181818;stroke-width:0.5;" width="155" x="1804.5" y="199"/><text fill="#000000" font-family="sans-serif" font-size="14" lengthAdjust="spacing" textLength="135" x="1814.5" y="221.9951">&#21015;&#34920;&#32452;&#20214;(ClientList)</text></g><!--entity ClientDetail--><g id="elem_ClientDetail"><rect fill="#F1F1F1" height="36.2969" rx="2.5" ry="2.5" style="stroke:#181818;stroke-width:0.5;" width="172" x="991" y="199"/><text fill="#000000" font-family="sans-serif" font-size="14" lengthAdjust="spacing" textLength="152" x="1001" y="221.9951">&#35814;&#24773;&#32452;&#20214;(ClientDetail)</text></g><!--entity ClientBaseForm--><g id="elem_ClientBaseForm"><rect fill="#F1F1F1" height="36.2969" rx="2.5" ry="2.5" style="stroke:#181818;stroke-width:0.5;" width="228" x="7" y="295"/><text fill="#000000" font-family="sans-serif" font-size="14" lengthAdjust="spacing" textLength="208" x="17" y="317.9951">&#23458;&#25143;&#34920;&#21333;&#32452;&#20214;(ClientBaseForm)</text></g><!--entity PositionForm--><g id="elem_PositionForm"><rect fill="#F1F1F1" height="36.2969" rx="2.5" ry="2.5" style="stroke:#181818;stroke-width:0.5;" width="209" x="535.5" y="295"/><text fill="#000000" font-family="sans-serif" font-size="14" lengthAdjust="spacing" textLength="189" x="545.5" y="317.9951">&#32844;&#20301;&#34920;&#21333;&#32452;&#20214;(PositionForm)</text></g><!--entity ContactsForm--><g id="elem_ContactsForm"><rect fill="#F1F1F1" height="36.2969" rx="2.5" ry="2.5" style="stroke:#181818;stroke-width:0.5;" width="230" x="270" y="295"/><text fill="#000000" font-family="sans-serif" font-size="14" lengthAdjust="spacing" textLength="210" x="280" y="317.9951">&#32852;&#31995;&#20154;&#34920;&#21333;&#32452;&#20214;(ContactsForm)</text></g><!--entity ClientFilter--><g id="elem_ClientFilter"><rect fill="#F1F1F1" height="36.2969" rx="2.5" ry="2.5" style="stroke:#181818;stroke-width:0.5;" width="195" x="1550.5" y="295"/><text fill="#000000" font-family="sans-serif" font-size="14" lengthAdjust="spacing" textLength="175" x="1560.5" y="317.9951">&#21015;&#34920;&#31579;&#36873;&#32452;&#20214;(ClientFilter)</text></g><!--entity clientColumns--><g id="elem_clientColumns"><rect fill="#F1F1F1" height="36.2969" rx="2.5" ry="2.5" style="stroke:#181818;stroke-width:0.5;" width="202" x="1781" y="295"/><text fill="#000000" font-family="sans-serif" font-size="14" lengthAdjust="spacing" textLength="182" x="1791" y="317.9951">&#21015;&#34920;&#21015;&#37197;&#32622;(clientColumns)</text></g><!--entity ClientStatus--><g id="elem_ClientStatus"><rect fill="#F1F1F1" height="36.2969" rx="2.5" ry="2.5" style="stroke:#181818;stroke-width:0.5;" width="203" x="2018.5" y="295"/><text fill="#000000" font-family="sans-serif" font-size="14" lengthAdjust="spacing" textLength="183" x="2028.5" y="317.9951">&#21015;&#34920;&#29366;&#24577;&#32452;&#20214;(ClientStatus)</text></g><!--entity ClientOptions--><g id="elem_ClientOptions"><rect fill="#F1F1F1" height="36.2969" rx="2.5" ry="2.5" style="stroke:#181818;stroke-width:0.5;" width="214" x="2257" y="295"/><text fill="#000000" font-family="sans-serif" font-size="14" lengthAdjust="spacing" textLength="194" x="2267" y="317.9951">&#21015;&#34920;&#25805;&#20316;&#32452;&#20214;(ClientOptions)</text></g><!--entity ClientDetailHead--><g id="elem_ClientDetailHead"><rect fill="#F1F1F1" height="36.2969" rx="2.5" ry="2.5" style="stroke:#181818;stroke-width:0.5;" width="244" x="1002" y="295"/><text fill="#000000" font-family="sans-serif" font-size="14" lengthAdjust="spacing" textLength="224" x="1012" y="317.9951">&#35814;&#24773;Head&#32452;&#20214;(ClientDetailHead)</text></g><!--entity ClientDetailBase--><g id="elem_ClientDetailBase"><rect fill="#F1F1F1" height="36.2969" rx="2.5" ry="2.5" style="stroke:#181818;stroke-width:0.5;" width="234" x="1281" y="295"/><text fill="#000000" font-family="sans-serif" font-size="14" lengthAdjust="spacing" textLength="214" x="1291" y="317.9951">&#35814;&#24773;&#22522;&#26412;&#20449;&#24687;(ClientDetailBase)</text></g><!--entity PositionDetail--><g id="elem_PositionDetail"><rect fill="#F1F1F1" height="36.2969" rx="2.5" ry="2.5" style="stroke:#181818;stroke-width:0.5;" width="187" x="779.5" y="295"/><text fill="#000000" font-family="sans-serif" font-size="14" lengthAdjust="spacing" textLength="167" x="789.5" y="317.9951">&#32844;&#20301;&#35814;&#24773;(PositionDetail)</text></g><!--link Root to Client--><g id="link_Root_Client"><path d="M887.437,43.241 C895.737,60.202 904.8187,78.7592 913.0997,95.6822 " fill="none" id="Root-to-Client" style="stroke:#181818;stroke-width:1.0;"/><polygon fill="#181818" points="916.616,102.868,915.7944,94.3636,910.4051,97.0008,916.616,102.868" style="stroke:#181818;stroke-width:1.0;"/></g><!--link Root to Position--><g id="link_Root_Position"><path d="M874.927,43.196 C866.36,79.37 848.4058,155.1754 839.8748,191.1944 " fill="none" id="Root-to-Position" style="stroke:#181818;stroke-width:1.0;"/><polygon fill="#181818" points="838.031,198.979,842.794,191.8858,836.9555,190.503,838.031,198.979" style="stroke:#181818;stroke-width:1.0;"/></g><!--link Client to COMMON_STYLE--><g id="link_Client_COMMON_STYLE"><path d="M886.893,128.836 C805.524,143.433 620.5893,176.6084 503.7923,197.5604 " fill="none" id="Client-to-COMMON_STYLE" style="stroke:#181818;stroke-width:1.0;"/><polygon fill="#181818" points="495.918,198.973,504.322,200.5133,503.2626,194.6076,495.918,198.973" style="stroke:#181818;stroke-width:1.0;"/></g><!--link Client to ClientForm--><g id="link_Client_ClientForm"><path d="M886.859,134.58 C836.578,151.164 755.5194,177.8992 699.2594,196.4552 " fill="none" id="Client-to-ClientForm" style="stroke:#181818;stroke-width:1.0;"/><polygon fill="#181818" points="691.662,198.961,700.1991,199.3042,698.3197,193.6061,691.662,198.961" style="stroke:#181818;stroke-width:1.0;"/></g><!--link Client to ClientList--><g id="link_Client_ClientList"><path d="M963.106,125.743 C1105.72,139.751 1601.7883,188.477 1796.4883,207.601 " fill="none" id="Client-to-ClientList" style="stroke:#181818;stroke-width:1.0;"/><polygon fill="#181818" points="1804.45,208.383,1796.7816,204.6153,1796.1951,210.5866,1804.45,208.383" style="stroke:#181818;stroke-width:1.0;"/></g><!--link Client to ClientDetail--><g id="link_Client_ClientDetail"><path d="M952.526,139.023 C979.988,156.006 1015.1359,177.7433 1042.6159,194.7373 " fill="none" id="Client-to-ClientDetail" style="stroke:#181818;stroke-width:1.0;"/><polygon fill="#181818" points="1049.42,198.945,1044.1938,192.1858,1041.0381,197.2888,1049.42,198.945" style="stroke:#181818;stroke-width:1.0;"/></g><!--link Position to PositionDetail--><g id="link_Position_PositionDetail"><path d="M841.153,235.241 C848.19,252.2017 855.8053,270.5562 862.8263,287.479 " fill="none" id="Position-to-PositionDetail" style="stroke:#181818;stroke-width:1.0;"/><polygon fill="#181818" points="865.892,294.8683,865.5973,286.3294,860.0553,288.6287,865.892,294.8683" style="stroke:#181818;stroke-width:1.0;"/></g><!--link Position to PositionForm--><g id="link_Position_PositionForm"><path d="M798.868,235.0227 C763.818,252.0057 717.4704,274.4627 682.3974,291.457 " fill="none" id="Position-to-PositionForm" style="stroke:#181818;stroke-width:1.0;"/><polygon fill="#181818" points="675.198,294.9454,683.7055,294.1568,681.0892,288.7572,675.198,294.9454" style="stroke:#181818;stroke-width:1.0;"/></g><!--link ClientForm to ClientBaseForm--><g id="link_ClientForm_ClientBaseForm"><path d="M556.902,233.0506 C463.69,249.9329 320.6899,275.8327 223.1449,293.4998 " fill="none" id="ClientForm-to-ClientBaseForm" style="stroke:#181818;stroke-width:1.0;"/><polygon fill="#181818" points="215.273,294.9255,223.6796,296.4517,222.6103,290.5478,215.273,294.9255" style="stroke:#181818;stroke-width:1.0;"/></g><!--link ClientForm to PositionForm--><g id="link_ClientForm_PositionForm"><path d="M640,235.241 C640,252.2017 640,269.9455 640,286.8683 " fill="none" id="ClientForm-to-PositionForm" style="stroke:#181818;stroke-width:1.0;"/><polygon fill="#181818" points="640,294.8683,643,286.8683,637,286.8683,640,294.8683" style="stroke:#181818;stroke-width:1.0;"/></g><!--link ClientForm to ContactsForm--><g id="link_ClientForm_ContactsForm"><path d="M593.821,235.0227 C547.75,252.0057 484.8733,275.1841 438.7713,292.1784 " fill="none" id="ClientForm-to-ContactsForm" style="stroke:#181818;stroke-width:1.0;"/><polygon fill="#181818" points="431.265,294.9454,439.8089,294.9933,437.7336,289.3636,431.265,294.9454" style="stroke:#181818;stroke-width:1.0;"/></g><!--link ClientList to ClientFilter--><g id="link_ClientList_ClientFilter"><path d="M1839.62,235.0227 C1797.35,252.0057 1740.1833,274.9687 1697.8833,291.963 " fill="none" id="ClientList-to-ClientFilter" style="stroke:#181818;stroke-width:1.0;"/><polygon fill="#181818" points="1690.46,294.9454,1699.0017,294.7468,1696.7649,289.1793,1690.46,294.9454" style="stroke:#181818;stroke-width:1.0;"/></g><!--link ClientList to clientColumns--><g id="link_ClientList_clientColumns"><path d="M1882,235.241 C1882,252.2017 1882,269.9455 1882,286.8683 " fill="none" id="ClientList-to-clientColumns" style="stroke:#181818;stroke-width:1.0;"/><polygon fill="#181818" points="1882,294.8683,1885,286.8683,1879,286.8683,1882,294.8683" style="stroke:#181818;stroke-width:1.0;"/></g><!--link ClientList to ClientStatus--><g id="link_ClientList_ClientStatus"><path d="M1925.1,235.0227 C1968.1,252.0057 2026.3493,275.0125 2069.3793,292.0068 " fill="none" id="ClientList-to-ClientStatus" style="stroke:#181818;stroke-width:1.0;"/><polygon fill="#181818" points="2076.82,294.9454,2070.4813,289.2165,2068.2773,294.797,2076.82,294.9454" style="stroke:#181818;stroke-width:1.0;"/></g><!--link ClientList to ClientOptions--><g id="link_ClientList_ClientOptions"><path d="M1959.71,233.1549 C2046.38,250.058 2178.3979,275.8044 2268.7979,293.4339 " fill="none" id="ClientList-to-ClientOptions" style="stroke:#181818;stroke-width:1.0;"/><polygon fill="#181818" points="2276.65,294.9652,2269.3722,290.4894,2268.2237,296.3784,2276.65,294.9652" style="stroke:#181818;stroke-width:1.0;"/></g><!--link ClientDetail to ClientDetailHead--><g id="link_ClientDetail_ClientDetailHead"><path d="M1085.62,235.241 C1094.1,252.2017 1103.3928,270.7898 1111.8528,287.7126 " fill="none" id="ClientDetail-to-ClientDetailHead" style="stroke:#181818;stroke-width:1.0;"/><polygon fill="#181818" points="1115.43,294.8683,1114.5361,286.3712,1109.1694,289.0541,1115.43,294.8683" style="stroke:#181818;stroke-width:1.0;"/></g><!--link ClientDetail to ClientDetailBase--><g id="link_ClientDetail_ClientDetailBase"><path d="M1135.13,235.0227 C1193.13,252.0057 1274.0525,275.7027 1332.0825,292.697 " fill="none" id="ClientDetail-to-ClientDetailBase" style="stroke:#181818;stroke-width:1.0;"/><polygon fill="#181818" points="1339.76,294.9454,1332.9256,289.8179,1331.2393,295.5761,1339.76,294.9454" style="stroke:#181818;stroke-width:1.0;"/></g><!--link ClientDetail to PositionDetail--><g id="link_ClientDetail_PositionDetail"><path d="M1040.06,235.0227 C1003.2,252.0057 954.1588,274.6031 917.2778,291.5974 " fill="none" id="ClientDetail-to-PositionDetail" style="stroke:#181818;stroke-width:1.0;"/><polygon fill="#181818" points="910.012,294.9454,918.5332,294.3221,916.0223,288.8728,910.012,294.9454" style="stroke:#181818;stroke-width:1.0;"/></g><!--SRC=[XLExJXj15EtdAqQke802YGvHn11H08uWJIeqsAEmOZs3TiQWA8g45In8X4N1mmKWS8g8WeSG4aWsLdvcTmn_aNrvToup5YxMsdFFkUVkVOXrXsqGZrInHykIiAykdPfQfMjaq-7Uz3J-Zd3uytYDLOhSOzJ34vFe1q8ee-F2x5AnW34HU8bpgGU2spzgxqbTjOFpLi8ekWvbWFDIt_TxJPtpYGj7Efm1Zw1n7JJkrULJy7oWJdRzxkE8aDzSEbxbbLhu9yf2Z1PYYzB2GcbnPVdpb_bPODI-2fh7_UvEf4tg-CYzQYhAte7fNYjK0Scy8wGkYTw1ozrVzRC193DK4iVLHGc2p5PPQln017rRvm0p-mWI31gPotK4Ye_w3rs_qu45S2P9MGhDNaEGfLCtfw_Rls2B7LTI3pGvHann-7njDFkzsv5op2jojrPbwL01P37-_QYswy1uMH9P4xfnWfXYTTZqUsT0NDg8kWJKAOJCOSzHKh4CF8BDeKUecIAuwAYpQ_zVMzNlG99eqcQI2BNCFawLJLrVEuWX51qg7glmBJOMtdXwb13Chp09QtJzm8nWVaZsK7mmzj2Wke6rMKpA64v85ZClugr5TZas2aXYpG7MF_yUu_EJ5RSHu28FJv4kwt12jezwx-mTZNVkVLgyLNOQxFz_]--></g></svg>