<svg xmlns="http://www.w3.org/2000/svg" xmlns:xlink="http://www.w3.org/1999/xlink" contentStyleType="text/css" height="338px" preserveAspectRatio="none" style="width:2410px;height:338px;background:#FFFFFF;" version="1.1" viewBox="0 0 2410 338" width="2410px" zoomAndPan="magnify"><defs/><g><!--entity Root--><g id="elem_Root"><rect fill="#F1F1F1" height="36.2969" rx="2.5" ry="2.5" style="stroke:#181818;stroke-width:0.5;" width="49" x="837" y="7"/><text fill="#000000" font-family="sans-serif" font-size="14" lengthAdjust="spacing" textLength="29" x="847" y="29.9951">ERC</text></g><!--entity Client--><g id="elem_Client"><rect fill="#F1F1F1" height="36.2969" rx="2.5" ry="2.5" style="stroke:#181818;stroke-width:0.5;" width="76" x="869.5" y="103.3"/><text fill="#000000" font-family="sans-serif" font-size="14" lengthAdjust="spacing" textLength="56" x="879.5" y="126.2951">&#23458;&#25143;&#27169;&#22359;</text></g><!--entity Position--><g id="elem_Position"><rect fill="#F1F1F1" height="36.2969" rx="2.5" ry="2.5" style="stroke:#181818;stroke-width:0.5;" width="76" x="778.5" y="199.6"/><text fill="#000000" font-family="sans-serif" font-size="14" lengthAdjust="spacing" textLength="56" x="788.5" y="222.5951">&#32844;&#20301;&#27169;&#22359;</text></g><!--entity COMMON_STYLE--><g id="elem_COMMON_STYLE"><rect fill="#F1F1F1" height="36.2969" rx="2.5" ry="2.5" style="stroke:#181818;stroke-width:0.5;" width="238" x="273.5" y="199.6"/><text fill="#000000" font-family="sans-serif" font-size="14" lengthAdjust="spacing" textLength="218" x="283.5" y="222.5951">&#20844;&#20849;&#26679;&#24335;&#25991;&#20214;(style.module.scss)</text></g><!--entity ClientForm--><g id="elem_ClientForm"><rect fill="#F1F1F1" height="36.2969" rx="2.5" ry="2.5" style="stroke:#181818;stroke-width:0.5;" width="160" x="546.5" y="199.6"/><text fill="#000000" font-family="sans-serif" font-size="14" lengthAdjust="spacing" textLength="140" x="556.5" y="222.5951">&#34920;&#21333;&#32452;&#20214;(ClientForm)</text></g><!--entity ClientList--><g id="elem_ClientList"><rect fill="#F1F1F1" height="36.2969" rx="2.5" ry="2.5" style="stroke:#181818;stroke-width:0.5;" width="148" x="1757.5" y="199.6"/><text fill="#000000" font-family="sans-serif" font-size="14" lengthAdjust="spacing" textLength="128" x="1767.5" y="222.5951">&#21015;&#34920;&#32452;&#20214;(ClientList)</text></g><!--entity ClientDetail--><g id="elem_ClientDetail"><rect fill="#F1F1F1" height="36.2969" rx="2.5" ry="2.5" style="stroke:#181818;stroke-width:0.5;" width="164" x="952.5" y="199.6"/><text fill="#000000" font-family="sans-serif" font-size="14" lengthAdjust="spacing" textLength="144" x="962.5" y="222.5951">&#35814;&#24773;&#32452;&#20214;(ClientDetail)</text></g><!--entity ClientBaseForm--><g id="elem_ClientBaseForm"><rect fill="#F1F1F1" height="36.2969" rx="2.5" ry="2.5" style="stroke:#181818;stroke-width:0.5;" width="223" x="7" y="295.89"/><text fill="#000000" font-family="sans-serif" font-size="14" lengthAdjust="spacing" textLength="203" x="17" y="318.8851">&#23458;&#25143;&#34920;&#21333;&#32452;&#20214;(ClientBaseForm)</text></g><!--entity PositionForm--><g id="elem_PositionForm"><rect fill="#F1F1F1" height="36.2969" rx="2.5" ry="2.5" style="stroke:#181818;stroke-width:0.5;" width="204" x="524.5" y="295.89"/><text fill="#000000" font-family="sans-serif" font-size="14" lengthAdjust="spacing" textLength="184" x="534.5" y="318.8851">&#32844;&#20301;&#34920;&#21333;&#32452;&#20214;(PositionForm)</text></g><!--entity ContactsForm--><g id="elem_ContactsForm"><rect fill="#F1F1F1" height="36.2969" rx="2.5" ry="2.5" style="stroke:#181818;stroke-width:0.5;" width="225" x="265" y="295.89"/><text fill="#000000" font-family="sans-serif" font-size="14" lengthAdjust="spacing" textLength="205" x="275" y="318.8851">&#32852;&#31995;&#20154;&#34920;&#21333;&#32452;&#20214;(ContactsForm)</text></g><!--entity ClientFilter--><g id="elem_ClientFilter"><rect fill="#F1F1F1" height="36.2969" rx="2.5" ry="2.5" style="stroke:#181818;stroke-width:0.5;" width="186" x="1511.5" y="295.89"/><text fill="#000000" font-family="sans-serif" font-size="14" lengthAdjust="spacing" textLength="166" x="1521.5" y="318.8851">&#21015;&#34920;&#31579;&#36873;&#32452;&#20214;(ClientFilter)</text></g><!--entity clientColumns--><g id="elem_clientColumns"><rect fill="#F1F1F1" height="36.2969" rx="2.5" ry="2.5" style="stroke:#181818;stroke-width:0.5;" width="198" x="1732.5" y="295.89"/><text fill="#000000" font-family="sans-serif" font-size="14" lengthAdjust="spacing" textLength="178" x="1742.5" y="318.8851">&#21015;&#34920;&#21015;&#37197;&#32622;(clientColumns)</text></g><!--entity ClientStatus--><g id="elem_ClientStatus"><rect fill="#F1F1F1" height="36.2969" rx="2.5" ry="2.5" style="stroke:#181818;stroke-width:0.5;" width="197" x="1965" y="295.89"/><text fill="#000000" font-family="sans-serif" font-size="14" lengthAdjust="spacing" textLength="177" x="1975" y="318.8851">&#21015;&#34920;&#29366;&#24577;&#32452;&#20214;(ClientStatus)</text></g><!--entity ClientOptions--><g id="elem_ClientOptions"><rect fill="#F1F1F1" height="36.2969" rx="2.5" ry="2.5" style="stroke:#181818;stroke-width:0.5;" width="207" x="2197" y="295.89"/><text fill="#000000" font-family="sans-serif" font-size="14" lengthAdjust="spacing" textLength="187" x="2207" y="318.8851">&#21015;&#34920;&#25805;&#20316;&#32452;&#20214;(ClientOptions)</text></g><!--entity ClientDetailHead--><g id="elem_ClientDetailHead"><rect fill="#F1F1F1" height="36.2969" rx="2.5" ry="2.5" style="stroke:#181818;stroke-width:0.5;" width="236" x="978.5" y="295.89"/><text fill="#000000" font-family="sans-serif" font-size="14" lengthAdjust="spacing" textLength="216" x="988.5" y="318.8851">&#35814;&#24773;Head&#32452;&#20214;(ClientDetailHead)</text></g><!--entity ClientDetailBase--><g id="elem_ClientDetailBase"><rect fill="#F1F1F1" height="36.2969" rx="2.5" ry="2.5" style="stroke:#181818;stroke-width:0.5;" width="227" x="1250" y="295.89"/><text fill="#000000" font-family="sans-serif" font-size="14" lengthAdjust="spacing" textLength="207" x="1260" y="318.8851">&#35814;&#24773;&#22522;&#26412;&#20449;&#24687;(ClientDetailBase)</text></g><!--entity PositionDetail--><g id="elem_PositionDetail"><rect fill="#F1F1F1" height="36.2969" rx="2.5" ry="2.5" style="stroke:#181818;stroke-width:0.5;" width="180" x="763.5" y="295.89"/><text fill="#000000" font-family="sans-serif" font-size="14" lengthAdjust="spacing" textLength="160" x="773.5" y="318.8851">&#32844;&#20301;&#35814;&#24773;(PositionDetail)</text></g><!--link Root to Client--><g id="link_Root_Client"><path d="M869.94,43.45 C878.19,60.35 887.1736,78.7694 895.4536,95.7494 " fill="none" id="Root-to-Client" style="stroke:#181818;stroke-width:1.0;"/><polygon fill="#181818" points="898.96,102.94,898.1501,94.4345,892.7571,97.0643,898.96,102.94" style="stroke:#181818;stroke-width:1.0;"/></g><!--link Root to Position--><g id="link_Root_Position"><path d="M857.35,43.74 C848.77,80.05 831.0496,155.1444 822.4796,191.4144 " fill="none" id="Root-to-Position" style="stroke:#181818;stroke-width:1.0;"/><polygon fill="#181818" points="820.64,199.2,825.3992,192.1042,819.56,190.7245,820.64,199.2" style="stroke:#181818;stroke-width:1.0;"/></g><!--link Client to COMMON_STYLE--><g id="link_Client_COMMON_STYLE"><path d="M869.21,129.46 C789.43,144.07 611.1692,176.7093 496.5192,197.6993 " fill="none" id="Client-to-COMMON_STYLE" style="stroke:#181818;stroke-width:1.0;"/><polygon fill="#181818" points="488.65,199.14,497.0595,200.6503,495.979,194.7484,488.65,199.14" style="stroke:#181818;stroke-width:1.0;"/></g><!--link Client to ClientForm--><g id="link_Client_ClientForm"><path d="M869.02,135.36 C819.72,151.91 741.6341,178.1041 686.4341,196.6341 " fill="none" id="Client-to-ClientForm" style="stroke:#181818;stroke-width:1.0;"/><polygon fill="#181818" points="678.85,199.18,687.3888,199.4781,685.4794,193.7901,678.85,199.18" style="stroke:#181818;stroke-width:1.0;"/></g><!--link Client to ClientList--><g id="link_Client_ClientList"><path d="M945.74,126.35 C1085.46,140.61 1562.0013,189.2378 1749.0513,208.3278 " fill="none" id="Client-to-ClientList" style="stroke:#181818;stroke-width:1.0;"/><polygon fill="#181818" points="1757.01,209.14,1749.3559,205.3433,1748.7467,211.3123,1757.01,209.14" style="stroke:#181818;stroke-width:1.0;"/></g><!--link Client to ClientDetail--><g id="link_Client_ClientDetail"><path d="M931.09,139.96 C953.9,156.9 981.846,177.6521 1004.616,194.5521 " fill="none" id="Client-to-ClientDetail" style="stroke:#181818;stroke-width:1.0;"/><polygon fill="#181818" points="1011.04,199.32,1006.404,192.1431,1002.8281,196.9611,1011.04,199.32" style="stroke:#181818;stroke-width:1.0;"/></g><!--link Position to PositionDetail--><g id="link_Position_PositionDetail"><path d="M823.29,236.04 C829.92,252.95 837.0489,271.1124 843.7089,288.0924 " fill="none" id="Position-to-PositionDetail" style="stroke:#181818;stroke-width:1.0;"/><polygon fill="#181818" points="846.63,295.54,846.5017,286.997,840.916,289.1878,846.63,295.54" style="stroke:#181818;stroke-width:1.0;"/></g><!--link Position to PositionForm--><g id="link_Position_PositionForm"><path d="M781.21,236.26 C747.19,253.14 703.1555,274.9925 669.0955,291.9025 " fill="none" id="Position-to-PositionForm" style="stroke:#181818;stroke-width:1.0;"/><polygon fill="#181818" points="661.93,295.46,670.4295,294.5896,667.7614,289.2154,661.93,295.46" style="stroke:#181818;stroke-width:1.0;"/></g><!--link ClientForm to ClientBaseForm--><g id="link_ClientForm_ClientBaseForm"><path d="M546.01,233.69 C455.64,250.46 317.0156,276.19 221.1756,293.98 " fill="none" id="ClientForm-to-ClientBaseForm" style="stroke:#181818;stroke-width:1.0;"/><polygon fill="#181818" points="213.31,295.44,221.7232,296.9296,220.6281,291.0303,213.31,295.44" style="stroke:#181818;stroke-width:1.0;"/></g><!--link ClientForm to PositionForm--><g id="link_ClientForm_PositionForm"><path d="M626.5,236.04 C626.5,252.95 626.5,270.56 626.5,287.54 " fill="none" id="ClientForm-to-PositionForm" style="stroke:#181818;stroke-width:1.0;"/><polygon fill="#181818" points="626.5,295.54,629.5,287.54,623.5,287.54,626.5,295.54" style="stroke:#181818;stroke-width:1.0;"/></g><!--link ClientForm to ContactsForm--><g id="link_ClientForm_ContactsForm"><path d="M579.96,236.37 C535.34,253.27 475.8416,275.7969 431.2916,292.6669 " fill="none" id="ClientForm-to-ContactsForm" style="stroke:#181818;stroke-width:1.0;"/><polygon fill="#181818" points="423.81,295.5,432.354,295.4725,430.2291,289.8613,423.81,295.5" style="stroke:#181818;stroke-width:1.0;"/></g><!--link ClientList to ClientFilter--><g id="link_ClientList_ClientFilter"><path d="M1789.07,236.37 C1748.39,253.27 1694.7179,275.561 1654.1079,292.431 " fill="none" id="ClientList-to-ClientFilter" style="stroke:#181818;stroke-width:1.0;"/><polygon fill="#181818" points="1646.72,295.5,1655.2588,295.2014,1652.957,289.6605,1646.72,295.5" style="stroke:#181818;stroke-width:1.0;"/></g><!--link ClientList to clientColumns--><g id="link_ClientList_clientColumns"><path d="M1831.5,236.04 C1831.5,252.95 1831.5,270.56 1831.5,287.54 " fill="none" id="ClientList-to-clientColumns" style="stroke:#181818;stroke-width:1.0;"/><polygon fill="#181818" points="1831.5,295.54,1834.5,287.54,1828.5,287.54,1831.5,295.54" style="stroke:#181818;stroke-width:1.0;"/></g><!--link ClientList to ClientStatus--><g id="link_ClientList_ClientStatus"><path d="M1874.87,236.37 C1916.44,253.27 1971.4287,275.618 2012.9387,292.488 " fill="none" id="ClientList-to-ClientStatus" style="stroke:#181818;stroke-width:1.0;"/><polygon fill="#181818" points="2020.35,295.5,2014.0682,289.7087,2011.8092,295.2672,2020.35,295.5" style="stroke:#181818;stroke-width:1.0;"/></g><!--link ClientList to ClientOptions--><g id="link_ClientList_ClientOptions"><path d="M1905.81,233.69 C1989.24,250.46 2116.647,276.0731 2205.127,293.8631 " fill="none" id="ClientList-to-ClientOptions" style="stroke:#181818;stroke-width:1.0;"/><polygon fill="#181818" points="2212.97,295.44,2205.7183,290.9219,2204.5356,296.8042,2212.97,295.44" style="stroke:#181818;stroke-width:1.0;"/></g><!--link ClientDetail to ClientDetailHead--><g id="link_ClientDetail_ClientDetailHead"><path d="M1045.87,236.04 C1056.99,252.95 1069.4361,271.8747 1080.5961,288.8547 " fill="none" id="ClientDetail-to-ClientDetailHead" style="stroke:#181818;stroke-width:1.0;"/><polygon fill="#181818" points="1084.99,295.54,1083.1031,287.207,1078.0891,290.5024,1084.99,295.54" style="stroke:#181818;stroke-width:1.0;"/></g><!--link ClientDetail to ClientDetailBase--><g id="link_ClientDetail_ClientDetailBase"><path d="M1096,236.37 C1154.86,253.24 1235.4796,276.3458 1294.3396,293.2158 " fill="none" id="ClientDetail-to-ClientDetailBase" style="stroke:#181818;stroke-width:1.0;"/><polygon fill="#181818" points="1302.03,295.42,1295.1662,290.332,1293.5131,296.0997,1302.03,295.42" style="stroke:#181818;stroke-width:1.0;"/></g><!--link ClientDetail to PositionDetail--><g id="link_ClientDetail_PositionDetail"><path d="M1000.88,236.26 C968.47,253.14 926.7945,274.853 894.3445,291.763 " fill="none" id="ClientDetail-to-PositionDetail" style="stroke:#181818;stroke-width:1.0;"/><polygon fill="#181818" points="887.25,295.46,895.7309,294.4234,892.9581,289.1025,887.25,295.46" style="stroke:#181818;stroke-width:1.0;"/></g><!--SRC=[XLExJXj15EtdAqQke802YGvHn11H08uWJIeqsAEmOZs3TiQWA8g45In8X4N1mmKWS8g8WeSG4aWsLdvcTmn_aNrvToup5YxMsdFFkUVkVOXrXsqGZrInHykIiAykdPfQfMjaq-7Uz3J-Zd3uytYDLOhSOzJ34vFe1q8ee-F2x5AnW34HU8bpgGU2spzgxqbTjOFpLi8ekWvbWFDIt_TxJPtpYGj7Efm1Zw1n7JJkrULJy7oWJdRzxkE8aDzSEbxbbLhu9yf2Z1PYYzB2GcbnPVdpb_bPODI-2fh7_UvEf4tg-CYzQYhAte7fNYjK0Scy8wGkYTw1ozrVzRC193DK4iVLHGc2p5PPQln017rRvm0p-mWI31gPotK4Ye_w3rs_qu45S2P9MGhDNaEGfLCtfw_Rls2B7LTI3pGvHann-7njDFkzsv5op2jojrPbwL01P37-_QYswy1uMH9P4xfnWfXYTTZqUsT0NDg8kWJKAOJCOSzHKh4CF8BDeKUecIAuwAYpQ_zVMzNlG99eqcQI2BNCFawLJLrVEuWX51qg7glmBJOMtdXwb13Chp09QtJzm8nWVaZsK7mmzj2Wke6rMKpA64v85ZClugr5TZas2aXYpG7MF_yUu_EJ5RSHu28FJv4kwt12jezwx-mTZNVkVLgyLNOQxFz_]--></g></svg>