<?xml version="1.0" encoding="us-ascii" standalone="no"?><svg xmlns="http://www.w3.org/2000/svg" xmlns:xlink="http://www.w3.org/1999/xlink" contentStyleType="text/css" height="1563px" preserveAspectRatio="none" style="width:373px;height:1563px;background:#FFFFFF;" version="1.1" viewBox="0 0 373 1563" width="373px" zoomAndPan="magnify"><defs/><g><text fill="#000000" font-family="sans-serif" font-size="14" font-weight="bold" lengthAdjust="spacing" textLength="330" x="20" y="32.9951">All EBNF elements managed by PlantUML</text><path d="M44,52.2969 L44,77.4297 L113,77.4297 L113,62.2969 L103,52.2969 L44,52.2969 " fill="#FEFFDD" style="stroke:#181818;stroke-width:0.5;"/><path d="M103,52.2969 L103,62.2969 L113,62.2969 L103,52.2969 " fill="#FEFFDD" style="stroke:#181818;stroke-width:0.5;"/><text fill="#000000" font-family="sans-serif" font-size="13" lengthAdjust="spacing" textLength="40" x="54" y="69.3638">Nodes</text><text fill="#000000" font-family="sans-serif" font-size="14" font-weight="bold" lengthAdjust="spacing" textLength="57" x="44" y="105.4248">litteral</text><rect fill="none" height="26.2969" style="stroke:#181818;stroke-width:0.5;" width="18" x="74" y="118.7266"/><text fill="#000000" font-family="sans-serif" font-size="14" lengthAdjust="spacing" textLength="8" x="79" y="136.7217">a</text><ellipse cx="48" cy="131.875" fill="none" rx="4" ry="4" style="stroke:#181818;stroke-width:2.0;"/><ellipse cx="122" cy="131.875" fill="#181818" rx="4" ry="4" style="stroke:#181818;stroke-width:1.0;"/><line style="stroke:#181818;stroke-width:1.5;" x1="52" x2="74" y1="131.875" y2="131.875"/><line style="stroke:#181818;stroke-width:1.5;" x1="92" x2="118" y1="131.875" y2="131.875"/><path d="M103,131.875 L103,128.875 L109,131.875 L103,134.875 L103,131.875 " fill="#181818" style="stroke:#181818;stroke-width:1.5;"/><text fill="#000000" font-family="sans-serif" font-size="14" font-weight="bold" lengthAdjust="spacing" textLength="57" x="44" y="173.0186">special</text><rect fill="none" height="26.2969" style="stroke:#181818;stroke-width:1.0;stroke-dasharray:5.0,5.0;" width="26" x="74" y="186.3203"/><text fill="#000000" font-family="sans-serif" font-size="14" lengthAdjust="spacing" textLength="8" x="83" y="204.3154">a</text><ellipse cx="48" cy="199.4688" fill="none" rx="4" ry="4" style="stroke:#181818;stroke-width:2.0;"/><ellipse cx="130" cy="199.4688" fill="#181818" rx="4" ry="4" style="stroke:#181818;stroke-width:1.0;"/><line style="stroke:#181818;stroke-width:1.5;" x1="52" x2="74" y1="199.4688" y2="199.4688"/><line style="stroke:#181818;stroke-width:1.5;" x1="100" x2="126" y1="199.4688" y2="199.4688"/><path d="M111,199.4688 L111,196.4688 L117,199.4688 L111,202.4688 L111,199.4688 " fill="#181818" style="stroke:#181818;stroke-width:1.5;"/><text fill="#000000" font-family="sans-serif" font-size="14" font-weight="bold" lengthAdjust="spacing" textLength="31" x="44" y="240.6123">rule</text><rect fill="#F1F1F1" height="26.2969" rx="5" ry="5" style="stroke:#181818;stroke-width:1.5;" width="18" x="74" y="253.9141"/><text fill="#000000" font-family="sans-serif" font-size="14" lengthAdjust="spacing" textLength="8" x="79" y="271.9092">a</text><ellipse cx="48" cy="267.0625" fill="none" rx="4" ry="4" style="stroke:#181818;stroke-width:2.0;"/><ellipse cx="122" cy="267.0625" fill="#181818" rx="4" ry="4" style="stroke:#181818;stroke-width:1.0;"/><line style="stroke:#181818;stroke-width:1.5;" x1="52" x2="74" y1="267.0625" y2="267.0625"/><line style="stroke:#181818;stroke-width:1.5;" x1="92" x2="118" y1="267.0625" y2="267.0625"/><path d="M103,267.0625 L103,264.0625 L109,267.0625 L103,270.0625 L103,267.0625 " fill="#181818" style="stroke:#181818;stroke-width:1.5;"/><path d="M44,300.2109 L44,325.3438 L112,325.3438 L112,310.2109 L102,300.2109 L44,300.2109 " fill="#FEFFDD" style="stroke:#181818;stroke-width:0.5;"/><path d="M102,300.2109 L102,310.2109 L112,310.2109 L102,300.2109 " fill="#FEFFDD" style="stroke:#181818;stroke-width:0.5;"/><text fill="#000000" font-family="sans-serif" font-size="13" lengthAdjust="spacing" textLength="39" x="54" y="317.2778">Edges</text><text fill="#000000" font-family="sans-serif" font-size="14" font-weight="bold" lengthAdjust="spacing" textLength="67" x="44" y="353.3389">required</text><rect fill="#F1F1F1" height="26.2969" rx="5" ry="5" style="stroke:#181818;stroke-width:1.5;" width="18" x="74" y="366.6406"/><text fill="#000000" font-family="sans-serif" font-size="14" lengthAdjust="spacing" textLength="8" x="79" y="384.6357">a</text><ellipse cx="48" cy="379.7891" fill="none" rx="4" ry="4" style="stroke:#181818;stroke-width:2.0;"/><ellipse cx="122" cy="379.7891" fill="#181818" rx="4" ry="4" style="stroke:#181818;stroke-width:1.0;"/><line style="stroke:#181818;stroke-width:1.5;" x1="52" x2="74" y1="379.7891" y2="379.7891"/><line style="stroke:#181818;stroke-width:1.5;" x1="92" x2="118" y1="379.7891" y2="379.7891"/><path d="M103,379.7891 L103,376.7891 L109,379.7891 L103,382.7891 L103,379.7891 " fill="#181818" style="stroke:#181818;stroke-width:1.5;"/><text fill="#000000" font-family="sans-serif" font-size="14" font-weight="bold" lengthAdjust="spacing" textLength="68" x="44" y="420.9326">optional</text><path d="M82,455.3828 C82,461.3828 80,463.3828 74,463.3828 " fill="none" style="stroke:#181818;stroke-width:1.5;"/><line style="stroke:#181818;stroke-width:1.5;" x1="82" x2="82" y1="447.2344" y2="455.3828"/><path d="M82,447.2344 C82,441.2344 84,439.2344 90,439.2344 " fill="none" style="stroke:#181818;stroke-width:1.5;"/><line style="stroke:#181818;stroke-width:1.5;" x1="90" x2="106" y1="439.2344" y2="439.2344"/><path d="M114,455.3828 C114,461.3828 116,463.3828 122,463.3828 " fill="none" style="stroke:#181818;stroke-width:1.5;"/><line style="stroke:#181818;stroke-width:1.5;" x1="114" x2="114" y1="447.2344" y2="455.3828"/><path d="M106,439.2344 C112,439.2344 114,441.2344 114,447.2344 " fill="none" style="stroke:#181818;stroke-width:1.5;"/><line style="stroke:#181818;stroke-width:1.5;" x1="74" x2="89" y1="463.3828" y2="463.3828"/><line style="stroke:#181818;stroke-width:1.5;" x1="107" x2="122" y1="463.3828" y2="463.3828"/><rect fill="#F1F1F1" height="26.2969" rx="5" ry="5" style="stroke:#181818;stroke-width:1.5;" width="18" x="89" y="450.2344"/><text fill="#000000" font-family="sans-serif" font-size="14" lengthAdjust="spacing" textLength="8" x="94" y="468.2295">a</text><ellipse cx="48" cy="463.3828" fill="none" rx="4" ry="4" style="stroke:#181818;stroke-width:2.0;"/><ellipse cx="152" cy="463.3828" fill="#181818" rx="4" ry="4" style="stroke:#181818;stroke-width:1.0;"/><line style="stroke:#181818;stroke-width:1.5;" x1="52" x2="74" y1="463.3828" y2="463.3828"/><line style="stroke:#181818;stroke-width:1.5;" x1="122" x2="148" y1="463.3828" y2="463.3828"/><path d="M133,463.3828 L133,460.3828 L139,463.3828 L133,466.3828 L133,463.3828 " fill="#181818" style="stroke:#181818;stroke-width:1.5;"/><text fill="#000000" font-family="sans-serif" font-size="14" font-weight="bold" lengthAdjust="spacing" textLength="107" x="44" y="504.5264">zero_or_more</text><path d="M82,550.9766 C82,556.9766 80,558.9766 74,558.9766 " fill="none" style="stroke:#181818;stroke-width:1.5;"/><line style="stroke:#181818;stroke-width:1.5;" x1="82" x2="82" y1="530.8281" y2="550.9766"/><path d="M82,530.8281 C82,524.8281 84,522.8281 90,522.8281 " fill="none" style="stroke:#181818;stroke-width:1.5;"/><line style="stroke:#181818;stroke-width:1.5;" x1="90" x2="136" y1="522.8281" y2="522.8281"/><path d="M106.4,522.8281 L106.4,519.8281 L112.4,522.8281 L106.4,525.8281 L106.4,522.8281 " fill="#181818" style="stroke:#181818;stroke-width:1.5;"/><path d="M144,550.9766 C144,556.9766 146,558.9766 152,558.9766 " fill="none" style="stroke:#181818;stroke-width:1.5;"/><line style="stroke:#181818;stroke-width:1.5;" x1="144" x2="144" y1="530.8281" y2="550.9766"/><path d="M136,522.8281 C142,522.8281 144,524.8281 144,530.8281 " fill="none" style="stroke:#181818;stroke-width:1.5;"/><line style="stroke:#181818;stroke-width:1.5;" x1="74" x2="89" y1="558.9766" y2="558.9766"/><line style="stroke:#181818;stroke-width:1.5;" x1="137" x2="152" y1="558.9766" y2="558.9766"/><path d="M97,550.9766 C97,556.9766 99,558.9766 105,558.9766 " fill="none" style="stroke:#181818;stroke-width:1.5;"/><line style="stroke:#181818;stroke-width:1.5;" x1="97" x2="97" y1="546.8281" y2="550.9766"/><path d="M97,546.8281 C97,540.8281 99,538.8281 105,538.8281 " fill="none" style="stroke:#181818;stroke-width:1.5;"/><line style="stroke:#181818;stroke-width:1.5;" x1="104" x2="122" y1="538.8281" y2="538.8281"/><path d="M112.8,538.8281 L112.8,535.8281 L106.8,538.8281 L112.8,541.8281 L112.8,538.8281 " fill="#181818" style="stroke:#181818;stroke-width:1.5;"/><path d="M129,550.9766 C129,556.9766 127,558.9766 121,558.9766 " fill="none" style="stroke:#181818;stroke-width:1.5;"/><line style="stroke:#181818;stroke-width:1.5;" x1="129" x2="129" y1="546.8281" y2="550.9766"/><path d="M121,538.8281 C127,538.8281 129,540.8281 129,546.8281 " fill="none" style="stroke:#181818;stroke-width:1.5;"/><line style="stroke:#181818;stroke-width:1.5;" x1="89" x2="104" y1="558.9766" y2="558.9766"/><line style="stroke:#181818;stroke-width:1.5;" x1="122" x2="137" y1="558.9766" y2="558.9766"/><rect fill="#F1F1F1" height="26.2969" rx="5" ry="5" style="stroke:#181818;stroke-width:1.5;" width="18" x="104" y="545.8281"/><text fill="#000000" font-family="sans-serif" font-size="14" lengthAdjust="spacing" textLength="8" x="109" y="563.8232">a</text><ellipse cx="48" cy="558.9766" fill="none" rx="4" ry="4" style="stroke:#181818;stroke-width:2.0;"/><ellipse cx="182" cy="558.9766" fill="#181818" rx="4" ry="4" style="stroke:#181818;stroke-width:1.0;"/><line style="stroke:#181818;stroke-width:1.5;" x1="52" x2="74" y1="558.9766" y2="558.9766"/><line style="stroke:#181818;stroke-width:1.5;" x1="152" x2="178" y1="558.9766" y2="558.9766"/><path d="M163,558.9766 L163,555.9766 L169,558.9766 L163,561.9766 L163,558.9766 " fill="#181818" style="stroke:#181818;stroke-width:1.5;"/><text fill="#000000" font-family="sans-serif" font-size="14" font-weight="bold" lengthAdjust="spacing" textLength="101" x="44" y="600.1201">one_or_more</text><line style="stroke:#181818;stroke-width:1.5;" x1="74" x2="74" y1="654.5703" y2="654.5703"/><rect fill="#F1F1F1" height="26.2969" rx="5" ry="5" style="stroke:#181818;stroke-width:1.5;" width="18" x="74" y="641.4219"/><text fill="#000000" font-family="sans-serif" font-size="14" lengthAdjust="spacing" textLength="8" x="79" y="659.417">a</text><line style="stroke:#181818;stroke-width:1.5;" x1="92" x2="112" y1="654.5703" y2="654.5703"/><path d="M120,646.5703 C120,652.5703 118,654.5703 112,654.5703 " fill="none" style="stroke:#181818;stroke-width:1.5;"/><line style="stroke:#181818;stroke-width:1.5;" x1="120" x2="120" y1="626.4219" y2="646.5703"/><path d="M120,626.4219 C120,620.4219 122,618.4219 128,618.4219 " fill="none" style="stroke:#181818;stroke-width:1.5;"/><line style="stroke:#181818;stroke-width:1.5;" x1="128" x2="174" y1="618.4219" y2="618.4219"/><path d="M144.4,618.4219 L144.4,615.4219 L150.4,618.4219 L144.4,621.4219 L144.4,618.4219 " fill="#181818" style="stroke:#181818;stroke-width:1.5;"/><path d="M182,646.5703 C182,652.5703 184,654.5703 190,654.5703 " fill="none" style="stroke:#181818;stroke-width:1.5;"/><line style="stroke:#181818;stroke-width:1.5;" x1="182" x2="182" y1="626.4219" y2="646.5703"/><path d="M174,618.4219 C180,618.4219 182,620.4219 182,626.4219 " fill="none" style="stroke:#181818;stroke-width:1.5;"/><line style="stroke:#181818;stroke-width:1.5;" x1="112" x2="127" y1="654.5703" y2="654.5703"/><line style="stroke:#181818;stroke-width:1.5;" x1="175" x2="190" y1="654.5703" y2="654.5703"/><path d="M135,646.5703 C135,652.5703 137,654.5703 143,654.5703 " fill="none" style="stroke:#181818;stroke-width:1.5;"/><line style="stroke:#181818;stroke-width:1.5;" x1="135" x2="135" y1="642.4219" y2="646.5703"/><path d="M135,642.4219 C135,636.4219 137,634.4219 143,634.4219 " fill="none" style="stroke:#181818;stroke-width:1.5;"/><line style="stroke:#181818;stroke-width:1.5;" x1="142" x2="160" y1="634.4219" y2="634.4219"/><path d="M150.8,634.4219 L150.8,631.4219 L144.8,634.4219 L150.8,637.4219 L150.8,634.4219 " fill="#181818" style="stroke:#181818;stroke-width:1.5;"/><path d="M167,646.5703 C167,652.5703 165,654.5703 159,654.5703 " fill="none" style="stroke:#181818;stroke-width:1.5;"/><line style="stroke:#181818;stroke-width:1.5;" x1="167" x2="167" y1="642.4219" y2="646.5703"/><path d="M159,634.4219 C165,634.4219 167,636.4219 167,642.4219 " fill="none" style="stroke:#181818;stroke-width:1.5;"/><line style="stroke:#181818;stroke-width:1.5;" x1="127" x2="142" y1="654.5703" y2="654.5703"/><line style="stroke:#181818;stroke-width:1.5;" x1="160" x2="175" y1="654.5703" y2="654.5703"/><rect fill="#F1F1F1" height="26.2969" rx="5" ry="5" style="stroke:#181818;stroke-width:1.5;" width="18" x="142" y="641.4219"/><text fill="#000000" font-family="sans-serif" font-size="14" lengthAdjust="spacing" textLength="8" x="147" y="659.417">a</text><ellipse cx="48" cy="654.5703" fill="none" rx="4" ry="4" style="stroke:#181818;stroke-width:2.0;"/><ellipse cx="220" cy="654.5703" fill="#181818" rx="4" ry="4" style="stroke:#181818;stroke-width:1.0;"/><line style="stroke:#181818;stroke-width:1.5;" x1="52" x2="74" y1="654.5703" y2="654.5703"/><line style="stroke:#181818;stroke-width:1.5;" x1="190" x2="216" y1="654.5703" y2="654.5703"/><path d="M201,654.5703 L201,651.5703 L207,654.5703 L201,657.5703 L201,654.5703 " fill="#181818" style="stroke:#181818;stroke-width:1.5;"/><text fill="#000000" font-family="sans-serif" font-size="14" font-weight="bold" lengthAdjust="spacing" textLength="144" x="44" y="695.7139">one_or_more_ebnf</text><path d="M82,726.1641 C82,732.1641 84,734.1641 90,734.1641 " fill="none" style="stroke:#181818;stroke-width:1.5;"/><line style="stroke:#181818;stroke-width:1.5;" x1="82" x2="82" y1="722.0156" y2="726.1641"/><path d="M82,722.0156 C82,716.0156 84,714.0156 90,714.0156 " fill="none" style="stroke:#181818;stroke-width:1.5;"/><line style="stroke:#181818;stroke-width:1.5;" x1="89" x2="107" y1="714.0156" y2="714.0156"/><path d="M97.8,714.0156 L97.8,711.0156 L91.8,714.0156 L97.8,717.0156 L97.8,714.0156 " fill="#181818" style="stroke:#181818;stroke-width:1.5;"/><path d="M114,726.1641 C114,732.1641 112,734.1641 106,734.1641 " fill="none" style="stroke:#181818;stroke-width:1.5;"/><line style="stroke:#181818;stroke-width:1.5;" x1="114" x2="114" y1="722.0156" y2="726.1641"/><path d="M106,714.0156 C112,714.0156 114,716.0156 114,722.0156 " fill="none" style="stroke:#181818;stroke-width:1.5;"/><line style="stroke:#181818;stroke-width:1.5;" x1="74" x2="89" y1="734.1641" y2="734.1641"/><line style="stroke:#181818;stroke-width:1.5;" x1="107" x2="122" y1="734.1641" y2="734.1641"/><rect fill="#F1F1F1" height="26.2969" rx="5" ry="5" style="stroke:#181818;stroke-width:1.5;" width="18" x="89" y="721.0156"/><text fill="#000000" font-family="sans-serif" font-size="14" lengthAdjust="spacing" textLength="8" x="94" y="739.0107">a</text><ellipse cx="48" cy="734.1641" fill="none" rx="4" ry="4" style="stroke:#181818;stroke-width:2.0;"/><ellipse cx="152" cy="734.1641" fill="#181818" rx="4" ry="4" style="stroke:#181818;stroke-width:1.0;"/><line style="stroke:#181818;stroke-width:1.5;" x1="52" x2="74" y1="734.1641" y2="734.1641"/><line style="stroke:#181818;stroke-width:1.5;" x1="122" x2="148" y1="734.1641" y2="734.1641"/><path d="M133,734.1641 L133,731.1641 L139,734.1641 L133,737.1641 L133,734.1641 " fill="#181818" style="stroke:#181818;stroke-width:1.5;"/><text fill="#000000" font-family="sans-serif" font-size="14" font-weight="bold" lengthAdjust="spacing" textLength="237" x="44" y="775.3076">zero_or_more_with_separator</text><path d="M82,837.7578 C82,843.7578 80,845.7578 74,845.7578 " fill="none" style="stroke:#181818;stroke-width:1.5;"/><line style="stroke:#181818;stroke-width:1.5;" x1="82" x2="82" y1="801.6094" y2="837.7578"/><path d="M82,801.6094 C82,795.6094 84,793.6094 90,793.6094 " fill="none" style="stroke:#181818;stroke-width:1.5;"/><line style="stroke:#181818;stroke-width:1.5;" x1="90" x2="238" y1="793.6094" y2="793.6094"/><path d="M147.2,793.6094 L147.2,790.6094 L153.2,793.6094 L147.2,796.6094 L147.2,793.6094 " fill="#181818" style="stroke:#181818;stroke-width:1.5;"/><path d="M246,837.7578 C246,843.7578 248,845.7578 254,845.7578 " fill="none" style="stroke:#181818;stroke-width:1.5;"/><line style="stroke:#181818;stroke-width:1.5;" x1="246" x2="246" y1="801.6094" y2="837.7578"/><path d="M238,793.6094 C244,793.6094 246,795.6094 246,801.6094 " fill="none" style="stroke:#181818;stroke-width:1.5;"/><line style="stroke:#181818;stroke-width:1.5;" x1="74" x2="89" y1="845.7578" y2="845.7578"/><line style="stroke:#181818;stroke-width:1.5;" x1="239" x2="254" y1="845.7578" y2="845.7578"/><line style="stroke:#181818;stroke-width:1.5;" x1="89" x2="89" y1="845.7578" y2="845.7578"/><rect fill="#F1F1F1" height="26.2969" rx="5" ry="5" style="stroke:#181818;stroke-width:1.5;" width="18" x="89" y="832.6094"/><text fill="#000000" font-family="sans-serif" font-size="14" lengthAdjust="spacing" textLength="8" x="94" y="850.6045">a</text><line style="stroke:#181818;stroke-width:1.5;" x1="107" x2="127" y1="845.7578" y2="845.7578"/><path d="M135,837.7578 C135,843.7578 133,845.7578 127,845.7578 " fill="none" style="stroke:#181818;stroke-width:1.5;"/><line style="stroke:#181818;stroke-width:1.5;" x1="135" x2="135" y1="817.6094" y2="837.7578"/><path d="M135,817.6094 C135,811.6094 137,809.6094 143,809.6094 " fill="none" style="stroke:#181818;stroke-width:1.5;"/><line style="stroke:#181818;stroke-width:1.5;" x1="143" x2="223" y1="809.6094" y2="809.6094"/><path d="M173,809.6094 L173,806.6094 L179,809.6094 L173,812.6094 L173,809.6094 " fill="#181818" style="stroke:#181818;stroke-width:1.5;"/><path d="M231,837.7578 C231,843.7578 233,845.7578 239,845.7578 " fill="none" style="stroke:#181818;stroke-width:1.5;"/><line style="stroke:#181818;stroke-width:1.5;" x1="231" x2="231" y1="817.6094" y2="837.7578"/><path d="M223,809.6094 C229,809.6094 231,811.6094 231,817.6094 " fill="none" style="stroke:#181818;stroke-width:1.5;"/><line style="stroke:#181818;stroke-width:1.5;" x1="127" x2="142" y1="845.7578" y2="845.7578"/><line style="stroke:#181818;stroke-width:1.5;" x1="224" x2="239" y1="845.7578" y2="845.7578"/><path d="M150,837.7578 C150,843.7578 152,845.7578 158,845.7578 " fill="none" style="stroke:#181818;stroke-width:1.5;"/><line style="stroke:#181818;stroke-width:1.5;" x1="150" x2="150" y1="833.6094" y2="837.7578"/><path d="M150,833.6094 C150,827.6094 152,825.6094 158,825.6094 " fill="none" style="stroke:#181818;stroke-width:1.5;"/><line style="stroke:#181818;stroke-width:1.5;" x1="157" x2="209" y1="825.6094" y2="825.6094"/><path d="M186.2,825.6094 L186.2,822.6094 L180.2,825.6094 L186.2,828.6094 L186.2,825.6094 " fill="#181818" style="stroke:#181818;stroke-width:1.5;"/><path d="M216,837.7578 C216,843.7578 214,845.7578 208,845.7578 " fill="none" style="stroke:#181818;stroke-width:1.5;"/><line style="stroke:#181818;stroke-width:1.5;" x1="216" x2="216" y1="833.6094" y2="837.7578"/><path d="M208,825.6094 C214,825.6094 216,827.6094 216,833.6094 " fill="none" style="stroke:#181818;stroke-width:1.5;"/><line style="stroke:#181818;stroke-width:1.5;" x1="142" x2="157" y1="845.7578" y2="845.7578"/><line style="stroke:#181818;stroke-width:1.5;" x1="209" x2="224" y1="845.7578" y2="845.7578"/><line style="stroke:#181818;stroke-width:1.5;" x1="157" x2="157" y1="845.7578" y2="845.7578"/><rect fill="none" height="26.2969" style="stroke:#181818;stroke-width:0.5;" width="14" x="157" y="832.6094"/><text fill="#000000" font-family="sans-serif" font-size="14" lengthAdjust="spacing" textLength="4" x="162" y="850.6045">,</text><line style="stroke:#181818;stroke-width:1.5;" x1="171" x2="191" y1="845.7578" y2="845.7578"/><rect fill="#F1F1F1" height="26.2969" rx="5" ry="5" style="stroke:#181818;stroke-width:1.5;" width="18" x="191" y="832.6094"/><text fill="#000000" font-family="sans-serif" font-size="14" lengthAdjust="spacing" textLength="8" x="196" y="850.6045">a</text><ellipse cx="48" cy="845.7578" fill="none" rx="4" ry="4" style="stroke:#181818;stroke-width:2.0;"/><ellipse cx="284" cy="845.7578" fill="#181818" rx="4" ry="4" style="stroke:#181818;stroke-width:1.0;"/><line style="stroke:#181818;stroke-width:1.5;" x1="52" x2="74" y1="845.7578" y2="845.7578"/><line style="stroke:#181818;stroke-width:1.5;" x1="254" x2="280" y1="845.7578" y2="845.7578"/><path d="M265,845.7578 L265,842.7578 L271,845.7578 L265,848.7578 L265,845.7578 " fill="#181818" style="stroke:#181818;stroke-width:1.5;"/><text fill="#000000" font-family="sans-serif" font-size="14" font-weight="bold" lengthAdjust="spacing" textLength="231" x="44" y="886.9014">one_or_more_with_separator</text><line style="stroke:#181818;stroke-width:1.5;" x1="74" x2="74" y1="941.3516" y2="941.3516"/><rect fill="#F1F1F1" height="26.2969" rx="5" ry="5" style="stroke:#181818;stroke-width:1.5;" width="18" x="74" y="928.2031"/><text fill="#000000" font-family="sans-serif" font-size="14" lengthAdjust="spacing" textLength="8" x="79" y="946.1982">a</text><line style="stroke:#181818;stroke-width:1.5;" x1="92" x2="112" y1="941.3516" y2="941.3516"/><path d="M120,933.3516 C120,939.3516 118,941.3516 112,941.3516 " fill="none" style="stroke:#181818;stroke-width:1.5;"/><line style="stroke:#181818;stroke-width:1.5;" x1="120" x2="120" y1="913.2031" y2="933.3516"/><path d="M120,913.2031 C120,907.2031 122,905.2031 128,905.2031 " fill="none" style="stroke:#181818;stroke-width:1.5;"/><line style="stroke:#181818;stroke-width:1.5;" x1="128" x2="208" y1="905.2031" y2="905.2031"/><path d="M158,905.2031 L158,902.2031 L164,905.2031 L158,908.2031 L158,905.2031 " fill="#181818" style="stroke:#181818;stroke-width:1.5;"/><path d="M216,933.3516 C216,939.3516 218,941.3516 224,941.3516 " fill="none" style="stroke:#181818;stroke-width:1.5;"/><line style="stroke:#181818;stroke-width:1.5;" x1="216" x2="216" y1="913.2031" y2="933.3516"/><path d="M208,905.2031 C214,905.2031 216,907.2031 216,913.2031 " fill="none" style="stroke:#181818;stroke-width:1.5;"/><line style="stroke:#181818;stroke-width:1.5;" x1="112" x2="127" y1="941.3516" y2="941.3516"/><line style="stroke:#181818;stroke-width:1.5;" x1="209" x2="224" y1="941.3516" y2="941.3516"/><path d="M135,933.3516 C135,939.3516 137,941.3516 143,941.3516 " fill="none" style="stroke:#181818;stroke-width:1.5;"/><line style="stroke:#181818;stroke-width:1.5;" x1="135" x2="135" y1="929.2031" y2="933.3516"/><path d="M135,929.2031 C135,923.2031 137,921.2031 143,921.2031 " fill="none" style="stroke:#181818;stroke-width:1.5;"/><line style="stroke:#181818;stroke-width:1.5;" x1="142" x2="194" y1="921.2031" y2="921.2031"/><path d="M171.2,921.2031 L171.2,918.2031 L165.2,921.2031 L171.2,924.2031 L171.2,921.2031 " fill="#181818" style="stroke:#181818;stroke-width:1.5;"/><path d="M201,933.3516 C201,939.3516 199,941.3516 193,941.3516 " fill="none" style="stroke:#181818;stroke-width:1.5;"/><line style="stroke:#181818;stroke-width:1.5;" x1="201" x2="201" y1="929.2031" y2="933.3516"/><path d="M193,921.2031 C199,921.2031 201,923.2031 201,929.2031 " fill="none" style="stroke:#181818;stroke-width:1.5;"/><line style="stroke:#181818;stroke-width:1.5;" x1="127" x2="142" y1="941.3516" y2="941.3516"/><line style="stroke:#181818;stroke-width:1.5;" x1="194" x2="209" y1="941.3516" y2="941.3516"/><line style="stroke:#181818;stroke-width:1.5;" x1="142" x2="142" y1="941.3516" y2="941.3516"/><rect fill="none" height="26.2969" style="stroke:#181818;stroke-width:0.5;" width="14" x="142" y="928.2031"/><text fill="#000000" font-family="sans-serif" font-size="14" lengthAdjust="spacing" textLength="4" x="147" y="946.1982">,</text><line style="stroke:#181818;stroke-width:1.5;" x1="156" x2="176" y1="941.3516" y2="941.3516"/><rect fill="#F1F1F1" height="26.2969" rx="5" ry="5" style="stroke:#181818;stroke-width:1.5;" width="18" x="176" y="928.2031"/><text fill="#000000" font-family="sans-serif" font-size="14" lengthAdjust="spacing" textLength="8" x="181" y="946.1982">a</text><ellipse cx="48" cy="941.3516" fill="none" rx="4" ry="4" style="stroke:#181818;stroke-width:2.0;"/><ellipse cx="254" cy="941.3516" fill="#181818" rx="4" ry="4" style="stroke:#181818;stroke-width:1.0;"/><line style="stroke:#181818;stroke-width:1.5;" x1="52" x2="74" y1="941.3516" y2="941.3516"/><line style="stroke:#181818;stroke-width:1.5;" x1="224" x2="250" y1="941.3516" y2="941.3516"/><path d="M235,941.3516 L235,938.3516 L241,941.3516 L235,944.3516 L235,941.3516 " fill="#181818" style="stroke:#181818;stroke-width:1.5;"/><text fill="#000000" font-family="sans-serif" font-size="14" font-weight="bold" lengthAdjust="spacing" textLength="246" x="44" y="982.4951">zero_or_more_with_terminator</text><path d="M82,1028.9453 C82,1034.9453 80,1036.9453 74,1036.9453 " fill="none" style="stroke:#181818;stroke-width:1.5;"/><line style="stroke:#181818;stroke-width:1.5;" x1="82" x2="82" y1="1008.7969" y2="1028.9453"/><path d="M82,1008.7969 C82,1002.7969 84,1000.7969 90,1000.7969 " fill="none" style="stroke:#181818;stroke-width:1.5;"/><line style="stroke:#181818;stroke-width:1.5;" x1="90" x2="170" y1="1000.7969" y2="1000.7969"/><path d="M120,1000.7969 L120,997.7969 L126,1000.7969 L120,1003.7969 L120,1000.7969 " fill="#181818" style="stroke:#181818;stroke-width:1.5;"/><path d="M178,1028.9453 C178,1034.9453 180,1036.9453 186,1036.9453 " fill="none" style="stroke:#181818;stroke-width:1.5;"/><line style="stroke:#181818;stroke-width:1.5;" x1="178" x2="178" y1="1008.7969" y2="1028.9453"/><path d="M170,1000.7969 C176,1000.7969 178,1002.7969 178,1008.7969 " fill="none" style="stroke:#181818;stroke-width:1.5;"/><line style="stroke:#181818;stroke-width:1.5;" x1="74" x2="89" y1="1036.9453" y2="1036.9453"/><line style="stroke:#181818;stroke-width:1.5;" x1="171" x2="186" y1="1036.9453" y2="1036.9453"/><path d="M97,1028.9453 C97,1034.9453 99,1036.9453 105,1036.9453 " fill="none" style="stroke:#181818;stroke-width:1.5;"/><line style="stroke:#181818;stroke-width:1.5;" x1="97" x2="97" y1="1024.7969" y2="1028.9453"/><path d="M97,1024.7969 C97,1018.7969 99,1016.7969 105,1016.7969 " fill="none" style="stroke:#181818;stroke-width:1.5;"/><line style="stroke:#181818;stroke-width:1.5;" x1="104" x2="156" y1="1016.7969" y2="1016.7969"/><path d="M133.2,1016.7969 L133.2,1013.7969 L127.2,1016.7969 L133.2,1019.7969 L133.2,1016.7969 " fill="#181818" style="stroke:#181818;stroke-width:1.5;"/><path d="M163,1028.9453 C163,1034.9453 161,1036.9453 155,1036.9453 " fill="none" style="stroke:#181818;stroke-width:1.5;"/><line style="stroke:#181818;stroke-width:1.5;" x1="163" x2="163" y1="1024.7969" y2="1028.9453"/><path d="M155,1016.7969 C161,1016.7969 163,1018.7969 163,1024.7969 " fill="none" style="stroke:#181818;stroke-width:1.5;"/><line style="stroke:#181818;stroke-width:1.5;" x1="89" x2="104" y1="1036.9453" y2="1036.9453"/><line style="stroke:#181818;stroke-width:1.5;" x1="156" x2="171" y1="1036.9453" y2="1036.9453"/><line style="stroke:#181818;stroke-width:1.5;" x1="104" x2="104" y1="1036.9453" y2="1036.9453"/><rect fill="#F1F1F1" height="26.2969" rx="5" ry="5" style="stroke:#181818;stroke-width:1.5;" width="18" x="104" y="1023.7969"/><text fill="#000000" font-family="sans-serif" font-size="14" lengthAdjust="spacing" textLength="8" x="109" y="1041.792">a</text><line style="stroke:#181818;stroke-width:1.5;" x1="122" x2="142" y1="1036.9453" y2="1036.9453"/><rect fill="none" height="26.2969" style="stroke:#181818;stroke-width:0.5;" width="14" x="142" y="1023.7969"/><text fill="#000000" font-family="sans-serif" font-size="14" lengthAdjust="spacing" textLength="4" x="147" y="1041.792">,</text><ellipse cx="48" cy="1036.9453" fill="none" rx="4" ry="4" style="stroke:#181818;stroke-width:2.0;"/><ellipse cx="216" cy="1036.9453" fill="#181818" rx="4" ry="4" style="stroke:#181818;stroke-width:1.0;"/><line style="stroke:#181818;stroke-width:1.5;" x1="52" x2="74" y1="1036.9453" y2="1036.9453"/><line style="stroke:#181818;stroke-width:1.5;" x1="186" x2="212" y1="1036.9453" y2="1036.9453"/><path d="M197,1036.9453 L197,1033.9453 L203,1036.9453 L197,1039.9453 L197,1036.9453 " fill="#181818" style="stroke:#181818;stroke-width:1.5;"/><text fill="#000000" font-family="sans-serif" font-size="14" font-weight="bold" lengthAdjust="spacing" textLength="240" x="44" y="1078.0889">one_or_more_with_terminator</text><line style="stroke:#181818;stroke-width:1.5;" x1="74" x2="74" y1="1132.5391" y2="1132.5391"/><rect fill="#F1F1F1" height="26.2969" rx="5" ry="5" style="stroke:#181818;stroke-width:1.5;" width="18" x="74" y="1119.3906"/><text fill="#000000" font-family="sans-serif" font-size="14" lengthAdjust="spacing" textLength="8" x="79" y="1137.3857">a</text><line style="stroke:#181818;stroke-width:1.5;" x1="92" x2="112" y1="1132.5391" y2="1132.5391"/><rect fill="none" height="26.2969" style="stroke:#181818;stroke-width:0.5;" width="14" x="112" y="1119.3906"/><text fill="#000000" font-family="sans-serif" font-size="14" lengthAdjust="spacing" textLength="4" x="117" y="1137.3857">,</text><line style="stroke:#181818;stroke-width:1.5;" x1="126" x2="146" y1="1132.5391" y2="1132.5391"/><path d="M154,1124.5391 C154,1130.5391 152,1132.5391 146,1132.5391 " fill="none" style="stroke:#181818;stroke-width:1.5;"/><line style="stroke:#181818;stroke-width:1.5;" x1="154" x2="154" y1="1104.3906" y2="1124.5391"/><path d="M154,1104.3906 C154,1098.3906 156,1096.3906 162,1096.3906 " fill="none" style="stroke:#181818;stroke-width:1.5;"/><line style="stroke:#181818;stroke-width:1.5;" x1="162" x2="242" y1="1096.3906" y2="1096.3906"/><path d="M192,1096.3906 L192,1093.3906 L198,1096.3906 L192,1099.3906 L192,1096.3906 " fill="#181818" style="stroke:#181818;stroke-width:1.5;"/><path d="M250,1124.5391 C250,1130.5391 252,1132.5391 258,1132.5391 " fill="none" style="stroke:#181818;stroke-width:1.5;"/><line style="stroke:#181818;stroke-width:1.5;" x1="250" x2="250" y1="1104.3906" y2="1124.5391"/><path d="M242,1096.3906 C248,1096.3906 250,1098.3906 250,1104.3906 " fill="none" style="stroke:#181818;stroke-width:1.5;"/><line style="stroke:#181818;stroke-width:1.5;" x1="146" x2="161" y1="1132.5391" y2="1132.5391"/><line style="stroke:#181818;stroke-width:1.5;" x1="243" x2="258" y1="1132.5391" y2="1132.5391"/><path d="M169,1124.5391 C169,1130.5391 171,1132.5391 177,1132.5391 " fill="none" style="stroke:#181818;stroke-width:1.5;"/><line style="stroke:#181818;stroke-width:1.5;" x1="169" x2="169" y1="1120.3906" y2="1124.5391"/><path d="M169,1120.3906 C169,1114.3906 171,1112.3906 177,1112.3906 " fill="none" style="stroke:#181818;stroke-width:1.5;"/><line style="stroke:#181818;stroke-width:1.5;" x1="176" x2="228" y1="1112.3906" y2="1112.3906"/><path d="M205.2,1112.3906 L205.2,1109.3906 L199.2,1112.3906 L205.2,1115.3906 L205.2,1112.3906 " fill="#181818" style="stroke:#181818;stroke-width:1.5;"/><path d="M235,1124.5391 C235,1130.5391 233,1132.5391 227,1132.5391 " fill="none" style="stroke:#181818;stroke-width:1.5;"/><line style="stroke:#181818;stroke-width:1.5;" x1="235" x2="235" y1="1120.3906" y2="1124.5391"/><path d="M227,1112.3906 C233,1112.3906 235,1114.3906 235,1120.3906 " fill="none" style="stroke:#181818;stroke-width:1.5;"/><line style="stroke:#181818;stroke-width:1.5;" x1="161" x2="176" y1="1132.5391" y2="1132.5391"/><line style="stroke:#181818;stroke-width:1.5;" x1="228" x2="243" y1="1132.5391" y2="1132.5391"/><line style="stroke:#181818;stroke-width:1.5;" x1="176" x2="176" y1="1132.5391" y2="1132.5391"/><rect fill="#F1F1F1" height="26.2969" rx="5" ry="5" style="stroke:#181818;stroke-width:1.5;" width="18" x="176" y="1119.3906"/><text fill="#000000" font-family="sans-serif" font-size="14" lengthAdjust="spacing" textLength="8" x="181" y="1137.3857">a</text><line style="stroke:#181818;stroke-width:1.5;" x1="194" x2="214" y1="1132.5391" y2="1132.5391"/><rect fill="none" height="26.2969" style="stroke:#181818;stroke-width:0.5;" width="14" x="214" y="1119.3906"/><text fill="#000000" font-family="sans-serif" font-size="14" lengthAdjust="spacing" textLength="4" x="219" y="1137.3857">,</text><ellipse cx="48" cy="1132.5391" fill="none" rx="4" ry="4" style="stroke:#181818;stroke-width:2.0;"/><ellipse cx="288" cy="1132.5391" fill="#181818" rx="4" ry="4" style="stroke:#181818;stroke-width:1.0;"/><line style="stroke:#181818;stroke-width:1.5;" x1="52" x2="74" y1="1132.5391" y2="1132.5391"/><line style="stroke:#181818;stroke-width:1.5;" x1="258" x2="284" y1="1132.5391" y2="1132.5391"/><path d="M269,1132.5391 L269,1129.5391 L275,1132.5391 L269,1135.5391 L269,1132.5391 " fill="#181818" style="stroke:#181818;stroke-width:1.5;"/><text fill="#000000" font-family="sans-serif" font-size="14" font-weight="bold" lengthAdjust="spacing" textLength="283" x="44" y="1173.6826">one_or_more_with_terminator_ebnf</text><path d="M82,1204.1328 C82,1210.1328 84,1212.1328 90,1212.1328 " fill="none" style="stroke:#181818;stroke-width:1.5;"/><line style="stroke:#181818;stroke-width:1.5;" x1="82" x2="82" y1="1199.9844" y2="1204.1328"/><path d="M82,1199.9844 C82,1193.9844 84,1191.9844 90,1191.9844 " fill="none" style="stroke:#181818;stroke-width:1.5;"/><line style="stroke:#181818;stroke-width:1.5;" x1="89" x2="141" y1="1191.9844" y2="1191.9844"/><path d="M118.2,1191.9844 L118.2,1188.9844 L112.2,1191.9844 L118.2,1194.9844 L118.2,1191.9844 " fill="#181818" style="stroke:#181818;stroke-width:1.5;"/><path d="M148,1204.1328 C148,1210.1328 146,1212.1328 140,1212.1328 " fill="none" style="stroke:#181818;stroke-width:1.5;"/><line style="stroke:#181818;stroke-width:1.5;" x1="148" x2="148" y1="1199.9844" y2="1204.1328"/><path d="M140,1191.9844 C146,1191.9844 148,1193.9844 148,1199.9844 " fill="none" style="stroke:#181818;stroke-width:1.5;"/><line style="stroke:#181818;stroke-width:1.5;" x1="74" x2="89" y1="1212.1328" y2="1212.1328"/><line style="stroke:#181818;stroke-width:1.5;" x1="141" x2="156" y1="1212.1328" y2="1212.1328"/><line style="stroke:#181818;stroke-width:1.5;" x1="89" x2="89" y1="1212.1328" y2="1212.1328"/><rect fill="#F1F1F1" height="26.2969" rx="5" ry="5" style="stroke:#181818;stroke-width:1.5;" width="18" x="89" y="1198.9844"/><text fill="#000000" font-family="sans-serif" font-size="14" lengthAdjust="spacing" textLength="8" x="94" y="1216.9795">a</text><line style="stroke:#181818;stroke-width:1.5;" x1="107" x2="127" y1="1212.1328" y2="1212.1328"/><rect fill="none" height="26.2969" style="stroke:#181818;stroke-width:0.5;" width="14" x="127" y="1198.9844"/><text fill="#000000" font-family="sans-serif" font-size="14" lengthAdjust="spacing" textLength="4" x="132" y="1216.9795">,</text><ellipse cx="48" cy="1212.1328" fill="none" rx="4" ry="4" style="stroke:#181818;stroke-width:2.0;"/><ellipse cx="186" cy="1212.1328" fill="#181818" rx="4" ry="4" style="stroke:#181818;stroke-width:1.0;"/><line style="stroke:#181818;stroke-width:1.5;" x1="52" x2="74" y1="1212.1328" y2="1212.1328"/><line style="stroke:#181818;stroke-width:1.5;" x1="156" x2="182" y1="1212.1328" y2="1212.1328"/><path d="M167,1212.1328 L167,1209.1328 L173,1212.1328 L167,1215.1328 L167,1212.1328 " fill="#181818" style="stroke:#181818;stroke-width:1.5;"/><text fill="#000000" font-family="sans-serif" font-size="14" font-weight="bold" lengthAdjust="spacing" textLength="90" x="44" y="1253.2764">alternative</text><rect fill="#F1F1F1" height="26.2969" rx="5" ry="5" style="stroke:#181818;stroke-width:1.5;" width="18" x="98" y="1266.5781"/><text fill="#000000" font-family="sans-serif" font-size="14" lengthAdjust="spacing" textLength="8" x="103" y="1284.5732">a</text><line style="stroke:#181818;stroke-width:1.5;" x1="74" x2="98" y1="1279.7266" y2="1279.7266"/><line style="stroke:#181818;stroke-width:1.5;" x1="116" x2="142" y1="1279.7266" y2="1279.7266"/><rect fill="#F1F1F1" height="26.2969" rx="5" ry="5" style="stroke:#181818;stroke-width:1.5;" width="20" x="98" y="1302.875"/><text fill="#000000" font-family="sans-serif" font-size="14" lengthAdjust="spacing" textLength="10" x="103" y="1320.8701">b</text><line style="stroke:#181818;stroke-width:1.5;" x1="118" x2="118" y1="1316.0234" y2="1316.0234"/><path d="M86,1304.0234 C86,1313.0234 89,1316.0234 98,1316.0234 " fill="none" style="stroke:#181818;stroke-width:1.5;"/><line style="stroke:#181818;stroke-width:1.5;" x1="86" x2="86" y1="1291.7266" y2="1304.0234"/><path d="M74,1279.7266 C83,1279.7266 86,1282.7266 86,1291.7266 " fill="none" style="stroke:#181818;stroke-width:1.5;"/><path d="M130,1304.0234 C130,1313.0234 127,1316.0234 118,1316.0234 " fill="none" style="stroke:#181818;stroke-width:1.5;"/><line style="stroke:#181818;stroke-width:1.5;" x1="130" x2="130" y1="1291.7266" y2="1304.0234"/><path d="M130,1291.7266 C130,1282.7266 133,1279.7266 142,1279.7266 " fill="none" style="stroke:#181818;stroke-width:1.5;"/><ellipse cx="48" cy="1279.7266" fill="none" rx="4" ry="4" style="stroke:#181818;stroke-width:2.0;"/><ellipse cx="172" cy="1279.7266" fill="#181818" rx="4" ry="4" style="stroke:#181818;stroke-width:1.0;"/><line style="stroke:#181818;stroke-width:1.5;" x1="52" x2="74" y1="1279.7266" y2="1279.7266"/><line style="stroke:#181818;stroke-width:1.5;" x1="142" x2="168" y1="1279.7266" y2="1279.7266"/><path d="M153,1279.7266 L153,1276.7266 L159,1279.7266 L153,1282.7266 L153,1279.7266 " fill="#181818" style="stroke:#181818;stroke-width:1.5;"/><text fill="#000000" font-family="sans-serif" font-size="14" font-weight="bold" lengthAdjust="spacing" textLength="47" x="44" y="1357.167">group</text><line style="stroke:#181818;stroke-width:1.5;" x1="74" x2="74" y1="1383.6172" y2="1383.6172"/><rect fill="#F1F1F1" height="26.2969" rx="5" ry="5" style="stroke:#181818;stroke-width:1.5;" width="18" x="98" y="1370.4688"/><text fill="#000000" font-family="sans-serif" font-size="14" lengthAdjust="spacing" textLength="8" x="103" y="1388.4639">a</text><line style="stroke:#181818;stroke-width:1.5;" x1="74" x2="98" y1="1383.6172" y2="1383.6172"/><line style="stroke:#181818;stroke-width:1.5;" x1="116" x2="142" y1="1383.6172" y2="1383.6172"/><rect fill="#F1F1F1" height="26.2969" rx="5" ry="5" style="stroke:#181818;stroke-width:1.5;" width="20" x="98" y="1406.7656"/><text fill="#000000" font-family="sans-serif" font-size="14" lengthAdjust="spacing" textLength="10" x="103" y="1424.7607">b</text><line style="stroke:#181818;stroke-width:1.5;" x1="118" x2="118" y1="1419.9141" y2="1419.9141"/><path d="M86,1407.9141 C86,1416.9141 89,1419.9141 98,1419.9141 " fill="none" style="stroke:#181818;stroke-width:1.5;"/><line style="stroke:#181818;stroke-width:1.5;" x1="86" x2="86" y1="1395.6172" y2="1407.9141"/><path d="M74,1383.6172 C83,1383.6172 86,1386.6172 86,1395.6172 " fill="none" style="stroke:#181818;stroke-width:1.5;"/><path d="M130,1407.9141 C130,1416.9141 127,1419.9141 118,1419.9141 " fill="none" style="stroke:#181818;stroke-width:1.5;"/><line style="stroke:#181818;stroke-width:1.5;" x1="130" x2="130" y1="1395.6172" y2="1407.9141"/><path d="M130,1395.6172 C130,1386.6172 133,1383.6172 142,1383.6172 " fill="none" style="stroke:#181818;stroke-width:1.5;"/><line style="stroke:#181818;stroke-width:1.5;" x1="142" x2="162" y1="1383.6172" y2="1383.6172"/><rect fill="#F1F1F1" height="26.2969" rx="5" ry="5" style="stroke:#181818;stroke-width:1.5;" width="18" x="162" y="1370.4688"/><text fill="#000000" font-family="sans-serif" font-size="14" lengthAdjust="spacing" textLength="8" x="167" y="1388.4639">c</text><ellipse cx="48" cy="1383.6172" fill="none" rx="4" ry="4" style="stroke:#181818;stroke-width:2.0;"/><ellipse cx="210" cy="1383.6172" fill="#181818" rx="4" ry="4" style="stroke:#181818;stroke-width:1.0;"/><line style="stroke:#181818;stroke-width:1.5;" x1="52" x2="74" y1="1383.6172" y2="1383.6172"/><line style="stroke:#181818;stroke-width:1.5;" x1="180" x2="206" y1="1383.6172" y2="1383.6172"/><path d="M191,1383.6172 L191,1380.6172 L197,1383.6172 L191,1386.6172 L191,1383.6172 " fill="#181818" style="stroke:#181818;stroke-width:1.5;"/><text fill="#000000" font-family="sans-serif" font-size="14" font-weight="bold" lengthAdjust="spacing" textLength="118" x="44" y="1461.0576">without_group</text><rect fill="#F1F1F1" height="26.2969" rx="5" ry="5" style="stroke:#181818;stroke-width:1.5;" width="18" x="98" y="1474.3594"/><text fill="#000000" font-family="sans-serif" font-size="14" lengthAdjust="spacing" textLength="8" x="103" y="1492.3545">a</text><line style="stroke:#181818;stroke-width:1.5;" x1="74" x2="98" y1="1487.5078" y2="1487.5078"/><line style="stroke:#181818;stroke-width:1.5;" x1="116" x2="180" y1="1487.5078" y2="1487.5078"/><line style="stroke:#181818;stroke-width:1.5;" x1="98" x2="98" y1="1523.8047" y2="1523.8047"/><rect fill="#F1F1F1" height="26.2969" rx="5" ry="5" style="stroke:#181818;stroke-width:1.5;" width="20" x="98" y="1510.6563"/><text fill="#000000" font-family="sans-serif" font-size="14" lengthAdjust="spacing" textLength="10" x="103" y="1528.6514">b</text><line style="stroke:#181818;stroke-width:1.5;" x1="118" x2="138" y1="1523.8047" y2="1523.8047"/><rect fill="#F1F1F1" height="26.2969" rx="5" ry="5" style="stroke:#181818;stroke-width:1.5;" width="18" x="138" y="1510.6563"/><text fill="#000000" font-family="sans-serif" font-size="14" lengthAdjust="spacing" textLength="8" x="143" y="1528.6514">c</text><line style="stroke:#181818;stroke-width:1.5;" x1="156" x2="156" y1="1523.8047" y2="1523.8047"/><path d="M86,1511.8047 C86,1520.8047 89,1523.8047 98,1523.8047 " fill="none" style="stroke:#181818;stroke-width:1.5;"/><line style="stroke:#181818;stroke-width:1.5;" x1="86" x2="86" y1="1499.5078" y2="1511.8047"/><path d="M74,1487.5078 C83,1487.5078 86,1490.5078 86,1499.5078 " fill="none" style="stroke:#181818;stroke-width:1.5;"/><path d="M168,1511.8047 C168,1520.8047 165,1523.8047 156,1523.8047 " fill="none" style="stroke:#181818;stroke-width:1.5;"/><line style="stroke:#181818;stroke-width:1.5;" x1="168" x2="168" y1="1499.5078" y2="1511.8047"/><path d="M168,1499.5078 C168,1490.5078 171,1487.5078 180,1487.5078 " fill="none" style="stroke:#181818;stroke-width:1.5;"/><ellipse cx="48" cy="1487.5078" fill="none" rx="4" ry="4" style="stroke:#181818;stroke-width:2.0;"/><ellipse cx="210" cy="1487.5078" fill="#181818" rx="4" ry="4" style="stroke:#181818;stroke-width:1.0;"/><line style="stroke:#181818;stroke-width:1.5;" x1="52" x2="74" y1="1487.5078" y2="1487.5078"/><line style="stroke:#181818;stroke-width:1.5;" x1="180" x2="206" y1="1487.5078" y2="1487.5078"/><path d="M191,1487.5078 L191,1484.5078 L197,1487.5078 L191,1490.5078 L191,1487.5078 " fill="#181818" style="stroke:#181818;stroke-width:1.5;"/><!--SRC=[ZP9DJzj048Rl-oj6NB2HWreKeIeMWa93AvGWr10k25bZUp2hhdVTzJY8qlptZjUD-3nmd7cVUNVduwXbz4ovlLMisH1yDGQcn-UdG8Pgijn2ZHOhAY5_W0k3bfVpcLBH3foxabhOYPNHpEJHm05iuLQgseOA7S93G3XCbU_4-00m3NNJiXhgFFtkj1Vd8Bc6jREXx1fl1Fr3tcNEPxNpVVKZhWMoz2o5oPjirhSoqADN7jczvhkifGOzilFX7J7OJhOJmFNDIvitx3CqVSTM1b1h-vzz55ZOzJkMBxW1Ipx6FtKsm7rxQ4GNLQ_2EE0lvAcglEiQ2QCGnv10aQhUp7MSRSIW3T8HsJ8SWDgi5rRaMra6VDxT-xGttXtdnBWVBUqlw-uj5Avkj6oKTKsnYhvVpA1rdIy8IjsortdNRp9MPxX2-DdPdfj07qMNynWMqqqIfdQblRFzdQcpg_a0mG_7YyPnWFV7esFDi20lVuAhkVf6jzWPbjB2bTfM4rXUdew-g1dQgfCxdG1PTUBa0VyWsk8V]--></g></svg>