<svg xmlns="http://www.w3.org/2000/svg" xmlns:xlink="http://www.w3.org/1999/xlink" contentStyleType="text/css" height="1563px" preserveAspectRatio="none" style="width:369px;height:1563px;background:#FFFFFF;" version="1.1" viewBox="0 0 369 1563" width="369px" zoomAndPan="magnify"><defs/><g><text fill="#000000" font-family="sans-serif" font-size="14" font-weight="bold" lengthAdjust="spacing" textLength="326.7031" x="20" y="32.9951">All EBNF elements managed by PlantUML</text><path d="M45.7109,52.2969 L45.7109,77.4297 L115.6768,77.4297 L115.6768,62.2969 L105.6768,52.2969 L45.7109,52.2969 " fill="#FEFFDD" style="stroke:#181818;stroke-width:0.5;"/><path d="M105.6768,52.2969 L105.6768,62.2969 L115.6768,62.2969 L105.6768,52.2969 " fill="#FEFFDD" style="stroke:#181818;stroke-width:0.5;"/><text fill="#000000" font-family="sans-serif" font-size="13" lengthAdjust="spacing" textLength="40.7012" x="55.8433" y="69.3638">Nodes</text><text fill="#000000" font-family="sans-serif" font-size="14" font-weight="bold" lengthAdjust="spacing" textLength="53.6279" x="45.7109" y="105.4248">litteral</text><rect fill="none" height="26.2969" style="stroke:#181818;stroke-width:0.5;" width="18.5791" x="75.7109" y="118.7266"/><text fill="#000000" font-family="sans-serif" font-size="14" lengthAdjust="spacing" textLength="8.5791" x="80.7109" y="136.7217">a</text><ellipse cx="49.7109" cy="131.875" fill="none" rx="4" ry="4" style="stroke:#181818;stroke-width:2.0;"/><ellipse cx="124.29" cy="131.875" fill="#181818" rx="4" ry="4" style="stroke:#181818;stroke-width:1.0;"/><line style="stroke:#181818;stroke-width:1.5;" x1="53.7109" x2="75.7109" y1="131.875" y2="131.875"/><line style="stroke:#181818;stroke-width:1.5;" x1="94.29" x2="120.29" y1="131.875" y2="131.875"/><path d="M105.29,131.875 L105.29,128.875 L111.29,131.875 L105.29,134.875 L105.29,131.875 " fill="#181818" style="stroke:#181818;stroke-width:1.5;"/><text fill="#000000" font-family="sans-serif" font-size="14" font-weight="bold" lengthAdjust="spacing" textLength="55.1934" x="45.7109" y="173.0186">special</text><rect fill="none" height="26.2969" style="stroke:#181818;stroke-width:1.0;stroke-dasharray:5.0,5.0;" width="27.4795" x="75.7109" y="186.3203"/><text fill="#000000" font-family="sans-serif" font-size="14" lengthAdjust="spacing" textLength="8.5791" x="85.1611" y="204.3154">a</text><ellipse cx="49.7109" cy="199.4688" fill="none" rx="4" ry="4" style="stroke:#181818;stroke-width:2.0;"/><ellipse cx="133.1904" cy="199.4688" fill="#181818" rx="4" ry="4" style="stroke:#181818;stroke-width:1.0;"/><line style="stroke:#181818;stroke-width:1.5;" x1="53.7109" x2="75.7109" y1="199.4688" y2="199.4688"/><line style="stroke:#181818;stroke-width:1.5;" x1="103.1904" x2="129.1904" y1="199.4688" y2="199.4688"/><path d="M114.1904,199.4688 L114.1904,196.4688 L120.1904,199.4688 L114.1904,202.4688 L114.1904,199.4688 " fill="#181818" style="stroke:#181818;stroke-width:1.5;"/><text fill="#000000" font-family="sans-serif" font-size="14" font-weight="bold" lengthAdjust="spacing" textLength="31.165" x="45.7109" y="240.6123">rule</text><rect fill="#F1F1F1" height="26.2969" rx="5" ry="5" style="stroke:#181818;stroke-width:1.5;" width="18.5791" x="75.7109" y="253.9141"/><text fill="#000000" font-family="sans-serif" font-size="14" lengthAdjust="spacing" textLength="8.5791" x="80.7109" y="271.9092">a</text><ellipse cx="49.7109" cy="267.0625" fill="none" rx="4" ry="4" style="stroke:#181818;stroke-width:2.0;"/><ellipse cx="124.29" cy="267.0625" fill="#181818" rx="4" ry="4" style="stroke:#181818;stroke-width:1.0;"/><line style="stroke:#181818;stroke-width:1.5;" x1="53.7109" x2="75.7109" y1="267.0625" y2="267.0625"/><line style="stroke:#181818;stroke-width:1.5;" x1="94.29" x2="120.29" y1="267.0625" y2="267.0625"/><path d="M105.29,267.0625 L105.29,264.0625 L111.29,267.0625 L105.29,270.0625 L105.29,267.0625 " fill="#181818" style="stroke:#181818;stroke-width:1.5;"/><path d="M45.7109,300.2109 L45.7109,325.3438 L114.4644,325.3438 L114.4644,310.2109 L104.4644,300.2109 L45.7109,300.2109 " fill="#FEFFDD" style="stroke:#181818;stroke-width:0.5;"/><path d="M104.4644,300.2109 L104.4644,310.2109 L114.4644,310.2109 L104.4644,300.2109 " fill="#FEFFDD" style="stroke:#181818;stroke-width:0.5;"/><text fill="#000000" font-family="sans-serif" font-size="13" lengthAdjust="spacing" textLength="39.4888" x="55.8433" y="317.2778">Edges</text><text fill="#000000" font-family="sans-serif" font-size="14" font-weight="bold" lengthAdjust="spacing" textLength="67.6074" x="45.7109" y="353.3389">required</text><rect fill="#F1F1F1" height="26.2969" rx="5" ry="5" style="stroke:#181818;stroke-width:1.5;" width="18.5791" x="75.7109" y="366.6406"/><text fill="#000000" font-family="sans-serif" font-size="14" lengthAdjust="spacing" textLength="8.5791" x="80.7109" y="384.6357">a</text><ellipse cx="49.7109" cy="379.7891" fill="none" rx="4" ry="4" style="stroke:#181818;stroke-width:2.0;"/><ellipse cx="124.29" cy="379.7891" fill="#181818" rx="4" ry="4" style="stroke:#181818;stroke-width:1.0;"/><line style="stroke:#181818;stroke-width:1.5;" x1="53.7109" x2="75.7109" y1="379.7891" y2="379.7891"/><line style="stroke:#181818;stroke-width:1.5;" x1="94.29" x2="120.29" y1="379.7891" y2="379.7891"/><path d="M105.29,379.7891 L105.29,376.7891 L111.29,379.7891 L105.29,382.7891 L105.29,379.7891 " fill="#181818" style="stroke:#181818;stroke-width:1.5;"/><text fill="#000000" font-family="sans-serif" font-size="14" font-weight="bold" lengthAdjust="spacing" textLength="64.9619" x="45.7109" y="420.9326">optional</text><path d="M83.7109,455.3828 C83.7109,461.3828 81.7109,463.3828 75.7109,463.3828 " fill="none" style="stroke:#181818;stroke-width:1.5;"/><line style="stroke:#181818;stroke-width:1.5;" x1="83.7109" x2="83.7109" y1="447.2344" y2="455.3828"/><path d="M83.7109,447.2344 C83.7109,441.2344 85.7109,439.2344 91.7109,439.2344 " fill="none" style="stroke:#181818;stroke-width:1.5;"/><line style="stroke:#181818;stroke-width:1.5;" x1="91.7109" x2="108.29" y1="439.2344" y2="439.2344"/><path d="M116.29,455.3828 C116.29,461.3828 118.29,463.3828 124.29,463.3828 " fill="none" style="stroke:#181818;stroke-width:1.5;"/><line style="stroke:#181818;stroke-width:1.5;" x1="116.29" x2="116.29" y1="447.2344" y2="455.3828"/><path d="M108.29,439.2344 C114.29,439.2344 116.29,441.2344 116.29,447.2344 " fill="none" style="stroke:#181818;stroke-width:1.5;"/><line style="stroke:#181818;stroke-width:1.5;" x1="75.7109" x2="90.7109" y1="463.3828" y2="463.3828"/><line style="stroke:#181818;stroke-width:1.5;" x1="109.29" x2="124.29" y1="463.3828" y2="463.3828"/><rect fill="#F1F1F1" height="26.2969" rx="5" ry="5" style="stroke:#181818;stroke-width:1.5;" width="18.5791" x="90.7109" y="450.2344"/><text fill="#000000" font-family="sans-serif" font-size="14" lengthAdjust="spacing" textLength="8.5791" x="95.7109" y="468.2295">a</text><ellipse cx="49.7109" cy="463.3828" fill="none" rx="4" ry="4" style="stroke:#181818;stroke-width:2.0;"/><ellipse cx="154.29" cy="463.3828" fill="#181818" rx="4" ry="4" style="stroke:#181818;stroke-width:1.0;"/><line style="stroke:#181818;stroke-width:1.5;" x1="53.7109" x2="75.7109" y1="463.3828" y2="463.3828"/><line style="stroke:#181818;stroke-width:1.5;" x1="124.29" x2="150.29" y1="463.3828" y2="463.3828"/><path d="M135.29,463.3828 L135.29,460.3828 L141.29,463.3828 L135.29,466.3828 L135.29,463.3828 " fill="#181818" style="stroke:#181818;stroke-width:1.5;"/><text fill="#000000" font-family="sans-serif" font-size="14" font-weight="bold" lengthAdjust="spacing" textLength="105.2939" x="45.7109" y="504.5264">zero_or_more</text><path d="M83.7109,550.9766 C83.7109,556.9766 81.7109,558.9766 75.7109,558.9766 " fill="none" style="stroke:#181818;stroke-width:1.5;"/><line style="stroke:#181818;stroke-width:1.5;" x1="83.7109" x2="83.7109" y1="530.8281" y2="550.9766"/><path d="M83.7109,530.8281 C83.7109,524.8281 85.7109,522.8281 91.7109,522.8281 " fill="none" style="stroke:#181818;stroke-width:1.5;"/><line style="stroke:#181818;stroke-width:1.5;" x1="91.7109" x2="138.29" y1="522.8281" y2="522.8281"/><path d="M108.3426,522.8281 L108.3426,519.8281 L114.3426,522.8281 L108.3426,525.8281 L108.3426,522.8281 " fill="#181818" style="stroke:#181818;stroke-width:1.5;"/><path d="M146.29,550.9766 C146.29,556.9766 148.29,558.9766 154.29,558.9766 " fill="none" style="stroke:#181818;stroke-width:1.5;"/><line style="stroke:#181818;stroke-width:1.5;" x1="146.29" x2="146.29" y1="530.8281" y2="550.9766"/><path d="M138.29,522.8281 C144.29,522.8281 146.29,524.8281 146.29,530.8281 " fill="none" style="stroke:#181818;stroke-width:1.5;"/><line style="stroke:#181818;stroke-width:1.5;" x1="75.7109" x2="90.7109" y1="558.9766" y2="558.9766"/><line style="stroke:#181818;stroke-width:1.5;" x1="139.29" x2="154.29" y1="558.9766" y2="558.9766"/><path d="M98.7109,550.9766 C98.7109,556.9766 100.7109,558.9766 106.7109,558.9766 " fill="none" style="stroke:#181818;stroke-width:1.5;"/><line style="stroke:#181818;stroke-width:1.5;" x1="98.7109" x2="98.7109" y1="546.8281" y2="550.9766"/><path d="M98.7109,546.8281 C98.7109,540.8281 100.7109,538.8281 106.7109,538.8281 " fill="none" style="stroke:#181818;stroke-width:1.5;"/><line style="stroke:#181818;stroke-width:1.5;" x1="105.7109" x2="124.29" y1="538.8281" y2="538.8281"/><path d="M114.8584,538.8281 L114.8584,535.8281 L108.8584,538.8281 L114.8584,541.8281 L114.8584,538.8281 " fill="#181818" style="stroke:#181818;stroke-width:1.5;"/><path d="M131.29,550.9766 C131.29,556.9766 129.29,558.9766 123.29,558.9766 " fill="none" style="stroke:#181818;stroke-width:1.5;"/><line style="stroke:#181818;stroke-width:1.5;" x1="131.29" x2="131.29" y1="546.8281" y2="550.9766"/><path d="M123.29,538.8281 C129.29,538.8281 131.29,540.8281 131.29,546.8281 " fill="none" style="stroke:#181818;stroke-width:1.5;"/><line style="stroke:#181818;stroke-width:1.5;" x1="90.7109" x2="105.7109" y1="558.9766" y2="558.9766"/><line style="stroke:#181818;stroke-width:1.5;" x1="124.29" x2="139.29" y1="558.9766" y2="558.9766"/><rect fill="#F1F1F1" height="26.2969" rx="5" ry="5" style="stroke:#181818;stroke-width:1.5;" width="18.5791" x="105.7109" y="545.8281"/><text fill="#000000" font-family="sans-serif" font-size="14" lengthAdjust="spacing" textLength="8.5791" x="110.7109" y="563.8232">a</text><ellipse cx="49.7109" cy="558.9766" fill="none" rx="4" ry="4" style="stroke:#181818;stroke-width:2.0;"/><ellipse cx="184.29" cy="558.9766" fill="#181818" rx="4" ry="4" style="stroke:#181818;stroke-width:1.0;"/><line style="stroke:#181818;stroke-width:1.5;" x1="53.7109" x2="75.7109" y1="558.9766" y2="558.9766"/><line style="stroke:#181818;stroke-width:1.5;" x1="154.29" x2="180.29" y1="558.9766" y2="558.9766"/><path d="M165.29,558.9766 L165.29,555.9766 L171.29,558.9766 L165.29,561.9766 L165.29,558.9766 " fill="#181818" style="stroke:#181818;stroke-width:1.5;"/><text fill="#000000" font-family="sans-serif" font-size="14" font-weight="bold" lengthAdjust="spacing" textLength="100.208" x="45.7109" y="600.1201">one_or_more</text><line style="stroke:#181818;stroke-width:1.5;" x1="75.7109" x2="75.7109" y1="654.5703" y2="654.5703"/><rect fill="#F1F1F1" height="26.2969" rx="5" ry="5" style="stroke:#181818;stroke-width:1.5;" width="18.5791" x="75.7109" y="641.4219"/><text fill="#000000" font-family="sans-serif" font-size="14" lengthAdjust="spacing" textLength="8.5791" x="80.7109" y="659.417">a</text><line style="stroke:#181818;stroke-width:1.5;" x1="94.29" x2="114.29" y1="654.5703" y2="654.5703"/><path d="M122.29,646.5703 C122.29,652.5703 120.29,654.5703 114.29,654.5703 " fill="none" style="stroke:#181818;stroke-width:1.5;"/><line style="stroke:#181818;stroke-width:1.5;" x1="122.29" x2="122.29" y1="626.4219" y2="646.5703"/><path d="M122.29,626.4219 C122.29,620.4219 124.29,618.4219 130.29,618.4219 " fill="none" style="stroke:#181818;stroke-width:1.5;"/><line style="stroke:#181818;stroke-width:1.5;" x1="130.29" x2="176.8691" y1="618.4219" y2="618.4219"/><path d="M146.9217,618.4219 L146.9217,615.4219 L152.9217,618.4219 L146.9217,621.4219 L146.9217,618.4219 " fill="#181818" style="stroke:#181818;stroke-width:1.5;"/><path d="M184.8691,646.5703 C184.8691,652.5703 186.8691,654.5703 192.8691,654.5703 " fill="none" style="stroke:#181818;stroke-width:1.5;"/><line style="stroke:#181818;stroke-width:1.5;" x1="184.8691" x2="184.8691" y1="626.4219" y2="646.5703"/><path d="M176.8691,618.4219 C182.8691,618.4219 184.8691,620.4219 184.8691,626.4219 " fill="none" style="stroke:#181818;stroke-width:1.5;"/><line style="stroke:#181818;stroke-width:1.5;" x1="114.29" x2="129.29" y1="654.5703" y2="654.5703"/><line style="stroke:#181818;stroke-width:1.5;" x1="177.8691" x2="192.8691" y1="654.5703" y2="654.5703"/><path d="M137.29,646.5703 C137.29,652.5703 139.29,654.5703 145.29,654.5703 " fill="none" style="stroke:#181818;stroke-width:1.5;"/><line style="stroke:#181818;stroke-width:1.5;" x1="137.29" x2="137.29" y1="642.4219" y2="646.5703"/><path d="M137.29,642.4219 C137.29,636.4219 139.29,634.4219 145.29,634.4219 " fill="none" style="stroke:#181818;stroke-width:1.5;"/><line style="stroke:#181818;stroke-width:1.5;" x1="144.29" x2="162.8691" y1="634.4219" y2="634.4219"/><path d="M153.4375,634.4219 L153.4375,631.4219 L147.4375,634.4219 L153.4375,637.4219 L153.4375,634.4219 " fill="#181818" style="stroke:#181818;stroke-width:1.5;"/><path d="M169.8691,646.5703 C169.8691,652.5703 167.8691,654.5703 161.8691,654.5703 " fill="none" style="stroke:#181818;stroke-width:1.5;"/><line style="stroke:#181818;stroke-width:1.5;" x1="169.8691" x2="169.8691" y1="642.4219" y2="646.5703"/><path d="M161.8691,634.4219 C167.8691,634.4219 169.8691,636.4219 169.8691,642.4219 " fill="none" style="stroke:#181818;stroke-width:1.5;"/><line style="stroke:#181818;stroke-width:1.5;" x1="129.29" x2="144.29" y1="654.5703" y2="654.5703"/><line style="stroke:#181818;stroke-width:1.5;" x1="162.8691" x2="177.8691" y1="654.5703" y2="654.5703"/><rect fill="#F1F1F1" height="26.2969" rx="5" ry="5" style="stroke:#181818;stroke-width:1.5;" width="18.5791" x="144.29" y="641.4219"/><text fill="#000000" font-family="sans-serif" font-size="14" lengthAdjust="spacing" textLength="8.5791" x="149.29" y="659.417">a</text><ellipse cx="49.7109" cy="654.5703" fill="none" rx="4" ry="4" style="stroke:#181818;stroke-width:2.0;"/><ellipse cx="222.8691" cy="654.5703" fill="#181818" rx="4" ry="4" style="stroke:#181818;stroke-width:1.0;"/><line style="stroke:#181818;stroke-width:1.5;" x1="53.7109" x2="75.7109" y1="654.5703" y2="654.5703"/><line style="stroke:#181818;stroke-width:1.5;" x1="192.8691" x2="218.8691" y1="654.5703" y2="654.5703"/><path d="M203.8691,654.5703 L203.8691,651.5703 L209.8691,654.5703 L203.8691,657.5703 L203.8691,654.5703 " fill="#181818" style="stroke:#181818;stroke-width:1.5;"/><text fill="#000000" font-family="sans-serif" font-size="14" font-weight="bold" lengthAdjust="spacing" textLength="142.7822" x="45.7109" y="695.7139">one_or_more_ebnf</text><path d="M83.7109,726.1641 C83.7109,732.1641 85.7109,734.1641 91.7109,734.1641 " fill="none" style="stroke:#181818;stroke-width:1.5;"/><line style="stroke:#181818;stroke-width:1.5;" x1="83.7109" x2="83.7109" y1="722.0156" y2="726.1641"/><path d="M83.7109,722.0156 C83.7109,716.0156 85.7109,714.0156 91.7109,714.0156 " fill="none" style="stroke:#181818;stroke-width:1.5;"/><line style="stroke:#181818;stroke-width:1.5;" x1="90.7109" x2="109.29" y1="714.0156" y2="714.0156"/><path d="M99.8584,714.0156 L99.8584,711.0156 L93.8584,714.0156 L99.8584,717.0156 L99.8584,714.0156 " fill="#181818" style="stroke:#181818;stroke-width:1.5;"/><path d="M116.29,726.1641 C116.29,732.1641 114.29,734.1641 108.29,734.1641 " fill="none" style="stroke:#181818;stroke-width:1.5;"/><line style="stroke:#181818;stroke-width:1.5;" x1="116.29" x2="116.29" y1="722.0156" y2="726.1641"/><path d="M108.29,714.0156 C114.29,714.0156 116.29,716.0156 116.29,722.0156 " fill="none" style="stroke:#181818;stroke-width:1.5;"/><line style="stroke:#181818;stroke-width:1.5;" x1="75.7109" x2="90.7109" y1="734.1641" y2="734.1641"/><line style="stroke:#181818;stroke-width:1.5;" x1="109.29" x2="124.29" y1="734.1641" y2="734.1641"/><rect fill="#F1F1F1" height="26.2969" rx="5" ry="5" style="stroke:#181818;stroke-width:1.5;" width="18.5791" x="90.7109" y="721.0156"/><text fill="#000000" font-family="sans-serif" font-size="14" lengthAdjust="spacing" textLength="8.5791" x="95.7109" y="739.0107">a</text><ellipse cx="49.7109" cy="734.1641" fill="none" rx="4" ry="4" style="stroke:#181818;stroke-width:2.0;"/><ellipse cx="154.29" cy="734.1641" fill="#181818" rx="4" ry="4" style="stroke:#181818;stroke-width:1.0;"/><line style="stroke:#181818;stroke-width:1.5;" x1="53.7109" x2="75.7109" y1="734.1641" y2="734.1641"/><line style="stroke:#181818;stroke-width:1.5;" x1="124.29" x2="150.29" y1="734.1641" y2="734.1641"/><path d="M135.29,734.1641 L135.29,731.1641 L141.29,734.1641 L135.29,737.1641 L135.29,734.1641 " fill="#181818" style="stroke:#181818;stroke-width:1.5;"/><text fill="#000000" font-family="sans-serif" font-size="14" font-weight="bold" lengthAdjust="spacing" textLength="230.5488" x="45.7109" y="775.3076">zero_or_more_with_separator</text><path d="M83.7109,837.7578 C83.7109,843.7578 81.7109,845.7578 75.7109,845.7578 " fill="none" style="stroke:#181818;stroke-width:1.5;"/><line style="stroke:#181818;stroke-width:1.5;" x1="83.7109" x2="83.7109" y1="801.6094" y2="837.7578"/><path d="M83.7109,801.6094 C83.7109,795.6094 85.7109,793.6094 91.7109,793.6094 " fill="none" style="stroke:#181818;stroke-width:1.5;"/><line style="stroke:#181818;stroke-width:1.5;" x1="91.7109" x2="241.3193" y1="793.6094" y2="793.6094"/><path d="M149.5543,793.6094 L149.5543,790.6094 L155.5543,793.6094 L149.5543,796.6094 L149.5543,793.6094 " fill="#181818" style="stroke:#181818;stroke-width:1.5;"/><path d="M249.3193,837.7578 C249.3193,843.7578 251.3193,845.7578 257.3193,845.7578 " fill="none" style="stroke:#181818;stroke-width:1.5;"/><line style="stroke:#181818;stroke-width:1.5;" x1="249.3193" x2="249.3193" y1="801.6094" y2="837.7578"/><path d="M241.3193,793.6094 C247.3193,793.6094 249.3193,795.6094 249.3193,801.6094 " fill="none" style="stroke:#181818;stroke-width:1.5;"/><line style="stroke:#181818;stroke-width:1.5;" x1="75.7109" x2="90.7109" y1="845.7578" y2="845.7578"/><line style="stroke:#181818;stroke-width:1.5;" x1="242.3193" x2="257.3193" y1="845.7578" y2="845.7578"/><line style="stroke:#181818;stroke-width:1.5;" x1="90.7109" x2="90.7109" y1="845.7578" y2="845.7578"/><rect fill="#F1F1F1" height="26.2969" rx="5" ry="5" style="stroke:#181818;stroke-width:1.5;" width="18.5791" x="90.7109" y="832.6094"/><text fill="#000000" font-family="sans-serif" font-size="14" lengthAdjust="spacing" textLength="8.5791" x="95.7109" y="850.6045">a</text><line style="stroke:#181818;stroke-width:1.5;" x1="109.29" x2="129.29" y1="845.7578" y2="845.7578"/><path d="M137.29,837.7578 C137.29,843.7578 135.29,845.7578 129.29,845.7578 " fill="none" style="stroke:#181818;stroke-width:1.5;"/><line style="stroke:#181818;stroke-width:1.5;" x1="137.29" x2="137.29" y1="817.6094" y2="837.7578"/><path d="M137.29,817.6094 C137.29,811.6094 139.29,809.6094 145.29,809.6094 " fill="none" style="stroke:#181818;stroke-width:1.5;"/><line style="stroke:#181818;stroke-width:1.5;" x1="145.29" x2="226.3193" y1="809.6094" y2="809.6094"/><path d="M175.7018,809.6094 L175.7018,806.6094 L181.7018,809.6094 L175.7018,812.6094 L175.7018,809.6094 " fill="#181818" style="stroke:#181818;stroke-width:1.5;"/><path d="M234.3193,837.7578 C234.3193,843.7578 236.3193,845.7578 242.3193,845.7578 " fill="none" style="stroke:#181818;stroke-width:1.5;"/><line style="stroke:#181818;stroke-width:1.5;" x1="234.3193" x2="234.3193" y1="817.6094" y2="837.7578"/><path d="M226.3193,809.6094 C232.3193,809.6094 234.3193,811.6094 234.3193,817.6094 " fill="none" style="stroke:#181818;stroke-width:1.5;"/><line style="stroke:#181818;stroke-width:1.5;" x1="129.29" x2="144.29" y1="845.7578" y2="845.7578"/><line style="stroke:#181818;stroke-width:1.5;" x1="227.3193" x2="242.3193" y1="845.7578" y2="845.7578"/><path d="M152.29,837.7578 C152.29,843.7578 154.29,845.7578 160.29,845.7578 " fill="none" style="stroke:#181818;stroke-width:1.5;"/><line style="stroke:#181818;stroke-width:1.5;" x1="152.29" x2="152.29" y1="833.6094" y2="837.7578"/><path d="M152.29,833.6094 C152.29,827.6094 154.29,825.6094 160.29,825.6094 " fill="none" style="stroke:#181818;stroke-width:1.5;"/><line style="stroke:#181818;stroke-width:1.5;" x1="159.29" x2="212.3193" y1="825.6094" y2="825.6094"/><path d="M189.1076,825.6094 L189.1076,822.6094 L183.1076,825.6094 L189.1076,828.6094 L189.1076,825.6094 " fill="#181818" style="stroke:#181818;stroke-width:1.5;"/><path d="M219.3193,837.7578 C219.3193,843.7578 217.3193,845.7578 211.3193,845.7578 " fill="none" style="stroke:#181818;stroke-width:1.5;"/><line style="stroke:#181818;stroke-width:1.5;" x1="219.3193" x2="219.3193" y1="833.6094" y2="837.7578"/><path d="M211.3193,825.6094 C217.3193,825.6094 219.3193,827.6094 219.3193,833.6094 " fill="none" style="stroke:#181818;stroke-width:1.5;"/><line style="stroke:#181818;stroke-width:1.5;" x1="144.29" x2="159.29" y1="845.7578" y2="845.7578"/><line style="stroke:#181818;stroke-width:1.5;" x1="212.3193" x2="227.3193" y1="845.7578" y2="845.7578"/><line style="stroke:#181818;stroke-width:1.5;" x1="159.29" x2="159.29" y1="845.7578" y2="845.7578"/><rect fill="none" height="26.2969" style="stroke:#181818;stroke-width:0.5;" width="14.4502" x="159.29" y="832.6094"/><text fill="#000000" font-family="sans-serif" font-size="14" lengthAdjust="spacing" textLength="4.4502" x="164.29" y="850.6045">,</text><line style="stroke:#181818;stroke-width:1.5;" x1="173.7402" x2="193.7402" y1="845.7578" y2="845.7578"/><rect fill="#F1F1F1" height="26.2969" rx="5" ry="5" style="stroke:#181818;stroke-width:1.5;" width="18.5791" x="193.7402" y="832.6094"/><text fill="#000000" font-family="sans-serif" font-size="14" lengthAdjust="spacing" textLength="8.5791" x="198.7402" y="850.6045">a</text><ellipse cx="49.7109" cy="845.7578" fill="none" rx="4" ry="4" style="stroke:#181818;stroke-width:2.0;"/><ellipse cx="287.3193" cy="845.7578" fill="#181818" rx="4" ry="4" style="stroke:#181818;stroke-width:1.0;"/><line style="stroke:#181818;stroke-width:1.5;" x1="53.7109" x2="75.7109" y1="845.7578" y2="845.7578"/><line style="stroke:#181818;stroke-width:1.5;" x1="257.3193" x2="283.3193" y1="845.7578" y2="845.7578"/><path d="M268.3193,845.7578 L268.3193,842.7578 L274.3193,845.7578 L268.3193,848.7578 L268.3193,845.7578 " fill="#181818" style="stroke:#181818;stroke-width:1.5;"/><text fill="#000000" font-family="sans-serif" font-size="14" font-weight="bold" lengthAdjust="spacing" textLength="225.4629" x="45.7109" y="886.9014">one_or_more_with_separator</text><line style="stroke:#181818;stroke-width:1.5;" x1="75.7109" x2="75.7109" y1="941.3516" y2="941.3516"/><rect fill="#F1F1F1" height="26.2969" rx="5" ry="5" style="stroke:#181818;stroke-width:1.5;" width="18.5791" x="75.7109" y="928.2031"/><text fill="#000000" font-family="sans-serif" font-size="14" lengthAdjust="spacing" textLength="8.5791" x="80.7109" y="946.1982">a</text><line style="stroke:#181818;stroke-width:1.5;" x1="94.29" x2="114.29" y1="941.3516" y2="941.3516"/><path d="M122.29,933.3516 C122.29,939.3516 120.29,941.3516 114.29,941.3516 " fill="none" style="stroke:#181818;stroke-width:1.5;"/><line style="stroke:#181818;stroke-width:1.5;" x1="122.29" x2="122.29" y1="913.2031" y2="933.3516"/><path d="M122.29,913.2031 C122.29,907.2031 124.29,905.2031 130.29,905.2031 " fill="none" style="stroke:#181818;stroke-width:1.5;"/><line style="stroke:#181818;stroke-width:1.5;" x1="130.29" x2="211.3193" y1="905.2031" y2="905.2031"/><path d="M160.7018,905.2031 L160.7018,902.2031 L166.7018,905.2031 L160.7018,908.2031 L160.7018,905.2031 " fill="#181818" style="stroke:#181818;stroke-width:1.5;"/><path d="M219.3193,933.3516 C219.3193,939.3516 221.3193,941.3516 227.3193,941.3516 " fill="none" style="stroke:#181818;stroke-width:1.5;"/><line style="stroke:#181818;stroke-width:1.5;" x1="219.3193" x2="219.3193" y1="913.2031" y2="933.3516"/><path d="M211.3193,905.2031 C217.3193,905.2031 219.3193,907.2031 219.3193,913.2031 " fill="none" style="stroke:#181818;stroke-width:1.5;"/><line style="stroke:#181818;stroke-width:1.5;" x1="114.29" x2="129.29" y1="941.3516" y2="941.3516"/><line style="stroke:#181818;stroke-width:1.5;" x1="212.3193" x2="227.3193" y1="941.3516" y2="941.3516"/><path d="M137.29,933.3516 C137.29,939.3516 139.29,941.3516 145.29,941.3516 " fill="none" style="stroke:#181818;stroke-width:1.5;"/><line style="stroke:#181818;stroke-width:1.5;" x1="137.29" x2="137.29" y1="929.2031" y2="933.3516"/><path d="M137.29,929.2031 C137.29,923.2031 139.29,921.2031 145.29,921.2031 " fill="none" style="stroke:#181818;stroke-width:1.5;"/><line style="stroke:#181818;stroke-width:1.5;" x1="144.29" x2="197.3193" y1="921.2031" y2="921.2031"/><path d="M174.1076,921.2031 L174.1076,918.2031 L168.1076,921.2031 L174.1076,924.2031 L174.1076,921.2031 " fill="#181818" style="stroke:#181818;stroke-width:1.5;"/><path d="M204.3193,933.3516 C204.3193,939.3516 202.3193,941.3516 196.3193,941.3516 " fill="none" style="stroke:#181818;stroke-width:1.5;"/><line style="stroke:#181818;stroke-width:1.5;" x1="204.3193" x2="204.3193" y1="929.2031" y2="933.3516"/><path d="M196.3193,921.2031 C202.3193,921.2031 204.3193,923.2031 204.3193,929.2031 " fill="none" style="stroke:#181818;stroke-width:1.5;"/><line style="stroke:#181818;stroke-width:1.5;" x1="129.29" x2="144.29" y1="941.3516" y2="941.3516"/><line style="stroke:#181818;stroke-width:1.5;" x1="197.3193" x2="212.3193" y1="941.3516" y2="941.3516"/><line style="stroke:#181818;stroke-width:1.5;" x1="144.29" x2="144.29" y1="941.3516" y2="941.3516"/><rect fill="none" height="26.2969" style="stroke:#181818;stroke-width:0.5;" width="14.4502" x="144.29" y="928.2031"/><text fill="#000000" font-family="sans-serif" font-size="14" lengthAdjust="spacing" textLength="4.4502" x="149.29" y="946.1982">,</text><line style="stroke:#181818;stroke-width:1.5;" x1="158.7402" x2="178.7402" y1="941.3516" y2="941.3516"/><rect fill="#F1F1F1" height="26.2969" rx="5" ry="5" style="stroke:#181818;stroke-width:1.5;" width="18.5791" x="178.7402" y="928.2031"/><text fill="#000000" font-family="sans-serif" font-size="14" lengthAdjust="spacing" textLength="8.5791" x="183.7402" y="946.1982">a</text><ellipse cx="49.7109" cy="941.3516" fill="none" rx="4" ry="4" style="stroke:#181818;stroke-width:2.0;"/><ellipse cx="257.3193" cy="941.3516" fill="#181818" rx="4" ry="4" style="stroke:#181818;stroke-width:1.0;"/><line style="stroke:#181818;stroke-width:1.5;" x1="53.7109" x2="75.7109" y1="941.3516" y2="941.3516"/><line style="stroke:#181818;stroke-width:1.5;" x1="227.3193" x2="253.3193" y1="941.3516" y2="941.3516"/><path d="M238.3193,941.3516 L238.3193,938.3516 L244.3193,941.3516 L238.3193,944.3516 L238.3193,941.3516 " fill="#181818" style="stroke:#181818;stroke-width:1.5;"/><text fill="#000000" font-family="sans-serif" font-size="14" font-weight="bold" lengthAdjust="spacing" textLength="238.793" x="45.7109" y="982.4951">zero_or_more_with_terminator</text><path d="M83.7109,1028.9453 C83.7109,1034.9453 81.7109,1036.9453 75.7109,1036.9453 " fill="none" style="stroke:#181818;stroke-width:1.5;"/><line style="stroke:#181818;stroke-width:1.5;" x1="83.7109" x2="83.7109" y1="1008.7969" y2="1028.9453"/><path d="M83.7109,1008.7969 C83.7109,1002.7969 85.7109,1000.7969 91.7109,1000.7969 " fill="none" style="stroke:#181818;stroke-width:1.5;"/><line style="stroke:#181818;stroke-width:1.5;" x1="91.7109" x2="172.7402" y1="1000.7969" y2="1000.7969"/><path d="M122.1227,1000.7969 L122.1227,997.7969 L128.1227,1000.7969 L122.1227,1003.7969 L122.1227,1000.7969 " fill="#181818" style="stroke:#181818;stroke-width:1.5;"/><path d="M180.7402,1028.9453 C180.7402,1034.9453 182.7402,1036.9453 188.7402,1036.9453 " fill="none" style="stroke:#181818;stroke-width:1.5;"/><line style="stroke:#181818;stroke-width:1.5;" x1="180.7402" x2="180.7402" y1="1008.7969" y2="1028.9453"/><path d="M172.7402,1000.7969 C178.7402,1000.7969 180.7402,1002.7969 180.7402,1008.7969 " fill="none" style="stroke:#181818;stroke-width:1.5;"/><line style="stroke:#181818;stroke-width:1.5;" x1="75.7109" x2="90.7109" y1="1036.9453" y2="1036.9453"/><line style="stroke:#181818;stroke-width:1.5;" x1="173.7402" x2="188.7402" y1="1036.9453" y2="1036.9453"/><path d="M98.7109,1028.9453 C98.7109,1034.9453 100.7109,1036.9453 106.7109,1036.9453 " fill="none" style="stroke:#181818;stroke-width:1.5;"/><line style="stroke:#181818;stroke-width:1.5;" x1="98.7109" x2="98.7109" y1="1024.7969" y2="1028.9453"/><path d="M98.7109,1024.7969 C98.7109,1018.7969 100.7109,1016.7969 106.7109,1016.7969 " fill="none" style="stroke:#181818;stroke-width:1.5;"/><line style="stroke:#181818;stroke-width:1.5;" x1="105.7109" x2="158.7402" y1="1016.7969" y2="1016.7969"/><path d="M135.5285,1016.7969 L135.5285,1013.7969 L129.5285,1016.7969 L135.5285,1019.7969 L135.5285,1016.7969 " fill="#181818" style="stroke:#181818;stroke-width:1.5;"/><path d="M165.7402,1028.9453 C165.7402,1034.9453 163.7402,1036.9453 157.7402,1036.9453 " fill="none" style="stroke:#181818;stroke-width:1.5;"/><line style="stroke:#181818;stroke-width:1.5;" x1="165.7402" x2="165.7402" y1="1024.7969" y2="1028.9453"/><path d="M157.7402,1016.7969 C163.7402,1016.7969 165.7402,1018.7969 165.7402,1024.7969 " fill="none" style="stroke:#181818;stroke-width:1.5;"/><line style="stroke:#181818;stroke-width:1.5;" x1="90.7109" x2="105.7109" y1="1036.9453" y2="1036.9453"/><line style="stroke:#181818;stroke-width:1.5;" x1="158.7402" x2="173.7402" y1="1036.9453" y2="1036.9453"/><line style="stroke:#181818;stroke-width:1.5;" x1="105.7109" x2="105.7109" y1="1036.9453" y2="1036.9453"/><rect fill="#F1F1F1" height="26.2969" rx="5" ry="5" style="stroke:#181818;stroke-width:1.5;" width="18.5791" x="105.7109" y="1023.7969"/><text fill="#000000" font-family="sans-serif" font-size="14" lengthAdjust="spacing" textLength="8.5791" x="110.7109" y="1041.792">a</text><line style="stroke:#181818;stroke-width:1.5;" x1="124.29" x2="144.29" y1="1036.9453" y2="1036.9453"/><rect fill="none" height="26.2969" style="stroke:#181818;stroke-width:0.5;" width="14.4502" x="144.29" y="1023.7969"/><text fill="#000000" font-family="sans-serif" font-size="14" lengthAdjust="spacing" textLength="4.4502" x="149.29" y="1041.792">,</text><ellipse cx="49.7109" cy="1036.9453" fill="none" rx="4" ry="4" style="stroke:#181818;stroke-width:2.0;"/><ellipse cx="218.7402" cy="1036.9453" fill="#181818" rx="4" ry="4" style="stroke:#181818;stroke-width:1.0;"/><line style="stroke:#181818;stroke-width:1.5;" x1="53.7109" x2="75.7109" y1="1036.9453" y2="1036.9453"/><line style="stroke:#181818;stroke-width:1.5;" x1="188.7402" x2="214.7402" y1="1036.9453" y2="1036.9453"/><path d="M199.7402,1036.9453 L199.7402,1033.9453 L205.7402,1036.9453 L199.7402,1039.9453 L199.7402,1036.9453 " fill="#181818" style="stroke:#181818;stroke-width:1.5;"/><text fill="#000000" font-family="sans-serif" font-size="14" font-weight="bold" lengthAdjust="spacing" textLength="233.707" x="45.7109" y="1078.0889">one_or_more_with_terminator</text><line style="stroke:#181818;stroke-width:1.5;" x1="75.7109" x2="75.7109" y1="1132.5391" y2="1132.5391"/><rect fill="#F1F1F1" height="26.2969" rx="5" ry="5" style="stroke:#181818;stroke-width:1.5;" width="18.5791" x="75.7109" y="1119.3906"/><text fill="#000000" font-family="sans-serif" font-size="14" lengthAdjust="spacing" textLength="8.5791" x="80.7109" y="1137.3857">a</text><line style="stroke:#181818;stroke-width:1.5;" x1="94.29" x2="114.29" y1="1132.5391" y2="1132.5391"/><rect fill="none" height="26.2969" style="stroke:#181818;stroke-width:0.5;" width="14.4502" x="114.29" y="1119.3906"/><text fill="#000000" font-family="sans-serif" font-size="14" lengthAdjust="spacing" textLength="4.4502" x="119.29" y="1137.3857">,</text><line style="stroke:#181818;stroke-width:1.5;" x1="128.7402" x2="148.7402" y1="1132.5391" y2="1132.5391"/><path d="M156.7402,1124.5391 C156.7402,1130.5391 154.7402,1132.5391 148.7402,1132.5391 " fill="none" style="stroke:#181818;stroke-width:1.5;"/><line style="stroke:#181818;stroke-width:1.5;" x1="156.7402" x2="156.7402" y1="1104.3906" y2="1124.5391"/><path d="M156.7402,1104.3906 C156.7402,1098.3906 158.7402,1096.3906 164.7402,1096.3906 " fill="none" style="stroke:#181818;stroke-width:1.5;"/><line style="stroke:#181818;stroke-width:1.5;" x1="164.7402" x2="245.7695" y1="1096.3906" y2="1096.3906"/><path d="M195.152,1096.3906 L195.152,1093.3906 L201.152,1096.3906 L195.152,1099.3906 L195.152,1096.3906 " fill="#181818" style="stroke:#181818;stroke-width:1.5;"/><path d="M253.7695,1124.5391 C253.7695,1130.5391 255.7695,1132.5391 261.7695,1132.5391 " fill="none" style="stroke:#181818;stroke-width:1.5;"/><line style="stroke:#181818;stroke-width:1.5;" x1="253.7695" x2="253.7695" y1="1104.3906" y2="1124.5391"/><path d="M245.7695,1096.3906 C251.7695,1096.3906 253.7695,1098.3906 253.7695,1104.3906 " fill="none" style="stroke:#181818;stroke-width:1.5;"/><line style="stroke:#181818;stroke-width:1.5;" x1="148.7402" x2="163.7402" y1="1132.5391" y2="1132.5391"/><line style="stroke:#181818;stroke-width:1.5;" x1="246.7695" x2="261.7695" y1="1132.5391" y2="1132.5391"/><path d="M171.7402,1124.5391 C171.7402,1130.5391 173.7402,1132.5391 179.7402,1132.5391 " fill="none" style="stroke:#181818;stroke-width:1.5;"/><line style="stroke:#181818;stroke-width:1.5;" x1="171.7402" x2="171.7402" y1="1120.3906" y2="1124.5391"/><path d="M171.7402,1120.3906 C171.7402,1114.3906 173.7402,1112.3906 179.7402,1112.3906 " fill="none" style="stroke:#181818;stroke-width:1.5;"/><line style="stroke:#181818;stroke-width:1.5;" x1="178.7402" x2="231.7695" y1="1112.3906" y2="1112.3906"/><path d="M208.5578,1112.3906 L208.5578,1109.3906 L202.5578,1112.3906 L208.5578,1115.3906 L208.5578,1112.3906 " fill="#181818" style="stroke:#181818;stroke-width:1.5;"/><path d="M238.7695,1124.5391 C238.7695,1130.5391 236.7695,1132.5391 230.7695,1132.5391 " fill="none" style="stroke:#181818;stroke-width:1.5;"/><line style="stroke:#181818;stroke-width:1.5;" x1="238.7695" x2="238.7695" y1="1120.3906" y2="1124.5391"/><path d="M230.7695,1112.3906 C236.7695,1112.3906 238.7695,1114.3906 238.7695,1120.3906 " fill="none" style="stroke:#181818;stroke-width:1.5;"/><line style="stroke:#181818;stroke-width:1.5;" x1="163.7402" x2="178.7402" y1="1132.5391" y2="1132.5391"/><line style="stroke:#181818;stroke-width:1.5;" x1="231.7695" x2="246.7695" y1="1132.5391" y2="1132.5391"/><line style="stroke:#181818;stroke-width:1.5;" x1="178.7402" x2="178.7402" y1="1132.5391" y2="1132.5391"/><rect fill="#F1F1F1" height="26.2969" rx="5" ry="5" style="stroke:#181818;stroke-width:1.5;" width="18.5791" x="178.7402" y="1119.3906"/><text fill="#000000" font-family="sans-serif" font-size="14" lengthAdjust="spacing" textLength="8.5791" x="183.7402" y="1137.3857">a</text><line style="stroke:#181818;stroke-width:1.5;" x1="197.3193" x2="217.3193" y1="1132.5391" y2="1132.5391"/><rect fill="none" height="26.2969" style="stroke:#181818;stroke-width:0.5;" width="14.4502" x="217.3193" y="1119.3906"/><text fill="#000000" font-family="sans-serif" font-size="14" lengthAdjust="spacing" textLength="4.4502" x="222.3193" y="1137.3857">,</text><ellipse cx="49.7109" cy="1132.5391" fill="none" rx="4" ry="4" style="stroke:#181818;stroke-width:2.0;"/><ellipse cx="291.7695" cy="1132.5391" fill="#181818" rx="4" ry="4" style="stroke:#181818;stroke-width:1.0;"/><line style="stroke:#181818;stroke-width:1.5;" x1="53.7109" x2="75.7109" y1="1132.5391" y2="1132.5391"/><line style="stroke:#181818;stroke-width:1.5;" x1="261.7695" x2="287.7695" y1="1132.5391" y2="1132.5391"/><path d="M272.7695,1132.5391 L272.7695,1129.5391 L278.7695,1132.5391 L272.7695,1135.5391 L272.7695,1132.5391 " fill="#181818" style="stroke:#181818;stroke-width:1.5;"/><text fill="#000000" font-family="sans-serif" font-size="14" font-weight="bold" lengthAdjust="spacing" textLength="276.2813" x="45.7109" y="1173.6826">one_or_more_with_terminator_ebnf</text><path d="M83.7109,1204.1328 C83.7109,1210.1328 85.7109,1212.1328 91.7109,1212.1328 " fill="none" style="stroke:#181818;stroke-width:1.5;"/><line style="stroke:#181818;stroke-width:1.5;" x1="83.7109" x2="83.7109" y1="1199.9844" y2="1204.1328"/><path d="M83.7109,1199.9844 C83.7109,1193.9844 85.7109,1191.9844 91.7109,1191.9844 " fill="none" style="stroke:#181818;stroke-width:1.5;"/><line style="stroke:#181818;stroke-width:1.5;" x1="90.7109" x2="143.7402" y1="1191.9844" y2="1191.9844"/><path d="M120.5285,1191.9844 L120.5285,1188.9844 L114.5285,1191.9844 L120.5285,1194.9844 L120.5285,1191.9844 " fill="#181818" style="stroke:#181818;stroke-width:1.5;"/><path d="M150.7402,1204.1328 C150.7402,1210.1328 148.7402,1212.1328 142.7402,1212.1328 " fill="none" style="stroke:#181818;stroke-width:1.5;"/><line style="stroke:#181818;stroke-width:1.5;" x1="150.7402" x2="150.7402" y1="1199.9844" y2="1204.1328"/><path d="M142.7402,1191.9844 C148.7402,1191.9844 150.7402,1193.9844 150.7402,1199.9844 " fill="none" style="stroke:#181818;stroke-width:1.5;"/><line style="stroke:#181818;stroke-width:1.5;" x1="75.7109" x2="90.7109" y1="1212.1328" y2="1212.1328"/><line style="stroke:#181818;stroke-width:1.5;" x1="143.7402" x2="158.7402" y1="1212.1328" y2="1212.1328"/><line style="stroke:#181818;stroke-width:1.5;" x1="90.7109" x2="90.7109" y1="1212.1328" y2="1212.1328"/><rect fill="#F1F1F1" height="26.2969" rx="5" ry="5" style="stroke:#181818;stroke-width:1.5;" width="18.5791" x="90.7109" y="1198.9844"/><text fill="#000000" font-family="sans-serif" font-size="14" lengthAdjust="spacing" textLength="8.5791" x="95.7109" y="1216.9795">a</text><line style="stroke:#181818;stroke-width:1.5;" x1="109.29" x2="129.29" y1="1212.1328" y2="1212.1328"/><rect fill="none" height="26.2969" style="stroke:#181818;stroke-width:0.5;" width="14.4502" x="129.29" y="1198.9844"/><text fill="#000000" font-family="sans-serif" font-size="14" lengthAdjust="spacing" textLength="4.4502" x="134.29" y="1216.9795">,</text><ellipse cx="49.7109" cy="1212.1328" fill="none" rx="4" ry="4" style="stroke:#181818;stroke-width:2.0;"/><ellipse cx="188.7402" cy="1212.1328" fill="#181818" rx="4" ry="4" style="stroke:#181818;stroke-width:1.0;"/><line style="stroke:#181818;stroke-width:1.5;" x1="53.7109" x2="75.7109" y1="1212.1328" y2="1212.1328"/><line style="stroke:#181818;stroke-width:1.5;" x1="158.7402" x2="184.7402" y1="1212.1328" y2="1212.1328"/><path d="M169.7402,1212.1328 L169.7402,1209.1328 L175.7402,1212.1328 L169.7402,1215.1328 L169.7402,1212.1328 " fill="#181818" style="stroke:#181818;stroke-width:1.5;"/><text fill="#000000" font-family="sans-serif" font-size="14" font-weight="bold" lengthAdjust="spacing" textLength="86.8643" x="45.7109" y="1253.2764">alternative</text><rect fill="#F1F1F1" height="26.2969" rx="5" ry="5" style="stroke:#181818;stroke-width:1.5;" width="18.5791" x="99.7109" y="1266.5781"/><text fill="#000000" font-family="sans-serif" font-size="14" lengthAdjust="spacing" textLength="8.5791" x="104.7109" y="1284.5732">a</text><line style="stroke:#181818;stroke-width:1.5;" x1="75.7109" x2="99.7109" y1="1279.7266" y2="1279.7266"/><line style="stroke:#181818;stroke-width:1.5;" x1="118.29" x2="142.5977" y1="1279.7266" y2="1279.7266"/><rect fill="#F1F1F1" height="26.2969" rx="5" ry="5" style="stroke:#181818;stroke-width:1.5;" width="18.8867" x="99.7109" y="1302.875"/><text fill="#000000" font-family="sans-serif" font-size="14" lengthAdjust="spacing" textLength="8.8867" x="104.7109" y="1320.8701">b</text><line style="stroke:#181818;stroke-width:1.5;" x1="118.5977" x2="118.5977" y1="1316.0234" y2="1316.0234"/><path d="M87.7109,1304.0234 C87.7109,1313.0234 90.7109,1316.0234 99.7109,1316.0234 " fill="none" style="stroke:#181818;stroke-width:1.5;"/><line style="stroke:#181818;stroke-width:1.5;" x1="87.7109" x2="87.7109" y1="1291.7266" y2="1304.0234"/><path d="M75.7109,1279.7266 C84.7109,1279.7266 87.7109,1282.7266 87.7109,1291.7266 " fill="none" style="stroke:#181818;stroke-width:1.5;"/><path d="M130.5977,1304.0234 C130.5977,1313.0234 127.5977,1316.0234 118.5977,1316.0234 " fill="none" style="stroke:#181818;stroke-width:1.5;"/><line style="stroke:#181818;stroke-width:1.5;" x1="130.5977" x2="130.5977" y1="1291.7266" y2="1304.0234"/><path d="M130.5977,1291.7266 C130.5977,1282.7266 133.5977,1279.7266 142.5977,1279.7266 " fill="none" style="stroke:#181818;stroke-width:1.5;"/><ellipse cx="49.7109" cy="1279.7266" fill="none" rx="4" ry="4" style="stroke:#181818;stroke-width:2.0;"/><ellipse cx="172.5977" cy="1279.7266" fill="#181818" rx="4" ry="4" style="stroke:#181818;stroke-width:1.0;"/><line style="stroke:#181818;stroke-width:1.5;" x1="53.7109" x2="75.7109" y1="1279.7266" y2="1279.7266"/><line style="stroke:#181818;stroke-width:1.5;" x1="142.5977" x2="168.5977" y1="1279.7266" y2="1279.7266"/><path d="M153.5977,1279.7266 L153.5977,1276.7266 L159.5977,1279.7266 L153.5977,1282.7266 L153.5977,1279.7266 " fill="#181818" style="stroke:#181818;stroke-width:1.5;"/><text fill="#000000" font-family="sans-serif" font-size="14" font-weight="bold" lengthAdjust="spacing" textLength="46.5322" x="45.7109" y="1357.167">group</text><line style="stroke:#181818;stroke-width:1.5;" x1="75.7109" x2="75.7109" y1="1383.6172" y2="1383.6172"/><rect fill="#F1F1F1" height="26.2969" rx="5" ry="5" style="stroke:#181818;stroke-width:1.5;" width="18.5791" x="99.7109" y="1370.4688"/><text fill="#000000" font-family="sans-serif" font-size="14" lengthAdjust="spacing" textLength="8.5791" x="104.7109" y="1388.4639">a</text><line style="stroke:#181818;stroke-width:1.5;" x1="75.7109" x2="99.7109" y1="1383.6172" y2="1383.6172"/><line style="stroke:#181818;stroke-width:1.5;" x1="118.29" x2="142.5977" y1="1383.6172" y2="1383.6172"/><rect fill="#F1F1F1" height="26.2969" rx="5" ry="5" style="stroke:#181818;stroke-width:1.5;" width="18.8867" x="99.7109" y="1406.7656"/><text fill="#000000" font-family="sans-serif" font-size="14" lengthAdjust="spacing" textLength="8.8867" x="104.7109" y="1424.7607">b</text><line style="stroke:#181818;stroke-width:1.5;" x1="118.5977" x2="118.5977" y1="1419.9141" y2="1419.9141"/><path d="M87.7109,1407.9141 C87.7109,1416.9141 90.7109,1419.9141 99.7109,1419.9141 " fill="none" style="stroke:#181818;stroke-width:1.5;"/><line style="stroke:#181818;stroke-width:1.5;" x1="87.7109" x2="87.7109" y1="1395.6172" y2="1407.9141"/><path d="M75.7109,1383.6172 C84.7109,1383.6172 87.7109,1386.6172 87.7109,1395.6172 " fill="none" style="stroke:#181818;stroke-width:1.5;"/><path d="M130.5977,1407.9141 C130.5977,1416.9141 127.5977,1419.9141 118.5977,1419.9141 " fill="none" style="stroke:#181818;stroke-width:1.5;"/><line style="stroke:#181818;stroke-width:1.5;" x1="130.5977" x2="130.5977" y1="1395.6172" y2="1407.9141"/><path d="M130.5977,1395.6172 C130.5977,1386.6172 133.5977,1383.6172 142.5977,1383.6172 " fill="none" style="stroke:#181818;stroke-width:1.5;"/><line style="stroke:#181818;stroke-width:1.5;" x1="142.5977" x2="162.5977" y1="1383.6172" y2="1383.6172"/><rect fill="#F1F1F1" height="26.2969" rx="5" ry="5" style="stroke:#181818;stroke-width:1.5;" width="17.6973" x="162.5977" y="1370.4688"/><text fill="#000000" font-family="sans-serif" font-size="14" lengthAdjust="spacing" textLength="7.6973" x="167.5977" y="1388.4639">c</text><ellipse cx="49.7109" cy="1383.6172" fill="none" rx="4" ry="4" style="stroke:#181818;stroke-width:2.0;"/><ellipse cx="210.2949" cy="1383.6172" fill="#181818" rx="4" ry="4" style="stroke:#181818;stroke-width:1.0;"/><line style="stroke:#181818;stroke-width:1.5;" x1="53.7109" x2="75.7109" y1="1383.6172" y2="1383.6172"/><line style="stroke:#181818;stroke-width:1.5;" x1="180.2949" x2="206.2949" y1="1383.6172" y2="1383.6172"/><path d="M191.2949,1383.6172 L191.2949,1380.6172 L197.2949,1383.6172 L191.2949,1386.6172 L191.2949,1383.6172 " fill="#181818" style="stroke:#181818;stroke-width:1.5;"/><text fill="#000000" font-family="sans-serif" font-size="14" font-weight="bold" lengthAdjust="spacing" textLength="114.2012" x="45.7109" y="1461.0576">without_group</text><rect fill="#F1F1F1" height="26.2969" rx="5" ry="5" style="stroke:#181818;stroke-width:1.5;" width="18.5791" x="99.7109" y="1474.3594"/><text fill="#000000" font-family="sans-serif" font-size="14" lengthAdjust="spacing" textLength="8.5791" x="104.7109" y="1492.3545">a</text><line style="stroke:#181818;stroke-width:1.5;" x1="75.7109" x2="99.7109" y1="1487.5078" y2="1487.5078"/><line style="stroke:#181818;stroke-width:1.5;" x1="118.29" x2="180.2949" y1="1487.5078" y2="1487.5078"/><line style="stroke:#181818;stroke-width:1.5;" x1="99.7109" x2="99.7109" y1="1523.8047" y2="1523.8047"/><rect fill="#F1F1F1" height="26.2969" rx="5" ry="5" style="stroke:#181818;stroke-width:1.5;" width="18.8867" x="99.7109" y="1510.6563"/><text fill="#000000" font-family="sans-serif" font-size="14" lengthAdjust="spacing" textLength="8.8867" x="104.7109" y="1528.6514">b</text><line style="stroke:#181818;stroke-width:1.5;" x1="118.5977" x2="138.5977" y1="1523.8047" y2="1523.8047"/><rect fill="#F1F1F1" height="26.2969" rx="5" ry="5" style="stroke:#181818;stroke-width:1.5;" width="17.6973" x="138.5977" y="1510.6563"/><text fill="#000000" font-family="sans-serif" font-size="14" lengthAdjust="spacing" textLength="7.6973" x="143.5977" y="1528.6514">c</text><line style="stroke:#181818;stroke-width:1.5;" x1="156.2949" x2="156.2949" y1="1523.8047" y2="1523.8047"/><path d="M87.7109,1511.8047 C87.7109,1520.8047 90.7109,1523.8047 99.7109,1523.8047 " fill="none" style="stroke:#181818;stroke-width:1.5;"/><line style="stroke:#181818;stroke-width:1.5;" x1="87.7109" x2="87.7109" y1="1499.5078" y2="1511.8047"/><path d="M75.7109,1487.5078 C84.7109,1487.5078 87.7109,1490.5078 87.7109,1499.5078 " fill="none" style="stroke:#181818;stroke-width:1.5;"/><path d="M168.2949,1511.8047 C168.2949,1520.8047 165.2949,1523.8047 156.2949,1523.8047 " fill="none" style="stroke:#181818;stroke-width:1.5;"/><line style="stroke:#181818;stroke-width:1.5;" x1="168.2949" x2="168.2949" y1="1499.5078" y2="1511.8047"/><path d="M168.2949,1499.5078 C168.2949,1490.5078 171.2949,1487.5078 180.2949,1487.5078 " fill="none" style="stroke:#181818;stroke-width:1.5;"/><ellipse cx="49.7109" cy="1487.5078" fill="none" rx="4" ry="4" style="stroke:#181818;stroke-width:2.0;"/><ellipse cx="210.2949" cy="1487.5078" fill="#181818" rx="4" ry="4" style="stroke:#181818;stroke-width:1.0;"/><line style="stroke:#181818;stroke-width:1.5;" x1="53.7109" x2="75.7109" y1="1487.5078" y2="1487.5078"/><line style="stroke:#181818;stroke-width:1.5;" x1="180.2949" x2="206.2949" y1="1487.5078" y2="1487.5078"/><path d="M191.2949,1487.5078 L191.2949,1484.5078 L197.2949,1487.5078 L191.2949,1490.5078 L191.2949,1487.5078 " fill="#181818" style="stroke:#181818;stroke-width:1.5;"/><!--SRC=[ZP9DJzj048Rl-oj6N4YGWmAD8ceBGO5GAKqeQWgN2bcJU71NMk-wwzbKbEQ_Txnk11GEFSwypxoxyt7QC7gcfRrNhDaGV3069cTNbq26AhBSG8KMIofW-G3N1YtVp6TAzVRWoXNKm5vV6SrC7WqSmmxkPAgfQQLZU0889vdoGOoF0RDODodAhixJZw2zE4V9rQoTZMNVy4xGN-HTxdnUETzMF-9684lFKfYyokPjAnqz-CSZ_wdvUzvGZHxP-VYE6EmckmdWvkwbpIls6PgzOIi3gBJzopuABEpc3SiNN8Sb_yS_TTR1RNjeH1TLh-Cuu3SiCrLw5se9Up7kGmAhJBLcBd2-5QFMIQTaYtW0QhjUM9DlP1bmi7yuF1pjZtiBP9W60yCn3D-d1wFqtH7SV3s7LkwhtiVh6JGk-1L1eHlsUXdQPVRL5DS8Nu9bNL4AdskoqujFsmHCx5fxPzipKzFR-HCm7WtEDCE2lFm4RkVgWkun69QAbIkqBLDv_N9mf6Peoo3NcG9PTUx4rp-8jlW3]--></g></svg>