<svg xmlns="http://www.w3.org/2000/svg" xmlns:xlink="http://www.w3.org/1999/xlink" contentStyleType="text/css" height="1563px" preserveAspectRatio="none" style="width:362px;height:1563px;background:#FFFFFF;" version="1.1" viewBox="0 0 362 1563" width="362px" zoomAndPan="magnify"><defs/><g><text fill="#000000" font-family="sans-serif" font-size="14" font-weight="bold" lengthAdjust="spacing" textLength="319" x="20" y="32.9951">All EBNF elements managed by PlantUML</text><path d="M42,52.2969 L42,77.4297 L112,77.4297 L112,62.2969 L102,52.2969 L42,52.2969 " fill="#FEFFDD" style="stroke:#181818;stroke-width:0.5;"/><path d="M102,52.2969 L102,62.2969 L112,62.2969 L102,52.2969 " fill="#FEFFDD" style="stroke:#181818;stroke-width:0.5;"/><text fill="#000000" font-family="sans-serif" font-size="13" lengthAdjust="spacing" textLength="41" x="52" y="69.3638">Nodes</text><text fill="#000000" font-family="sans-serif" font-size="14" font-weight="bold" lengthAdjust="spacing" textLength="50" x="42" y="105.4248">litteral</text><rect fill="none" height="26.2969" style="stroke:#181818;stroke-width:0.5;" width="18" x="72" y="118.7266"/><text fill="#000000" font-family="sans-serif" font-size="14" lengthAdjust="spacing" textLength="8" x="77" y="136.7217">a</text><ellipse cx="46" cy="131.875" fill="none" rx="4" ry="4" style="stroke:#181818;stroke-width:2.0;"/><ellipse cx="120" cy="131.875" fill="#181818" rx="4" ry="4" style="stroke:#181818;stroke-width:1.0;"/><line style="stroke:#181818;stroke-width:1.5;" x1="50" x2="72" y1="131.875" y2="131.875"/><line style="stroke:#181818;stroke-width:1.5;" x1="90" x2="116" y1="131.875" y2="131.875"/><path d="M101,131.875 L101,128.875 L107,131.875 L101,134.875 L101,131.875 " fill="#181818" style="stroke:#181818;stroke-width:1.5;"/><text fill="#000000" font-family="sans-serif" font-size="14" font-weight="bold" lengthAdjust="spacing" textLength="55" x="42" y="173.0186">special</text><rect fill="none" height="26.2969" style="stroke:#181818;stroke-width:1.0;stroke-dasharray:5.0,5.0;" width="26" x="72" y="186.3203"/><text fill="#000000" font-family="sans-serif" font-size="14" lengthAdjust="spacing" textLength="8" x="81" y="204.3154">a</text><ellipse cx="46" cy="199.4688" fill="none" rx="4" ry="4" style="stroke:#181818;stroke-width:2.0;"/><ellipse cx="128" cy="199.4688" fill="#181818" rx="4" ry="4" style="stroke:#181818;stroke-width:1.0;"/><line style="stroke:#181818;stroke-width:1.5;" x1="50" x2="72" y1="199.4688" y2="199.4688"/><line style="stroke:#181818;stroke-width:1.5;" x1="98" x2="124" y1="199.4688" y2="199.4688"/><path d="M109,199.4688 L109,196.4688 L115,199.4688 L109,202.4688 L109,199.4688 " fill="#181818" style="stroke:#181818;stroke-width:1.5;"/><text fill="#000000" font-family="sans-serif" font-size="14" font-weight="bold" lengthAdjust="spacing" textLength="31" x="42" y="240.6123">rule</text><rect fill="#F1F1F1" height="26.2969" rx="5" ry="5" style="stroke:#181818;stroke-width:1.5;" width="18" x="72" y="253.9141"/><text fill="#000000" font-family="sans-serif" font-size="14" lengthAdjust="spacing" textLength="8" x="77" y="271.9092">a</text><ellipse cx="46" cy="267.0625" fill="none" rx="4" ry="4" style="stroke:#181818;stroke-width:2.0;"/><ellipse cx="120" cy="267.0625" fill="#181818" rx="4" ry="4" style="stroke:#181818;stroke-width:1.0;"/><line style="stroke:#181818;stroke-width:1.5;" x1="50" x2="72" y1="267.0625" y2="267.0625"/><line style="stroke:#181818;stroke-width:1.5;" x1="90" x2="116" y1="267.0625" y2="267.0625"/><path d="M101,267.0625 L101,264.0625 L107,267.0625 L101,270.0625 L101,267.0625 " fill="#181818" style="stroke:#181818;stroke-width:1.5;"/><path d="M42,300.2109 L42,325.3438 L110,325.3438 L110,310.2109 L100,300.2109 L42,300.2109 " fill="#FEFFDD" style="stroke:#181818;stroke-width:0.5;"/><path d="M100,300.2109 L100,310.2109 L110,310.2109 L100,300.2109 " fill="#FEFFDD" style="stroke:#181818;stroke-width:0.5;"/><text fill="#000000" font-family="sans-serif" font-size="13" lengthAdjust="spacing" textLength="39" x="52" y="317.2778">Edges</text><text fill="#000000" font-family="sans-serif" font-size="14" font-weight="bold" lengthAdjust="spacing" textLength="68" x="42" y="353.3389">required</text><rect fill="#F1F1F1" height="26.2969" rx="5" ry="5" style="stroke:#181818;stroke-width:1.5;" width="18" x="72" y="366.6406"/><text fill="#000000" font-family="sans-serif" font-size="14" lengthAdjust="spacing" textLength="8" x="77" y="384.6357">a</text><ellipse cx="46" cy="379.7891" fill="none" rx="4" ry="4" style="stroke:#181818;stroke-width:2.0;"/><ellipse cx="120" cy="379.7891" fill="#181818" rx="4" ry="4" style="stroke:#181818;stroke-width:1.0;"/><line style="stroke:#181818;stroke-width:1.5;" x1="50" x2="72" y1="379.7891" y2="379.7891"/><line style="stroke:#181818;stroke-width:1.5;" x1="90" x2="116" y1="379.7891" y2="379.7891"/><path d="M101,379.7891 L101,376.7891 L107,379.7891 L101,382.7891 L101,379.7891 " fill="#181818" style="stroke:#181818;stroke-width:1.5;"/><text fill="#000000" font-family="sans-serif" font-size="14" font-weight="bold" lengthAdjust="spacing" textLength="63" x="42" y="420.9326">optional</text><path d="M80,455.3828 C80,461.3828 78,463.3828 72,463.3828 " fill="none" style="stroke:#181818;stroke-width:1.5;"/><line style="stroke:#181818;stroke-width:1.5;" x1="80" x2="80" y1="447.2344" y2="455.3828"/><path d="M80,447.2344 C80,441.2344 82,439.2344 88,439.2344 " fill="none" style="stroke:#181818;stroke-width:1.5;"/><line style="stroke:#181818;stroke-width:1.5;" x1="88" x2="104" y1="439.2344" y2="439.2344"/><path d="M112,455.3828 C112,461.3828 114,463.3828 120,463.3828 " fill="none" style="stroke:#181818;stroke-width:1.5;"/><line style="stroke:#181818;stroke-width:1.5;" x1="112" x2="112" y1="447.2344" y2="455.3828"/><path d="M104,439.2344 C110,439.2344 112,441.2344 112,447.2344 " fill="none" style="stroke:#181818;stroke-width:1.5;"/><line style="stroke:#181818;stroke-width:1.5;" x1="72" x2="87" y1="463.3828" y2="463.3828"/><line style="stroke:#181818;stroke-width:1.5;" x1="105" x2="120" y1="463.3828" y2="463.3828"/><rect fill="#F1F1F1" height="26.2969" rx="5" ry="5" style="stroke:#181818;stroke-width:1.5;" width="18" x="87" y="450.2344"/><text fill="#000000" font-family="sans-serif" font-size="14" lengthAdjust="spacing" textLength="8" x="92" y="468.2295">a</text><ellipse cx="46" cy="463.3828" fill="none" rx="4" ry="4" style="stroke:#181818;stroke-width:2.0;"/><ellipse cx="150" cy="463.3828" fill="#181818" rx="4" ry="4" style="stroke:#181818;stroke-width:1.0;"/><line style="stroke:#181818;stroke-width:1.5;" x1="50" x2="72" y1="463.3828" y2="463.3828"/><line style="stroke:#181818;stroke-width:1.5;" x1="120" x2="146" y1="463.3828" y2="463.3828"/><path d="M131,463.3828 L131,460.3828 L137,463.3828 L131,466.3828 L131,463.3828 " fill="#181818" style="stroke:#181818;stroke-width:1.5;"/><text fill="#000000" font-family="sans-serif" font-size="14" font-weight="bold" lengthAdjust="spacing" textLength="108" x="42" y="504.5264">zero_or_more</text><path d="M80,550.9766 C80,556.9766 78,558.9766 72,558.9766 " fill="none" style="stroke:#181818;stroke-width:1.5;"/><line style="stroke:#181818;stroke-width:1.5;" x1="80" x2="80" y1="530.8281" y2="550.9766"/><path d="M80,530.8281 C80,524.8281 82,522.8281 88,522.8281 " fill="none" style="stroke:#181818;stroke-width:1.5;"/><line style="stroke:#181818;stroke-width:1.5;" x1="88" x2="134" y1="522.8281" y2="522.8281"/><path d="M104.4,522.8281 L104.4,519.8281 L110.4,522.8281 L104.4,525.8281 L104.4,522.8281 " fill="#181818" style="stroke:#181818;stroke-width:1.5;"/><path d="M142,550.9766 C142,556.9766 144,558.9766 150,558.9766 " fill="none" style="stroke:#181818;stroke-width:1.5;"/><line style="stroke:#181818;stroke-width:1.5;" x1="142" x2="142" y1="530.8281" y2="550.9766"/><path d="M134,522.8281 C140,522.8281 142,524.8281 142,530.8281 " fill="none" style="stroke:#181818;stroke-width:1.5;"/><line style="stroke:#181818;stroke-width:1.5;" x1="72" x2="87" y1="558.9766" y2="558.9766"/><line style="stroke:#181818;stroke-width:1.5;" x1="135" x2="150" y1="558.9766" y2="558.9766"/><path d="M95,550.9766 C95,556.9766 97,558.9766 103,558.9766 " fill="none" style="stroke:#181818;stroke-width:1.5;"/><line style="stroke:#181818;stroke-width:1.5;" x1="95" x2="95" y1="546.8281" y2="550.9766"/><path d="M95,546.8281 C95,540.8281 97,538.8281 103,538.8281 " fill="none" style="stroke:#181818;stroke-width:1.5;"/><line style="stroke:#181818;stroke-width:1.5;" x1="102" x2="120" y1="538.8281" y2="538.8281"/><path d="M110.8,538.8281 L110.8,535.8281 L104.8,538.8281 L110.8,541.8281 L110.8,538.8281 " fill="#181818" style="stroke:#181818;stroke-width:1.5;"/><path d="M127,550.9766 C127,556.9766 125,558.9766 119,558.9766 " fill="none" style="stroke:#181818;stroke-width:1.5;"/><line style="stroke:#181818;stroke-width:1.5;" x1="127" x2="127" y1="546.8281" y2="550.9766"/><path d="M119,538.8281 C125,538.8281 127,540.8281 127,546.8281 " fill="none" style="stroke:#181818;stroke-width:1.5;"/><line style="stroke:#181818;stroke-width:1.5;" x1="87" x2="102" y1="558.9766" y2="558.9766"/><line style="stroke:#181818;stroke-width:1.5;" x1="120" x2="135" y1="558.9766" y2="558.9766"/><rect fill="#F1F1F1" height="26.2969" rx="5" ry="5" style="stroke:#181818;stroke-width:1.5;" width="18" x="102" y="545.8281"/><text fill="#000000" font-family="sans-serif" font-size="14" lengthAdjust="spacing" textLength="8" x="107" y="563.8232">a</text><ellipse cx="46" cy="558.9766" fill="none" rx="4" ry="4" style="stroke:#181818;stroke-width:2.0;"/><ellipse cx="180" cy="558.9766" fill="#181818" rx="4" ry="4" style="stroke:#181818;stroke-width:1.0;"/><line style="stroke:#181818;stroke-width:1.5;" x1="50" x2="72" y1="558.9766" y2="558.9766"/><line style="stroke:#181818;stroke-width:1.5;" x1="150" x2="176" y1="558.9766" y2="558.9766"/><path d="M161,558.9766 L161,555.9766 L167,558.9766 L161,561.9766 L161,558.9766 " fill="#181818" style="stroke:#181818;stroke-width:1.5;"/><text fill="#000000" font-family="sans-serif" font-size="14" font-weight="bold" lengthAdjust="spacing" textLength="102" x="42" y="600.1201">one_or_more</text><line style="stroke:#181818;stroke-width:1.5;" x1="72" x2="72" y1="654.5703" y2="654.5703"/><rect fill="#F1F1F1" height="26.2969" rx="5" ry="5" style="stroke:#181818;stroke-width:1.5;" width="18" x="72" y="641.4219"/><text fill="#000000" font-family="sans-serif" font-size="14" lengthAdjust="spacing" textLength="8" x="77" y="659.417">a</text><line style="stroke:#181818;stroke-width:1.5;" x1="90" x2="110" y1="654.5703" y2="654.5703"/><path d="M118,646.5703 C118,652.5703 116,654.5703 110,654.5703 " fill="none" style="stroke:#181818;stroke-width:1.5;"/><line style="stroke:#181818;stroke-width:1.5;" x1="118" x2="118" y1="626.4219" y2="646.5703"/><path d="M118,626.4219 C118,620.4219 120,618.4219 126,618.4219 " fill="none" style="stroke:#181818;stroke-width:1.5;"/><line style="stroke:#181818;stroke-width:1.5;" x1="126" x2="172" y1="618.4219" y2="618.4219"/><path d="M142.4,618.4219 L142.4,615.4219 L148.4,618.4219 L142.4,621.4219 L142.4,618.4219 " fill="#181818" style="stroke:#181818;stroke-width:1.5;"/><path d="M180,646.5703 C180,652.5703 182,654.5703 188,654.5703 " fill="none" style="stroke:#181818;stroke-width:1.5;"/><line style="stroke:#181818;stroke-width:1.5;" x1="180" x2="180" y1="626.4219" y2="646.5703"/><path d="M172,618.4219 C178,618.4219 180,620.4219 180,626.4219 " fill="none" style="stroke:#181818;stroke-width:1.5;"/><line style="stroke:#181818;stroke-width:1.5;" x1="110" x2="125" y1="654.5703" y2="654.5703"/><line style="stroke:#181818;stroke-width:1.5;" x1="173" x2="188" y1="654.5703" y2="654.5703"/><path d="M133,646.5703 C133,652.5703 135,654.5703 141,654.5703 " fill="none" style="stroke:#181818;stroke-width:1.5;"/><line style="stroke:#181818;stroke-width:1.5;" x1="133" x2="133" y1="642.4219" y2="646.5703"/><path d="M133,642.4219 C133,636.4219 135,634.4219 141,634.4219 " fill="none" style="stroke:#181818;stroke-width:1.5;"/><line style="stroke:#181818;stroke-width:1.5;" x1="140" x2="158" y1="634.4219" y2="634.4219"/><path d="M148.8,634.4219 L148.8,631.4219 L142.8,634.4219 L148.8,637.4219 L148.8,634.4219 " fill="#181818" style="stroke:#181818;stroke-width:1.5;"/><path d="M165,646.5703 C165,652.5703 163,654.5703 157,654.5703 " fill="none" style="stroke:#181818;stroke-width:1.5;"/><line style="stroke:#181818;stroke-width:1.5;" x1="165" x2="165" y1="642.4219" y2="646.5703"/><path d="M157,634.4219 C163,634.4219 165,636.4219 165,642.4219 " fill="none" style="stroke:#181818;stroke-width:1.5;"/><line style="stroke:#181818;stroke-width:1.5;" x1="125" x2="140" y1="654.5703" y2="654.5703"/><line style="stroke:#181818;stroke-width:1.5;" x1="158" x2="173" y1="654.5703" y2="654.5703"/><rect fill="#F1F1F1" height="26.2969" rx="5" ry="5" style="stroke:#181818;stroke-width:1.5;" width="18" x="140" y="641.4219"/><text fill="#000000" font-family="sans-serif" font-size="14" lengthAdjust="spacing" textLength="8" x="145" y="659.417">a</text><ellipse cx="46" cy="654.5703" fill="none" rx="4" ry="4" style="stroke:#181818;stroke-width:2.0;"/><ellipse cx="218" cy="654.5703" fill="#181818" rx="4" ry="4" style="stroke:#181818;stroke-width:1.0;"/><line style="stroke:#181818;stroke-width:1.5;" x1="50" x2="72" y1="654.5703" y2="654.5703"/><line style="stroke:#181818;stroke-width:1.5;" x1="188" x2="214" y1="654.5703" y2="654.5703"/><path d="M199,654.5703 L199,651.5703 L205,654.5703 L199,657.5703 L199,654.5703 " fill="#181818" style="stroke:#181818;stroke-width:1.5;"/><text fill="#000000" font-family="sans-serif" font-size="14" font-weight="bold" lengthAdjust="spacing" textLength="145" x="42" y="695.7139">one_or_more_ebnf</text><path d="M80,726.1641 C80,732.1641 82,734.1641 88,734.1641 " fill="none" style="stroke:#181818;stroke-width:1.5;"/><line style="stroke:#181818;stroke-width:1.5;" x1="80" x2="80" y1="722.0156" y2="726.1641"/><path d="M80,722.0156 C80,716.0156 82,714.0156 88,714.0156 " fill="none" style="stroke:#181818;stroke-width:1.5;"/><line style="stroke:#181818;stroke-width:1.5;" x1="87" x2="105" y1="714.0156" y2="714.0156"/><path d="M95.8,714.0156 L95.8,711.0156 L89.8,714.0156 L95.8,717.0156 L95.8,714.0156 " fill="#181818" style="stroke:#181818;stroke-width:1.5;"/><path d="M112,726.1641 C112,732.1641 110,734.1641 104,734.1641 " fill="none" style="stroke:#181818;stroke-width:1.5;"/><line style="stroke:#181818;stroke-width:1.5;" x1="112" x2="112" y1="722.0156" y2="726.1641"/><path d="M104,714.0156 C110,714.0156 112,716.0156 112,722.0156 " fill="none" style="stroke:#181818;stroke-width:1.5;"/><line style="stroke:#181818;stroke-width:1.5;" x1="72" x2="87" y1="734.1641" y2="734.1641"/><line style="stroke:#181818;stroke-width:1.5;" x1="105" x2="120" y1="734.1641" y2="734.1641"/><rect fill="#F1F1F1" height="26.2969" rx="5" ry="5" style="stroke:#181818;stroke-width:1.5;" width="18" x="87" y="721.0156"/><text fill="#000000" font-family="sans-serif" font-size="14" lengthAdjust="spacing" textLength="8" x="92" y="739.0107">a</text><ellipse cx="46" cy="734.1641" fill="none" rx="4" ry="4" style="stroke:#181818;stroke-width:2.0;"/><ellipse cx="150" cy="734.1641" fill="#181818" rx="4" ry="4" style="stroke:#181818;stroke-width:1.0;"/><line style="stroke:#181818;stroke-width:1.5;" x1="50" x2="72" y1="734.1641" y2="734.1641"/><line style="stroke:#181818;stroke-width:1.5;" x1="120" x2="146" y1="734.1641" y2="734.1641"/><path d="M131,734.1641 L131,731.1641 L137,734.1641 L131,737.1641 L131,734.1641 " fill="#181818" style="stroke:#181818;stroke-width:1.5;"/><text fill="#000000" font-family="sans-serif" font-size="14" font-weight="bold" lengthAdjust="spacing" textLength="233" x="42" y="775.3076">zero_or_more_with_separator</text><path d="M80,837.7578 C80,843.7578 78,845.7578 72,845.7578 " fill="none" style="stroke:#181818;stroke-width:1.5;"/><line style="stroke:#181818;stroke-width:1.5;" x1="80" x2="80" y1="801.6094" y2="837.7578"/><path d="M80,801.6094 C80,795.6094 82,793.6094 88,793.6094 " fill="none" style="stroke:#181818;stroke-width:1.5;"/><line style="stroke:#181818;stroke-width:1.5;" x1="88" x2="236" y1="793.6094" y2="793.6094"/><path d="M145.2,793.6094 L145.2,790.6094 L151.2,793.6094 L145.2,796.6094 L145.2,793.6094 " fill="#181818" style="stroke:#181818;stroke-width:1.5;"/><path d="M244,837.7578 C244,843.7578 246,845.7578 252,845.7578 " fill="none" style="stroke:#181818;stroke-width:1.5;"/><line style="stroke:#181818;stroke-width:1.5;" x1="244" x2="244" y1="801.6094" y2="837.7578"/><path d="M236,793.6094 C242,793.6094 244,795.6094 244,801.6094 " fill="none" style="stroke:#181818;stroke-width:1.5;"/><line style="stroke:#181818;stroke-width:1.5;" x1="72" x2="87" y1="845.7578" y2="845.7578"/><line style="stroke:#181818;stroke-width:1.5;" x1="237" x2="252" y1="845.7578" y2="845.7578"/><line style="stroke:#181818;stroke-width:1.5;" x1="87" x2="87" y1="845.7578" y2="845.7578"/><rect fill="#F1F1F1" height="26.2969" rx="5" ry="5" style="stroke:#181818;stroke-width:1.5;" width="18" x="87" y="832.6094"/><text fill="#000000" font-family="sans-serif" font-size="14" lengthAdjust="spacing" textLength="8" x="92" y="850.6045">a</text><line style="stroke:#181818;stroke-width:1.5;" x1="105" x2="125" y1="845.7578" y2="845.7578"/><path d="M133,837.7578 C133,843.7578 131,845.7578 125,845.7578 " fill="none" style="stroke:#181818;stroke-width:1.5;"/><line style="stroke:#181818;stroke-width:1.5;" x1="133" x2="133" y1="817.6094" y2="837.7578"/><path d="M133,817.6094 C133,811.6094 135,809.6094 141,809.6094 " fill="none" style="stroke:#181818;stroke-width:1.5;"/><line style="stroke:#181818;stroke-width:1.5;" x1="141" x2="221" y1="809.6094" y2="809.6094"/><path d="M171,809.6094 L171,806.6094 L177,809.6094 L171,812.6094 L171,809.6094 " fill="#181818" style="stroke:#181818;stroke-width:1.5;"/><path d="M229,837.7578 C229,843.7578 231,845.7578 237,845.7578 " fill="none" style="stroke:#181818;stroke-width:1.5;"/><line style="stroke:#181818;stroke-width:1.5;" x1="229" x2="229" y1="817.6094" y2="837.7578"/><path d="M221,809.6094 C227,809.6094 229,811.6094 229,817.6094 " fill="none" style="stroke:#181818;stroke-width:1.5;"/><line style="stroke:#181818;stroke-width:1.5;" x1="125" x2="140" y1="845.7578" y2="845.7578"/><line style="stroke:#181818;stroke-width:1.5;" x1="222" x2="237" y1="845.7578" y2="845.7578"/><path d="M148,837.7578 C148,843.7578 150,845.7578 156,845.7578 " fill="none" style="stroke:#181818;stroke-width:1.5;"/><line style="stroke:#181818;stroke-width:1.5;" x1="148" x2="148" y1="833.6094" y2="837.7578"/><path d="M148,833.6094 C148,827.6094 150,825.6094 156,825.6094 " fill="none" style="stroke:#181818;stroke-width:1.5;"/><line style="stroke:#181818;stroke-width:1.5;" x1="155" x2="207" y1="825.6094" y2="825.6094"/><path d="M184.2,825.6094 L184.2,822.6094 L178.2,825.6094 L184.2,828.6094 L184.2,825.6094 " fill="#181818" style="stroke:#181818;stroke-width:1.5;"/><path d="M214,837.7578 C214,843.7578 212,845.7578 206,845.7578 " fill="none" style="stroke:#181818;stroke-width:1.5;"/><line style="stroke:#181818;stroke-width:1.5;" x1="214" x2="214" y1="833.6094" y2="837.7578"/><path d="M206,825.6094 C212,825.6094 214,827.6094 214,833.6094 " fill="none" style="stroke:#181818;stroke-width:1.5;"/><line style="stroke:#181818;stroke-width:1.5;" x1="140" x2="155" y1="845.7578" y2="845.7578"/><line style="stroke:#181818;stroke-width:1.5;" x1="207" x2="222" y1="845.7578" y2="845.7578"/><line style="stroke:#181818;stroke-width:1.5;" x1="155" x2="155" y1="845.7578" y2="845.7578"/><rect fill="none" height="26.2969" style="stroke:#181818;stroke-width:0.5;" width="14" x="155" y="832.6094"/><text fill="#000000" font-family="sans-serif" font-size="14" lengthAdjust="spacing" textLength="4" x="160" y="850.6045">,</text><line style="stroke:#181818;stroke-width:1.5;" x1="169" x2="189" y1="845.7578" y2="845.7578"/><rect fill="#F1F1F1" height="26.2969" rx="5" ry="5" style="stroke:#181818;stroke-width:1.5;" width="18" x="189" y="832.6094"/><text fill="#000000" font-family="sans-serif" font-size="14" lengthAdjust="spacing" textLength="8" x="194" y="850.6045">a</text><ellipse cx="46" cy="845.7578" fill="none" rx="4" ry="4" style="stroke:#181818;stroke-width:2.0;"/><ellipse cx="282" cy="845.7578" fill="#181818" rx="4" ry="4" style="stroke:#181818;stroke-width:1.0;"/><line style="stroke:#181818;stroke-width:1.5;" x1="50" x2="72" y1="845.7578" y2="845.7578"/><line style="stroke:#181818;stroke-width:1.5;" x1="252" x2="278" y1="845.7578" y2="845.7578"/><path d="M263,845.7578 L263,842.7578 L269,845.7578 L263,848.7578 L263,845.7578 " fill="#181818" style="stroke:#181818;stroke-width:1.5;"/><text fill="#000000" font-family="sans-serif" font-size="14" font-weight="bold" lengthAdjust="spacing" textLength="227" x="42" y="886.9014">one_or_more_with_separator</text><line style="stroke:#181818;stroke-width:1.5;" x1="72" x2="72" y1="941.3516" y2="941.3516"/><rect fill="#F1F1F1" height="26.2969" rx="5" ry="5" style="stroke:#181818;stroke-width:1.5;" width="18" x="72" y="928.2031"/><text fill="#000000" font-family="sans-serif" font-size="14" lengthAdjust="spacing" textLength="8" x="77" y="946.1982">a</text><line style="stroke:#181818;stroke-width:1.5;" x1="90" x2="110" y1="941.3516" y2="941.3516"/><path d="M118,933.3516 C118,939.3516 116,941.3516 110,941.3516 " fill="none" style="stroke:#181818;stroke-width:1.5;"/><line style="stroke:#181818;stroke-width:1.5;" x1="118" x2="118" y1="913.2031" y2="933.3516"/><path d="M118,913.2031 C118,907.2031 120,905.2031 126,905.2031 " fill="none" style="stroke:#181818;stroke-width:1.5;"/><line style="stroke:#181818;stroke-width:1.5;" x1="126" x2="206" y1="905.2031" y2="905.2031"/><path d="M156,905.2031 L156,902.2031 L162,905.2031 L156,908.2031 L156,905.2031 " fill="#181818" style="stroke:#181818;stroke-width:1.5;"/><path d="M214,933.3516 C214,939.3516 216,941.3516 222,941.3516 " fill="none" style="stroke:#181818;stroke-width:1.5;"/><line style="stroke:#181818;stroke-width:1.5;" x1="214" x2="214" y1="913.2031" y2="933.3516"/><path d="M206,905.2031 C212,905.2031 214,907.2031 214,913.2031 " fill="none" style="stroke:#181818;stroke-width:1.5;"/><line style="stroke:#181818;stroke-width:1.5;" x1="110" x2="125" y1="941.3516" y2="941.3516"/><line style="stroke:#181818;stroke-width:1.5;" x1="207" x2="222" y1="941.3516" y2="941.3516"/><path d="M133,933.3516 C133,939.3516 135,941.3516 141,941.3516 " fill="none" style="stroke:#181818;stroke-width:1.5;"/><line style="stroke:#181818;stroke-width:1.5;" x1="133" x2="133" y1="929.2031" y2="933.3516"/><path d="M133,929.2031 C133,923.2031 135,921.2031 141,921.2031 " fill="none" style="stroke:#181818;stroke-width:1.5;"/><line style="stroke:#181818;stroke-width:1.5;" x1="140" x2="192" y1="921.2031" y2="921.2031"/><path d="M169.2,921.2031 L169.2,918.2031 L163.2,921.2031 L169.2,924.2031 L169.2,921.2031 " fill="#181818" style="stroke:#181818;stroke-width:1.5;"/><path d="M199,933.3516 C199,939.3516 197,941.3516 191,941.3516 " fill="none" style="stroke:#181818;stroke-width:1.5;"/><line style="stroke:#181818;stroke-width:1.5;" x1="199" x2="199" y1="929.2031" y2="933.3516"/><path d="M191,921.2031 C197,921.2031 199,923.2031 199,929.2031 " fill="none" style="stroke:#181818;stroke-width:1.5;"/><line style="stroke:#181818;stroke-width:1.5;" x1="125" x2="140" y1="941.3516" y2="941.3516"/><line style="stroke:#181818;stroke-width:1.5;" x1="192" x2="207" y1="941.3516" y2="941.3516"/><line style="stroke:#181818;stroke-width:1.5;" x1="140" x2="140" y1="941.3516" y2="941.3516"/><rect fill="none" height="26.2969" style="stroke:#181818;stroke-width:0.5;" width="14" x="140" y="928.2031"/><text fill="#000000" font-family="sans-serif" font-size="14" lengthAdjust="spacing" textLength="4" x="145" y="946.1982">,</text><line style="stroke:#181818;stroke-width:1.5;" x1="154" x2="174" y1="941.3516" y2="941.3516"/><rect fill="#F1F1F1" height="26.2969" rx="5" ry="5" style="stroke:#181818;stroke-width:1.5;" width="18" x="174" y="928.2031"/><text fill="#000000" font-family="sans-serif" font-size="14" lengthAdjust="spacing" textLength="8" x="179" y="946.1982">a</text><ellipse cx="46" cy="941.3516" fill="none" rx="4" ry="4" style="stroke:#181818;stroke-width:2.0;"/><ellipse cx="252" cy="941.3516" fill="#181818" rx="4" ry="4" style="stroke:#181818;stroke-width:1.0;"/><line style="stroke:#181818;stroke-width:1.5;" x1="50" x2="72" y1="941.3516" y2="941.3516"/><line style="stroke:#181818;stroke-width:1.5;" x1="222" x2="248" y1="941.3516" y2="941.3516"/><path d="M233,941.3516 L233,938.3516 L239,941.3516 L233,944.3516 L233,941.3516 " fill="#181818" style="stroke:#181818;stroke-width:1.5;"/><text fill="#000000" font-family="sans-serif" font-size="14" font-weight="bold" lengthAdjust="spacing" textLength="239" x="42" y="982.4951">zero_or_more_with_terminator</text><path d="M80,1028.9453 C80,1034.9453 78,1036.9453 72,1036.9453 " fill="none" style="stroke:#181818;stroke-width:1.5;"/><line style="stroke:#181818;stroke-width:1.5;" x1="80" x2="80" y1="1008.7969" y2="1028.9453"/><path d="M80,1008.7969 C80,1002.7969 82,1000.7969 88,1000.7969 " fill="none" style="stroke:#181818;stroke-width:1.5;"/><line style="stroke:#181818;stroke-width:1.5;" x1="88" x2="168" y1="1000.7969" y2="1000.7969"/><path d="M118,1000.7969 L118,997.7969 L124,1000.7969 L118,1003.7969 L118,1000.7969 " fill="#181818" style="stroke:#181818;stroke-width:1.5;"/><path d="M176,1028.9453 C176,1034.9453 178,1036.9453 184,1036.9453 " fill="none" style="stroke:#181818;stroke-width:1.5;"/><line style="stroke:#181818;stroke-width:1.5;" x1="176" x2="176" y1="1008.7969" y2="1028.9453"/><path d="M168,1000.7969 C174,1000.7969 176,1002.7969 176,1008.7969 " fill="none" style="stroke:#181818;stroke-width:1.5;"/><line style="stroke:#181818;stroke-width:1.5;" x1="72" x2="87" y1="1036.9453" y2="1036.9453"/><line style="stroke:#181818;stroke-width:1.5;" x1="169" x2="184" y1="1036.9453" y2="1036.9453"/><path d="M95,1028.9453 C95,1034.9453 97,1036.9453 103,1036.9453 " fill="none" style="stroke:#181818;stroke-width:1.5;"/><line style="stroke:#181818;stroke-width:1.5;" x1="95" x2="95" y1="1024.7969" y2="1028.9453"/><path d="M95,1024.7969 C95,1018.7969 97,1016.7969 103,1016.7969 " fill="none" style="stroke:#181818;stroke-width:1.5;"/><line style="stroke:#181818;stroke-width:1.5;" x1="102" x2="154" y1="1016.7969" y2="1016.7969"/><path d="M131.2,1016.7969 L131.2,1013.7969 L125.2,1016.7969 L131.2,1019.7969 L131.2,1016.7969 " fill="#181818" style="stroke:#181818;stroke-width:1.5;"/><path d="M161,1028.9453 C161,1034.9453 159,1036.9453 153,1036.9453 " fill="none" style="stroke:#181818;stroke-width:1.5;"/><line style="stroke:#181818;stroke-width:1.5;" x1="161" x2="161" y1="1024.7969" y2="1028.9453"/><path d="M153,1016.7969 C159,1016.7969 161,1018.7969 161,1024.7969 " fill="none" style="stroke:#181818;stroke-width:1.5;"/><line style="stroke:#181818;stroke-width:1.5;" x1="87" x2="102" y1="1036.9453" y2="1036.9453"/><line style="stroke:#181818;stroke-width:1.5;" x1="154" x2="169" y1="1036.9453" y2="1036.9453"/><line style="stroke:#181818;stroke-width:1.5;" x1="102" x2="102" y1="1036.9453" y2="1036.9453"/><rect fill="#F1F1F1" height="26.2969" rx="5" ry="5" style="stroke:#181818;stroke-width:1.5;" width="18" x="102" y="1023.7969"/><text fill="#000000" font-family="sans-serif" font-size="14" lengthAdjust="spacing" textLength="8" x="107" y="1041.792">a</text><line style="stroke:#181818;stroke-width:1.5;" x1="120" x2="140" y1="1036.9453" y2="1036.9453"/><rect fill="none" height="26.2969" style="stroke:#181818;stroke-width:0.5;" width="14" x="140" y="1023.7969"/><text fill="#000000" font-family="sans-serif" font-size="14" lengthAdjust="spacing" textLength="4" x="145" y="1041.792">,</text><ellipse cx="46" cy="1036.9453" fill="none" rx="4" ry="4" style="stroke:#181818;stroke-width:2.0;"/><ellipse cx="214" cy="1036.9453" fill="#181818" rx="4" ry="4" style="stroke:#181818;stroke-width:1.0;"/><line style="stroke:#181818;stroke-width:1.5;" x1="50" x2="72" y1="1036.9453" y2="1036.9453"/><line style="stroke:#181818;stroke-width:1.5;" x1="184" x2="210" y1="1036.9453" y2="1036.9453"/><path d="M195,1036.9453 L195,1033.9453 L201,1036.9453 L195,1039.9453 L195,1036.9453 " fill="#181818" style="stroke:#181818;stroke-width:1.5;"/><text fill="#000000" font-family="sans-serif" font-size="14" font-weight="bold" lengthAdjust="spacing" textLength="233" x="42" y="1078.0889">one_or_more_with_terminator</text><line style="stroke:#181818;stroke-width:1.5;" x1="72" x2="72" y1="1132.5391" y2="1132.5391"/><rect fill="#F1F1F1" height="26.2969" rx="5" ry="5" style="stroke:#181818;stroke-width:1.5;" width="18" x="72" y="1119.3906"/><text fill="#000000" font-family="sans-serif" font-size="14" lengthAdjust="spacing" textLength="8" x="77" y="1137.3857">a</text><line style="stroke:#181818;stroke-width:1.5;" x1="90" x2="110" y1="1132.5391" y2="1132.5391"/><rect fill="none" height="26.2969" style="stroke:#181818;stroke-width:0.5;" width="14" x="110" y="1119.3906"/><text fill="#000000" font-family="sans-serif" font-size="14" lengthAdjust="spacing" textLength="4" x="115" y="1137.3857">,</text><line style="stroke:#181818;stroke-width:1.5;" x1="124" x2="144" y1="1132.5391" y2="1132.5391"/><path d="M152,1124.5391 C152,1130.5391 150,1132.5391 144,1132.5391 " fill="none" style="stroke:#181818;stroke-width:1.5;"/><line style="stroke:#181818;stroke-width:1.5;" x1="152" x2="152" y1="1104.3906" y2="1124.5391"/><path d="M152,1104.3906 C152,1098.3906 154,1096.3906 160,1096.3906 " fill="none" style="stroke:#181818;stroke-width:1.5;"/><line style="stroke:#181818;stroke-width:1.5;" x1="160" x2="240" y1="1096.3906" y2="1096.3906"/><path d="M190,1096.3906 L190,1093.3906 L196,1096.3906 L190,1099.3906 L190,1096.3906 " fill="#181818" style="stroke:#181818;stroke-width:1.5;"/><path d="M248,1124.5391 C248,1130.5391 250,1132.5391 256,1132.5391 " fill="none" style="stroke:#181818;stroke-width:1.5;"/><line style="stroke:#181818;stroke-width:1.5;" x1="248" x2="248" y1="1104.3906" y2="1124.5391"/><path d="M240,1096.3906 C246,1096.3906 248,1098.3906 248,1104.3906 " fill="none" style="stroke:#181818;stroke-width:1.5;"/><line style="stroke:#181818;stroke-width:1.5;" x1="144" x2="159" y1="1132.5391" y2="1132.5391"/><line style="stroke:#181818;stroke-width:1.5;" x1="241" x2="256" y1="1132.5391" y2="1132.5391"/><path d="M167,1124.5391 C167,1130.5391 169,1132.5391 175,1132.5391 " fill="none" style="stroke:#181818;stroke-width:1.5;"/><line style="stroke:#181818;stroke-width:1.5;" x1="167" x2="167" y1="1120.3906" y2="1124.5391"/><path d="M167,1120.3906 C167,1114.3906 169,1112.3906 175,1112.3906 " fill="none" style="stroke:#181818;stroke-width:1.5;"/><line style="stroke:#181818;stroke-width:1.5;" x1="174" x2="226" y1="1112.3906" y2="1112.3906"/><path d="M203.2,1112.3906 L203.2,1109.3906 L197.2,1112.3906 L203.2,1115.3906 L203.2,1112.3906 " fill="#181818" style="stroke:#181818;stroke-width:1.5;"/><path d="M233,1124.5391 C233,1130.5391 231,1132.5391 225,1132.5391 " fill="none" style="stroke:#181818;stroke-width:1.5;"/><line style="stroke:#181818;stroke-width:1.5;" x1="233" x2="233" y1="1120.3906" y2="1124.5391"/><path d="M225,1112.3906 C231,1112.3906 233,1114.3906 233,1120.3906 " fill="none" style="stroke:#181818;stroke-width:1.5;"/><line style="stroke:#181818;stroke-width:1.5;" x1="159" x2="174" y1="1132.5391" y2="1132.5391"/><line style="stroke:#181818;stroke-width:1.5;" x1="226" x2="241" y1="1132.5391" y2="1132.5391"/><line style="stroke:#181818;stroke-width:1.5;" x1="174" x2="174" y1="1132.5391" y2="1132.5391"/><rect fill="#F1F1F1" height="26.2969" rx="5" ry="5" style="stroke:#181818;stroke-width:1.5;" width="18" x="174" y="1119.3906"/><text fill="#000000" font-family="sans-serif" font-size="14" lengthAdjust="spacing" textLength="8" x="179" y="1137.3857">a</text><line style="stroke:#181818;stroke-width:1.5;" x1="192" x2="212" y1="1132.5391" y2="1132.5391"/><rect fill="none" height="26.2969" style="stroke:#181818;stroke-width:0.5;" width="14" x="212" y="1119.3906"/><text fill="#000000" font-family="sans-serif" font-size="14" lengthAdjust="spacing" textLength="4" x="217" y="1137.3857">,</text><ellipse cx="46" cy="1132.5391" fill="none" rx="4" ry="4" style="stroke:#181818;stroke-width:2.0;"/><ellipse cx="286" cy="1132.5391" fill="#181818" rx="4" ry="4" style="stroke:#181818;stroke-width:1.0;"/><line style="stroke:#181818;stroke-width:1.5;" x1="50" x2="72" y1="1132.5391" y2="1132.5391"/><line style="stroke:#181818;stroke-width:1.5;" x1="256" x2="282" y1="1132.5391" y2="1132.5391"/><path d="M267,1132.5391 L267,1129.5391 L273,1132.5391 L267,1135.5391 L267,1132.5391 " fill="#181818" style="stroke:#181818;stroke-width:1.5;"/><text fill="#000000" font-family="sans-serif" font-size="14" font-weight="bold" lengthAdjust="spacing" textLength="276" x="42" y="1173.6826">one_or_more_with_terminator_ebnf</text><path d="M80,1204.1328 C80,1210.1328 82,1212.1328 88,1212.1328 " fill="none" style="stroke:#181818;stroke-width:1.5;"/><line style="stroke:#181818;stroke-width:1.5;" x1="80" x2="80" y1="1199.9844" y2="1204.1328"/><path d="M80,1199.9844 C80,1193.9844 82,1191.9844 88,1191.9844 " fill="none" style="stroke:#181818;stroke-width:1.5;"/><line style="stroke:#181818;stroke-width:1.5;" x1="87" x2="139" y1="1191.9844" y2="1191.9844"/><path d="M116.2,1191.9844 L116.2,1188.9844 L110.2,1191.9844 L116.2,1194.9844 L116.2,1191.9844 " fill="#181818" style="stroke:#181818;stroke-width:1.5;"/><path d="M146,1204.1328 C146,1210.1328 144,1212.1328 138,1212.1328 " fill="none" style="stroke:#181818;stroke-width:1.5;"/><line style="stroke:#181818;stroke-width:1.5;" x1="146" x2="146" y1="1199.9844" y2="1204.1328"/><path d="M138,1191.9844 C144,1191.9844 146,1193.9844 146,1199.9844 " fill="none" style="stroke:#181818;stroke-width:1.5;"/><line style="stroke:#181818;stroke-width:1.5;" x1="72" x2="87" y1="1212.1328" y2="1212.1328"/><line style="stroke:#181818;stroke-width:1.5;" x1="139" x2="154" y1="1212.1328" y2="1212.1328"/><line style="stroke:#181818;stroke-width:1.5;" x1="87" x2="87" y1="1212.1328" y2="1212.1328"/><rect fill="#F1F1F1" height="26.2969" rx="5" ry="5" style="stroke:#181818;stroke-width:1.5;" width="18" x="87" y="1198.9844"/><text fill="#000000" font-family="sans-serif" font-size="14" lengthAdjust="spacing" textLength="8" x="92" y="1216.9795">a</text><line style="stroke:#181818;stroke-width:1.5;" x1="105" x2="125" y1="1212.1328" y2="1212.1328"/><rect fill="none" height="26.2969" style="stroke:#181818;stroke-width:0.5;" width="14" x="125" y="1198.9844"/><text fill="#000000" font-family="sans-serif" font-size="14" lengthAdjust="spacing" textLength="4" x="130" y="1216.9795">,</text><ellipse cx="46" cy="1212.1328" fill="none" rx="4" ry="4" style="stroke:#181818;stroke-width:2.0;"/><ellipse cx="184" cy="1212.1328" fill="#181818" rx="4" ry="4" style="stroke:#181818;stroke-width:1.0;"/><line style="stroke:#181818;stroke-width:1.5;" x1="50" x2="72" y1="1212.1328" y2="1212.1328"/><line style="stroke:#181818;stroke-width:1.5;" x1="154" x2="180" y1="1212.1328" y2="1212.1328"/><path d="M165,1212.1328 L165,1209.1328 L171,1212.1328 L165,1215.1328 L165,1212.1328 " fill="#181818" style="stroke:#181818;stroke-width:1.5;"/><text fill="#000000" font-family="sans-serif" font-size="14" font-weight="bold" lengthAdjust="spacing" textLength="84" x="42" y="1253.2764">alternative</text><rect fill="#F1F1F1" height="26.2969" rx="5" ry="5" style="stroke:#181818;stroke-width:1.5;" width="18" x="96" y="1266.5781"/><text fill="#000000" font-family="sans-serif" font-size="14" lengthAdjust="spacing" textLength="8" x="101" y="1284.5732">a</text><line style="stroke:#181818;stroke-width:1.5;" x1="72" x2="96" y1="1279.7266" y2="1279.7266"/><line style="stroke:#181818;stroke-width:1.5;" x1="114" x2="139" y1="1279.7266" y2="1279.7266"/><rect fill="#F1F1F1" height="26.2969" rx="5" ry="5" style="stroke:#181818;stroke-width:1.5;" width="19" x="96" y="1302.875"/><text fill="#000000" font-family="sans-serif" font-size="14" lengthAdjust="spacing" textLength="9" x="101" y="1320.8701">b</text><line style="stroke:#181818;stroke-width:1.5;" x1="115" x2="115" y1="1316.0234" y2="1316.0234"/><path d="M84,1304.0234 C84,1313.0234 87,1316.0234 96,1316.0234 " fill="none" style="stroke:#181818;stroke-width:1.5;"/><line style="stroke:#181818;stroke-width:1.5;" x1="84" x2="84" y1="1291.7266" y2="1304.0234"/><path d="M72,1279.7266 C81,1279.7266 84,1282.7266 84,1291.7266 " fill="none" style="stroke:#181818;stroke-width:1.5;"/><path d="M127,1304.0234 C127,1313.0234 124,1316.0234 115,1316.0234 " fill="none" style="stroke:#181818;stroke-width:1.5;"/><line style="stroke:#181818;stroke-width:1.5;" x1="127" x2="127" y1="1291.7266" y2="1304.0234"/><path d="M127,1291.7266 C127,1282.7266 130,1279.7266 139,1279.7266 " fill="none" style="stroke:#181818;stroke-width:1.5;"/><ellipse cx="46" cy="1279.7266" fill="none" rx="4" ry="4" style="stroke:#181818;stroke-width:2.0;"/><ellipse cx="169" cy="1279.7266" fill="#181818" rx="4" ry="4" style="stroke:#181818;stroke-width:1.0;"/><line style="stroke:#181818;stroke-width:1.5;" x1="50" x2="72" y1="1279.7266" y2="1279.7266"/><line style="stroke:#181818;stroke-width:1.5;" x1="139" x2="165" y1="1279.7266" y2="1279.7266"/><path d="M150,1279.7266 L150,1276.7266 L156,1279.7266 L150,1282.7266 L150,1279.7266 " fill="#181818" style="stroke:#181818;stroke-width:1.5;"/><text fill="#000000" font-family="sans-serif" font-size="14" font-weight="bold" lengthAdjust="spacing" textLength="47" x="42" y="1357.167">group</text><line style="stroke:#181818;stroke-width:1.5;" x1="72" x2="72" y1="1383.6172" y2="1383.6172"/><rect fill="#F1F1F1" height="26.2969" rx="5" ry="5" style="stroke:#181818;stroke-width:1.5;" width="18" x="96" y="1370.4688"/><text fill="#000000" font-family="sans-serif" font-size="14" lengthAdjust="spacing" textLength="8" x="101" y="1388.4639">a</text><line style="stroke:#181818;stroke-width:1.5;" x1="72" x2="96" y1="1383.6172" y2="1383.6172"/><line style="stroke:#181818;stroke-width:1.5;" x1="114" x2="139" y1="1383.6172" y2="1383.6172"/><rect fill="#F1F1F1" height="26.2969" rx="5" ry="5" style="stroke:#181818;stroke-width:1.5;" width="19" x="96" y="1406.7656"/><text fill="#000000" font-family="sans-serif" font-size="14" lengthAdjust="spacing" textLength="9" x="101" y="1424.7607">b</text><line style="stroke:#181818;stroke-width:1.5;" x1="115" x2="115" y1="1419.9141" y2="1419.9141"/><path d="M84,1407.9141 C84,1416.9141 87,1419.9141 96,1419.9141 " fill="none" style="stroke:#181818;stroke-width:1.5;"/><line style="stroke:#181818;stroke-width:1.5;" x1="84" x2="84" y1="1395.6172" y2="1407.9141"/><path d="M72,1383.6172 C81,1383.6172 84,1386.6172 84,1395.6172 " fill="none" style="stroke:#181818;stroke-width:1.5;"/><path d="M127,1407.9141 C127,1416.9141 124,1419.9141 115,1419.9141 " fill="none" style="stroke:#181818;stroke-width:1.5;"/><line style="stroke:#181818;stroke-width:1.5;" x1="127" x2="127" y1="1395.6172" y2="1407.9141"/><path d="M127,1395.6172 C127,1386.6172 130,1383.6172 139,1383.6172 " fill="none" style="stroke:#181818;stroke-width:1.5;"/><line style="stroke:#181818;stroke-width:1.5;" x1="139" x2="159" y1="1383.6172" y2="1383.6172"/><rect fill="#F1F1F1" height="26.2969" rx="5" ry="5" style="stroke:#181818;stroke-width:1.5;" width="18" x="159" y="1370.4688"/><text fill="#000000" font-family="sans-serif" font-size="14" lengthAdjust="spacing" textLength="8" x="164" y="1388.4639">c</text><ellipse cx="46" cy="1383.6172" fill="none" rx="4" ry="4" style="stroke:#181818;stroke-width:2.0;"/><ellipse cx="207" cy="1383.6172" fill="#181818" rx="4" ry="4" style="stroke:#181818;stroke-width:1.0;"/><line style="stroke:#181818;stroke-width:1.5;" x1="50" x2="72" y1="1383.6172" y2="1383.6172"/><line style="stroke:#181818;stroke-width:1.5;" x1="177" x2="203" y1="1383.6172" y2="1383.6172"/><path d="M188,1383.6172 L188,1380.6172 L194,1383.6172 L188,1386.6172 L188,1383.6172 " fill="#181818" style="stroke:#181818;stroke-width:1.5;"/><text fill="#000000" font-family="sans-serif" font-size="14" font-weight="bold" lengthAdjust="spacing" textLength="114" x="42" y="1461.0576">without_group</text><rect fill="#F1F1F1" height="26.2969" rx="5" ry="5" style="stroke:#181818;stroke-width:1.5;" width="18" x="96" y="1474.3594"/><text fill="#000000" font-family="sans-serif" font-size="14" lengthAdjust="spacing" textLength="8" x="101" y="1492.3545">a</text><line style="stroke:#181818;stroke-width:1.5;" x1="72" x2="96" y1="1487.5078" y2="1487.5078"/><line style="stroke:#181818;stroke-width:1.5;" x1="114" x2="177" y1="1487.5078" y2="1487.5078"/><line style="stroke:#181818;stroke-width:1.5;" x1="96" x2="96" y1="1523.8047" y2="1523.8047"/><rect fill="#F1F1F1" height="26.2969" rx="5" ry="5" style="stroke:#181818;stroke-width:1.5;" width="19" x="96" y="1510.6563"/><text fill="#000000" font-family="sans-serif" font-size="14" lengthAdjust="spacing" textLength="9" x="101" y="1528.6514">b</text><line style="stroke:#181818;stroke-width:1.5;" x1="115" x2="135" y1="1523.8047" y2="1523.8047"/><rect fill="#F1F1F1" height="26.2969" rx="5" ry="5" style="stroke:#181818;stroke-width:1.5;" width="18" x="135" y="1510.6563"/><text fill="#000000" font-family="sans-serif" font-size="14" lengthAdjust="spacing" textLength="8" x="140" y="1528.6514">c</text><line style="stroke:#181818;stroke-width:1.5;" x1="153" x2="153" y1="1523.8047" y2="1523.8047"/><path d="M84,1511.8047 C84,1520.8047 87,1523.8047 96,1523.8047 " fill="none" style="stroke:#181818;stroke-width:1.5;"/><line style="stroke:#181818;stroke-width:1.5;" x1="84" x2="84" y1="1499.5078" y2="1511.8047"/><path d="M72,1487.5078 C81,1487.5078 84,1490.5078 84,1499.5078 " fill="none" style="stroke:#181818;stroke-width:1.5;"/><path d="M165,1511.8047 C165,1520.8047 162,1523.8047 153,1523.8047 " fill="none" style="stroke:#181818;stroke-width:1.5;"/><line style="stroke:#181818;stroke-width:1.5;" x1="165" x2="165" y1="1499.5078" y2="1511.8047"/><path d="M165,1499.5078 C165,1490.5078 168,1487.5078 177,1487.5078 " fill="none" style="stroke:#181818;stroke-width:1.5;"/><ellipse cx="46" cy="1487.5078" fill="none" rx="4" ry="4" style="stroke:#181818;stroke-width:2.0;"/><ellipse cx="207" cy="1487.5078" fill="#181818" rx="4" ry="4" style="stroke:#181818;stroke-width:1.0;"/><line style="stroke:#181818;stroke-width:1.5;" x1="50" x2="72" y1="1487.5078" y2="1487.5078"/><line style="stroke:#181818;stroke-width:1.5;" x1="177" x2="203" y1="1487.5078" y2="1487.5078"/><path d="M188,1487.5078 L188,1484.5078 L194,1487.5078 L188,1490.5078 L188,1487.5078 " fill="#181818" style="stroke:#181818;stroke-width:1.5;"/><!--SRC=[ZP9DJ-Cm48Rl_XKZBhGeHL3HgYH2V9QLIWjekt1PeMZQ3C6IOsSTkwX0_piJPolAmc6FC-yphpqV9vL3wsYc7uMJJX6SAWN3i-jB84K5QLT1WHfpoc2sX5k5sjrDnaAqTk3QP5J1JbiewHnPL704MxYLYAgakGpXCI0S9y9wDZu2J4BTCCkREaj_lBJi72HJEcbqAFkD3uo-a3MfiMbXR5tzYYk6D6saCFgIJUjM6hhpZqVwBDrJMb695fsnuHqss8ws8y3LmsURB-m6cdnZomCefFxBlZBCxEeRoqzSWqN_ntzqri1rUwXOPrKkmZZW3MQ9oAtn9OUj4BSXWdaYQZFZNReMWzP89wIpS01YlLvOaAru6R2_szth7kpsMbElOO9BwFPXxp3UxyMz0TpzEeTQRelMZzinLCRREK4cAsVbpDVBR8iHBX1-UkraGJ7SbAH75rVh10prGbgZwpCJe_l91z0_w9n91rEo_1EuduWBUaIl75VCJIPr7lFhbvs16AFEFLzd3AJ5kM5VksHj-Wu0]--></g></svg>