<svg xmlns="http://www.w3.org/2000/svg" xmlns:xlink="http://www.w3.org/1999/xlink" contentStyleType="text/css" height="416px" preserveAspectRatio="none" style="width:598px;height:416px;background:#FFFFFF;" version="1.1" viewBox="0 0 598 416" width="598px" zoomAndPan="magnify"><defs/><g><rect fill="#F1F1F1" height="36.2969" rx="12.5" ry="12.5" style="stroke:#181818;stroke-width:1.5;" width="69.6221" x="10" y="188.8906"/><text fill="#000000" font-family="sans-serif" font-size="14" lengthAdjust="spacing" textLength="49.6221" x="20" y="211.8857">Debian</text><rect fill="#F1F1F1" height="36.2969" rx="12.5" ry="12.5" style="stroke:#181818;stroke-width:1.5;" width="71.2422" x="129.6221" y="104.4453"/><text fill="#000000" font-family="sans-serif" font-size="14" lengthAdjust="spacing" textLength="51.2422" x="139.6221" y="127.4404">Ubuntu</text><rect fill="#F1F1F1" height="36.2969" rx="12.5" ry="12.5" style="stroke:#181818;stroke-width:1.5;" width="92.502" x="250.8643" y="20"/><text fill="#000000" font-family="sans-serif" font-size="14" lengthAdjust="spacing" textLength="72.502" x="260.8643" y="42.9951">Linux Mint</text><path d="M200.8643,122.5938 L210.8643,122.5938 C225.8643,122.5938 225.8643,38.1484 240.8643,38.1484 L250.8643,38.1484 " fill="none" style="stroke:#181818;stroke-width:1.0;"/><rect fill="#F1F1F1" height="36.2969" rx="12.5" ry="12.5" style="stroke:#181818;stroke-width:1.5;" width="79.0488" x="250.8643" y="76.2969"/><text fill="#000000" font-family="sans-serif" font-size="14" lengthAdjust="spacing" textLength="59.0488" x="260.8643" y="99.292">Kubuntu</text><path d="M200.8643,122.5938 L210.8643,122.5938 C225.8643,122.5938 225.8643,94.4453 240.8643,94.4453 L250.8643,94.4453 " fill="none" style="stroke:#181818;stroke-width:1.0;"/><rect fill="#F1F1F1" height="36.2969" rx="12.5" ry="12.5" style="stroke:#181818;stroke-width:1.5;" width="77.668" x="250.8643" y="132.5938"/><text fill="#000000" font-family="sans-serif" font-size="14" lengthAdjust="spacing" textLength="57.668" x="260.8643" y="155.5889">Lubuntu</text><path d="M200.8643,122.5938 L210.8643,122.5938 C225.8643,122.5938 225.8643,150.7422 240.8643,150.7422 L250.8643,150.7422 " fill="none" style="stroke:#181818;stroke-width:1.0;"/><rect fill="#F1F1F1" height="36.2969" rx="12.5" ry="12.5" style="stroke:#181818;stroke-width:1.5;" width="89.7813" x="250.8643" y="188.8906"/><text fill="#000000" font-family="sans-serif" font-size="14" lengthAdjust="spacing" textLength="69.7813" x="260.8643" y="211.8857">KDE Neon</text><path d="M200.8643,122.5938 L210.8643,122.5938 C225.8643,122.5938 225.8643,207.0391 240.8643,207.0391 L250.8643,207.0391 " fill="none" style="stroke:#181818;stroke-width:1.0;"/><path d="M79.6221,207.0391 L89.6221,207.0391 C104.6221,207.0391 104.6221,122.5938 119.6221,122.5938 L129.6221,122.5938 " fill="none" style="stroke:#181818;stroke-width:1.0;"/><rect fill="#F1F1F1" height="36.2969" rx="12.5" ry="12.5" style="stroke:#181818;stroke-width:1.5;" width="59.5049" x="129.6221" y="160.7422"/><text fill="#000000" font-family="sans-serif" font-size="14" lengthAdjust="spacing" textLength="39.5049" x="139.6221" y="183.7373">LMDE</text><path d="M79.6221,207.0391 L89.6221,207.0391 C104.6221,207.0391 104.6221,178.8906 119.6221,178.8906 L129.6221,178.8906 " fill="none" style="stroke:#181818;stroke-width:1.0;"/><rect fill="#F1F1F1" height="36.2969" rx="12.5" ry="12.5" style="stroke:#181818;stroke-width:1.5;" width="77.2852" x="129.6221" y="217.0391"/><text fill="#000000" font-family="sans-serif" font-size="14" lengthAdjust="spacing" textLength="57.2852" x="139.6221" y="240.0342">SolydXK</text><path d="M79.6221,207.0391 L89.6221,207.0391 C104.6221,207.0391 104.6221,235.1875 119.6221,235.1875 L129.6221,235.1875 " fill="none" style="stroke:#181818;stroke-width:1.0;"/><rect fill="#F1F1F1" height="36.2969" rx="12.5" ry="12.5" style="stroke:#181818;stroke-width:1.5;" width="85.1123" x="129.6221" y="273.3359"/><text fill="#000000" font-family="sans-serif" font-size="14" lengthAdjust="spacing" textLength="65.1123" x="139.6221" y="296.3311">SteamOS</text><path d="M79.6221,207.0391 L89.6221,207.0391 C104.6221,207.0391 104.6221,291.4844 119.6221,291.4844 L129.6221,291.4844 " fill="none" style="stroke:#181818;stroke-width:1.0;"/><rect fill="#F1F1F1" height="36.2969" rx="12.5" ry="12.5" style="stroke:#181818;stroke-width:1.5;" width="246.1055" x="129.6221" y="329.6328"/><text fill="#000000" font-family="sans-serif" font-size="14" lengthAdjust="spacing" textLength="226.1055" x="139.6221" y="352.6279">Raspbian with a very long name</text><rect fill="#F1F1F1" height="36.2969" rx="12.5" ry="12.5" style="stroke:#181818;stroke-width:1.5;" width="158.8311" x="425.7275" y="301.4844"/><text fill="#000000" font-family="sans-serif" font-size="14" lengthAdjust="spacing" text-decoration="line-through" textLength="64.709" x="435.7275" y="324.4795">Raspmbc</text><text fill="#000000" font-family="sans-serif" font-size="14" lengthAdjust="spacing" textLength="69.6719" x="504.8867" y="324.4795">=&gt; OSMC</text><path d="M375.7275,347.7813 L385.7275,347.7813 C400.7275,347.7813 400.7275,319.6328 415.7275,319.6328 L425.7275,319.6328 " fill="none" style="stroke:#181818;stroke-width:1.0;"/><rect fill="#F1F1F1" height="36.2969" rx="12.5" ry="12.5" style="stroke:#181818;stroke-width:1.5;" width="160.9502" x="425.7275" y="357.7813"/><text fill="#000000" font-family="sans-serif" font-size="14" lengthAdjust="spacing" text-decoration="line-through" textLength="51.5908" x="435.7275" y="380.7764">Raspyfi</text><text fill="#000000" font-family="sans-serif" font-size="14" lengthAdjust="spacing" textLength="84.9092" x="491.7686" y="380.7764">=&gt; Volumio</text><path d="M375.7275,347.7813 L385.7275,347.7813 C400.7275,347.7813 400.7275,375.9297 415.7275,375.9297 L425.7275,375.9297 " fill="none" style="stroke:#181818;stroke-width:1.0;"/><path d="M79.6221,207.0391 L89.6221,207.0391 C104.6221,207.0391 104.6221,347.7813 119.6221,347.7813 L129.6221,347.7813 " fill="none" style="stroke:#181818;stroke-width:1.0;"/><!--SRC=[JL3BRi8m4BpxA_O8aQ104Q8HHQY4LigZ859GhnjYKaln6lb1cx-l4nMLaySxExCxkp8MjPM2IeaN5a342u74WW0EXIFhF0eW5UH-81Daks_YxgWxd4GRUEUgKwTPj6dVNDLD-Pbqq7AKsxo5UpINTWvy2_i525Uk6wWLLK0eUMUsCCksInQdnODPmlCIjdcslgUQixXHHrKxAHHRSP_ZBmlRrKZsaAMjkn6AO3oSZ2RJuQoNeuNOrJ2QmUWf74_3npaSFjRGqdtMUzkbO9JJ9mwbC5QBmbclxxCOhmXxdrT87iBsmYcEabi1DdGLMf7a_apnCVjlc4q7By92phNV18uPY_WPNMszugHAGLNefxyEvYn5gXnMtfiJMollgnlFvRy0]--></g></svg>