<svg xmlns="http://www.w3.org/2000/svg" xmlns:xlink="http://www.w3.org/1999/xlink" contentStyleType="text/css" height="571px" preserveAspectRatio="none" style="width:540px;height:571px;background:#FFFFFF;" version="1.1" viewBox="0 0 540 571" width="540px" zoomAndPan="magnify"><defs/><g><!--cluster Some Group--><g id="cluster_Some Group"><path d="M8.5,6 L106.1602,6 A3.75,3.75 0 0 1 108.6602,8.5 L115.6602,28.2969 L461.5,28.2969 A2.5,2.5 0 0 1 464,30.7969 L464,100.8 A2.5,2.5 0 0 1 461.5,103.3 L8.5,103.3 A2.5,2.5 0 0 1 6,100.8 L6,8.5 A2.5,2.5 0 0 1 8.5,6 " fill="none" style="stroke:#000000;stroke-width:1.5;"/><line style="stroke:#000000;stroke-width:1.5;" x1="6" x2="115.6602" y1="28.2969" y2="28.2969"/><text fill="#000000" font-family="sans-serif" font-size="14" font-weight="bold" lengthAdjust="spacing" textLength="96.6602" x="10" y="20.9951">Some Group</text></g><!--cluster Other Groups--><g id="cluster_Other Groups"><polygon fill="none" points="65,137.3,75,127.3,328,127.3,328,219.6,318,229.6,65,229.6,65,137.3" style="stroke:#181818;stroke-width:1.0;"/><line style="stroke:#181818;stroke-width:1.0;" x1="318" x2="328" y1="137.3" y2="127.3"/><line style="stroke:#181818;stroke-width:1.0;" x1="65" x2="318" y1="137.3" y2="137.3"/><line style="stroke:#181818;stroke-width:1.0;" x1="318" x2="318" y1="137.3" y2="229.6"/><text fill="#000000" font-family="sans-serif" font-size="14" font-weight="bold" lengthAdjust="spacing" textLength="106.1689" x="139.4155" y="153.2951">Other Groups</text></g><g id="cluster_##12"><path d="M361.6106,160.1769 C365.5667,154.0653 369.6932,154.8239 373.6742,160.1506 C376.3348,152.8 381.5191,151.9263 386.3016,158.1812 C389.9904,150.5364 396.8079,150.2076 400.8195,157.8752 C403.2725,151.0044 409.49,150.2544 413.7875,155.9756 C417.5284,148.9539 421.4429,148.0586 426.6583,154.5735 C430.9064,149.0701 436.5476,148.584 439.9168,155.5109 C444.4669,149.7865 448.8588,150.3962 452.9608,156.0257 C456.9102,149.8781 463.0836,151.1665 465.6489,157.4397 C471.1304,151.5733 475.4706,152.2822 478.4488,159.8286 C482.7696,153.4612 488.0808,153.4284 491.818,160.4129 C499.9872,164.7409 500.1775,171.8517 491.6248,175.972 C499.9802,179.3686 500.6327,185.7097 493.7013,191.1919 C500.9901,196.7447 499.679,203.9615 491.0735,206.8462 C499.3715,211.1489 497.9052,217.4837 491.8529,222.5008 C487.9274,228.5876 482.8966,230.559 477.956,223.5805 C475.3252,230.5792 470.7624,232.0323 465.4268,226.2274 C462.4528,234.3058 456.7317,234.4777 451.3532,228.6633 C448.5498,234.8597 443.1601,235.8572 438.5433,230.7113 C436.113,236.8007 430.5643,237.1762 426.8012,232.1147 C421.4713,237.476 417.1688,236.7734 413.5653,230.2001 C408.2504,235.8066 402.1458,235.0144 399.487,227.3767 C394.6862,233.7847 389.5873,231.4883 386.7493,225.3793 C383.0194,231.1841 379.1417,231.6458 375.1406,225.6459 C369.7837,231.7255 365.5779,230.2613 362.0168,223.771 C354.4588,220.1038 352.2048,214.2493 359.3695,208.0957 C349.9793,204.2249 349.6241,199.0746 355.7582,191.7697 C348.5936,185.8094 350.2681,180.6235 357.5523,176.3435 C351.6033,169.1697 352.4362,163.5542 361.6106,160.1769 " fill="none" style="stroke:#181818;stroke-width:1.0;"/></g><!--cluster MySql--><g id="cluster_MySql"><path d="M328,263.6 C328,253.6 425.5,253.6 425.5,253.6 C425.5,253.6 523,253.6 523,263.6 L523,544.19 C523,554.19 425.5,554.19 425.5,554.19 C425.5,554.19 328,554.19 328,544.19 L328,263.6 " fill="none" style="stroke:#181818;stroke-width:1.0;"/><path d="M328,263.6 C328,273.6 425.5,273.6 425.5,273.6 C425.5,273.6 523,273.6 523,263.6 " fill="none" style="stroke:#181818;stroke-width:1.0;"/><text fill="#000000" font-family="sans-serif" font-size="14" font-weight="bold" lengthAdjust="spacing" textLength="47.9609" x="401.5195" y="288.5951">MySql</text></g><!--cluster This is my folder--><g id="cluster_This is my folder"><path d="M354.5,311.6 L486.5449,311.6 A3.75,3.75 0 0 1 489.0449,314.1 L496.0449,333.8969 L496.5,333.8969 A2.5,2.5 0 0 1 499,336.3969 L499,406.39 A2.5,2.5 0 0 1 496.5,408.89 L354.5,408.89 A2.5,2.5 0 0 1 352,406.39 L352,314.1 A2.5,2.5 0 0 1 354.5,311.6 " fill="none" style="stroke:#000000;stroke-width:1.5;"/><line style="stroke:#000000;stroke-width:1.5;" x1="352" x2="496.0449" y1="333.8969" y2="333.8969"/><text fill="#000000" font-family="sans-serif" font-size="14" font-weight="bold" lengthAdjust="spacing" textLength="131.0449" x="356" y="326.5951">This is my folder</text></g><!--cluster Foo--><g id="cluster_Foo"><rect fill="none" height="97.3" rx="2.5" ry="2.5" style="stroke:#181818;stroke-width:1.0;" width="130" x="360" y="432.89"/><path d="M398.7998,432.89 L398.7998,442.1869 L388.7998,452.1869 L360,452.1869 " fill="none" style="stroke:#181818;stroke-width:1.0;"/><text fill="#000000" font-family="sans-serif" font-size="14" font-weight="bold" lengthAdjust="spacing" textLength="28.7998" x="363" y="446.8851">Foo</text></g><!--entity HTTP--><g id="elem_HTTP"><ellipse cx="31" cy="64.15" fill="#F1F1F1" rx="8" ry="8" style="stroke:#181818;stroke-width:0.5;"/><text fill="#000000" font-family="sans-serif" font-size="14" lengthAdjust="spacing" textLength="36.0732" x="12.9634" y="94.1451">HTTP</text></g><!--entity First Component--><g id="elem_First Component"><rect fill="#F1F1F1" height="46.2969" rx="2.5" ry="2.5" style="stroke:#181818;stroke-width:0.5;" width="156.2109" x="74.89" y="41"/><rect fill="#F1F1F1" height="10" style="stroke:#181818;stroke-width:0.5;" width="15" x="211.1009" y="46"/><rect fill="#F1F1F1" height="2" style="stroke:#181818;stroke-width:0.5;" width="4" x="209.1009" y="48"/><rect fill="#F1F1F1" height="2" style="stroke:#181818;stroke-width:0.5;" width="4" x="209.1009" y="52"/><text fill="#000000" font-family="sans-serif" font-size="14" lengthAdjust="spacing" textLength="116.2109" x="89.89" y="73.9951">First Component</text></g><!--entity Another Component--><g id="elem_Another Component"><rect fill="#F1F1F1" height="46.2969" rx="2.5" ry="2.5" style="stroke:#181818;stroke-width:0.5;" width="181.4766" x="266.26" y="41"/><rect fill="#F1F1F1" height="10" style="stroke:#181818;stroke-width:0.5;" width="15" x="427.7366" y="46"/><rect fill="#F1F1F1" height="2" style="stroke:#181818;stroke-width:0.5;" width="4" x="425.7366" y="48"/><rect fill="#F1F1F1" height="2" style="stroke:#181818;stroke-width:0.5;" width="4" x="425.7366" y="52"/><text fill="#000000" font-family="sans-serif" font-size="14" lengthAdjust="spacing" textLength="141.4766" x="281.26" y="73.9951">Another Component</text></g><!--entity FTP--><g id="elem_FTP"><ellipse cx="90" cy="190.45" fill="#F1F1F1" rx="8" ry="8" style="stroke:#181818;stroke-width:0.5;"/><text fill="#000000" font-family="sans-serif" font-size="14" lengthAdjust="spacing" textLength="25.0469" x="77.4766" y="220.4451">FTP</text></g><!--entity Second Component--><g id="elem_Second Component"><rect fill="#F1F1F1" height="46.2969" rx="2.5" ry="2.5" style="stroke:#181818;stroke-width:0.5;" width="177.252" x="134.37" y="167.3"/><rect fill="#F1F1F1" height="10" style="stroke:#181818;stroke-width:0.5;" width="15" x="291.622" y="172.3"/><rect fill="#F1F1F1" height="2" style="stroke:#181818;stroke-width:0.5;" width="4" x="289.622" y="174.3"/><rect fill="#F1F1F1" height="2" style="stroke:#181818;stroke-width:0.5;" width="4" x="289.622" y="178.3"/><text fill="#000000" font-family="sans-serif" font-size="14" lengthAdjust="spacing" textLength="137.252" x="149.37" y="200.2951">Second Component</text></g><!--entity Example 1--><g id="elem_Example 1"><rect fill="#F1F1F1" height="46.2969" rx="2.5" ry="2.5" style="stroke:#181818;stroke-width:0.5;" width="114.0947" x="367.95" y="167.3"/><rect fill="#F1F1F1" height="10" style="stroke:#181818;stroke-width:0.5;" width="15" x="462.0447" y="172.3"/><rect fill="#F1F1F1" height="2" style="stroke:#181818;stroke-width:0.5;" width="4" x="460.0447" y="174.3"/><rect fill="#F1F1F1" height="2" style="stroke:#181818;stroke-width:0.5;" width="4" x="460.0447" y="178.3"/><text fill="#000000" font-family="sans-serif" font-size="14" lengthAdjust="spacing" textLength="74.0947" x="382.95" y="200.2951">Example 1</text></g><!--entity Folder 3--><g id="elem_Folder 3"><rect fill="#F1F1F1" height="46.2969" rx="2.5" ry="2.5" style="stroke:#181818;stroke-width:0.5;" width="97.1211" x="376.44" y="346.6"/><rect fill="#F1F1F1" height="10" style="stroke:#181818;stroke-width:0.5;" width="15" x="453.5611" y="351.6"/><rect fill="#F1F1F1" height="2" style="stroke:#181818;stroke-width:0.5;" width="4" x="451.5611" y="353.6"/><rect fill="#F1F1F1" height="2" style="stroke:#181818;stroke-width:0.5;" width="4" x="451.5611" y="357.6"/><text fill="#000000" font-family="sans-serif" font-size="14" lengthAdjust="spacing" textLength="57.1211" x="391.44" y="379.5951">Folder 3</text></g><!--entity Frame 4--><g id="elem_Frame 4"><rect fill="#F1F1F1" height="46.2969" rx="2.5" ry="2.5" style="stroke:#181818;stroke-width:0.5;" width="97.9961" x="376" y="467.89"/><rect fill="#F1F1F1" height="10" style="stroke:#181818;stroke-width:0.5;" width="15" x="453.9961" y="472.89"/><rect fill="#F1F1F1" height="2" style="stroke:#181818;stroke-width:0.5;" width="4" x="451.9961" y="474.89"/><rect fill="#F1F1F1" height="2" style="stroke:#181818;stroke-width:0.5;" width="4" x="451.9961" y="478.89"/><text fill="#000000" font-family="sans-serif" font-size="14" lengthAdjust="spacing" textLength="57.9961" x="391" y="500.8851">Frame 4</text></g><!--link HTTP to First Component--><g id="link_HTTP_First Component"><path d="M40.05,64.15 C51.53,64.15 63,64.15 74.47,64.15 " fill="none" id="HTTP-First Component" style="stroke:#181818;stroke-width:1.0;"/></g><!--link FTP to Second Component--><g id="link_FTP_Second Component"><path d="M99.35,190.45 C110.94,190.45 122.54,190.45 134.13,190.45 " fill="none" id="FTP-Second Component" style="stroke:#181818;stroke-width:1.0;"/></g><!--link First Component to FTP--><g id="link_First Component_FTP"><path d="M136.43,87.66 C129.88,97.14 122.6,108.47 117,119.3 C105.97,140.63 98.6629,161.8204 94.4029,175.2604 " fill="none" id="First Component-to-FTP" style="stroke:#181818;stroke-width:1.0;"/><polygon fill="#181818" points="92.59,180.98,99.1224,173.6093,94.1007,176.2137,91.4963,171.1921,92.59,180.98" style="stroke:#181818;stroke-width:1.0;"/></g><!--link Another Component to Example 1--><g id="link_Another Component_Example 1"><path d="M369.31,87.66 C381.64,110.19 397.6108,139.3759 409.9008,161.8459 " fill="none" id="Another Component-to-Example 1" style="stroke:#181818;stroke-width:1.0;"/><polygon fill="#181818" points="412.78,167.11,411.9706,157.2945,410.3807,162.7233,404.9519,161.1334,412.78,167.11" style="stroke:#181818;stroke-width:1.0;"/></g><!--link Example 1 to Folder 3--><g id="link_Example 1_Folder 3"><path d="M425,213.9 C425,247.91 425,306.12 425,340.19 " fill="none" id="Example 1-to-Folder 3" style="stroke:#181818;stroke-width:1.0;"/><polygon fill="#181818" points="425,346.19,429,337.19,425,341.19,421,337.19,425,346.19" style="stroke:#181818;stroke-width:1.0;"/></g><!--link Folder 3 to Frame 4--><g id="link_Folder 3_Frame 4"><path d="M425,393.18 C425,414.51 425,440.41 425,461.7 " fill="none" id="Folder 3-to-Frame 4" style="stroke:#181818;stroke-width:1.0;"/><polygon fill="#181818" points="425,467.7,429,458.7,425,462.7,421,458.7,425,467.7" style="stroke:#181818;stroke-width:1.0;"/></g><!--SRC=[ROyz2y8m48Rt_8eZUmVHMH2nkeX2knM7s4HRR7CnIS4Y_U_cez1IX0p7lPVdkLEiVB6d09fXA-2eiLCKlWJWbETNIA18QsqixB5LA8MqDnSLEucs4dhU7GYHo1td4f80Cf6KHb0cIfHyGLhI8Kcs_eFdbGrsF12AmuUrgX6m2YB2cMLtPfpjt6Vl9ceUs71dfdbL6t2lxSTMZBqiJgozUV0_D7CtqnHn6WcjJPpmgZ-tXXtdAytgc4sYgHoJaVy3]--></g></svg>