<?xml version="1.0" encoding="us-ascii" standalone="no"?><svg xmlns="http://www.w3.org/2000/svg" xmlns:xlink="http://www.w3.org/1999/xlink" contentStyleType="text/css" height="570px" preserveAspectRatio="none" style="width:524px;height:570px;background:#FFFFFF;" version="1.1" viewBox="0 0 524 570" width="524px" zoomAndPan="magnify"><defs/><g><!--cluster Some Group--><g id="cluster_Some Group"><path d="M8.5,6 L107.5,6 A3.75,3.75 0 0 1 110,8.5 L117,28.2969 L475.5,28.2969 A2.5,2.5 0 0 1 478,30.7969 L478,100.5 A2.5,2.5 0 0 1 475.5,103 L8.5,103 A2.5,2.5 0 0 1 6,100.5 L6,8.5 A2.5,2.5 0 0 1 8.5,6 " fill="none" style="stroke:#000000;stroke-width:1.5;"/><line style="stroke:#000000;stroke-width:1.5;" x1="6" x2="117" y1="28.2969" y2="28.2969"/><text fill="#000000" font-family="sans-serif" font-size="14" font-weight="bold" lengthAdjust="spacing" textLength="98" x="10" y="20.9951">Some Group</text></g><!--cluster Other Groups--><g id="cluster_Other Groups"><polygon fill="none" points="40,137,50,127,309,127,309,219,299,229,40,229,40,137" style="stroke:#181818;stroke-width:1.0;"/><line style="stroke:#181818;stroke-width:1.0;" x1="299" x2="309" y1="137" y2="127"/><line style="stroke:#181818;stroke-width:1.0;" x1="40" x2="299" y1="137" y2="137"/><line style="stroke:#181818;stroke-width:1.0;" x1="299" x2="299" y1="137" y2="229"/><text fill="#000000" font-family="sans-serif" font-size="14" font-weight="bold" lengthAdjust="spacing" textLength="109" x="116" y="152.9951">Other Groups</text></g><g id="cluster_##12"><path d="M341.8647,159.5676 C345.0864,153.6584 349.2459,152.4538 353.6322,158.413 C356.4061,152.8469 361.5107,153.2402 364.7408,157.9184 C368.0659,152.7551 372.6274,152.3311 376.0174,157.8499 C378.3786,152.155 382.5751,151.2379 386.8058,155.9031 C389.3718,150.8154 392.8914,150.3978 396.6964,154.5813 C400.2874,149.205 404.6602,148.1291 408.9905,153.7552 C413.1571,149.8941 417.0798,150.3987 418.6141,156.3395 C421.7567,150.688 426.8449,150.8694 430.5099,155.7494 C434.5408,150.298 439.1211,151.3466 442.0496,156.9049 C445.4354,152.5253 449.4669,152.6871 452.0405,157.763 C456.29,152.6298 460.8856,153.5767 464.037,159.0097 C467.2544,153.2919 471.8099,154.6547 474.9403,159.1029 C483.9524,161.7833 484.5176,169.2605 477.7706,174.7851 C487.5067,177.0423 490.5352,184.3328 483.2749,192.0185 C488.1892,198.0651 487.9073,204.1642 479.2264,206.3776 C486.3816,213.1098 482.561,220.4214 474.2688,222.3628 C471.2399,228.0137 466.7134,227.7333 462.8064,223.3677 C460.5198,229.4923 456.2599,230.1836 452.1671,225.0791 C448.5497,230.3795 443.0619,230.9078 440.1846,224.3324 C438.6172,228.9027 435.0552,229.9751 431.1842,227.1273 C428.1733,233.1196 423.5781,233.5296 419.364,228.4067 C416.333,234.1021 411.4348,234.4225 407.9245,228.8953 C404.8925,233.8161 400.2741,232.4219 398.1668,227.936 C393.3211,233.7492 387.8366,232.8023 385.2596,225.6735 C381.8945,231.0299 377.7328,230.4877 374.2835,225.7652 C370.7433,230.2839 367.0948,229.6254 364.4319,224.8366 C360.2976,229.4933 356.9484,229.2882 353.6889,223.901 C349.4247,227.8355 345.5981,228.0134 342.8853,222.1845 C335.3496,218.6226 333.2327,211.235 340.8334,205.7799 C334.5832,201.7734 333.0239,195.3753 340.5967,191.1452 C334.1257,185.9982 335.4113,179.9169 342.0578,176.0385 C334.4108,171.102 335.2795,164.671 341.8647,159.5676 " fill="none" style="stroke:#181818;stroke-width:1.0;"/></g><!--cluster MySql--><g id="cluster_MySql"><path d="M307,263 C307,253 407,253 407,253 C407,253 507,253 507,263 L507,543 C507,553 407,553 407,553 C407,553 307,553 307,543 L307,263 " fill="none" style="stroke:#181818;stroke-width:1.0;"/><path d="M307,263 C307,273 407,273 407,273 C407,273 507,273 507,263 " fill="none" style="stroke:#181818;stroke-width:1.0;"/><text fill="#000000" font-family="sans-serif" font-size="14" font-weight="bold" lengthAdjust="spacing" textLength="48" x="383" y="287.9951">MySql</text></g><!--cluster This is my folder--><g id="cluster_This is my folder"><path d="M333.5,311 L470.5,311 A3.75,3.75 0 0 1 473,313.5 L480,333.2969 L480.5,333.2969 A2.5,2.5 0 0 1 483,335.7969 L483,405.5 A2.5,2.5 0 0 1 480.5,408 L333.5,408 A2.5,2.5 0 0 1 331,405.5 L331,313.5 A2.5,2.5 0 0 1 333.5,311 " fill="none" style="stroke:#000000;stroke-width:1.5;"/><line style="stroke:#000000;stroke-width:1.5;" x1="331" x2="480" y1="333.2969" y2="333.2969"/><text fill="#000000" font-family="sans-serif" font-size="14" font-weight="bold" lengthAdjust="spacing" textLength="136" x="335" y="325.9951">This is my folder</text></g><!--cluster Foo--><g id="cluster_Foo"><rect fill="none" height="97" rx="2.5" ry="2.5" style="stroke:#181818;stroke-width:1.0;" width="130" x="342" y="432"/><path d="M381,432 L381,441.2969 L371,451.2969 L342,451.2969 " fill="none" style="stroke:#181818;stroke-width:1.0;"/><text fill="#000000" font-family="sans-serif" font-size="14" font-weight="bold" lengthAdjust="spacing" textLength="29" x="345" y="445.9951">Foo</text></g><!--entity HTTP--><g id="elem_HTTP"><ellipse cx="228" cy="64" fill="#F1F1F1" rx="8" ry="8" style="stroke:#181818;stroke-width:0.5;"/><text fill="#000000" font-family="sans-serif" font-size="14" lengthAdjust="spacing" textLength="37" x="209.5" y="93.9951">HTTP</text></g><!--entity First Component--><g id="elem_First Component"><rect fill="#F1F1F1" height="46.2969" rx="2.5" ry="2.5" style="stroke:#181818;stroke-width:0.5;" width="162" x="22" y="41"/><rect fill="#F1F1F1" height="10" style="stroke:#181818;stroke-width:0.5;" width="15" x="164" y="46"/><rect fill="#F1F1F1" height="2" style="stroke:#181818;stroke-width:0.5;" width="4" x="162" y="48"/><rect fill="#F1F1F1" height="2" style="stroke:#181818;stroke-width:0.5;" width="4" x="162" y="52"/><text fill="#000000" font-family="sans-serif" font-size="14" lengthAdjust="spacing" textLength="122" x="37" y="73.9951">First Component</text></g><!--entity Another Component--><g id="elem_Another Component"><rect fill="#F1F1F1" height="46.2969" rx="2.5" ry="2.5" style="stroke:#181818;stroke-width:0.5;" width="189" x="272.5" y="41"/><rect fill="#F1F1F1" height="10" style="stroke:#181818;stroke-width:0.5;" width="15" x="441.5" y="46"/><rect fill="#F1F1F1" height="2" style="stroke:#181818;stroke-width:0.5;" width="4" x="439.5" y="48"/><rect fill="#F1F1F1" height="2" style="stroke:#181818;stroke-width:0.5;" width="4" x="439.5" y="52"/><text fill="#000000" font-family="sans-serif" font-size="14" lengthAdjust="spacing" textLength="149" x="287.5" y="73.9951">Another Component</text></g><!--entity FTP--><g id="elem_FTP"><ellipse cx="65" cy="190" fill="#F1F1F1" rx="8" ry="8" style="stroke:#181818;stroke-width:0.5;"/><text fill="#000000" font-family="sans-serif" font-size="14" lengthAdjust="spacing" textLength="26" x="52" y="219.9951">FTP</text></g><!--entity Second Component--><g id="elem_Second Component"><rect fill="#F1F1F1" height="46.2969" rx="2.5" ry="2.5" style="stroke:#181818;stroke-width:0.5;" width="183" x="109.5" y="167"/><rect fill="#F1F1F1" height="10" style="stroke:#181818;stroke-width:0.5;" width="15" x="272.5" y="172"/><rect fill="#F1F1F1" height="2" style="stroke:#181818;stroke-width:0.5;" width="4" x="270.5" y="174"/><rect fill="#F1F1F1" height="2" style="stroke:#181818;stroke-width:0.5;" width="4" x="270.5" y="178"/><text fill="#000000" font-family="sans-serif" font-size="14" lengthAdjust="spacing" textLength="143" x="124.5" y="199.9951">Second Component</text></g><!--entity Example 1--><g id="elem_Example 1"><rect fill="#F1F1F1" height="46.2969" rx="2.5" ry="2.5" style="stroke:#181818;stroke-width:0.5;" width="115" x="349.5" y="167"/><rect fill="#F1F1F1" height="10" style="stroke:#181818;stroke-width:0.5;" width="15" x="444.5" y="172"/><rect fill="#F1F1F1" height="2" style="stroke:#181818;stroke-width:0.5;" width="4" x="442.5" y="174"/><rect fill="#F1F1F1" height="2" style="stroke:#181818;stroke-width:0.5;" width="4" x="442.5" y="178"/><text fill="#000000" font-family="sans-serif" font-size="14" lengthAdjust="spacing" textLength="75" x="364.5" y="199.9951">Example 1</text></g><!--entity Folder 3--><g id="elem_Folder 3"><rect fill="#F1F1F1" height="46.2969" rx="2.5" ry="2.5" style="stroke:#181818;stroke-width:0.5;" width="98" x="358" y="346"/><rect fill="#F1F1F1" height="10" style="stroke:#181818;stroke-width:0.5;" width="15" x="436" y="351"/><rect fill="#F1F1F1" height="2" style="stroke:#181818;stroke-width:0.5;" width="4" x="434" y="353"/><rect fill="#F1F1F1" height="2" style="stroke:#181818;stroke-width:0.5;" width="4" x="434" y="357"/><text fill="#000000" font-family="sans-serif" font-size="14" lengthAdjust="spacing" textLength="58" x="373" y="378.9951">Folder 3</text></g><!--entity Frame 4--><g id="elem_Frame 4"><rect fill="#F1F1F1" height="46.2969" rx="2.5" ry="2.5" style="stroke:#181818;stroke-width:0.5;" width="97" x="358.5" y="467"/><rect fill="#F1F1F1" height="10" style="stroke:#181818;stroke-width:0.5;" width="15" x="435.5" y="472"/><rect fill="#F1F1F1" height="2" style="stroke:#181818;stroke-width:0.5;" width="4" x="433.5" y="474"/><rect fill="#F1F1F1" height="2" style="stroke:#181818;stroke-width:0.5;" width="4" x="433.5" y="478"/><text fill="#000000" font-family="sans-serif" font-size="14" lengthAdjust="spacing" textLength="57" x="373.5" y="499.9951">Frame 4</text></g><!--link HTTP to First Component--><g id="link_HTTP_First Component"><path d="M218.73,64 C207.172,64 195.613,64 184.055,64 " fill="none" id="HTTP-First Component" style="stroke:#181818;stroke-width:1.0;"/></g><!--link FTP to Second Component--><g id="link_FTP_Second Component"><path d="M74.0312,190 C85.7692,190 97.507,190 109.245,190 " fill="none" id="FTP-Second Component" style="stroke:#181818;stroke-width:1.0;"/></g><!--link First Component to FTP--><g id="link_First Component_FTP"><path d="M96.206,87.169 C87.6245,115.173 75.039,156.2413 69.272,175.0603 " fill="none" id="First Component-to-FTP" style="stroke:#181818;stroke-width:1.0;"/><polygon fill="#181818" points="67.514,180.797,73.9754,173.364,68.979,176.0164,66.3265,171.02,67.514,180.797" style="stroke:#181818;stroke-width:1.0;"/></g><!--link Another Component to Example 1--><g id="link_Another Component_Example 1"><path d="M374.151,87.169 C381.387,109.6 390.672,138.3828 397.934,160.8948 " fill="none" id="Another Component-to-Example 1" style="stroke:#181818;stroke-width:1.0;"/><polygon fill="#181818" points="399.776,166.605,400.8198,156.8116,398.241,161.8465,393.2061,159.2677,399.776,166.605" style="stroke:#181818;stroke-width:1.0;"/></g><!--link Example 1 to Folder 3--><g id="link_Example 1_Folder 3"><path d="M407,213.059 C407,247.07 407,305.931 407,339.941 " fill="none" id="Example 1-to-Folder 3" style="stroke:#181818;stroke-width:1.0;"/><polygon fill="#181818" points="407,345.941,411,336.941,407,340.941,403,336.941,407,345.941" style="stroke:#181818;stroke-width:1.0;"/></g><!--link Folder 3 to Frame 4--><g id="link_Folder 3_Frame 4"><path d="M407,392.104 C407,413.344 407,439.275 407,460.61 " fill="none" id="Folder 3-to-Frame 4" style="stroke:#181818;stroke-width:1.0;"/><polygon fill="#181818" points="407,466.61,411,457.61,407,461.61,403,457.61,407,466.61" style="stroke:#181818;stroke-width:1.0;"/></g><!--SRC=[ROyz2y8m48Rt_8eZUmVHMH2nkeX2knM7s4HRR7CnIS4Y_U_cez1IX0p7lPVdkLEiVB6d09fXA-2eiLCKlWJWbETNIA18QsqixB5LA8MqDnSLEucs4dhU7GYHo1td4f80Cf6KHb0cIfHyGLhI8Kcs_eFdbGrsF12AmuUrgX6m2YB2cMLtPfpjt6Vl9ceUs71dfdbL6t2lxSTMZBqiJgozUV0_D7CtqnHn6WcjJPpmgZ-tXXtdAytgc4sYgHoJaVy3]--></g></svg>