<svg xmlns="http://www.w3.org/2000/svg" xmlns:xlink="http://www.w3.org/1999/xlink" contentStyleType="text/css" height="571px" preserveAspectRatio="none" style="width:539px;height:571px;background:#FFFFFF;" version="1.1" viewBox="0 0 539 571" width="539px" zoomAndPan="magnify"><defs/><g><!--cluster Some Group--><g id="cluster_Some Group"><path d="M8.5,6 L107.5,6 A3.75,3.75 0 0 1 110,8.5 L117,28.2969 L460.5,28.2969 A2.5,2.5 0 0 1 463,30.7969 L463,100.8 A2.5,2.5 0 0 1 460.5,103.3 L8.5,103.3 A2.5,2.5 0 0 1 6,100.8 L6,8.5 A2.5,2.5 0 0 1 8.5,6 " fill="none" style="stroke:#000000;stroke-width:1.5;"/><line style="stroke:#000000;stroke-width:1.5;" x1="6" x2="117" y1="28.2969" y2="28.2969"/><text fill="#000000" font-family="sans-serif" font-size="14" font-weight="bold" lengthAdjust="spacing" textLength="98" x="10" y="20.9951">Some Group</text></g><!--cluster Other Groups--><g id="cluster_Other Groups"><polygon fill="none" points="65,137.3,75,127.3,328,127.3,328,219.6,318,229.6,65,229.6,65,137.3" style="stroke:#181818;stroke-width:1.0;"/><line style="stroke:#181818;stroke-width:1.0;" x1="318" x2="328" y1="137.3" y2="127.3"/><line style="stroke:#181818;stroke-width:1.0;" x1="65" x2="318" y1="137.3" y2="137.3"/><line style="stroke:#181818;stroke-width:1.0;" x1="318" x2="318" y1="137.3" y2="229.6"/><text fill="#000000" font-family="sans-serif" font-size="14" font-weight="bold" lengthAdjust="spacing" textLength="108" x="138.5" y="153.2951">Other Groups</text></g><g id="cluster_##12"><path d="M361.5727,161.449 C365.1927,155.4121 369.0335,155.1768 374.1481,159.6628 C376.5226,153.715 381.0592,152.0417 385.8193,157.1429 C390.1842,151.0365 394.0934,151.3085 398.6132,156.9746 C402.2979,149.9327 408.955,149.6318 413.0425,156.5585 C416.2976,150.7983 420.1366,149.7193 424.9725,154.8224 C429.8155,149.0605 435.8541,150.091 438.9379,156.7933 C442.8241,152.6256 446.496,151.4477 449.7209,157.4916 C453.8735,150.3297 459.8389,151.7385 463.6318,157.8681 C468.4616,151.4306 473.0048,152.1195 476.2513,159.3319 C480.8929,153.9356 485.5755,154.3169 488.6021,160.9852 C497.3371,164.8019 497.5633,170.1718 490.9975,176.3707 C498.3292,180.4854 497.4239,187.4452 490.9048,191.475 C497.4684,197.1923 497.5601,202.309 490.2287,207.4378 C497.9625,212.7232 495.3904,219.7133 488.1498,222.9982 C485.123,229.7628 479.5973,229.7863 475.9208,223.6123 C471.85,228.8974 466.2221,228.1286 463.3528,222.2586 C460.3186,228.491 455.4162,229.0093 451.3127,223.3404 C446.4189,230.8408 441.4757,230.0362 437.0145,222.9173 C434.9407,229.2941 429.7521,230.6743 425.3514,225.2091 C420.5858,230.7083 415.5263,230.8816 412.422,223.5367 C408.0632,230.3863 403.6756,229.8837 399.3179,223.5355 C395.9325,229.8371 390.6032,229.0152 386.8749,223.9096 C381.4188,230.98 376.424,228.235 372.8191,221.9599 C369.3349,228.2179 365.3215,227.716 361.2916,222.5085 C352.6006,218.9107 350.6945,212.7811 358.2772,206.1792 C350.5922,202.1876 349.7464,196.4608 356.3302,190.6771 C349.8682,185.4159 351.3897,179.7242 358.4669,176.5042 C351.0439,170.896 352.9977,163.7569 361.5727,161.449 " fill="none" style="stroke:#181818;stroke-width:1.0;"/></g><!--cluster MySql--><g id="cluster_MySql"><path d="M327,263.6 C327,253.6 424.5,253.6 424.5,253.6 C424.5,253.6 522,253.6 522,263.6 L522,544.19 C522,554.19 424.5,554.19 424.5,554.19 C424.5,554.19 327,554.19 327,544.19 L327,263.6 " fill="none" style="stroke:#181818;stroke-width:1.0;"/><path d="M327,263.6 C327,273.6 424.5,273.6 424.5,273.6 C424.5,273.6 522,273.6 522,263.6 " fill="none" style="stroke:#181818;stroke-width:1.0;"/><text fill="#000000" font-family="sans-serif" font-size="14" font-weight="bold" lengthAdjust="spacing" textLength="46" x="401.5" y="288.5951">MySql</text></g><!--cluster This is my folder--><g id="cluster_This is my folder"><path d="M353.5,311.6 L485.5,311.6 A3.75,3.75 0 0 1 488,314.1 L495,333.8969 L495.5,333.8969 A2.5,2.5 0 0 1 498,336.3969 L498,406.39 A2.5,2.5 0 0 1 495.5,408.89 L353.5,408.89 A2.5,2.5 0 0 1 351,406.39 L351,314.1 A2.5,2.5 0 0 1 353.5,311.6 " fill="none" style="stroke:#000000;stroke-width:1.5;"/><line style="stroke:#000000;stroke-width:1.5;" x1="351" x2="495" y1="333.8969" y2="333.8969"/><text fill="#000000" font-family="sans-serif" font-size="14" font-weight="bold" lengthAdjust="spacing" textLength="131" x="355" y="326.5951">This is my folder</text></g><!--cluster Foo--><g id="cluster_Foo"><rect fill="none" height="97.3" rx="2.5" ry="2.5" style="stroke:#181818;stroke-width:1.0;" width="128" x="360" y="432.89"/><path d="M399,432.89 L399,442.1869 L389,452.1869 L360,452.1869 " fill="none" style="stroke:#181818;stroke-width:1.0;"/><text fill="#000000" font-family="sans-serif" font-size="14" font-weight="bold" lengthAdjust="spacing" textLength="29" x="363" y="446.8851">Foo</text></g><!--entity HTTP--><g id="elem_HTTP"><ellipse cx="31" cy="64.15" fill="#F1F1F1" rx="8" ry="8" style="stroke:#181818;stroke-width:0.5;"/><text fill="#000000" font-family="sans-serif" font-size="14" lengthAdjust="spacing" textLength="37" x="12.5" y="94.1451">HTTP</text></g><!--entity First Component--><g id="elem_First Component"><rect fill="#F1F1F1" height="46.2969" rx="2.5" ry="2.5" style="stroke:#181818;stroke-width:0.5;" width="155" x="75.5" y="41"/><rect fill="#F1F1F1" height="10" style="stroke:#181818;stroke-width:0.5;" width="15" x="210.5" y="46"/><rect fill="#F1F1F1" height="2" style="stroke:#181818;stroke-width:0.5;" width="4" x="208.5" y="48"/><rect fill="#F1F1F1" height="2" style="stroke:#181818;stroke-width:0.5;" width="4" x="208.5" y="52"/><text fill="#000000" font-family="sans-serif" font-size="14" lengthAdjust="spacing" textLength="115" x="90.5" y="73.9951">First Component</text></g><!--entity Another Component--><g id="elem_Another Component"><rect fill="#F1F1F1" height="46.2969" rx="2.5" ry="2.5" style="stroke:#181818;stroke-width:0.5;" width="181" x="265.5" y="41"/><rect fill="#F1F1F1" height="10" style="stroke:#181818;stroke-width:0.5;" width="15" x="426.5" y="46"/><rect fill="#F1F1F1" height="2" style="stroke:#181818;stroke-width:0.5;" width="4" x="424.5" y="48"/><rect fill="#F1F1F1" height="2" style="stroke:#181818;stroke-width:0.5;" width="4" x="424.5" y="52"/><text fill="#000000" font-family="sans-serif" font-size="14" lengthAdjust="spacing" textLength="141" x="280.5" y="73.9951">Another Component</text></g><!--entity FTP--><g id="elem_FTP"><ellipse cx="90" cy="190.45" fill="#F1F1F1" rx="8" ry="8" style="stroke:#181818;stroke-width:0.5;"/><text fill="#000000" font-family="sans-serif" font-size="14" lengthAdjust="spacing" textLength="26" x="77" y="220.4451">FTP</text></g><!--entity Second Component--><g id="elem_Second Component"><rect fill="#F1F1F1" height="46.2969" rx="2.5" ry="2.5" style="stroke:#181818;stroke-width:0.5;" width="179" x="133.5" y="167.3"/><rect fill="#F1F1F1" height="10" style="stroke:#181818;stroke-width:0.5;" width="15" x="292.5" y="172.3"/><rect fill="#F1F1F1" height="2" style="stroke:#181818;stroke-width:0.5;" width="4" x="290.5" y="174.3"/><rect fill="#F1F1F1" height="2" style="stroke:#181818;stroke-width:0.5;" width="4" x="290.5" y="178.3"/><text fill="#000000" font-family="sans-serif" font-size="14" lengthAdjust="spacing" textLength="139" x="148.5" y="200.2951">Second Component</text></g><!--entity Example 1--><g id="elem_Example 1"><rect fill="#F1F1F1" height="46.2969" rx="2.5" ry="2.5" style="stroke:#181818;stroke-width:0.5;" width="111" x="368.5" y="167.3"/><rect fill="#F1F1F1" height="10" style="stroke:#181818;stroke-width:0.5;" width="15" x="459.5" y="172.3"/><rect fill="#F1F1F1" height="2" style="stroke:#181818;stroke-width:0.5;" width="4" x="457.5" y="174.3"/><rect fill="#F1F1F1" height="2" style="stroke:#181818;stroke-width:0.5;" width="4" x="457.5" y="178.3"/><text fill="#000000" font-family="sans-serif" font-size="14" lengthAdjust="spacing" textLength="71" x="383.5" y="200.2951">Example 1</text></g><!--entity Folder 3--><g id="elem_Folder 3"><rect fill="#F1F1F1" height="46.2969" rx="2.5" ry="2.5" style="stroke:#181818;stroke-width:0.5;" width="96" x="376" y="346.6"/><rect fill="#F1F1F1" height="10" style="stroke:#181818;stroke-width:0.5;" width="15" x="452" y="351.6"/><rect fill="#F1F1F1" height="2" style="stroke:#181818;stroke-width:0.5;" width="4" x="450" y="353.6"/><rect fill="#F1F1F1" height="2" style="stroke:#181818;stroke-width:0.5;" width="4" x="450" y="357.6"/><text fill="#000000" font-family="sans-serif" font-size="14" lengthAdjust="spacing" textLength="56" x="391" y="379.5951">Folder 3</text></g><!--entity Frame 4--><g id="elem_Frame 4"><rect fill="#F1F1F1" height="46.2969" rx="2.5" ry="2.5" style="stroke:#181818;stroke-width:0.5;" width="96" x="376" y="467.89"/><rect fill="#F1F1F1" height="10" style="stroke:#181818;stroke-width:0.5;" width="15" x="452" y="472.89"/><rect fill="#F1F1F1" height="2" style="stroke:#181818;stroke-width:0.5;" width="4" x="450" y="474.89"/><rect fill="#F1F1F1" height="2" style="stroke:#181818;stroke-width:0.5;" width="4" x="450" y="478.89"/><text fill="#000000" font-family="sans-serif" font-size="14" lengthAdjust="spacing" textLength="56" x="391" y="500.8851">Frame 4</text></g><!--link HTTP to First Component--><g id="link_HTTP_First Component"><path d="M40.05,64.15 C51.82,64.15 63.58,64.15 75.35,64.15 " fill="none" id="HTTP-First Component" style="stroke:#181818;stroke-width:1.0;"/></g><!--link FTP to Second Component--><g id="link_FTP_Second Component"><path d="M99.35,190.45 C110.62,190.45 121.89,190.45 133.16,190.45 " fill="none" id="FTP-Second Component" style="stroke:#181818;stroke-width:1.0;"/></g><!--link First Component to FTP--><g id="link_First Component_FTP"><path d="M135.86,87.57 C129.12,97.03 121.65,108.38 116,119.3 C105.02,140.53 98.089,161.7256 94.109,175.2056 " fill="none" id="First Component-to-FTP" style="stroke:#181818;stroke-width:1.0;"/><polygon fill="#181818" points="92.41,180.96,98.7948,173.461,93.8258,176.1646,91.1222,171.1957,92.41,180.96" style="stroke:#181818;stroke-width:1.0;"/></g><!--link Another Component to Example 1--><g id="link_Another Component_Example 1"><path d="M368.31,87.66 C380.64,110.19 396.6108,139.3759 408.9008,161.8459 " fill="none" id="Another Component-to-Example 1" style="stroke:#181818;stroke-width:1.0;"/><polygon fill="#181818" points="411.78,167.11,410.9706,157.2945,409.3807,162.7233,403.9519,161.1334,411.78,167.11" style="stroke:#181818;stroke-width:1.0;"/></g><!--link Example 1 to Folder 3--><g id="link_Example 1_Folder 3"><path d="M424,213.9 C424,247.91 424,306.12 424,340.19 " fill="none" id="Example 1-to-Folder 3" style="stroke:#181818;stroke-width:1.0;"/><polygon fill="#181818" points="424,346.19,428,337.19,424,341.19,420,337.19,424,346.19" style="stroke:#181818;stroke-width:1.0;"/></g><!--link Folder 3 to Frame 4--><g id="link_Folder 3_Frame 4"><path d="M424,393.18 C424,414.51 424,440.41 424,461.7 " fill="none" id="Folder 3-to-Frame 4" style="stroke:#181818;stroke-width:1.0;"/><polygon fill="#181818" points="424,467.7,428,458.7,424,462.7,420,458.7,424,467.7" style="stroke:#181818;stroke-width:1.0;"/></g><!--SRC=[ROyz2y8m48Rt_8eZUmVHMH2nkeX2knM7s4HRR7CnIS4Y_U_cez1IX0p7lPVdkLEiVB6d09fXA-2eiLCKlWJWbETNIA18QsqixB5LA8MqDnSLEucs4dhU7GYHo1td4f80Cf6KHb0cIfHyGLhI8Kcs_eFdbGrsF12AmuUrgX6m2YB2cMLtPfpjt6Vl9ceUs71dfdbL6t2lxSTMZBqiJgozUV0_D7CtqnHn6WcjJPpmgZ-tXXtdAytgc4sYgHoJaVy3]--></g></svg>