<?xml version="1.0" encoding="us-ascii" standalone="no"?><svg xmlns="http://www.w3.org/2000/svg" xmlns:xlink="http://www.w3.org/1999/xlink" contentStyleType="text/css" height="392px" preserveAspectRatio="none" style="width:473px;height:392px;background:#FFFFFF;" version="1.1" viewBox="0 0 473 392" width="473px" zoomAndPan="magnify"><defs/><g><line style="stroke:#333333;stroke-width:0.5;" x1="10" x2="10" y1="10" y2="363.1875"/><line style="stroke:#333333;stroke-width:0.5;" x1="456" x2="456" y1="10" y2="363.1875"/><line style="stroke:#333333;stroke-width:0.5;stroke-dasharray:3.0,5.0;" x1="101" x2="101" y1="10" y2="363.1875"/><line style="stroke:#333333;stroke-width:0.5;stroke-dasharray:3.0,5.0;" x1="151" x2="151" y1="10" y2="363.1875"/><line style="stroke:#333333;stroke-width:0.5;stroke-dasharray:3.0,5.0;" x1="201" x2="201" y1="10" y2="363.1875"/><line style="stroke:#333333;stroke-width:0.5;stroke-dasharray:3.0,5.0;" x1="251" x2="251" y1="10" y2="363.1875"/><line style="stroke:#333333;stroke-width:0.5;stroke-dasharray:3.0,5.0;" x1="301" x2="301" y1="10" y2="363.1875"/><line style="stroke:#333333;stroke-width:0.5;stroke-dasharray:3.0,5.0;" x1="351" x2="351" y1="10" y2="363.1875"/><line style="stroke:#333333;stroke-width:0.5;stroke-dasharray:3.0,5.0;" x1="401" x2="401" y1="10" y2="363.1875"/><line style="stroke:#333333;stroke-width:0.5;stroke-dasharray:3.0,5.0;" x1="451" x2="451" y1="10" y2="363.1875"/><line style="stroke:#333333;stroke-width:0.5;" x1="10" x2="456" y1="10" y2="10"/><text fill="#333333" font-family="sans-serif" font-size="14" font-weight="bold" lengthAdjust="spacing" textLength="60" x="15" y="22.9951">Clock_0</text><line style="stroke:#333333;stroke-width:0.5;" x1="10" x2="76" y1="27.2969" y2="27.2969"/><line style="stroke:#333333;stroke-width:0.5;" x1="76" x2="86" y1="27.2969" y2="10"/><line style="stroke:#006400;stroke-width:1.5;" x1="101" x2="101" y1="34.2969" y2="48.2969"/><line style="stroke:#006400;stroke-width:1.5;" x1="101" x2="126" y1="34.2969" y2="34.2969"/><line style="stroke:#006400;stroke-width:1.5;" x1="126" x2="126" y1="34.2969" y2="48.2969"/><line style="stroke:#006400;stroke-width:1.5;" x1="126" x2="151" y1="48.2969" y2="48.2969"/><line style="stroke:#006400;stroke-width:1.5;" x1="151" x2="151" y1="34.2969" y2="48.2969"/><line style="stroke:#006400;stroke-width:1.5;" x1="151" x2="176" y1="34.2969" y2="34.2969"/><line style="stroke:#006400;stroke-width:1.5;" x1="176" x2="176" y1="34.2969" y2="48.2969"/><line style="stroke:#006400;stroke-width:1.5;" x1="176" x2="201" y1="48.2969" y2="48.2969"/><line style="stroke:#006400;stroke-width:1.5;" x1="201" x2="201" y1="34.2969" y2="48.2969"/><line style="stroke:#006400;stroke-width:1.5;" x1="201" x2="226" y1="34.2969" y2="34.2969"/><line style="stroke:#006400;stroke-width:1.5;" x1="226" x2="226" y1="34.2969" y2="48.2969"/><line style="stroke:#006400;stroke-width:1.5;" x1="226" x2="251" y1="48.2969" y2="48.2969"/><line style="stroke:#006400;stroke-width:1.5;" x1="251" x2="251" y1="34.2969" y2="48.2969"/><line style="stroke:#006400;stroke-width:1.5;" x1="251" x2="276" y1="34.2969" y2="34.2969"/><line style="stroke:#006400;stroke-width:1.5;" x1="276" x2="276" y1="34.2969" y2="48.2969"/><line style="stroke:#006400;stroke-width:1.5;" x1="276" x2="301" y1="48.2969" y2="48.2969"/><line style="stroke:#006400;stroke-width:1.5;" x1="301" x2="301" y1="34.2969" y2="48.2969"/><line style="stroke:#006400;stroke-width:1.5;" x1="301" x2="326" y1="34.2969" y2="34.2969"/><line style="stroke:#006400;stroke-width:1.5;" x1="326" x2="326" y1="34.2969" y2="48.2969"/><line style="stroke:#006400;stroke-width:1.5;" x1="326" x2="351" y1="48.2969" y2="48.2969"/><line style="stroke:#006400;stroke-width:1.5;" x1="351" x2="351" y1="34.2969" y2="48.2969"/><line style="stroke:#006400;stroke-width:1.5;" x1="351" x2="376" y1="34.2969" y2="34.2969"/><line style="stroke:#006400;stroke-width:1.5;" x1="376" x2="376" y1="34.2969" y2="48.2969"/><line style="stroke:#006400;stroke-width:1.5;" x1="376" x2="401" y1="48.2969" y2="48.2969"/><line style="stroke:#006400;stroke-width:1.5;" x1="401" x2="401" y1="34.2969" y2="48.2969"/><line style="stroke:#006400;stroke-width:1.5;" x1="401" x2="426" y1="34.2969" y2="34.2969"/><line style="stroke:#006400;stroke-width:1.5;" x1="426" x2="426" y1="34.2969" y2="48.2969"/><line style="stroke:#006400;stroke-width:1.5;" x1="426" x2="451" y1="48.2969" y2="48.2969"/><line style="stroke:#006400;stroke-width:1.5;" x1="451" x2="451" y1="34.2969" y2="48.2969"/><line style="stroke:#006400;stroke-width:1.5;" x1="451" x2="451" y1="34.2969" y2="34.2969"/><line style="stroke:#333333;stroke-width:0.5;" x1="10" x2="456" y1="56.2969" y2="56.2969"/><text fill="#333333" font-family="sans-serif" font-size="14" font-weight="bold" lengthAdjust="spacing" textLength="60" x="15" y="69.292">Clock_1</text><line style="stroke:#333333;stroke-width:0.5;" x1="10" x2="76" y1="73.5938" y2="73.5938"/><line style="stroke:#333333;stroke-width:0.5;" x1="76" x2="86" y1="73.5938" y2="56.2969"/><line style="stroke:#006400;stroke-width:1.5;" x1="101" x2="111" y1="94.5938" y2="94.5938"/><line style="stroke:#006400;stroke-width:1.5;" x1="111" x2="111" y1="80.5938" y2="94.5938"/><line style="stroke:#006400;stroke-width:1.5;" x1="111" x2="126" y1="80.5938" y2="80.5938"/><line style="stroke:#006400;stroke-width:1.5;" x1="126" x2="126" y1="80.5938" y2="94.5938"/><line style="stroke:#006400;stroke-width:1.5;" x1="126" x2="161" y1="94.5938" y2="94.5938"/><line style="stroke:#006400;stroke-width:1.5;" x1="161" x2="161" y1="80.5938" y2="94.5938"/><line style="stroke:#006400;stroke-width:1.5;" x1="161" x2="176" y1="80.5938" y2="80.5938"/><line style="stroke:#006400;stroke-width:1.5;" x1="176" x2="176" y1="80.5938" y2="94.5938"/><line style="stroke:#006400;stroke-width:1.5;" x1="176" x2="211" y1="94.5938" y2="94.5938"/><line style="stroke:#006400;stroke-width:1.5;" x1="211" x2="211" y1="80.5938" y2="94.5938"/><line style="stroke:#006400;stroke-width:1.5;" x1="211" x2="226" y1="80.5938" y2="80.5938"/><line style="stroke:#006400;stroke-width:1.5;" x1="226" x2="226" y1="80.5938" y2="94.5938"/><line style="stroke:#006400;stroke-width:1.5;" x1="226" x2="261" y1="94.5938" y2="94.5938"/><line style="stroke:#006400;stroke-width:1.5;" x1="261" x2="261" y1="80.5938" y2="94.5938"/><line style="stroke:#006400;stroke-width:1.5;" x1="261" x2="276" y1="80.5938" y2="80.5938"/><line style="stroke:#006400;stroke-width:1.5;" x1="276" x2="276" y1="80.5938" y2="94.5938"/><line style="stroke:#006400;stroke-width:1.5;" x1="276" x2="311" y1="94.5938" y2="94.5938"/><line style="stroke:#006400;stroke-width:1.5;" x1="311" x2="311" y1="80.5938" y2="94.5938"/><line style="stroke:#006400;stroke-width:1.5;" x1="311" x2="326" y1="80.5938" y2="80.5938"/><line style="stroke:#006400;stroke-width:1.5;" x1="326" x2="326" y1="80.5938" y2="94.5938"/><line style="stroke:#006400;stroke-width:1.5;" x1="326" x2="361" y1="94.5938" y2="94.5938"/><line style="stroke:#006400;stroke-width:1.5;" x1="361" x2="361" y1="80.5938" y2="94.5938"/><line style="stroke:#006400;stroke-width:1.5;" x1="361" x2="376" y1="80.5938" y2="80.5938"/><line style="stroke:#006400;stroke-width:1.5;" x1="376" x2="376" y1="80.5938" y2="94.5938"/><line style="stroke:#006400;stroke-width:1.5;" x1="376" x2="411" y1="94.5938" y2="94.5938"/><line style="stroke:#006400;stroke-width:1.5;" x1="411" x2="411" y1="80.5938" y2="94.5938"/><line style="stroke:#006400;stroke-width:1.5;" x1="411" x2="426" y1="80.5938" y2="80.5938"/><line style="stroke:#006400;stroke-width:1.5;" x1="426" x2="426" y1="80.5938" y2="94.5938"/><line style="stroke:#006400;stroke-width:1.5;" x1="426" x2="451" y1="94.5938" y2="94.5938"/><line style="stroke:#333333;stroke-width:0.5;" x1="10" x2="456" y1="102.5938" y2="102.5938"/><text fill="#333333" font-family="sans-serif" font-size="14" font-weight="bold" lengthAdjust="spacing" textLength="52" x="15" y="122.4404">Binary</text><line style="stroke:#006400;stroke-width:2.0;" x1="101" x2="201" y1="124.5938" y2="124.5938"/><line style="stroke:#006400;stroke-width:2.0;" x1="201" x2="201" y1="110.5938" y2="124.5938"/><line style="stroke:#006400;stroke-width:2.0;" x1="201" x2="451" y1="110.5938" y2="110.5938"/><line style="stroke:#333333;stroke-width:0.5;" x1="10" x2="456" y1="132.5938" y2="132.5938"/><text fill="#333333" font-family="sans-serif" font-size="14" font-weight="bold" lengthAdjust="spacing" textLength="62" x="15" y="145.5889">Concise</text><line style="stroke:#333333;stroke-width:0.5;" x1="10" x2="78" y1="149.8906" y2="149.8906"/><line style="stroke:#333333;stroke-width:0.5;" x1="78" x2="88" y1="149.8906" y2="132.5938"/><polygon fill="#E2E2F0" points="113,154.8906,189,154.8906,201,166.8906,189,178.8906,113,178.8906,101,166.8906" style="stroke:#006400;stroke-width:1.5;"/><polygon fill="#E2E2F0" points="213,154.8906,451,154.8906,451,178.8906,213,178.8906,201,166.8906" style="stroke:#E2E2F0;stroke-width:1.5;"/><path d="M451,154.8906 L213,154.8906 L201,166.8906 L213,178.8906 L451,178.8906 " fill="#E2E2F0" style="stroke:#006400;stroke-width:1.5;"/><text fill="#333333" font-family="sans-serif" font-size="12" font-weight="bold" lengthAdjust="spacing" textLength="26" x="138" y="171.0449">Idle</text><text fill="#333333" font-family="sans-serif" font-size="12" font-weight="bold" lengthAdjust="spacing" textLength="55" x="213" y="171.0449">Waiting</text><line style="stroke:#333333;stroke-width:0.5;" x1="10" x2="456" y1="188.8906" y2="188.8906"/><text fill="#333333" font-family="sans-serif" font-size="14" font-weight="bold" lengthAdjust="spacing" textLength="58" x="15" y="201.8857">Robust</text><line style="stroke:#333333;stroke-width:0.5;" x1="10" x2="74" y1="206.1875" y2="206.1875"/><line style="stroke:#333333;stroke-width:0.5;" x1="74" x2="84" y1="206.1875" y2="188.8906"/><text fill="#333333" font-family="sans-serif" font-size="12" lengthAdjust="spacing" textLength="22" x="30" y="256.3418">Idle</text><text fill="#333333" font-family="sans-serif" font-size="12" lengthAdjust="spacing" textLength="66" x="30" y="236.3418">Processing</text><text fill="#333333" font-family="sans-serif" font-size="12" lengthAdjust="spacing" textLength="44" x="30" y="216.3418">Waiting</text><line style="stroke:#006400;stroke-width:2.0;" x1="101" x2="201" y1="251.1875" y2="251.1875"/><line style="stroke:#006400;stroke-width:2.0;" x1="201" x2="401" y1="231.1875" y2="231.1875"/><line style="stroke:#006400;stroke-width:2.0;" x1="401" x2="451" y1="211.1875" y2="211.1875"/><line style="stroke:#006400;stroke-width:2.0;" x1="201" x2="201" y1="231.1875" y2="251.1875"/><line style="stroke:#006400;stroke-width:2.0;" x1="401" x2="401" y1="211.1875" y2="231.1875"/><line style="stroke:#333333;stroke-width:0.5;" x1="10" x2="456" y1="263.1875" y2="263.1875"/><text fill="#333333" font-family="sans-serif" font-size="14" font-weight="bold" lengthAdjust="spacing" textLength="56" x="15" y="318.0342">Analog</text><text fill="#333333" font-family="sans-serif" font-size="14" font-weight="bold" lengthAdjust="spacing" textLength="25" x="74" y="360.0342">0.0</text><text fill="#333333" font-family="sans-serif" font-size="14" font-weight="bold" lengthAdjust="spacing" textLength="25" x="74" y="276.0342">3.0</text><line style="stroke:#333333;stroke-width:0.5;" x1="101" x2="101" y1="355.1875" y2="355.1875"/><line style="stroke:#333333;stroke-width:0.5;" x1="101" x2="201" y1="355.1875" y2="271.1875"/><line style="stroke:#333333;stroke-width:0.5;" x1="201" x2="401" y1="271.1875" y2="327.1875"/><line style="stroke:#333333;stroke-width:0.5;" x1="401" x2="451" y1="327.1875" y2="327.1875"/><line style="stroke:#333333;stroke-width:2.0;" x1="101" x2="101" y1="363.1875" y2="368.1875"/><line style="stroke:#333333;stroke-width:2.0;" x1="151" x2="151" y1="363.1875" y2="368.1875"/><line style="stroke:#333333;stroke-width:2.0;" x1="201" x2="201" y1="363.1875" y2="368.1875"/><line style="stroke:#333333;stroke-width:2.0;" x1="251" x2="251" y1="363.1875" y2="368.1875"/><line style="stroke:#333333;stroke-width:2.0;" x1="301" x2="301" y1="363.1875" y2="368.1875"/><line style="stroke:#333333;stroke-width:2.0;" x1="351" x2="351" y1="363.1875" y2="368.1875"/><line style="stroke:#333333;stroke-width:2.0;" x1="401" x2="401" y1="363.1875" y2="368.1875"/><line style="stroke:#333333;stroke-width:2.0;" x1="451" x2="451" y1="363.1875" y2="368.1875"/><line style="stroke:#333333;stroke-width:2.0;" x1="101" x2="451" y1="363.1875" y2="363.1875"/><text fill="#333333" font-family="sans-serif" font-size="11" lengthAdjust="spacing" textLength="7" x="97.5" y="379.3979">0</text><text fill="#333333" font-family="sans-serif" font-size="11" lengthAdjust="spacing" textLength="14" x="144" y="379.3979">50</text><text fill="#333333" font-family="sans-serif" font-size="11" lengthAdjust="spacing" textLength="21" x="190.5" y="379.3979">100</text><text fill="#333333" font-family="sans-serif" font-size="11" lengthAdjust="spacing" textLength="21" x="390.5" y="379.3979">300</text><!--SRC=[NOnB3i8W443tSue99u0qtTkoScVOk3IKqfP8e04Qu-tb4uswUpFptYZhrHqH2IzmeoIpZCWfFapQSDV1-1bx2kfNP6-H_Ocu7pPgP3twPOaw8QCm6IV3CxTZ1LBB4PHtocINy0QaFeJWfoEcR8iApHOWdRH-pUkXGbiF072YmD54FCzMW_ZGK8ZcCwCKnZ9iPjsQUfKc6RSs-nAyqZ6MkJPTRhhSY6-pNjWB]--></g></svg>