<?xml version="1.0" encoding="us-ascii" standalone="no"?><svg xmlns="http://www.w3.org/2000/svg" xmlns:xlink="http://www.w3.org/1999/xlink" contentStyleType="text/css" height="241px" preserveAspectRatio="none" style="width:798px;height:241px;background:#FFFFFF;" version="1.1" viewBox="0 0 798 241" width="798px" zoomAndPan="magnify"><defs/><g><!--entity ERC--><g id="elem_ERC"><rect fill="#F1F1F1" height="36.2969" rx="2.5" ry="2.5" style="stroke:#181818;stroke-width:0.5;" width="76" x="499.5" y="7"/><text fill="#000000" font-family="sans-serif" font-size="14" lengthAdjust="spacing" textLength="56" x="509.5" y="29.9951">&#19994;&#21153;&#31995;&#32479;</text></g><!--entity ERC_COMPONENTS--><g id="elem_ERC_COMPONENTS"><rect fill="#F1F1F1" height="36.2969" rx="2.5" ry="2.5" style="stroke:#181818;stroke-width:0.5;" width="111" x="318" y="103"/><text fill="#000000" font-family="sans-serif" font-size="14" lengthAdjust="spacing" textLength="91" x="328" y="125.9951">components</text></g><!--entity ERC_COMPONENTS_1--><g id="elem_ERC_COMPONENTS_1"><rect fill="#F1F1F1" height="36.2969" rx="2.5" ry="2.5" style="stroke:#181818;stroke-width:0.5;" width="43" x="407" y="199"/><text fill="#000000" font-family="sans-serif" font-size="14" lengthAdjust="spacing" textLength="23" x="417" y="221.9951">1.0</text></g><!--entity ERC_COMPONENTS_2--><g id="elem_ERC_COMPONENTS_2"><rect fill="#F1F1F1" height="36.2969" rx="2.5" ry="2.5" style="stroke:#181818;stroke-width:0.5;" width="42" x="329.5" y="199"/><text fill="#000000" font-family="sans-serif" font-size="14" lengthAdjust="spacing" textLength="22" x="339.5" y="221.9951">2.0</text></g><!--entity ERC_COMPONENTS_3--><g id="elem_ERC_COMPONENTS_3"><rect fill="#F1F1F1" height="36.2969" rx="2.5" ry="2.5" style="stroke:#181818;stroke-width:0.5;" width="43" x="251" y="199"/><text fill="#000000" font-family="sans-serif" font-size="14" lengthAdjust="spacing" textLength="23" x="261" y="221.9951">3.0</text></g><!--entity ERC_PAGES--><g id="elem_ERC_PAGES"><rect fill="#F1F1F1" height="36.2969" rx="2.5" ry="2.5" style="stroke:#181818;stroke-width:0.5;" width="63" x="729" y="199"/><text fill="#000000" font-family="sans-serif" font-size="14" lengthAdjust="spacing" textLength="43" x="739" y="221.9951">pages</text></g><!--entity ASSETS--><g id="elem_ASSETS"><rect fill="#F1F1F1" height="36.2969" rx="2.5" ry="2.5" style="stroke:#181818;stroke-width:0.5;" width="104" x="488.5" y="103"/><text fill="#000000" font-family="sans-serif" font-size="14" lengthAdjust="spacing" textLength="84" x="498.5" y="125.9951">&#36164;&#20135;&#31649;&#29702;&#31995;&#32479;</text></g><!--entity ASSETS_COMPONENTS--><g id="elem_ASSETS_COMPONENTS"><rect fill="#F1F1F1" height="36.2969" rx="2.5" ry="2.5" style="stroke:#181818;stroke-width:0.5;" width="111" x="485" y="199"/><text fill="#000000" font-family="sans-serif" font-size="14" lengthAdjust="spacing" textLength="91" x="495" y="221.9951">components</text></g><!--entity ASSETS_PAGES--><g id="elem_ASSETS_PAGES"><rect fill="#F1F1F1" height="36.2969" rx="2.5" ry="2.5" style="stroke:#181818;stroke-width:0.5;" width="63" x="631" y="199"/><text fill="#000000" font-family="sans-serif" font-size="14" lengthAdjust="spacing" textLength="43" x="641" y="221.9951">pages</text></g><!--entity TICKET--><g id="elem_TICKET"><rect fill="#F1F1F1" height="36.2969" rx="2.5" ry="2.5" style="stroke:#181818;stroke-width:0.5;" width="104" x="132.5" y="103"/><text fill="#000000" font-family="sans-serif" font-size="14" lengthAdjust="spacing" textLength="84" x="142.5" y="125.9951">&#24037;&#21333;&#31649;&#29702;&#31995;&#32479;</text></g><!--entity TICKET_COMPONENTS--><g id="elem_TICKET_COMPONENTS"><rect fill="#F1F1F1" height="36.2969" rx="2.5" ry="2.5" style="stroke:#181818;stroke-width:0.5;" width="111" x="7" y="199"/><text fill="#000000" font-family="sans-serif" font-size="14" lengthAdjust="spacing" textLength="91" x="17" y="221.9951">components</text></g><!--entity TICKET_PAGES--><g id="elem_TICKET_PAGES"><rect fill="#F1F1F1" height="36.2969" rx="2.5" ry="2.5" style="stroke:#181818;stroke-width:0.5;" width="63" x="153" y="199"/><text fill="#000000" font-family="sans-serif" font-size="14" lengthAdjust="spacing" textLength="43" x="163" y="221.9951">pages</text></g><!--link ERC to ERC_COMPONENTS--><g id="link_ERC_ERC_COMPONENTS"><path d="M507.801,43.023 C478.171,60.006 439.8447,81.9728 410.1957,98.9668 " fill="none" id="ERC-to-ERC_COMPONENTS" style="stroke:#181818;stroke-width:1.0;"/><polygon fill="#181818" points="403.255,102.945,411.6876,101.5695,408.7039,96.364,403.255,102.945" style="stroke:#181818;stroke-width:1.0;"/></g><!--link ERC_COMPONENTS to ERC_COMPONENTS_1--><g id="link_ERC_COMPONENTS_ERC_COMPONENTS_1"><path d="M383.588,139.241 C393.512,156.2017 404.5338,175.0407 414.4358,191.9635 " fill="none" id="ERC_COMPONENTS-to-ERC_COMPONENTS_1" style="stroke:#181818;stroke-width:1.0;"/><polygon fill="#181818" points="418.476,198.8683,417.0251,190.4484,411.8465,193.4785,418.476,198.8683" style="stroke:#181818;stroke-width:1.0;"/></g><!--link ERC_COMPONENTS to ERC_COMPONENTS_2--><g id="link_ERC_COMPONENTS_ERC_COMPONENTS_2"><path d="M369.281,139.241 C365.132,156.2017 360.7331,174.1747 356.5931,191.0975 " fill="none" id="ERC_COMPONENTS-to-ERC_COMPONENTS_2" style="stroke:#181818;stroke-width:1.0;"/><polygon fill="#181818" points="354.692,198.8683,359.5071,191.8104,353.679,190.3846,354.692,198.8683" style="stroke:#181818;stroke-width:1.0;"/></g><!--link ERC_COMPONENTS to ERC_COMPONENTS_3--><g id="link_ERC_COMPONENTS_ERC_COMPONENTS_3"><path d="M354.975,139.241 C336.751,156.2017 314.946,176.4951 296.764,193.4179 " fill="none" id="ERC_COMPONENTS-to-ERC_COMPONENTS_3" style="stroke:#181818;stroke-width:1.0;"/><polygon fill="#181818" points="290.908,198.8683,298.8079,195.6139,294.7201,191.2219,290.908,198.8683" style="stroke:#181818;stroke-width:1.0;"/></g><!--link ERC to ERC_PAGES--><g id="link_ERC_ERC_PAGES"><path d="M557.683,43.196 C600.14,79.37 692.1575,157.7714 734.4335,193.7911 " fill="none" id="ERC-to-ERC_PAGES" style="stroke:#181818;stroke-width:1.0;"/><polygon fill="#181818" points="740.523,198.9794,736.3792,191.5076,732.4879,196.0746,740.523,198.9794" style="stroke:#181818;stroke-width:1.0;"/></g><!--reverse link ERC_COMPONENTS_3 to ERC_PAGES--><g id="link_ERC_COMPONENTS_3_ERC_PAGES"><path d="M293.2402,192.9344 C303.5952,182.0162 312.811,174.9483 329,169 C405.134,141.0258 616.82,144.0552 694,169 C712.29,174.9115 729.783,187.9366 742.233,198.9287 " fill="none" id="ERC_COMPONENTS_3-backto-ERC_PAGES" style="stroke:#181818;stroke-width:1.0;"/><polygon fill="#181818" points="287.735,198.739,295.4169,194.9989,291.0634,190.87,287.735,198.739" style="stroke:#181818;stroke-width:1.0;"/></g><!--link ASSETS to ASSETS_COMPONENTS--><g id="link_ASSETS_ASSETS_COMPONENTS"><path d="M540.5,139.241 C540.5,156.2017 540.5,173.9455 540.5,190.8683 " fill="none" id="ASSETS-to-ASSETS_COMPONENTS" style="stroke:#181818;stroke-width:1.0;"/><polygon fill="#181818" points="540.5,198.8683,543.5,190.8683,537.5,190.8683,540.5,198.8683" style="stroke:#181818;stroke-width:1.0;"/></g><!--link ASSETS to ASSETS_PAGES--><g id="link_ASSETS_ASSETS_PAGES"><path d="M562.593,139.0227 C584.566,155.9528 611.7618,176.907 633.8218,193.9037 " fill="none" id="ASSETS-to-ASSETS_PAGES" style="stroke:#181818;stroke-width:1.0;"/><polygon fill="#181818" points="640.159,198.7863,635.6528,191.5272,631.9908,196.2801,640.159,198.7863" style="stroke:#181818;stroke-width:1.0;"/></g><!--reverse link ASSETS_COMPONENTS to ASSETS_PAGES--><g id="link_ASSETS_COMPONENTS_ASSETS_PAGES"><path d="M604.258,217 C615.816,217 619.374,217 630.931,217 " fill="none" id="ASSETS_COMPONENTS-backto-ASSETS_PAGES" style="stroke:#181818;stroke-width:1.0;"/><polygon fill="#181818" points="596.258,217,604.258,220,604.258,214,596.258,217" style="stroke:#181818;stroke-width:1.0;"/></g><!--link ASSETS to ERC_COMPONENTS_1--><g id="link_ASSETS_ERC_COMPONENTS_1"><path d="M520.218,139.0227 C500.046,155.9528 475.3887,176.6466 455.1377,193.6433 " fill="none" id="ASSETS-to-ERC_COMPONENTS_1" style="stroke:#181818;stroke-width:1.0;"/><polygon fill="#181818" points="449.01,198.7863,457.0664,195.9412,453.2091,191.3454,449.01,198.7863" style="stroke:#181818;stroke-width:1.0;"/></g><!--link TICKET to TICKET_COMPONENTS--><g id="link_TICKET_TICKET_COMPONENTS"><path d="M162.407,139.0227 C140.434,155.9528 113.2379,176.9069 91.1783,193.9036 " fill="none" id="TICKET-to-TICKET_COMPONENTS" style="stroke:#181818;stroke-width:1.0;"/><polygon fill="#181818" points="84.8412,198.7863,93.0093,196.28,89.3473,191.5272,84.8412,198.7863" style="stroke:#181818;stroke-width:1.0;"/></g><!--link TICKET to TICKET_PAGES--><g id="link_TICKET_TICKET_PAGES"><path d="M184.5,139.241 C184.5,156.2017 184.5,173.9455 184.5,190.8683 " fill="none" id="TICKET-to-TICKET_PAGES" style="stroke:#181818;stroke-width:1.0;"/><polygon fill="#181818" points="184.5,198.8683,187.5,190.8683,181.5,190.8683,184.5,198.8683" style="stroke:#181818;stroke-width:1.0;"/></g><!--reverse link TICKET_COMPONENTS to TICKET_PAGES--><g id="link_TICKET_COMPONENTS_TICKET_PAGES"><path d="M126.258,217 C137.816,217 141.374,217 152.931,217 " fill="none" id="TICKET_COMPONENTS-backto-TICKET_PAGES" style="stroke:#181818;stroke-width:1.0;"/><polygon fill="#181818" points="118.258,217,126.258,220,126.258,214,118.258,217" style="stroke:#181818;stroke-width:1.0;"/></g><!--link TICKET to ERC_COMPONENTS_3--><g id="link_TICKET_ERC_COMPONENTS_3"><path d="M200.641,139.241 C216.519,156.2017 235.1515,176.1054 250.9945,193.0282 " fill="none" id="TICKET-to-ERC_COMPONENTS_3" style="stroke:#181818;stroke-width:1.0;"/><polygon fill="#181818" points="256.462,198.8683,253.1846,190.9779,248.8045,195.0785,256.462,198.8683" style="stroke:#181818;stroke-width:1.0;"/></g><!--SRC=[AyxEp2j8B4hCLIXAJIv9p4lFIRMnIKhDI2pBp2-oirEevb80WgByqhmKv_oYlDGY1IDJhbekBhXg1QKdEsOzxLhuVFFkvxldAoae91Ohk0Ov8oj8piyjoCzBpIifLeBAnZlx-mRu-xdwXGGZApJKCy2Y8juGMOqHTZL6o6gCiQinHbPJa9YUYd1FWAExAufJNcnjUR9h-VDr2vzFQ4FsccDmi2kgez5y1r60muC8Iw7ACEnzkdtfqzwfcFQ6U3fxkuRWiHUYWA2zK6KGUxc0NbVGJSalpzC5HZLQlA1oSIa3HWwH2es8LMYCwIo8S-4i1TsSrBGIh5gv806Bq8uP7pXKGEn0vY2i8Mm8HgXmGK8QeG8pWd2eW3W4cODm2653q4C40000]--></g></svg>