<svg xmlns="http://www.w3.org/2000/svg" xmlns:xlink="http://www.w3.org/1999/xlink" contentStyleType="text/css" height="241px" preserveAspectRatio="none" style="width:789px;height:241px;background:#FFFFFF;" version="1.1" viewBox="0 0 789 241" width="789px" zoomAndPan="magnify"><defs/><g><!--entity ERC--><g id="elem_ERC"><rect fill="#F1F1F1" height="36.2969" rx="2.5" ry="2.5" style="stroke:#181818;stroke-width:0.5;" width="76" x="477" y="7"/><text fill="#000000" font-family="sans-serif" font-size="14" lengthAdjust="spacing" textLength="56" x="487" y="29.9951">&#19994;&#21153;&#31995;&#32479;</text></g><!--entity ERC_COMPONENTS--><g id="elem_ERC_COMPONENTS"><rect fill="#F1F1F1" height="36.2969" rx="2.5" ry="2.5" style="stroke:#181818;stroke-width:0.5;" width="108" x="315" y="103.3"/><text fill="#000000" font-family="sans-serif" font-size="14" lengthAdjust="spacing" textLength="88" x="325" y="126.2951">components</text></g><!--entity ERC_COMPONENTS_1--><g id="elem_ERC_COMPONENTS_1"><rect fill="#F1F1F1" height="36.2969" rx="2.5" ry="2.5" style="stroke:#181818;stroke-width:0.5;" width="42" x="402" y="199.59"/><text fill="#000000" font-family="sans-serif" font-size="14" lengthAdjust="spacing" textLength="22" x="412" y="222.5851">1.0</text></g><!--entity ERC_COMPONENTS_2--><g id="elem_ERC_COMPONENTS_2"><rect fill="#F1F1F1" height="36.2969" rx="2.5" ry="2.5" style="stroke:#181818;stroke-width:0.5;" width="42" x="325" y="199.59"/><text fill="#000000" font-family="sans-serif" font-size="14" lengthAdjust="spacing" textLength="22" x="335" y="222.5851">2.0</text></g><!--entity ERC_COMPONENTS_3--><g id="elem_ERC_COMPONENTS_3"><rect fill="#F1F1F1" height="36.2969" rx="2.5" ry="2.5" style="stroke:#181818;stroke-width:0.5;" width="42" x="248" y="199.59"/><text fill="#000000" font-family="sans-serif" font-size="14" lengthAdjust="spacing" textLength="22" x="258" y="222.5851">3.0</text></g><!--entity ERC_PAGES--><g id="elem_ERC_PAGES"><rect fill="#F1F1F1" height="36.2969" rx="2.5" ry="2.5" style="stroke:#181818;stroke-width:0.5;" width="63" x="720.5" y="199.59"/><text fill="#000000" font-family="sans-serif" font-size="14" lengthAdjust="spacing" textLength="43" x="730.5" y="222.5851">pages</text></g><!--entity ASSETS--><g id="elem_ASSETS"><rect fill="#F1F1F1" height="36.2969" rx="2.5" ry="2.5" style="stroke:#181818;stroke-width:0.5;" width="104" x="481" y="103.3"/><text fill="#000000" font-family="sans-serif" font-size="14" lengthAdjust="spacing" textLength="84" x="491" y="126.2951">&#36164;&#20135;&#31649;&#29702;&#31995;&#32479;</text></g><!--entity ASSETS_COMPONENTS--><g id="elem_ASSETS_COMPONENTS"><rect fill="#F1F1F1" height="36.2969" rx="2.5" ry="2.5" style="stroke:#181818;stroke-width:0.5;" width="108" x="479" y="199.59"/><text fill="#000000" font-family="sans-serif" font-size="14" lengthAdjust="spacing" textLength="88" x="489" y="222.5851">components</text></g><!--entity ASSETS_PAGES--><g id="elem_ASSETS_PAGES"><rect fill="#F1F1F1" height="36.2969" rx="2.5" ry="2.5" style="stroke:#181818;stroke-width:0.5;" width="63" x="622.5" y="199.59"/><text fill="#000000" font-family="sans-serif" font-size="14" lengthAdjust="spacing" textLength="43" x="632.5" y="222.5851">pages</text></g><!--entity TICKET--><g id="elem_TICKET"><rect fill="#F1F1F1" height="36.2969" rx="2.5" ry="2.5" style="stroke:#181818;stroke-width:0.5;" width="104" x="130" y="103.3"/><text fill="#000000" font-family="sans-serif" font-size="14" lengthAdjust="spacing" textLength="84" x="140" y="126.2951">&#24037;&#21333;&#31649;&#29702;&#31995;&#32479;</text></g><!--entity TICKET_COMPONENTS--><g id="elem_TICKET_COMPONENTS"><rect fill="#F1F1F1" height="36.2969" rx="2.5" ry="2.5" style="stroke:#181818;stroke-width:0.5;" width="108" x="7" y="199.59"/><text fill="#000000" font-family="sans-serif" font-size="14" lengthAdjust="spacing" textLength="88" x="17" y="222.5851">components</text></g><!--entity TICKET_PAGES--><g id="elem_TICKET_PAGES"><rect fill="#F1F1F1" height="36.2969" rx="2.5" ry="2.5" style="stroke:#181818;stroke-width:0.5;" width="63" x="150.5" y="199.59"/><text fill="#000000" font-family="sans-serif" font-size="14" lengthAdjust="spacing" textLength="43" x="160.5" y="222.5851">pages</text></g><!--link ERC to ERC_COMPONENTS--><g id="link_ERC_ERC_COMPONENTS"><path d="M487.88,43.66 C461.66,60.6 428.8712,81.7812 402.6912,98.6812 " fill="none" id="ERC-to-ERC_COMPONENTS" style="stroke:#181818;stroke-width:1.0;"/><polygon fill="#181818" points="395.97,103.02,404.3183,101.2017,401.0642,96.1608,395.97,103.02" style="stroke:#181818;stroke-width:1.0;"/></g><!--link ERC_COMPONENTS to ERC_COMPONENTS_1--><g id="link_ERC_COMPONENTS_ERC_COMPONENTS_1"><path d="M378.9,139.74 C388.59,156.65 399.2725,175.3188 409.0025,192.2988 " fill="none" id="ERC_COMPONENTS-to-ERC_COMPONENTS_1" style="stroke:#181818;stroke-width:1.0;"/><polygon fill="#181818" points="412.98,199.24,411.6055,190.8073,406.3996,193.7904,412.98,199.24" style="stroke:#181818;stroke-width:1.0;"/></g><!--link ERC_COMPONENTS to ERC_COMPONENTS_2--><g id="link_ERC_COMPONENTS_ERC_COMPONENTS_2"><path d="M364.78,139.74 C360.66,156.65 356.305,174.4877 352.165,191.4677 " fill="none" id="ERC_COMPONENTS-to-ERC_COMPONENTS_2" style="stroke:#181818;stroke-width:1.0;"/><polygon fill="#181818" points="350.27,199.24,355.0796,192.1783,349.2504,190.7571,350.27,199.24" style="stroke:#181818;stroke-width:1.0;"/></g><!--link ERC_COMPONENTS to ERC_COMPONENTS_3--><g id="link_ERC_COMPONENTS_ERC_COMPONENTS_3"><path d="M350.66,139.74 C332.73,156.65 311.3909,176.772 293.3809,193.752 " fill="none" id="ERC_COMPONENTS-to-ERC_COMPONENTS_3" style="stroke:#181818;stroke-width:1.0;"/><polygon fill="#181818" points="287.56,199.24,295.4388,195.9349,291.3229,191.5692,287.56,199.24" style="stroke:#181818;stroke-width:1.0;"/></g><!--link ERC to ERC_PAGES--><g id="link_ERC_ERC_PAGES"><path d="M536.87,43.74 C582.02,80.05 678.8466,157.9056 723.9466,194.1856 " fill="none" id="ERC-to-ERC_PAGES" style="stroke:#181818;stroke-width:1.0;"/><polygon fill="#181818" points="730.18,199.2,725.827,191.8481,722.0662,196.5231,730.18,199.2" style="stroke:#181818;stroke-width:1.0;"/></g><!--reverse link ERC_COMPONENTS_3 to ERC_PAGES--><g id="link_ERC_COMPONENTS_3_ERC_PAGES"><path d="M289.7127,193.6136 C300.0627,182.6536 309.29,175.56 325.5,169.59 C400.57,141.94 609.4,144.93 685.5,169.59 C703.53,175.44 720.78,188.2 733.19,199.12 " fill="none" id="ERC_COMPONENTS_3-backto-ERC_PAGES" style="stroke:#181818;stroke-width:1.0;"/><polygon fill="#181818" points="284.22,199.43,291.8938,195.6734,287.5315,191.5538,284.22,199.43" style="stroke:#181818;stroke-width:1.0;"/></g><!--link ASSETS to ASSETS_COMPONENTS--><g id="link_ASSETS_ASSETS_COMPONENTS"><path d="M533,139.74 C533,156.65 533,174.26 533,191.24 " fill="none" id="ASSETS-to-ASSETS_COMPONENTS" style="stroke:#181818;stroke-width:1.0;"/><polygon fill="#181818" points="533,199.24,536,191.24,530,191.24,533,199.24" style="stroke:#181818;stroke-width:1.0;"/></g><!--link ASSETS to ASSETS_PAGES--><g id="link_ASSETS_ASSETS_PAGES"><path d="M555.48,139.96 C577.21,156.9 603.6408,177.4912 625.3308,194.4012 " fill="none" id="ASSETS-to-ASSETS_PAGES" style="stroke:#181818;stroke-width:1.0;"/><polygon fill="#181818" points="631.64,199.32,627.1754,192.0353,623.4863,196.7672,631.64,199.32" style="stroke:#181818;stroke-width:1.0;"/></g><!--reverse link ASSETS_COMPONENTS to ASSETS_PAGES--><g id="link_ASSETS_COMPONENTS_ASSETS_PAGES"><path d="M595.36,217.74 C606.98,217.74 610.61,217.74 622.24,217.74 " fill="none" id="ASSETS_COMPONENTS-backto-ASSETS_PAGES" style="stroke:#181818;stroke-width:1.0;"/><polygon fill="#181818" points="587.36,217.74,595.36,220.74,595.36,214.74,587.36,217.74" style="stroke:#181818;stroke-width:1.0;"/></g><!--link ASSETS to ERC_COMPONENTS_1--><g id="link_ASSETS_ERC_COMPONENTS_1"><path d="M512.57,139.96 C492.81,156.9 469.113,177.2024 449.393,194.1124 " fill="none" id="ASSETS-to-ERC_COMPONENTS_1" style="stroke:#181818;stroke-width:1.0;"/><polygon fill="#181818" points="443.32,199.32,451.3458,196.3898,447.4401,191.835,443.32,199.32" style="stroke:#181818;stroke-width:1.0;"/></g><!--link TICKET to TICKET_COMPONENTS--><g id="link_TICKET_TICKET_COMPONENTS"><path d="M159.52,139.96 C137.79,156.9 111.3592,177.4912 89.6692,194.4012 " fill="none" id="TICKET-to-TICKET_COMPONENTS" style="stroke:#181818;stroke-width:1.0;"/><polygon fill="#181818" points="83.36,199.32,91.5137,196.7672,87.8246,192.0353,83.36,199.32" style="stroke:#181818;stroke-width:1.0;"/></g><!--link TICKET to TICKET_PAGES--><g id="link_TICKET_TICKET_PAGES"><path d="M182,139.74 C182,156.65 182,174.26 182,191.24 " fill="none" id="TICKET-to-TICKET_PAGES" style="stroke:#181818;stroke-width:1.0;"/><polygon fill="#181818" points="182,199.24,185,191.24,179,191.24,182,199.24" style="stroke:#181818;stroke-width:1.0;"/></g><!--reverse link TICKET_COMPONENTS to TICKET_PAGES--><g id="link_TICKET_COMPONENTS_TICKET_PAGES"><path d="M123.36,217.74 C134.98,217.74 138.61,217.74 150.24,217.74 " fill="none" id="TICKET_COMPONENTS-backto-TICKET_PAGES" style="stroke:#181818;stroke-width:1.0;"/><polygon fill="#181818" points="115.36,217.74,123.36,220.74,123.36,214.74,115.36,217.74" style="stroke:#181818;stroke-width:1.0;"/></g><!--link TICKET to ERC_COMPONENTS_3--><g id="link_TICKET_ERC_COMPONENTS_3"><path d="M197.96,139.74 C213.56,156.65 231.7545,176.3809 247.4245,193.3609 " fill="none" id="TICKET-to-ERC_COMPONENTS_3" style="stroke:#181818;stroke-width:1.0;"/><polygon fill="#181818" points="252.85,199.24,249.6291,191.3263,245.2198,195.3955,252.85,199.24" style="stroke:#181818;stroke-width:1.0;"/></g><!--SRC=[AyxEp2j8B4hCLIXAJIv9p4lFIRMnIKhDI2pBp2-oirEevb80WgByqhmKv_oYlDGY1IDJhbekBhXg1QKdEsOzxLhuVFFkvxldAoae91Ohk0Ov8oj8piyjoCzBpIifLeBAnZlx-mRu-xdwXGGZApJKCy2Y8juGMOqHTZL6o6gCiQinHbPJa9YUYd1FWAExAufJNcnjUR9h-VDr2vzFQ4FsccDmi2kgez5y1r60muC8Iw7ACEnzkdtfqzwfcFQ6U3fxkuRWiHUYWA2zK6KGUxc0NbVGJSalpzC5HZLQlA1oSIa3HWwH2es8LMYCwIo8S-4i1TsSrBGIh5gv806Bq8uP7pXKGEn0vY2i8Mm8HgXmGK8QeG8pWd2eW3W4cODm2653q4C40000]--></g></svg>