<svg xmlns="http://www.w3.org/2000/svg" xmlns:xlink="http://www.w3.org/1999/xlink" contentStyleType="text/css" height="241px" preserveAspectRatio="none" style="width:782px;height:241px;background:#FFFFFF;" version="1.1" viewBox="0 0 782 241" width="782px" zoomAndPan="magnify"><defs/><g><!--entity ERC--><g id="elem_ERC"><rect fill="#F1F1F1" height="36.2969" rx="2.5" ry="2.5" style="stroke:#181818;stroke-width:0.5;" width="75.9998" x="473.25" y="7"/><text fill="#000000" font-family="sans-serif" font-size="14" lengthAdjust="spacing" textLength="55.9998" x="483.25" y="29.9951">&#19994;&#21153;&#31995;&#32479;</text></g><!--entity ERC_COMPONENTS--><g id="elem_ERC_COMPONENTS"><rect fill="#F1F1F1" height="36.2969" rx="2.5" ry="2.5" style="stroke:#181818;stroke-width:0.5;" width="106.4951" x="313" y="103.3"/><text fill="#000000" font-family="sans-serif" font-size="14" lengthAdjust="spacing" textLength="86.4951" x="323" y="126.2951">components</text></g><!--entity ERC_COMPONENTS_1--><g id="elem_ERC_COMPONENTS_1"><rect fill="#F1F1F1" height="36.2969" rx="2.5" ry="2.5" style="stroke:#181818;stroke-width:0.5;" width="42.2646" x="399.12" y="199.59"/><text fill="#000000" font-family="sans-serif" font-size="14" lengthAdjust="spacing" textLength="22.2646" x="409.12" y="222.5851">1.0</text></g><!--entity ERC_COMPONENTS_2--><g id="elem_ERC_COMPONENTS_2"><rect fill="#F1F1F1" height="36.2969" rx="2.5" ry="2.5" style="stroke:#181818;stroke-width:0.5;" width="42.2646" x="322.12" y="199.59"/><text fill="#000000" font-family="sans-serif" font-size="14" lengthAdjust="spacing" textLength="22.2646" x="332.12" y="222.5851">2.0</text></g><!--entity ERC_COMPONENTS_3--><g id="elem_ERC_COMPONENTS_3"><rect fill="#F1F1F1" height="36.2969" rx="2.5" ry="2.5" style="stroke:#181818;stroke-width:0.5;" width="42.2646" x="245.12" y="199.59"/><text fill="#000000" font-family="sans-serif" font-size="14" lengthAdjust="spacing" textLength="22.2646" x="255.12" y="222.5851">3.0</text></g><!--entity ERC_PAGES--><g id="elem_ERC_PAGES"><rect fill="#F1F1F1" height="36.2969" rx="2.5" ry="2.5" style="stroke:#181818;stroke-width:0.5;" width="62.2598" x="714.12" y="199.59"/><text fill="#000000" font-family="sans-serif" font-size="14" lengthAdjust="spacing" textLength="42.2598" x="724.12" y="222.5851">pages</text></g><!--entity ASSETS--><g id="elem_ASSETS"><rect fill="#F1F1F1" height="36.2969" rx="2.5" ry="2.5" style="stroke:#181818;stroke-width:0.5;" width="103.9996" x="477.25" y="103.3"/><text fill="#000000" font-family="sans-serif" font-size="14" lengthAdjust="spacing" textLength="83.9996" x="487.25" y="126.2951">&#36164;&#20135;&#31649;&#29702;&#31995;&#32479;</text></g><!--entity ASSETS_COMPONENTS--><g id="elem_ASSETS_COMPONENTS"><rect fill="#F1F1F1" height="36.2969" rx="2.5" ry="2.5" style="stroke:#181818;stroke-width:0.5;" width="106.4951" x="476" y="199.59"/><text fill="#000000" font-family="sans-serif" font-size="14" lengthAdjust="spacing" textLength="86.4951" x="486" y="222.5851">components</text></g><!--entity ASSETS_PAGES--><g id="elem_ASSETS_PAGES"><rect fill="#F1F1F1" height="36.2969" rx="2.5" ry="2.5" style="stroke:#181818;stroke-width:0.5;" width="62.2598" x="617.12" y="199.59"/><text fill="#000000" font-family="sans-serif" font-size="14" lengthAdjust="spacing" textLength="42.2598" x="627.12" y="222.5851">pages</text></g><!--entity TICKET--><g id="elem_TICKET"><rect fill="#F1F1F1" height="36.2969" rx="2.5" ry="2.5" style="stroke:#181818;stroke-width:0.5;" width="103.9996" x="127.25" y="103.3"/><text fill="#000000" font-family="sans-serif" font-size="14" lengthAdjust="spacing" textLength="83.9996" x="137.25" y="126.2951">&#24037;&#21333;&#31649;&#29702;&#31995;&#32479;</text></g><!--entity TICKET_COMPONENTS--><g id="elem_TICKET_COMPONENTS"><rect fill="#F1F1F1" height="36.2969" rx="2.5" ry="2.5" style="stroke:#181818;stroke-width:0.5;" width="106.4951" x="7" y="199.59"/><text fill="#000000" font-family="sans-serif" font-size="14" lengthAdjust="spacing" textLength="86.4951" x="17" y="222.5851">components</text></g><!--entity TICKET_PAGES--><g id="elem_TICKET_PAGES"><rect fill="#F1F1F1" height="36.2969" rx="2.5" ry="2.5" style="stroke:#181818;stroke-width:0.5;" width="62.2598" x="148.12" y="199.59"/><text fill="#000000" font-family="sans-serif" font-size="14" lengthAdjust="spacing" textLength="42.2598" x="158.12" y="222.5851">pages</text></g><!--link ERC to ERC_COMPONENTS--><g id="link_ERC_ERC_COMPONENTS"><path d="M484.31,43.66 C458.27,60.6 425.7368,81.7589 399.7468,98.6589 " fill="none" id="ERC-to-ERC_COMPONENTS" style="stroke:#181818;stroke-width:1.0;"/><polygon fill="#181818" points="393.04,103.02,401.3822,101.174,398.1114,96.1439,393.04,103.02" style="stroke:#181818;stroke-width:1.0;"/></g><!--link ERC_COMPONENTS to ERC_COMPONENTS_1--><g id="link_ERC_COMPONENTS_ERC_COMPONENTS_1"><path d="M376.15,139.74 C385.83,156.65 396.5256,175.3171 406.2456,192.2971 " fill="none" id="ERC_COMPONENTS-to-ERC_COMPONENTS_1" style="stroke:#181818;stroke-width:1.0;"/><polygon fill="#181818" points="410.22,199.24,408.8492,190.8067,403.642,193.7875,410.22,199.24" style="stroke:#181818;stroke-width:1.0;"/></g><!--link ERC_COMPONENTS to ERC_COMPONENTS_2--><g id="link_ERC_COMPONENTS_ERC_COMPONENTS_2"><path d="M362.03,139.74 C357.91,156.65 353.555,174.4877 349.415,191.4677 " fill="none" id="ERC_COMPONENTS-to-ERC_COMPONENTS_2" style="stroke:#181818;stroke-width:1.0;"/><polygon fill="#181818" points="347.52,199.24,352.3296,192.1783,346.5004,190.7571,347.52,199.24" style="stroke:#181818;stroke-width:1.0;"/></g><!--link ERC_COMPONENTS to ERC_COMPONENTS_3--><g id="link_ERC_COMPONENTS_ERC_COMPONENTS_3"><path d="M347.91,139.74 C329.98,156.65 308.6409,176.772 290.6309,193.752 " fill="none" id="ERC_COMPONENTS-to-ERC_COMPONENTS_3" style="stroke:#181818;stroke-width:1.0;"/><polygon fill="#181818" points="284.81,199.24,292.6888,195.9349,288.5729,191.5692,284.81,199.24" style="stroke:#181818;stroke-width:1.0;"/></g><!--link ERC to ERC_PAGES--><g id="link_ERC_ERC_PAGES"><path d="M532.84,43.74 C577.42,80.05 672.9673,157.8676 717.5073,194.1476 " fill="none" id="ERC-to-ERC_PAGES" style="stroke:#181818;stroke-width:1.0;"/><polygon fill="#181818" points="723.71,199.2,719.402,191.8216,715.6127,196.4736,723.71,199.2" style="stroke:#181818;stroke-width:1.0;"/></g><!--reverse link ERC_COMPONENTS_3 to ERC_PAGES--><g id="link_ERC_COMPONENTS_3_ERC_PAGES"><path d="M286.5756,193.5602 C296.7156,182.6102 305.73,175.57 321.75,169.59 C396.28,141.77 604.15,144.8 679.75,169.59 C697.58,175.44 714.57,188.21 726.77,199.13 " fill="none" id="ERC_COMPONENTS_3-backto-ERC_PAGES" style="stroke:#181818;stroke-width:1.0;"/><polygon fill="#181818" points="281.14,199.43,288.7768,195.5986,284.3744,191.5219,281.14,199.43" style="stroke:#181818;stroke-width:1.0;"/></g><!--link ASSETS to ASSETS_COMPONENTS--><g id="link_ASSETS_ASSETS_COMPONENTS"><path d="M529.25,139.74 C529.25,156.65 529.25,174.26 529.25,191.24 " fill="none" id="ASSETS-to-ASSETS_COMPONENTS" style="stroke:#181818;stroke-width:1.0;"/><polygon fill="#181818" points="529.25,199.24,532.25,191.24,526.25,191.24,529.25,199.24" style="stroke:#181818;stroke-width:1.0;"/></g><!--link ASSETS to ASSETS_PAGES--><g id="link_ASSETS_ASSETS_PAGES"><path d="M551.35,139.96 C572.73,156.9 598.661,177.4401 619.991,194.3501 " fill="none" id="ASSETS-to-ASSETS_PAGES" style="stroke:#181818;stroke-width:1.0;"/><polygon fill="#181818" points="626.26,199.32,621.8547,191.9992,618.1273,196.7009,626.26,199.32" style="stroke:#181818;stroke-width:1.0;"/></g><!--reverse link ASSETS_COMPONENTS to ASSETS_PAGES--><g id="link_ASSETS_COMPONENTS_ASSETS_PAGES"><path d="M590.7,217.74 C602.06,217.74 605.41,217.74 616.76,217.74 " fill="none" id="ASSETS_COMPONENTS-backto-ASSETS_PAGES" style="stroke:#181818;stroke-width:1.0;"/><polygon fill="#181818" points="582.7,217.74,590.7,220.74,590.7,214.74,582.7,217.74" style="stroke:#181818;stroke-width:1.0;"/></g><!--link ASSETS to ERC_COMPONENTS_1--><g id="link_ASSETS_ERC_COMPONENTS_1"><path d="M509,139.96 C489.42,156.9 465.9793,177.1749 446.4393,194.0849 " fill="none" id="ASSETS-to-ERC_COMPONENTS_1" style="stroke:#181818;stroke-width:1.0;"/><polygon fill="#181818" points="440.39,199.32,448.4024,196.3534,444.4761,191.8164,440.39,199.32" style="stroke:#181818;stroke-width:1.0;"/></g><!--link TICKET to TICKET_COMPONENTS--><g id="link_TICKET_TICKET_COMPONENTS"><path d="M157.14,139.96 C135.77,156.9 109.8401,177.4415 88.5001,194.3515 " fill="none" id="TICKET-to-TICKET_COMPONENTS" style="stroke:#181818;stroke-width:1.0;"/><polygon fill="#181818" points="82.23,199.32,90.3633,196.7028,86.6369,192.0002,82.23,199.32" style="stroke:#181818;stroke-width:1.0;"/></g><!--link TICKET to TICKET_PAGES--><g id="link_TICKET_TICKET_PAGES"><path d="M179.25,139.74 C179.25,156.65 179.25,174.26 179.25,191.24 " fill="none" id="TICKET-to-TICKET_PAGES" style="stroke:#181818;stroke-width:1.0;"/><polygon fill="#181818" points="179.25,199.24,182.25,191.24,176.25,191.24,179.25,199.24" style="stroke:#181818;stroke-width:1.0;"/></g><!--reverse link TICKET_COMPONENTS to TICKET_PAGES--><g id="link_TICKET_COMPONENTS_TICKET_PAGES"><path d="M121.7,217.74 C133.06,217.74 136.41,217.74 147.76,217.74 " fill="none" id="TICKET_COMPONENTS-backto-TICKET_PAGES" style="stroke:#181818;stroke-width:1.0;"/><polygon fill="#181818" points="113.7,217.74,121.7,220.74,121.7,214.74,113.7,217.74" style="stroke:#181818;stroke-width:1.0;"/></g><!--link TICKET to ERC_COMPONENTS_3--><g id="link_TICKET_ERC_COMPONENTS_3"><path d="M195.2,139.74 C210.8,156.65 229.0045,176.3809 244.6745,193.3609 " fill="none" id="TICKET-to-ERC_COMPONENTS_3" style="stroke:#181818;stroke-width:1.0;"/><polygon fill="#181818" points="250.1,199.24,246.8791,191.3263,242.4698,195.3955,250.1,199.24" style="stroke:#181818;stroke-width:1.0;"/></g><!--SRC=[AyxEp2j8B4hCLIXAJIv9p4lFIRMnIKhDI2pBp2-oirEevb80WgByqhmKv_oYlDGY1IDJhbekBhXg1QKdEsOzxLhuVFFkvxldAoae91Ohk0Ov8oj8piyjoCzBpIifLeBAnZlx-mRu-xdwXGGZApJKCy2Y8juGMOqHTZL6o6gCiQinHbPJa9YUYd1FWAExAufJNcnjUR9h-VDr2vzFQ4FsccDmi2kgez5y1r60muC8Iw7ACEnzkdtfqzwfcFQ6U3fxkuRWiHUYWA2zK6KGUxc0NbVGJSalpzC5HZLQlA1oSIa3HWwH2es8LMYCwIo8S-4i1TsSrBGIh5gv806Bq8uP7pXKGEn0vY2i8Mm8HgXmGK8QeG8pWd2eW3W4cODm2653q4C40000]--></g></svg>