<svg xmlns="http://www.w3.org/2000/svg" xmlns:xlink="http://www.w3.org/1999/xlink" contentStyleType="text/css" height="241px" preserveAspectRatio="none" style="width:734px;height:241px;background:#FFFFFF;" version="1.1" viewBox="0 0 734 241" width="734px" zoomAndPan="magnify"><defs/><g><!--entity CC--><g id="elem_CC"><rect fill="#FFFFCC" height="36.2969" rx="2.5" ry="2.5" style="stroke:#181818;stroke-width:0.5;" width="144" x="295" y="7"/><text fill="#000000" font-family="sans-serif" font-size="14" lengthAdjust="spacing" textLength="124" x="305" y="29.9951">components-core</text></g><!--entity CC_1.0--><g id="elem_CC_1.0"><rect fill="#FFFFCC" height="36.2969" rx="2.5" ry="2.5" style="stroke:#181818;stroke-width:0.5;" width="42" x="686" y="103.3"/><text fill="#000000" font-family="sans-serif" font-size="14" lengthAdjust="spacing" textLength="22" x="696" y="126.2951">1.0</text></g><!--entity CC_2.0--><g id="elem_CC_2.0"><rect fill="#FFFFCC" height="36.2969" rx="2.5" ry="2.5" style="stroke:#181818;stroke-width:0.5;" width="42" x="7" y="103.3"/><text fill="#000000" font-family="sans-serif" font-size="14" lengthAdjust="spacing" textLength="22" x="17" y="126.2951">2.0</text></g><!--entity CF--><g id="elem_CF"><rect fill="#FFFFCC" height="36.2969" rx="2.5" ry="2.5" style="stroke:#181818;stroke-width:0.5;" width="169" x="83.5" y="103.3"/><text fill="#000000" font-family="sans-serif" font-size="14" lengthAdjust="spacing" textLength="149" x="93.5" y="126.2951">components-function</text></g><!--entity CO1--><g id="elem_CO1"><rect fill="#FFFFCC" height="36.2969" rx="2.5" ry="2.5" style="stroke:#181818;stroke-width:0.5;" width="164" x="288" y="103.3"/><text fill="#000000" font-family="sans-serif" font-size="14" lengthAdjust="spacing" textLength="144" x="298" y="126.2951">components-other-1</text></g><!--entity CO2--><g id="elem_CO2"><rect fill="#FFFFCC" height="36.2969" rx="2.5" ry="2.5" style="stroke:#181818;stroke-width:0.5;" width="164" x="487" y="103.3"/><text fill="#000000" font-family="sans-serif" font-size="14" lengthAdjust="spacing" textLength="144" x="497" y="126.2951">components-other-2</text></g><!--entity ERC--><g id="elem_ERC"><rect fill="#F1F1F1" height="36.2969" rx="2.5" ry="2.5" style="stroke:#181818;stroke-width:0.5;" width="76" x="431" y="199.59"/><text fill="#000000" font-family="sans-serif" font-size="14" lengthAdjust="spacing" textLength="56" x="441" y="222.5851">&#19994;&#21153;&#31995;&#32479;</text></g><!--entity ASSETS--><g id="elem_ASSETS"><rect fill="#F1F1F1" height="36.2969" rx="2.5" ry="2.5" style="stroke:#181818;stroke-width:0.5;" width="104" x="542" y="199.59"/><text fill="#000000" font-family="sans-serif" font-size="14" lengthAdjust="spacing" textLength="84" x="552" y="222.5851">&#36164;&#20135;&#31649;&#29702;&#31995;&#32479;</text></g><!--entity TICKET--><g id="elem_TICKET"><rect fill="#F1F1F1" height="36.2969" rx="2.5" ry="2.5" style="stroke:#181818;stroke-width:0.5;" width="104" x="292" y="199.59"/><text fill="#000000" font-family="sans-serif" font-size="14" lengthAdjust="spacing" textLength="84" x="302" y="222.5851">&#24037;&#21333;&#31649;&#29702;&#31995;&#32479;</text></g><!--entity OTHERS--><g id="elem_OTHERS"><rect fill="#F1F1F1" height="36.2969" rx="2.5" ry="2.5" style="stroke:#181818;stroke-width:0.5;" width="32" x="201" y="199.59"/><text fill="#000000" font-family="sans-serif" font-size="14" lengthAdjust="spacing" textLength="12" x="211" y="222.5851">...</text></g><!--link CC to CC_1.0--><g id="link_CC_CC_1.0"><path d="M439.43,40.93 C501.27,54.44 592.14,76.37 669,103.3 C674.46,105.21 672.918,104.3319 678.258,106.7219 " fill="none" id="CC-to-CC_1.0" style="stroke:#181818;stroke-width:1.0;"/><polygon fill="#181818" points="685.56,109.99,679.4835,103.9836,677.0324,109.4601,685.56,109.99" style="stroke:#181818;stroke-width:1.0;"/></g><!--link CC to CC_2.0--><g id="link_CC_CC_2.0"><path d="M294.5,41.03 C232.87,54.55 142.48,76.46 66,103.3 C60.54,105.21 62.0871,104.3533 56.7471,106.7333 " fill="none" id="CC-to-CC_2.0" style="stroke:#181818;stroke-width:1.0;"/><polygon fill="#181818" points="49.44,109.99,57.9684,109.4734,55.5258,103.9931,49.44,109.99" style="stroke:#181818;stroke-width:1.0;"/></g><!--link CC_1.0 to ERC--><g id="link_CC_1.0_ERC"><path d="M685.79,132.27 C680.34,134.72 674.48,137.3 669,139.59 C613.21,162.92 555.1606,184.9379 514.7206,199.9379 " fill="none" id="CC_1.0-to-ERC" style="stroke:#181818;stroke-width:1.0;"/><polygon fill="#181818" points="507.22,202.72,515.7639,202.7506,513.6773,197.1251,507.22,202.72" style="stroke:#181818;stroke-width:1.0;"/></g><!--link CC_1.0 to ASSETS--><g id="link_CC_1.0_ASSETS"><path d="M686.01,139.96 C665.71,156.9 641.2818,177.2838 621.0218,194.1938 " fill="none" id="CC_1.0-to-ASSETS" style="stroke:#181818;stroke-width:1.0;"/><polygon fill="#181818" points="614.88,199.32,622.9441,196.4969,619.0995,191.8906,614.88,199.32" style="stroke:#181818;stroke-width:1.0;"/></g><!--link CC_1.0 to TICKET--><g id="link_CC_1.0_TICKET"><path d="M685.59,132.98 C680.25,135.36 674.48,137.73 669,139.59 C558.33,177.14 526.6,172.17 413,199.59 C407.6,200.9 409.7392,200.3623 404.1192,201.7423 " fill="none" id="CC_1.0-to-TICKET" style="stroke:#181818;stroke-width:1.0;"/><polygon fill="#181818" points="396.35,203.65,404.8346,204.6557,403.4038,198.8288,396.35,203.65" style="stroke:#181818;stroke-width:1.0;"/></g><!--link CC_2.0 to OTHERS--><g id="link_CC_2.0_OTHERS"><path d="M49.31,133.08 C87.45,152.1 159.3912,187.999 193.5512,205.039 " fill="none" id="CC_2.0-to-OTHERS" style="stroke:#181818;stroke-width:1.0;"/><polygon fill="#181818" points="200.71,208.61,194.8904,202.3545,192.2121,207.7235,200.71,208.61" style="stroke:#181818;stroke-width:1.0;"/></g><!--link CF to ERC--><g id="link_CF_ERC"><path d="M224.26,140.07 C284.5,158.94 370.7956,185.9791 423.0356,202.3391 " fill="none" id="CF-to-ERC" style="stroke:#181818;stroke-width:1.0;"/><polygon fill="#181818" points="430.67,204.73,423.9322,199.4762,422.139,205.202,430.67,204.73" style="stroke:#181818;stroke-width:1.0;"/></g><!--link CF to ASSETS--><g id="link_CF_ASSETS"><path d="M252.92,140.03 C325.35,155.21 432.2,178.04 525,199.59 C530.41,200.85 528.2776,200.2953 533.8976,201.6653 " fill="none" id="CF-to-ASSETS" style="stroke:#181818;stroke-width:1.0;"/><polygon fill="#181818" points="541.67,203.56,534.6081,198.7507,533.1871,204.58,541.67,203.56" style="stroke:#181818;stroke-width:1.0;"/></g><!--link CF to TICKET--><g id="link_CF_TICKET"><path d="M200.69,139.96 C232.2,156.84 272.5784,178.4717 304.1384,195.3817 " fill="none" id="CF-to-TICKET" style="stroke:#181818;stroke-width:1.0;"/><polygon fill="#181818" points="311.19,199.16,305.5553,192.7374,302.7216,198.0261,311.19,199.16" style="stroke:#181818;stroke-width:1.0;"/></g><!--link CF to OTHERS--><g id="link_CF_OTHERS"><path d="M176.99,139.74 C185.77,156.65 195.3923,175.1606 204.2123,192.1406 " fill="none" id="CF-to-OTHERS" style="stroke:#181818;stroke-width:1.0;"/><polygon fill="#181818" points="207.9,199.24,206.8746,190.7578,201.5501,193.5235,207.9,199.24" style="stroke:#181818;stroke-width:1.0;"/></g><!--link CO1 to ERC--><g id="link_CO1_ERC"><path d="M388.16,139.74 C405.91,156.65 427.0083,176.7413 444.8283,193.7213 " fill="none" id="CO1-to-ERC" style="stroke:#181818;stroke-width:1.0;"/><polygon fill="#181818" points="450.62,199.24,446.8978,191.5494,442.7588,195.8932,450.62,199.24" style="stroke:#181818;stroke-width:1.0;"/></g><!--link CO1 to ASSETS--><g id="link_CO1_ASSETS"><path d="M411.87,140.07 C452.01,156.97 504.8865,179.2264 544.9665,196.0964 " fill="none" id="CO1-to-ASSETS" style="stroke:#181818;stroke-width:1.0;"/><polygon fill="#181818" points="552.34,199.2,546.1304,193.3314,543.8027,198.8615,552.34,199.2" style="stroke:#181818;stroke-width:1.0;"/></g><!--link CO1 to TICKET--><g id="link_CO1_TICKET"><path d="M365.23,139.74 C360.57,156.65 355.6357,174.5476 350.9557,191.5276 " fill="none" id="CO1-to-TICKET" style="stroke:#181818;stroke-width:1.0;"/><polygon fill="#181818" points="348.83,199.24,353.8478,192.3247,348.0635,190.7304,348.83,199.24" style="stroke:#181818;stroke-width:1.0;"/></g><!--link CO1 to OTHERS--><g id="link_CO1_OTHERS"><path d="M341.58,139.96 C309.78,159.56 266.1402,186.4522 240.2802,202.3922 " fill="none" id="CO1-to-OTHERS" style="stroke:#181818;stroke-width:1.0;"/><polygon fill="#181818" points="233.47,206.59,241.8544,204.946,238.706,199.8384,233.47,206.59" style="stroke:#181818;stroke-width:1.0;"/></g><!--link CO2 to ERC--><g id="link_CO2_ERC"><path d="M550.66,139.74 C532.73,156.65 511.3909,176.772 493.3809,193.752 " fill="none" id="CO2-to-ERC" style="stroke:#181818;stroke-width:1.0;"/><polygon fill="#181818" points="487.56,199.24,495.4388,195.9349,491.3229,191.5692,487.56,199.24" style="stroke:#181818;stroke-width:1.0;"/></g><!--link CO2 to ASSETS--><g id="link_CO2_ASSETS"><path d="M573.59,139.74 C578.07,156.65 582.8106,174.527 587.3106,191.507 " fill="none" id="CO2-to-ASSETS" style="stroke:#181818;stroke-width:1.0;"/><polygon fill="#181818" points="589.36,199.24,590.2105,190.7384,584.4107,192.2755,589.36,199.24" style="stroke:#181818;stroke-width:1.0;"/></g><!--link CO2 to TICKET--><g id="link_CO2_TICKET"><path d="M526.94,140.07 C486.62,156.97 433.4781,179.2376 393.2281,196.1076 " fill="none" id="CO2-to-TICKET" style="stroke:#181818;stroke-width:1.0;"/><polygon fill="#181818" points="385.85,199.2,394.3878,198.8744,392.0685,193.3408,385.85,199.2" style="stroke:#181818;stroke-width:1.0;"/></g><!--link CO2 to OTHERS--><g id="link_CO2_OTHERS"><path d="M499.34,140.08 C439.66,155.34 351.5,178.25 275,199.59 C260.94,203.52 252.7084,205.9173 241.1184,209.4173 " fill="none" id="CO2-to-OTHERS" style="stroke:#181818;stroke-width:1.0;"/><polygon fill="#181818" points="233.46,211.73,241.9857,212.2892,240.2511,206.5454,233.46,211.73" style="stroke:#181818;stroke-width:1.0;"/></g><!--SRC=[ZP4nIyGm68Rt_egFSswn0RVZG4kBud1mxIwn5xsYbnn9guEuYOCWkBYuo0tYvYAYU7_dIlqPjgIjgKdHJkNDypxvo2TE4hh07C-1apZ5zFYK38U7P8RF4iP78xYmeFmuo-ZKOvmI3cZBkhHQ60OncoyO9JGLTimu6G1W0Pu7iB6JYOGI8LJQTJORug3yxw6GGg5UIhdvAADncZ1QjuA_6ooT4MwxTM7i_hU1cWRgQQm_7lARPV6wAbQFalKddWfylLsjFv-BbsLnTwrYss7eHw5AvkzF-UszJaPxthuVgQJZEF9e7Etwaz2ogWNOKtPExNA9ygsrh7pP2fHxQ0-gQRLGpWRwGJrAiwSsR-S8Vgi3apOmA0EJhbfKrzT9Mc4dROoTy4U9D2KoAf59YJJbDm00]--></g></svg>