<?xml version="1.0" encoding="us-ascii" standalone="no"?><svg xmlns="http://www.w3.org/2000/svg" xmlns:xlink="http://www.w3.org/1999/xlink" contentStyleType="text/css" height="241px" preserveAspectRatio="none" style="width:759px;height:241px;background:#FFFFFF;" version="1.1" viewBox="0 0 759 241" width="759px" zoomAndPan="magnify"><defs/><g><!--entity CC--><g id="elem_CC"><rect fill="#FFFFCC" height="36.2969" rx="2.5" ry="2.5" style="stroke:#181818;stroke-width:0.5;" width="149" x="305.5" y="7"/><text fill="#000000" font-family="sans-serif" font-size="14" lengthAdjust="spacing" textLength="129" x="315.5" y="29.9951">components-core</text></g><!--entity CC_1.0--><g id="elem_CC_1.0"><rect fill="#FFFFCC" height="36.2969" rx="2.5" ry="2.5" style="stroke:#181818;stroke-width:0.5;" width="43" x="710.5" y="103"/><text fill="#000000" font-family="sans-serif" font-size="14" lengthAdjust="spacing" textLength="23" x="720.5" y="125.9951">1.0</text></g><!--entity CC_2.0--><g id="elem_CC_2.0"><rect fill="#FFFFCC" height="36.2969" rx="2.5" ry="2.5" style="stroke:#181818;stroke-width:0.5;" width="42" x="7" y="103"/><text fill="#000000" font-family="sans-serif" font-size="14" lengthAdjust="spacing" textLength="22" x="17" y="125.9951">2.0</text></g><!--entity CF--><g id="elem_CF"><rect fill="#FFFFCC" height="36.2969" rx="2.5" ry="2.5" style="stroke:#181818;stroke-width:0.5;" width="177" x="84.5" y="103"/><text fill="#000000" font-family="sans-serif" font-size="14" lengthAdjust="spacing" textLength="157" x="94.5" y="125.9951">components-function</text></g><!--entity CO1--><g id="elem_CO1"><rect fill="#FFFFCC" height="36.2969" rx="2.5" ry="2.5" style="stroke:#181818;stroke-width:0.5;" width="172" x="297" y="103"/><text fill="#000000" font-family="sans-serif" font-size="14" lengthAdjust="spacing" textLength="152" x="307" y="125.9951">components-other-1</text></g><!--entity CO2--><g id="elem_CO2"><rect fill="#FFFFCC" height="36.2969" rx="2.5" ry="2.5" style="stroke:#181818;stroke-width:0.5;" width="171" x="504.5" y="103"/><text fill="#000000" font-family="sans-serif" font-size="14" lengthAdjust="spacing" textLength="151" x="514.5" y="125.9951">components-other-2</text></g><!--entity ERC--><g id="elem_ERC"><rect fill="#F1F1F1" height="36.2969" rx="2.5" ry="2.5" style="stroke:#181818;stroke-width:0.5;" width="76" x="448" y="199"/><text fill="#000000" font-family="sans-serif" font-size="14" lengthAdjust="spacing" textLength="56" x="458" y="221.9951">&#19994;&#21153;&#31995;&#32479;</text></g><!--entity ASSETS--><g id="elem_ASSETS"><rect fill="#F1F1F1" height="36.2969" rx="2.5" ry="2.5" style="stroke:#181818;stroke-width:0.5;" width="104" x="559" y="199"/><text fill="#000000" font-family="sans-serif" font-size="14" lengthAdjust="spacing" textLength="84" x="569" y="221.9951">&#36164;&#20135;&#31649;&#29702;&#31995;&#32479;</text></g><!--entity TICKET--><g id="elem_TICKET"><rect fill="#F1F1F1" height="36.2969" rx="2.5" ry="2.5" style="stroke:#181818;stroke-width:0.5;" width="104" x="309" y="199"/><text fill="#000000" font-family="sans-serif" font-size="14" lengthAdjust="spacing" textLength="84" x="319" y="221.9951">&#24037;&#21333;&#31649;&#29702;&#31995;&#32479;</text></g><!--entity OTHERS--><g id="elem_OTHERS"><rect fill="#F1F1F1" height="36.2969" rx="2.5" ry="2.5" style="stroke:#181818;stroke-width:0.5;" width="35" x="186.5" y="199"/><text fill="#000000" font-family="sans-serif" font-size="14" lengthAdjust="spacing" textLength="15" x="196.5" y="221.9951">...</text></g><!--link CC to CC_1.0--><g id="link_CC_CC_1.0"><path d="M454.693,40.638 C518.753,54.075 613.087,75.972 693,103 C698.737,104.94 697.4607,104.2009 703.0517,106.6239 " fill="none" id="CC-to-CC_1.0" style="stroke:#181818;stroke-width:1.0;"/><polygon fill="#181818" points="710.392,109.805,704.2446,103.8713,701.8587,109.3765,710.392,109.805" style="stroke:#181818;stroke-width:1.0;"/></g><!--link CC to CC_2.0--><g id="link_CC_CC_2.0"><path d="M305.307,40.638 C241.247,54.075 146.913,75.972 67,103 C61.1227,104.988 62.2395,104.3102 56.5354,106.7912 " fill="none" id="CC-to-CC_2.0" style="stroke:#181818;stroke-width:1.0;"/><polygon fill="#181818" points="49.1993,109.982,57.732,109.5422,55.3388,104.0401,49.1993,109.982" style="stroke:#181818;stroke-width:1.0;"/></g><!--link CC_1.0 to ERC--><g id="link_CC_1.0_ERC"><path d="M710.225,131.743 C704.636,134.174 698.616,136.7333 693,139 C634.509,162.606 573.2506,184.9768 531.5466,199.8768 " fill="none" id="CC_1.0-to-ERC" style="stroke:#181818;stroke-width:1.0;"/><polygon fill="#181818" points="524.013,202.5684,532.556,202.7019,530.5373,197.0517,524.013,202.5684" style="stroke:#181818;stroke-width:1.0;"/></g><!--link CC_1.0 to ASSETS--><g id="link_CC_1.0_ASSETS"><path d="M710.368,138.8053 C688.615,155.7039 661.5556,176.7255 639.5816,193.7963 " fill="none" id="CC_1.0-to-ASSETS" style="stroke:#181818;stroke-width:1.0;"/><polygon fill="#181818" points="633.264,198.7042,641.4221,196.1654,637.7411,191.4272,633.264,198.7042" style="stroke:#181818;stroke-width:1.0;"/></g><!--link CC_1.0 to TICKET--><g id="link_CC_1.0_TICKET"><path d="M710.414,132.259 C704.822,134.681 698.753,137.1057 693,139 C579.534,176.3617 547.267,171.5701 431,199 C425.279,200.3497 427.0784,199.9067 421.1274,201.3374 " fill="none" id="CC_1.0-to-TICKET" style="stroke:#181818;stroke-width:1.0;"/><polygon fill="#181818" points="413.349,203.2074,421.8286,204.2543,420.4261,198.4205,413.349,203.2074" style="stroke:#181818;stroke-width:1.0;"/></g><!--link CC_2.0 to OTHERS--><g id="link_CC_2.0_OTHERS"><path d="M49.2297,133.339 C84.3377,152.0894 146.7854,185.4423 179.3434,202.8311 " fill="none" id="CC_2.0-to-OTHERS" style="stroke:#181818;stroke-width:1.0;"/><polygon fill="#181818" points="186.4,206.5999,180.7567,200.1848,177.9301,205.4773,186.4,206.5999" style="stroke:#181818;stroke-width:1.0;"/></g><!--link CF to ERC--><g id="link_CF_ERC"><path d="M230.687,139.0419 C283.006,154.5394 362.234,178.1114 431,199 C436.451,200.6558 434.5549,200.0639 440.2009,201.8015 " fill="none" id="CF-to-ERC" style="stroke:#181818;stroke-width:1.0;"/><polygon fill="#181818" points="447.847,204.1546,441.0833,198.9342,439.3185,204.6687,447.847,204.1546" style="stroke:#181818;stroke-width:1.0;"/></g><!--link CF to ASSETS--><g id="link_CF_ASSETS"><path d="M258.934,139.0246 C333.841,154.081 445.324,177.0112 542,199 C547.414,200.2313 545.2757,199.6931 550.8987,201.0387 " fill="none" id="CF-to-ASSETS" style="stroke:#181818;stroke-width:1.0;"/><polygon fill="#181818" points="558.679,202.9006,551.5969,198.1211,550.2005,203.9564,558.679,202.9006" style="stroke:#181818;stroke-width:1.0;"/></g><!--link CF to TICKET--><g id="link_CF_TICKET"><path d="M207.045,139.0227 C241.011,156.0057 285.7466,178.3734 319.7356,195.3677 " fill="none" id="CF-to-TICKET" style="stroke:#181818;stroke-width:1.0;"/><polygon fill="#181818" points="326.891,198.9454,321.0772,192.6844,318.3939,198.051,326.891,198.9454" style="stroke:#181818;stroke-width:1.0;"/></g><!--link CF to OTHERS--><g id="link_CF_OTHERS"><path d="M178.686,139.241 C184.279,156.2017 190.2634,174.348 195.8444,191.2708 " fill="none" id="CF-to-OTHERS" style="stroke:#181818;stroke-width:1.0;"/><polygon fill="#181818" points="198.35,198.8683,198.6935,190.3312,192.9953,192.2104,198.35,198.8683" style="stroke:#181818;stroke-width:1.0;"/></g><!--link CO1 to ERC--><g id="link_CO1_ERC"><path d="M401.892,139.241 C420.476,156.2017 442.7759,176.5527 461.3189,193.4755 " fill="none" id="CO1-to-ERC" style="stroke:#181818;stroke-width:1.0;"/><polygon fill="#181818" points="467.228,198.8683,463.3412,191.2596,459.2966,195.6914,467.228,198.8683" style="stroke:#181818;stroke-width:1.0;"/></g><!--link CO1 to ASSETS--><g id="link_CO1_ASSETS"><path d="M424.289,139.0227 C465.482,156.0057 521.0169,178.9018 562.2369,195.8961 " fill="none" id="CO1-to-ASSETS" style="stroke:#181818;stroke-width:1.0;"/><polygon fill="#181818" points="569.633,198.9454,563.3804,193.1226,561.0934,198.6697,569.633,198.9454" style="stroke:#181818;stroke-width:1.0;"/></g><!--link CO1 to TICKET--><g id="link_CO1_TICKET"><path d="M378.965,139.241 C374.995,156.2017 370.7928,174.1559 366.8328,191.0787 " fill="none" id="CO1-to-TICKET" style="stroke:#181818;stroke-width:1.0;"/><polygon fill="#181818" points="365.01,198.8683,369.7539,191.7623,363.9117,190.3952,365.01,198.8683" style="stroke:#181818;stroke-width:1.0;"/></g><!--link CO1 to OTHERS--><g id="link_CO1_OTHERS"><path d="M350.584,139.0227 C312.703,158.9156 258.4888,187.3857 228.5978,203.0828 " fill="none" id="CO1-to-OTHERS" style="stroke:#181818;stroke-width:1.0;"/><polygon fill="#181818" points="221.515,206.8023,229.9926,205.7389,227.203,200.4268,221.515,206.8023" style="stroke:#181818;stroke-width:1.0;"/></g><!--link CO2 to ERC--><g id="link_CO2_ERC"><path d="M570.925,139.241 C552.16,156.2017 529.612,176.5812 510.889,193.504 " fill="none" id="CO2-to-ERC" style="stroke:#181818;stroke-width:1.0;"/><polygon fill="#181818" points="504.954,198.8683,512.9006,195.7296,508.8774,191.2784,504.954,198.8683" style="stroke:#181818;stroke-width:1.0;"/></g><!--link CO2 to ASSETS--><g id="link_CO2_ASSETS"><path d="M593.852,139.241 C597.641,156.2017 601.6476,174.138 605.4286,191.0608 " fill="none" id="CO2-to-ASSETS" style="stroke:#181818;stroke-width:1.0;"/><polygon fill="#181818" points="607.173,198.8683,608.3564,190.4066,602.5008,191.715,607.173,198.8683" style="stroke:#181818;stroke-width:1.0;"/></g><!--link CO2 to TICKET--><g id="link_CO2_TICKET"><path d="M548.53,139.0227 C507.156,156.0057 451.3498,178.9132 409.9488,195.9075 " fill="none" id="CO2-to-TICKET" style="stroke:#181818;stroke-width:1.0;"/><polygon fill="#181818" points="402.548,198.9454,411.088,198.6828,408.8096,193.1322,402.548,198.9454" style="stroke:#181818;stroke-width:1.0;"/></g><!--link CO2 to OTHERS--><g id="link_CO2_OTHERS"><path d="M520.098,139.0227 C428.634,161.2964 281.6378,197.0934 229.5118,209.7873 " fill="none" id="CO2-to-OTHERS" style="stroke:#181818;stroke-width:1.0;"/><polygon fill="#181818" points="221.739,211.6802,230.2217,212.7021,228.802,206.8725,221.739,211.6802" style="stroke:#181818;stroke-width:1.0;"/></g><!--SRC=[ZP4nIyGm68Rt_egFSswn0RVZG4kBud1mxIwn5xsYbnn9guEuYOCWkBYuo0tYvYAYU7_dIlqPjgIjgKdHJkNDypxvo2TE4hh07C-1apZ5zFYK38U7P8RF4iP78xYmeFmuo-ZKOvmI3cZBkhHQ60OncoyO9JGLTimu6G1W0Pu7iB6JYOGI8LJQTJORug3yxw6GGg5UIhdvAADncZ1QjuA_6ooT4MwxTM7i_hU1cWRgQQm_7lARPV6wAbQFalKddWfylLsjFv-BbsLnTwrYss7eHw5AvkzF-UszJaPxthuVgQJZEF9e7Etwaz2ogWNOKtPExNA9ygsrh7pP2fHxQ0-gQRLGpWRwGJrAiwSsR-S8Vgi3apOmA0EJhbfKrzT9Mc4dROoTy4U9D2KoAf59YJJbDm00]--></g></svg>