<svg xmlns="http://www.w3.org/2000/svg" xmlns:xlink="http://www.w3.org/1999/xlink" contentStyleType="text/css" height="241px" preserveAspectRatio="none" style="width:733px;height:241px;background:#FFFFFF;" version="1.1" viewBox="0 0 733 241" width="733px" zoomAndPan="magnify"><defs/><g><!--entity CC--><g id="elem_CC"><rect fill="#FFFFCC" height="36.2969" rx="2.5" ry="2.5" style="stroke:#181818;stroke-width:0.5;" width="142.1787" x="296.04" y="7"/><text fill="#000000" font-family="sans-serif" font-size="14" lengthAdjust="spacing" textLength="122.1787" x="306.04" y="29.9951">components-core</text></g><!--entity CC_1.0--><g id="elem_CC_1.0"><rect fill="#FFFFCC" height="36.2969" rx="2.5" ry="2.5" style="stroke:#181818;stroke-width:0.5;" width="42.2646" x="685" y="103.3"/><text fill="#000000" font-family="sans-serif" font-size="14" lengthAdjust="spacing" textLength="22.2646" x="695" y="126.2951">1.0</text></g><!--entity CC_2.0--><g id="elem_CC_2.0"><rect fill="#FFFFCC" height="36.2969" rx="2.5" ry="2.5" style="stroke:#181818;stroke-width:0.5;" width="42.2646" x="7" y="103.3"/><text fill="#000000" font-family="sans-serif" font-size="14" lengthAdjust="spacing" textLength="22.2646" x="17" y="126.2951">2.0</text></g><!--entity CF--><g id="elem_CF"><rect fill="#FFFFCC" height="36.2969" rx="2.5" ry="2.5" style="stroke:#181818;stroke-width:0.5;" width="168.7363" x="84.76" y="103.3"/><text fill="#000000" font-family="sans-serif" font-size="14" lengthAdjust="spacing" textLength="148.7363" x="94.76" y="126.2951">components-function</text></g><!--entity CO1--><g id="elem_CO1"><rect fill="#FFFFCC" height="36.2969" rx="2.5" ry="2.5" style="stroke:#181818;stroke-width:0.5;" width="162.8027" x="288.73" y="103.3"/><text fill="#000000" font-family="sans-serif" font-size="14" lengthAdjust="spacing" textLength="142.8027" x="298.73" y="126.2951">components-other-1</text></g><!--entity CO2--><g id="elem_CO2"><rect fill="#FFFFCC" height="36.2969" rx="2.5" ry="2.5" style="stroke:#181818;stroke-width:0.5;" width="162.8027" x="486.73" y="103.3"/><text fill="#000000" font-family="sans-serif" font-size="14" lengthAdjust="spacing" textLength="142.8027" x="496.73" y="126.2951">components-other-2</text></g><!--entity ERC--><g id="elem_ERC"><rect fill="#F1F1F1" height="36.2969" rx="2.5" ry="2.5" style="stroke:#181818;stroke-width:0.5;" width="75.9998" x="431.13" y="199.59"/><text fill="#000000" font-family="sans-serif" font-size="14" lengthAdjust="spacing" textLength="55.9998" x="441.13" y="222.5851">&#19994;&#21153;&#31995;&#32479;</text></g><!--entity ASSETS--><g id="elem_ASSETS"><rect fill="#F1F1F1" height="36.2969" rx="2.5" ry="2.5" style="stroke:#181818;stroke-width:0.5;" width="103.9996" x="542.13" y="199.59"/><text fill="#000000" font-family="sans-serif" font-size="14" lengthAdjust="spacing" textLength="83.9996" x="552.13" y="222.5851">&#36164;&#20135;&#31649;&#29702;&#31995;&#32479;</text></g><!--entity TICKET--><g id="elem_TICKET"><rect fill="#F1F1F1" height="36.2969" rx="2.5" ry="2.5" style="stroke:#181818;stroke-width:0.5;" width="103.9996" x="292.13" y="199.59"/><text fill="#000000" font-family="sans-serif" font-size="14" lengthAdjust="spacing" textLength="83.9996" x="302.13" y="222.5851">&#24037;&#21333;&#31649;&#29702;&#31995;&#32479;</text></g><!--entity OTHERS--><g id="elem_OTHERS"><rect fill="#F1F1F1" height="36.2969" rx="2.5" ry="2.5" style="stroke:#181818;stroke-width:0.5;" width="33.3506" x="201.46" y="199.59"/><text fill="#000000" font-family="sans-serif" font-size="14" lengthAdjust="spacing" textLength="13.3506" x="211.46" y="222.5851">...</text></g><!--link CC to CC_1.0--><g id="link_CC_CC_1.0"><path d="M438.71,41.11 C500.1,54.75 590.52,76.8 667.13,103.3 C672.86,105.28 671.598,104.5496 677.188,106.9896 " fill="none" id="CC-to-CC_1.0" style="stroke:#181818;stroke-width:1.0;"/><polygon fill="#181818" points="684.52,110.19,678.3882,104.2402,675.9879,109.7391,684.52,110.19" style="stroke:#181818;stroke-width:1.0;"/></g><!--link CC to CC_2.0--><g id="link_CC_CC_2.0"><path d="M295.55,41.11 C234.16,54.75 143.75,76.8 67.13,103.3 C61.4,105.28 62.672,104.5496 57.082,106.9896 " fill="none" id="CC-to-CC_2.0" style="stroke:#181818;stroke-width:1.0;"/><polygon fill="#181818" points="49.75,110.19,58.2821,109.7391,55.8818,104.2402,49.75,110.19" style="stroke:#181818;stroke-width:1.0;"/></g><!--link CC_1.0 to ERC--><g id="link_CC_1.0_ERC"><path d="M684.75,132.04 C679.04,134.55 672.87,137.21 667.13,139.59 C611.92,162.48 554.7825,184.4593 514.7625,199.5993 " fill="none" id="CC_1.0-to-ERC" style="stroke:#181818;stroke-width:1.0;"/><polygon fill="#181818" points="507.28,202.43,515.824,202.4052,513.7009,196.7934,507.28,202.43" style="stroke:#181818;stroke-width:1.0;"/></g><!--link CC_1.0 to ASSETS--><g id="link_CC_1.0_ASSETS"><path d="M685.33,139.96 C665.21,156.9 641.0192,177.2568 620.9392,194.1668 " fill="none" id="CC_1.0-to-ASSETS" style="stroke:#181818;stroke-width:1.0;"/><polygon fill="#181818" points="614.82,199.32,622.8717,196.4615,619.0068,191.8721,614.82,199.32" style="stroke:#181818;stroke-width:1.0;"/></g><!--link CC_1.0 to TICKET--><g id="link_CC_1.0_TICKET"><path d="M684.54,132.77 C678.95,135.21 672.88,137.66 667.13,139.59 C557.57,176.34 526.48,172.51 414.13,199.59 C408.42,200.97 410.2125,200.5259 404.2625,201.9759 " fill="none" id="CC_1.0-to-TICKET" style="stroke:#181818;stroke-width:1.0;"/><polygon fill="#181818" points="396.49,203.87,404.9728,204.8906,403.5522,199.0612,396.49,203.87" style="stroke:#181818;stroke-width:1.0;"/></g><!--link CC_2.0 to OTHERS--><g id="link_CC_2.0_OTHERS"><path d="M49.56,133.08 C87.6,151.96 159.0443,187.4129 193.7943,204.6629 " fill="none" id="CC_2.0-to-OTHERS" style="stroke:#181818;stroke-width:1.0;"/><polygon fill="#181818" points="200.96,208.22,195.1282,201.9758,192.4604,207.3501,200.96,208.22" style="stroke:#181818;stroke-width:1.0;"/></g><!--link CF to ERC--><g id="link_CF_ERC"><path d="M225.21,140.07 C285.24,158.94 371.238,185.9716 423.298,202.3316 " fill="none" id="CF-to-ERC" style="stroke:#181818;stroke-width:1.0;"/><polygon fill="#181818" points="430.93,204.73,424.1974,199.4696,422.3986,205.1936,430.93,204.73" style="stroke:#181818;stroke-width:1.0;"/></g><!--link CF to ASSETS--><g id="link_CF_ASSETS"><path d="M253.19,140.06 C325.21,155.31 431.65,178.22 524.13,199.59 C529.86,200.92 528.0715,200.4605 534.0215,201.8905 " fill="none" id="CF-to-ASSETS" style="stroke:#181818;stroke-width:1.0;"/><polygon fill="#181818" points="541.8,203.76,534.7225,198.9736,533.3204,204.8075,541.8,203.76" style="stroke:#181818;stroke-width:1.0;"/></g><!--link CF to TICKET--><g id="link_CF_TICKET"><path d="M201.64,139.96 C232.97,156.84 273.088,178.454 304.458,195.364 " fill="none" id="CF-to-TICKET" style="stroke:#181818;stroke-width:1.0;"/><polygon fill="#181818" points="311.5,199.16,305.8815,192.7232,303.0345,198.0048,311.5,199.16" style="stroke:#181818;stroke-width:1.0;"/></g><!--link CF to OTHERS--><g id="link_CF_OTHERS"><path d="M178.12,139.74 C186.91,156.65 196.519,175.1623 205.349,192.1423 " fill="none" id="CF-to-OTHERS" style="stroke:#181818;stroke-width:1.0;"/><polygon fill="#181818" points="209.04,199.24,208.0107,190.7582,202.6874,193.5264,209.04,199.24" style="stroke:#181818;stroke-width:1.0;"/></g><!--link CO1 to ERC--><g id="link_CO1_ERC"><path d="M388.29,139.74 C406.04,156.65 427.1383,176.7413 444.9583,193.7213 " fill="none" id="CO1-to-ERC" style="stroke:#181818;stroke-width:1.0;"/><polygon fill="#181818" points="450.75,199.24,447.0278,191.5494,442.8888,195.8932,450.75,199.24" style="stroke:#181818;stroke-width:1.0;"/></g><!--link CO1 to ASSETS--><g id="link_CO1_ASSETS"><path d="M412,140.07 C452.14,156.97 505.0268,179.2258 545.0968,196.0958 " fill="none" id="CO1-to-ASSETS" style="stroke:#181818;stroke-width:1.0;"/><polygon fill="#181818" points="552.47,199.2,546.2609,193.3308,543.9327,198.8607,552.47,199.2" style="stroke:#181818;stroke-width:1.0;"/></g><!--link CO1 to TICKET--><g id="link_CO1_TICKET"><path d="M365.36,139.74 C360.7,156.65 355.7657,174.5476 351.0857,191.5276 " fill="none" id="CO1-to-TICKET" style="stroke:#181818;stroke-width:1.0;"/><polygon fill="#181818" points="348.96,199.24,353.9778,192.3247,348.1935,190.7304,348.96,199.24" style="stroke:#181818;stroke-width:1.0;"/></g><!--link CO1 to OTHERS--><g id="link_CO1_OTHERS"><path d="M341.9,139.96 C310.48,159.45 267.5271,186.0911 241.7171,202.1111 " fill="none" id="CO1-to-OTHERS" style="stroke:#181818;stroke-width:1.0;"/><polygon fill="#181818" points="234.92,206.33,243.2992,204.66,240.135,199.5622,234.92,206.33" style="stroke:#181818;stroke-width:1.0;"/></g><!--link CO2 to ERC--><g id="link_CO2_ERC"><path d="M549.97,139.74 C532.22,156.65 511.1333,176.7429 493.3033,193.7229 " fill="none" id="CO2-to-ERC" style="stroke:#181818;stroke-width:1.0;"/><polygon fill="#181818" points="487.51,199.24,495.3722,195.8954,491.2344,191.5504,487.51,199.24" style="stroke:#181818;stroke-width:1.0;"/></g><!--link CO2 to ASSETS--><g id="link_CO2_ASSETS"><path d="M572.9,139.74 C577.56,156.65 582.4901,174.5487 587.1801,191.5287 " fill="none" id="CO2-to-ASSETS" style="stroke:#181818;stroke-width:1.0;"/><polygon fill="#181818" points="589.31,199.24,590.0718,190.73,584.2884,192.3275,589.31,199.24" style="stroke:#181818;stroke-width:1.0;"/></g><!--link CO2 to TICKET--><g id="link_CO2_TICKET"><path d="M526.26,140.07 C486.12,156.97 433.2432,179.2258 393.1732,196.0958 " fill="none" id="CO2-to-TICKET" style="stroke:#181818;stroke-width:1.0;"/><polygon fill="#181818" points="385.8,199.2,394.3373,198.8607,392.0091,193.3308,385.8,199.2" style="stroke:#181818;stroke-width:1.0;"/></g><!--link CO2 to OTHERS--><g id="link_CO2_OTHERS"><path d="M498.39,140.08 C438.91,155.3 351.2,178.14 275.13,199.59 C261.71,203.38 254.237,205.5897 242.947,209.0597 " fill="none" id="CO2-to-OTHERS" style="stroke:#181818;stroke-width:1.0;"/><polygon fill="#181818" points="235.3,211.41,243.8283,211.9273,242.0656,206.1921,235.3,211.41" style="stroke:#181818;stroke-width:1.0;"/></g><!--SRC=[ZP4nIyGm68Rt_egFSswn0RVZG4kBud1mxIwn5xsYbnn9guEuYOCWkBYuo0tYvYAYU7_dIlqPjgIjgKdHJkNDypxvo2TE4hh07C-1apZ5zFYK38U7P8RF4iP78xYmeFmuo-ZKOvmI3cZBkhHQ60OncoyO9JGLTimu6G1W0Pu7iB6JYOGI8LJQTJORug3yxw6GGg5UIhdvAADncZ1QjuA_6ooT4MwxTM7i_hU1cWRgQQm_7lARPV6wAbQFalKddWfylLsjFv-BbsLnTwrYss7eHw5AvkzF-UszJaPxthuVgQJZEF9e7Etwaz2ogWNOKtPExNA9ygsrh7pP2fHxQ0-gQRLGpWRwGJrAiwSsR-S8Vgi3apOmA0EJhbfKrzT9Mc4dROoTy4U9D2KoAf59YJJbDm00]--></g></svg>