<?xml version="1.0" encoding="us-ascii" standalone="no"?><svg xmlns="http://www.w3.org/2000/svg" xmlns:xlink="http://www.w3.org/1999/xlink" contentStyleType="text/css" height="194px" preserveAspectRatio="none" style="width:695px;height:194px;background:#FFFFFF;" version="1.1" viewBox="0 0 695 194" width="695px" zoomAndPan="magnify"><defs/><g><rect fill="#F1F1F1" height="162.375" rx="5" ry="5" style="stroke:#F1F1F1;stroke-width:1.5;" width="187" x="10" y="18.4063"/><text fill="#000000" font-family="sans-serif" font-size="14" font-weight="bold" lengthAdjust="spacing" textLength="81" x="15" y="33.4014">firstName</text><text fill="#000000" font-family="sans-serif" font-size="14" lengthAdjust="spacing" textLength="31" x="145" y="33.4014">John</text><line style="stroke:#000000;stroke-width:1.0;" x1="140" x2="140" y1="18.4063" y2="38.7031"/><line style="stroke:#000000;stroke-width:1.0;" x1="10" x2="197" y1="38.7031" y2="38.7031"/><text fill="#000000" font-family="sans-serif" font-size="14" font-weight="bold" lengthAdjust="spacing" textLength="77" x="15" y="53.6982">lastName</text><text fill="#000000" font-family="sans-serif" font-size="14" lengthAdjust="spacing" textLength="43" x="145" y="53.6982">Smith</text><line style="stroke:#000000;stroke-width:1.0;" x1="140" x2="140" y1="38.7031" y2="59"/><line style="stroke:#000000;stroke-width:1.0;" x1="10" x2="197" y1="59" y2="59"/><text fill="#000000" font-family="sans-serif" font-size="14" font-weight="bold" lengthAdjust="spacing" textLength="53" x="15" y="73.9951">isAlive</text><text fill="#000000" font-family="sans-serif" font-size="14" lengthAdjust="spacing" textLength="47" x="145" y="73.9951">&#9745; true</text><line style="stroke:#000000;stroke-width:1.0;" x1="140" x2="140" y1="59" y2="79.2969"/><line style="stroke:#000000;stroke-width:1.0;" x1="10" x2="197" y1="79.2969" y2="79.2969"/><text fill="#000000" font-family="sans-serif" font-size="14" font-weight="bold" lengthAdjust="spacing" textLength="29" x="15" y="94.292">age</text><text fill="#000000" font-family="sans-serif" font-size="14" lengthAdjust="spacing" textLength="17" x="145" y="94.292">27</text><line style="stroke:#000000;stroke-width:1.0;" x1="140" x2="140" y1="79.2969" y2="99.5938"/><line style="stroke:#000000;stroke-width:1.0;" x1="10" x2="197" y1="99.5938" y2="99.5938"/><text fill="#000000" font-family="sans-serif" font-size="14" font-weight="bold" lengthAdjust="spacing" textLength="64" x="15" y="114.5889">address</text><text fill="#000000" font-family="sans-serif" font-size="14" lengthAdjust="spacing" textLength="12" x="145" y="114.5889">&#160;&#160;&#160;</text><line style="stroke:#000000;stroke-width:1.0;" x1="140" x2="140" y1="99.5938" y2="119.8906"/><line style="stroke:#000000;stroke-width:1.0;" x1="10" x2="197" y1="119.8906" y2="119.8906"/><text fill="#000000" font-family="sans-serif" font-size="14" font-weight="bold" lengthAdjust="spacing" textLength="120" x="15" y="134.8857">phoneNumbers</text><text fill="#000000" font-family="sans-serif" font-size="14" lengthAdjust="spacing" textLength="12" x="145" y="134.8857">&#160;&#160;&#160;</text><line style="stroke:#000000;stroke-width:1.0;" x1="140" x2="140" y1="119.8906" y2="140.1875"/><line style="stroke:#000000;stroke-width:1.0;" x1="10" x2="197" y1="140.1875" y2="140.1875"/><text fill="#000000" font-family="sans-serif" font-size="14" font-weight="bold" lengthAdjust="spacing" textLength="65" x="15" y="155.1826">children</text><text fill="#000000" font-family="sans-serif" font-size="14" lengthAdjust="spacing" textLength="12" x="145" y="155.1826">&#160;&#160;&#160;</text><line style="stroke:#000000;stroke-width:1.0;" x1="140" x2="140" y1="140.1875" y2="160.4844"/><line style="stroke:#000000;stroke-width:1.0;" x1="10" x2="197" y1="160.4844" y2="160.4844"/><text fill="#000000" font-family="sans-serif" font-size="14" font-weight="bold" lengthAdjust="spacing" textLength="57" x="15" y="175.4795">spouse</text><text fill="#000000" font-family="sans-serif" font-size="14" lengthAdjust="spacing" textLength="7" x="145" y="175.4795">&#9216;</text><line style="stroke:#000000;stroke-width:1.0;" x1="140" x2="140" y1="160.4844" y2="180.7813"/><rect fill="none" height="162.375" rx="5" ry="5" style="stroke:#000000;stroke-width:1.5;" width="187" x="10" y="18.4063"/><rect fill="#F1F1F1" height="81.1875" rx="5" ry="5" style="stroke:#F1F1F1;stroke-width:1.5;" width="233" x="234" y="10"/><text fill="#000000" font-family="sans-serif" font-size="14" font-weight="bold" lengthAdjust="spacing" textLength="115" x="239" y="24.9951">streetAddress</text><text fill="#000000" font-family="sans-serif" font-size="14" lengthAdjust="spacing" textLength="98" x="364" y="24.9951">21 2nd Street</text><line style="stroke:#000000;stroke-width:1.0;" x1="359" x2="359" y1="10" y2="30.2969"/><line style="stroke:#000000;stroke-width:1.0;" x1="234" x2="467" y1="30.2969" y2="30.2969"/><text fill="#000000" font-family="sans-serif" font-size="14" font-weight="bold" lengthAdjust="spacing" textLength="31" x="239" y="45.292">city</text><text fill="#000000" font-family="sans-serif" font-size="14" lengthAdjust="spacing" textLength="67" x="364" y="45.292">New York</text><line style="stroke:#000000;stroke-width:1.0;" x1="359" x2="359" y1="30.2969" y2="50.5938"/><line style="stroke:#000000;stroke-width:1.0;" x1="234" x2="467" y1="50.5938" y2="50.5938"/><text fill="#000000" font-family="sans-serif" font-size="14" font-weight="bold" lengthAdjust="spacing" textLength="44" x="239" y="65.5889">state</text><text fill="#000000" font-family="sans-serif" font-size="14" lengthAdjust="spacing" textLength="19" x="364" y="65.5889">NY</text><line style="stroke:#000000;stroke-width:1.0;" x1="359" x2="359" y1="50.5938" y2="70.8906"/><line style="stroke:#000000;stroke-width:1.0;" x1="234" x2="467" y1="70.8906" y2="70.8906"/><text fill="#000000" font-family="sans-serif" font-size="14" font-weight="bold" lengthAdjust="spacing" textLength="91" x="239" y="85.8857">postalCode</text><text fill="#000000" font-family="sans-serif" font-size="14" lengthAdjust="spacing" textLength="86" x="364" y="85.8857">10021-3100</text><line style="stroke:#000000;stroke-width:1.0;" x1="359" x2="359" y1="70.8906" y2="91.1875"/><rect fill="none" height="81.1875" rx="5" ry="5" style="stroke:#000000;stroke-width:1.5;" width="233" x="234" y="10"/><rect fill="#F1F1F1" height="40.5938" rx="5" ry="5" style="stroke:#F1F1F1;stroke-width:1.5;" width="22" x="339.5" y="109.0938"/><text fill="#000000" font-family="sans-serif" font-size="14" lengthAdjust="spacing" textLength="12" x="344.5" y="124.0889">&#160;&#160;&#160;</text><line style="stroke:#000000;stroke-width:1.0;" x1="339.5" x2="361.5" y1="129.3906" y2="129.3906"/><text fill="#000000" font-family="sans-serif" font-size="14" lengthAdjust="spacing" textLength="12" x="344.5" y="144.3857">&#160;&#160;&#160;</text><rect fill="none" height="40.5938" rx="5" ry="5" style="stroke:#000000;stroke-width:1.5;" width="22" x="339.5" y="109.0938"/><rect fill="#F1F1F1" height="40.5938" rx="5" ry="5" style="stroke:#F1F1F1;stroke-width:1.5;" width="177" x="505" y="79.0938"/><text fill="#000000" font-family="sans-serif" font-size="14" font-weight="bold" lengthAdjust="spacing" textLength="36" x="510" y="94.0889">type</text><text fill="#000000" font-family="sans-serif" font-size="14" lengthAdjust="spacing" textLength="41" x="581" y="94.0889">home</text><line style="stroke:#000000;stroke-width:1.0;" x1="576" x2="576" y1="79.0938" y2="99.3906"/><line style="stroke:#000000;stroke-width:1.0;" x1="505" x2="682" y1="99.3906" y2="99.3906"/><text fill="#000000" font-family="sans-serif" font-size="14" font-weight="bold" lengthAdjust="spacing" textLength="61" x="510" y="114.3857">number</text><text fill="#000000" font-family="sans-serif" font-size="14" lengthAdjust="spacing" textLength="96" x="581" y="114.3857">212 555-1234</text><line style="stroke:#000000;stroke-width:1.0;" x1="576" x2="576" y1="99.3906" y2="119.6875"/><rect fill="none" height="40.5938" rx="5" ry="5" style="stroke:#000000;stroke-width:1.5;" width="177" x="505" y="79.0938"/><rect fill="#F1F1F1" height="40.5938" rx="5" ry="5" style="stroke:#F1F1F1;stroke-width:1.5;" width="179" x="504" y="138.0938"/><text fill="#000000" font-family="sans-serif" font-size="14" font-weight="bold" lengthAdjust="spacing" textLength="36" x="509" y="153.0889">type</text><text fill="#000000" font-family="sans-serif" font-size="14" lengthAdjust="spacing" textLength="42" x="580" y="153.0889">office</text><line style="stroke:#000000;stroke-width:1.0;" x1="575" x2="575" y1="138.0938" y2="158.3906"/><line style="stroke:#000000;stroke-width:1.0;" x1="504" x2="683" y1="158.3906" y2="158.3906"/><text fill="#000000" font-family="sans-serif" font-size="14" font-weight="bold" lengthAdjust="spacing" textLength="61" x="509" y="173.3857">number</text><text fill="#000000" font-family="sans-serif" font-size="14" lengthAdjust="spacing" textLength="98" x="580" y="173.3857">646 555-4567</text><line style="stroke:#000000;stroke-width:1.0;" x1="575" x2="575" y1="158.3906" y2="178.6875"/><rect fill="none" height="40.5938" rx="5" ry="5" style="stroke:#000000;stroke-width:1.5;" width="179" x="504" y="138.0938"/><rect fill="#F1F1F1" height="15" rx="5" ry="5" style="stroke:#F1F1F1;stroke-width:1.5;" width="30" x="342.5" y="168.0938"/><rect fill="none" height="15" rx="5" ry="5" style="stroke:#000000;stroke-width:1.5;" width="30" x="342.5" y="168.0938"/><path d="M185,109.5938 L198,109.5938 C204.0927,109.5938 223.2786,102.9208 246.0621,94.0633 " fill="none" style="stroke:#000000;stroke-width:1.0;stroke-dasharray:3.0,3.0;"/><path d="M247.1877,96.9336 L248.2148,93.219 L244.9364,91.193 L253.2378,91.2492 L247.1877,96.9336 " fill="#000000" style="stroke:#000000;stroke-width:1.0;"/><ellipse cx="185" cy="109.5938" fill="#000000" rx="3" ry="3" style="stroke:#000000;stroke-width:1.0;"/><path d="M350,119.5938 L363,119.5938 C407.336,119.5938 456.2992,115.8597 497.6132,111.6185 " fill="none" style="stroke:#000000;stroke-width:1.0;stroke-dasharray:3.0,3.0;"/><path d="M497.932,114.6675 L499.8999,111.3794 L497.2944,108.5695 L505.2356,110.8215 L497.932,114.6675 " fill="#000000" style="stroke:#000000;stroke-width:1.0;"/><ellipse cx="350" cy="119.5938" fill="#000000" rx="3" ry="3" style="stroke:#000000;stroke-width:1.0;"/><path d="M350,139.5938 L363,139.5938 C407.0368,139.5938 455.6559,143.096 496.8054,147.0931 " fill="none" style="stroke:#000000;stroke-width:1.0;stroke-dasharray:3.0,3.0;"/><path d="M496.5048,150.1307 L499.0835,147.3186 L497.1059,144.0556 L504.3992,147.8445 L496.5048,150.1307 " fill="#000000" style="stroke:#000000;stroke-width:1.0;"/><ellipse cx="350" cy="139.5938" fill="#000000" rx="3" ry="3" style="stroke:#000000;stroke-width:1.0;"/><path d="M185,129.5938 L198,129.5938 C246.5164,129.5938 303.7435,129.5938 332.1466,129.5938 " fill="none" style="stroke:#000000;stroke-width:1.0;stroke-dasharray:3.0,3.0;"/><path d="M332.1466,132.6068 L334.4063,129.5938 L332.1466,126.5807 L339.6791,129.5938 L332.1466,132.6068 " fill="#000000" style="stroke:#000000;stroke-width:1.0;"/><ellipse cx="185" cy="129.5938" fill="#000000" rx="3" ry="3" style="stroke:#000000;stroke-width:1.0;"/><path d="M185,150.5938 L198,150.5938 C214.4924,150.5938 217.8076,156.4625 234,159.5938 C270.1225,166.5791 313.1447,171.6842 335.2586,174.0765 " fill="none" style="stroke:#000000;stroke-width:1.0;stroke-dasharray:3.0,3.0;"/><path d="M334.9357,177.131 L337.5494,174.3187 L335.5815,171.0221 L342.8947,174.8838 L334.9357,177.131 " fill="#000000" style="stroke:#000000;stroke-width:1.0;"/><ellipse cx="185" cy="150.5938" fill="#000000" rx="3" ry="3" style="stroke:#000000;stroke-width:1.0;"/><!--SRC=[RP91Rzim38Nl-XM4JmcG5B7hk4DExRfkGv04nTmKA8OT55k9jTgK8L4fWYB_VPIyR9TUPF3ZuzEJh5j7qj9lPr2y2u1ahwsZZUnKie1aQHfC9W6tyZyjEqtDWBMxQ_KnKB9UHIGFeSnkXgAkhNAEGJ1duCWgHNV_S9Aba64DPUJHb5MLfbDeRjGRl1ZxUk6SbMA4pSi5zOPXUs_goDFPB4kdr_n9k7sE6Vh6eDhuRgTisF5dd1lYS9TEVPni31zkSg4OvKE-3ERp-JJDhlCaji-JZntCVg-h3psAl8WU-Rou-Ul1ww-OhcfqovU18Tb0N6-y2uxesrQSnQt2EluVyTXAfErw1KS-YZO8wLKso_AhVAT85gCjlg9vGwXCr-jM0UbEZSNes-CAdF6sKb1hld-zyyJ3Ox6KHma_F0RT0a8rUbgFeNouG7Z0exO6EuKabi_hGGJV3PMzeIWkykbdJL0govdWUIs-gBtqBV5ePMgDXmLidxvEFucLn8Fdjx40XUBUy0RsnBto3m00]--></g></svg>