<svg xmlns="http://www.w3.org/2000/svg" xmlns:xlink="http://www.w3.org/1999/xlink" contentStyleType="text/css" height="194px" preserveAspectRatio="none" style="width:689px;height:194px;background:#FFFFFF;" version="1.1" viewBox="0 0 689 194" width="689px" zoomAndPan="magnify"><defs/><g><rect fill="#F1F1F1" height="162.375" rx="5" ry="5" style="stroke:#F1F1F1;stroke-width:1.5;" width="185.8262" x="10" y="18.4063"/><text fill="#000000" font-family="sans-serif" font-size="14" font-weight="bold" lengthAdjust="spacing" textLength="78.0664" x="15" y="33.4014">firstName</text><text fill="#000000" font-family="sans-serif" font-size="14" lengthAdjust="spacing" textLength="30.4404" x="145.0938" y="33.4014">John</text><line style="stroke:#000000;stroke-width:1.0;" x1="140.0938" x2="140.0938" y1="18.4063" y2="38.7031"/><line style="stroke:#000000;stroke-width:1.0;" x1="10" x2="195.8262" y1="38.7031" y2="38.7031"/><text fill="#000000" font-family="sans-serif" font-size="14" font-weight="bold" lengthAdjust="spacing" textLength="74.5186" x="15" y="53.6982">lastName</text><text fill="#000000" font-family="sans-serif" font-size="14" lengthAdjust="spacing" textLength="40.7764" x="145.0938" y="53.6982">Smith</text><line style="stroke:#000000;stroke-width:1.0;" x1="140.0938" x2="140.0938" y1="38.7031" y2="59"/><line style="stroke:#000000;stroke-width:1.0;" x1="10" x2="195.8262" y1="59" y2="59"/><text fill="#000000" font-family="sans-serif" font-size="14" font-weight="bold" lengthAdjust="spacing" textLength="52.1855" x="15" y="73.9951">isAlive</text><text fill="#000000" font-family="sans-serif" font-size="14" lengthAdjust="spacing" textLength="45.7324" x="145.0938" y="73.9951">&#9745; true</text><line style="stroke:#000000;stroke-width:1.0;" x1="140.0938" x2="140.0938" y1="59" y2="79.2969"/><line style="stroke:#000000;stroke-width:1.0;" x1="10" x2="195.8262" y1="79.2969" y2="79.2969"/><text fill="#000000" font-family="sans-serif" font-size="14" font-weight="bold" lengthAdjust="spacing" textLength="28.9639" x="15" y="94.292">age</text><text fill="#000000" font-family="sans-serif" font-size="14" lengthAdjust="spacing" textLength="17.8145" x="145.0938" y="94.292">27</text><line style="stroke:#000000;stroke-width:1.0;" x1="140.0938" x2="140.0938" y1="79.2969" y2="99.5938"/><line style="stroke:#000000;stroke-width:1.0;" x1="10" x2="195.8262" y1="99.5938" y2="99.5938"/><text fill="#000000" font-family="sans-serif" font-size="14" font-weight="bold" lengthAdjust="spacing" textLength="62.5557" x="15" y="114.5889">address</text><text fill="#000000" font-family="sans-serif" font-size="14" lengthAdjust="spacing" textLength="13.3506" x="145.0938" y="114.5889">&#160;&#160;&#160;</text><line style="stroke:#000000;stroke-width:1.0;" x1="140.0938" x2="140.0938" y1="99.5938" y2="119.8906"/><line style="stroke:#000000;stroke-width:1.0;" x1="10" x2="195.8262" y1="119.8906" y2="119.8906"/><text fill="#000000" font-family="sans-serif" font-size="14" font-weight="bold" lengthAdjust="spacing" textLength="120.0938" x="15" y="134.8857">phoneNumbers</text><text fill="#000000" font-family="sans-serif" font-size="14" lengthAdjust="spacing" textLength="13.3506" x="145.0938" y="134.8857">&#160;&#160;&#160;</text><line style="stroke:#000000;stroke-width:1.0;" x1="140.0938" x2="140.0938" y1="119.8906" y2="140.1875"/><line style="stroke:#000000;stroke-width:1.0;" x1="10" x2="195.8262" y1="140.1875" y2="140.1875"/><text fill="#000000" font-family="sans-serif" font-size="14" font-weight="bold" lengthAdjust="spacing" textLength="64.251" x="15" y="155.1826">children</text><text fill="#000000" font-family="sans-serif" font-size="14" lengthAdjust="spacing" textLength="13.3506" x="145.0938" y="155.1826">&#160;&#160;&#160;</text><line style="stroke:#000000;stroke-width:1.0;" x1="140.0938" x2="140.0938" y1="140.1875" y2="160.4844"/><line style="stroke:#000000;stroke-width:1.0;" x1="10" x2="195.8262" y1="160.4844" y2="160.4844"/><text fill="#000000" font-family="sans-serif" font-size="14" font-weight="bold" lengthAdjust="spacing" textLength="55.7676" x="15" y="175.4795">spouse</text><text fill="#000000" font-family="sans-serif" font-size="14" lengthAdjust="spacing" textLength="8.4014" x="145.0938" y="175.4795">&#9216;</text><line style="stroke:#000000;stroke-width:1.0;" x1="140.0938" x2="140.0938" y1="160.4844" y2="180.7813"/><rect fill="none" height="162.375" rx="5" ry="5" style="stroke:#000000;stroke-width:1.5;" width="185.8262" x="10" y="18.4063"/><rect fill="#F1F1F1" height="81.1875" rx="5" ry="5" style="stroke:#F1F1F1;stroke-width:1.5;" width="227.7852" x="233" y="10"/><text fill="#000000" font-family="sans-serif" font-size="14" font-weight="bold" lengthAdjust="spacing" textLength="111.5557" x="238" y="24.9951">streetAddress</text><text fill="#000000" font-family="sans-serif" font-size="14" lengthAdjust="spacing" textLength="96.2295" x="359.5557" y="24.9951">21 2nd Street</text><line style="stroke:#000000;stroke-width:1.0;" x1="354.5557" x2="354.5557" y1="10" y2="30.2969"/><line style="stroke:#000000;stroke-width:1.0;" x1="233" x2="460.7852" y1="30.2969" y2="30.2969"/><text fill="#000000" font-family="sans-serif" font-size="14" font-weight="bold" lengthAdjust="spacing" textLength="28.916" x="238" y="45.292">city</text><text fill="#000000" font-family="sans-serif" font-size="14" lengthAdjust="spacing" textLength="65.9668" x="359.5557" y="45.292">New York</text><line style="stroke:#000000;stroke-width:1.0;" x1="354.5557" x2="354.5557" y1="30.2969" y2="50.5938"/><line style="stroke:#000000;stroke-width:1.0;" x1="233" x2="460.7852" y1="50.5938" y2="50.5938"/><text fill="#000000" font-family="sans-serif" font-size="14" font-weight="bold" lengthAdjust="spacing" textLength="40.6602" x="238" y="65.5889">state</text><text fill="#000000" font-family="sans-serif" font-size="14" lengthAdjust="spacing" textLength="19.0244" x="359.5557" y="65.5889">NY</text><line style="stroke:#000000;stroke-width:1.0;" x1="354.5557" x2="354.5557" y1="50.5938" y2="70.8906"/><line style="stroke:#000000;stroke-width:1.0;" x1="233" x2="460.7852" y1="70.8906" y2="70.8906"/><text fill="#000000" font-family="sans-serif" font-size="14" font-weight="bold" lengthAdjust="spacing" textLength="88.3203" x="238" y="85.8857">postalCode</text><text fill="#000000" font-family="sans-serif" font-size="14" lengthAdjust="spacing" textLength="85.2168" x="359.5557" y="85.8857">10021-3100</text><line style="stroke:#000000;stroke-width:1.0;" x1="354.5557" x2="354.5557" y1="70.8906" y2="91.1875"/><rect fill="none" height="81.1875" rx="5" ry="5" style="stroke:#000000;stroke-width:1.5;" width="227.7852" x="233" y="10"/><rect fill="#F1F1F1" height="40.5938" rx="5" ry="5" style="stroke:#F1F1F1;stroke-width:1.5;" width="23.3506" x="335.5" y="109.0938"/><text fill="#000000" font-family="sans-serif" font-size="14" lengthAdjust="spacing" textLength="13.3506" x="340.5" y="124.0889">&#160;&#160;&#160;</text><line style="stroke:#000000;stroke-width:1.0;" x1="335.5" x2="358.8506" y1="129.3906" y2="129.3906"/><text fill="#000000" font-family="sans-serif" font-size="14" lengthAdjust="spacing" textLength="13.3506" x="340.5" y="144.3857">&#160;&#160;&#160;</text><rect fill="none" height="40.5938" rx="5" ry="5" style="stroke:#000000;stroke-width:1.5;" width="23.3506" x="335.5" y="109.0938"/><rect fill="#F1F1F1" height="40.5938" rx="5" ry="5" style="stroke:#F1F1F1;stroke-width:1.5;" width="179.5166" x="498" y="79.0938"/><text fill="#000000" font-family="sans-serif" font-size="14" font-weight="bold" lengthAdjust="spacing" textLength="35.335" x="503" y="94.0889">type</text><text fill="#000000" font-family="sans-serif" font-size="14" lengthAdjust="spacing" textLength="39.6895" x="573.9424" y="94.0889">home</text><line style="stroke:#000000;stroke-width:1.0;" x1="568.9424" x2="568.9424" y1="79.0938" y2="99.3906"/><line style="stroke:#000000;stroke-width:1.0;" x1="498" x2="677.5166" y1="99.3906" y2="99.3906"/><text fill="#000000" font-family="sans-serif" font-size="14" font-weight="bold" lengthAdjust="spacing" textLength="60.9424" x="503" y="114.3857">number</text><text fill="#000000" font-family="sans-serif" font-size="14" lengthAdjust="spacing" textLength="98.5742" x="573.9424" y="114.3857">212 555-1234</text><line style="stroke:#000000;stroke-width:1.0;" x1="568.9424" x2="568.9424" y1="99.3906" y2="119.6875"/><rect fill="none" height="40.5938" rx="5" ry="5" style="stroke:#000000;stroke-width:1.5;" width="179.5166" x="498" y="79.0938"/><rect fill="#F1F1F1" height="40.5938" rx="5" ry="5" style="stroke:#F1F1F1;stroke-width:1.5;" width="179.5166" x="498" y="138.0938"/><text fill="#000000" font-family="sans-serif" font-size="14" font-weight="bold" lengthAdjust="spacing" textLength="35.335" x="503" y="153.0889">type</text><text fill="#000000" font-family="sans-serif" font-size="14" lengthAdjust="spacing" textLength="38.623" x="573.9424" y="153.0889">office</text><line style="stroke:#000000;stroke-width:1.0;" x1="568.9424" x2="568.9424" y1="138.0938" y2="158.3906"/><line style="stroke:#000000;stroke-width:1.0;" x1="498" x2="677.5166" y1="158.3906" y2="158.3906"/><text fill="#000000" font-family="sans-serif" font-size="14" font-weight="bold" lengthAdjust="spacing" textLength="60.9424" x="503" y="173.3857">number</text><text fill="#000000" font-family="sans-serif" font-size="14" lengthAdjust="spacing" textLength="98.5742" x="573.9424" y="173.3857">646 555-4567</text><line style="stroke:#000000;stroke-width:1.0;" x1="568.9424" x2="568.9424" y1="158.3906" y2="178.6875"/><rect fill="none" height="40.5938" rx="5" ry="5" style="stroke:#000000;stroke-width:1.5;" width="179.5166" x="498" y="138.0938"/><rect fill="#F1F1F1" height="15" rx="5" ry="5" style="stroke:#F1F1F1;stroke-width:1.5;" width="30" x="339" y="168.0938"/><rect fill="none" height="15" rx="5" ry="5" style="stroke:#000000;stroke-width:1.5;" width="30" x="339" y="168.0938"/><path d="M184,109.5938 L197,109.5938 C203.0057,109.5938 221.8804,102.9208 244.289,94.0633 " fill="none" style="stroke:#000000;stroke-width:1.0;stroke-dasharray:3.0,3.0;"/><path d="M245.4147,96.8863 L246.4063,93.219 L243.1634,91.2403 L251.3466,91.2492 L245.4147,96.8863 " fill="#000000" style="stroke:#000000;stroke-width:1.0;"/><ellipse cx="184" cy="109.5938" fill="#000000" rx="3" ry="3" style="stroke:#000000;stroke-width:1.0;"/><path d="M347.5,119.5938 L360.5,119.5938 C403.335,119.5938 450.5418,116.0162 490.7603,111.8873 " fill="none" style="stroke:#000000;stroke-width:1.0;stroke-dasharray:3.0,3.0;"/><path d="M491.082,114.9617 L493.0661,111.646 L490.4385,108.8129 L498.4463,111.0829 L491.082,114.9617 " fill="#000000" style="stroke:#000000;stroke-width:1.0;"/><ellipse cx="347.5" cy="119.5938" fill="#000000" rx="3" ry="3" style="stroke:#000000;stroke-width:1.0;"/><path d="M347.5,139.5938 L360.5,139.5938 C403.3189,139.5938 450.5232,142.9924 490.7442,146.9149 " fill="none" style="stroke:#000000;stroke-width:1.0;stroke-dasharray:3.0,3.0;"/><path d="M490.4385,149.9895 L493.0502,147.1441 L491.0498,143.8402 L498.4307,147.679 L490.4385,149.9895 " fill="#000000" style="stroke:#000000;stroke-width:1.0;"/><ellipse cx="347.5" cy="139.5938" fill="#000000" rx="3" ry="3" style="stroke:#000000;stroke-width:1.0;"/><path d="M184,129.5938 L197,129.5938 C244.2784,129.5938 299.967,129.5938 328.1602,129.5938 " fill="none" style="stroke:#000000;stroke-width:1.0;stroke-dasharray:3.0,3.0;"/><path d="M328.1602,132.7246 L330.5084,129.5938 L328.1602,126.4629 L335.9874,129.5938 L328.1602,132.7246 " fill="#000000" style="stroke:#000000;stroke-width:1.0;"/><ellipse cx="184" cy="129.5938" fill="#000000" rx="3" ry="3" style="stroke:#000000;stroke-width:1.0;"/><path d="M184,150.5938 L197,150.5938 C213.4924,150.5938 216.8122,156.4383 233,159.5938 C268.176,166.4505 310.0311,171.5783 331.7594,174.0164 " fill="none" style="stroke:#000000;stroke-width:1.0;stroke-dasharray:3.0,3.0;"/><path d="M331.4288,177.0269 L334.0172,174.2643 L332.09,171.0059 L339.2856,174.8429 L331.4288,177.0269 " fill="#000000" style="stroke:#000000;stroke-width:1.0;"/><ellipse cx="184" cy="150.5938" fill="#000000" rx="3" ry="3" style="stroke:#000000;stroke-width:1.0;"/><!--SRC=[RPBBRjim44Nt_8g1LWbW1v8iAwbMIPssW6gxGTK428ek68css593WGyNHk5_xv2gcqqs97ZkpENbuzOwRjnFgv7zOG39JXhhjdmGIGL9hNjCPW4h_agRGRf-mjBUANa8r1al8kBxiColfqNN6M4jWM1Em3eZXBlxZvCyWnmxQ2AFfbJLIdSCubRyXcTjVfqvPNKnmlRvZ4PDKArq5tcMfdasNz2Ka7oA6SPUezZwuKMOiEFts3V58TKTnzZPQphSx4mnba_vSbWkb_CiNnH9b4-pjntqRYVRDptAeemUnRAy_kT1uu-Ohksbeil0a6mYTjJU1aVqIh4JknNOnVTX3ugZUzoiuK17aHeXkyhJlBWgBnhkeFOAqXBITrLML8iRUFosWY1ViejF3skmsfjMG2Vf2UIBTzH_oMf-uF3LevE3gE3BAB2-_tm6y04FqcWS13fMFsrU2yfY_buwQ8IX9F2qOVTYnxrorD7gJkA-ejq_pc_OckFUqu-eG21RQV8rHzAQlm00]--></g></svg>