<svg xmlns="http://www.w3.org/2000/svg" xmlns:xlink="http://www.w3.org/1999/xlink" contentStyleType="text/css" height="489.9886px" preserveAspectRatio="none" style="width:355px;height:489px;background:#FFFFFF;" version="1.1" viewBox="0 0 355 489" width="355.6894px" zoomAndPan="magnify"><defs/><g><ellipse cx="175.411" cy="13.023" fill="#222222" rx="8.1393" ry="8.1393" style="stroke:#222222;stroke-width:0.8139345596614033;"/><path d="M15.8717,69.9984 L334.9422,69.9984 A10.1742,10.1742 0 0 1 345.1164,80.1726 L345.1164,91.4023 L5.6975,91.4023 L5.6975,80.1726 A10.1742,10.1742 0 0 1 15.8717,69.9984 " fill="#F1F1F1" style="stroke:#F1F1F1;stroke-width:0.8139345596614033;"/><rect fill="none" height="415.8315" rx="10.1742" ry="10.1742" style="stroke:#181818;stroke-width:0.40696727983070163;" width="339.4189" x="5.6975" y="69.9984"/><line style="stroke:#181818;stroke-width:0.40696727983070163;" x1="5.6975" x2="345.1164" y1="91.4023" y2="91.4023"/><text fill="#000000" font-family="sans-serif" font-size="11.3951" lengthAdjust="spacing" textLength="69.9984" x="140.4078" y="84.6452">NotShooting</text><ellipse cx="176.6319" cy="108.4949" fill="#222222" rx="8.1393" ry="8.1393" style="stroke:#222222;stroke-width:0.8139345596614033;"/><g id="NotShooting.Idle"><rect fill="#F1F1F1" height="40.6967" rx="10.1742" ry="10.1742" style="stroke:#181818;stroke-width:0.40696727983070163;" width="40.6967" x="156.2836" y="145.9359"/><line style="stroke:#181818;stroke-width:0.40696727983070163;" x1="156.2836" x2="196.9803" y1="167.3399" y2="167.3399"/><text fill="#000000" font-family="sans-serif" font-size="11.3951" lengthAdjust="spacing" textLength="19.5344" x="166.8647" y="160.5828">Idle</text></g><path d="M25.6389,229.7712 L327.6168,229.7712 A10.1742,10.1742 0 0 1 337.791,239.9454 L337.791,251.1751 L15.4648,251.1751 L15.4648,239.9454 A10.1742,10.1742 0 0 1 25.6389,229.7712 " fill="#F1F1F1" style="stroke:#F1F1F1;stroke-width:0.8139345596614033;"/><rect fill="none" height="247.9194" rx="10.1742" ry="10.1742" style="stroke:#181818;stroke-width:0.40696727983070163;" width="322.3262" x="15.4648" y="229.7712"/><line style="stroke:#181818;stroke-width:0.40696727983070163;" x1="15.4648" x2="337.791" y1="251.1751" y2="251.1751"/><text fill="#000000" font-family="sans-serif" font-size="11.3951" lengthAdjust="spacing" textLength="64.3008" x="144.4775" y="244.418">Configuring</text><ellipse cx="117.2147" cy="268.2677" fill="#222222" rx="8.1393" ry="8.1393" style="stroke:#222222;stroke-width:0.8139345596614033;"/><g id="NotShooting.Configuring.NewValueSelection"><rect fill="#F1F1F1" height="40.6967" rx="10.1742" ry="10.1742" style="stroke:#181818;stroke-width:0.40696727983070163;" width="123.7181" x="55.3557" y="305.7087"/><line style="stroke:#181818;stroke-width:0.40696727983070163;" x1="55.3557" x2="179.0737" y1="327.1127" y2="327.1127"/><text fill="#000000" font-family="sans-serif" font-size="11.3951" lengthAdjust="spacing" textLength="107.4394" x="63.495" y="320.3556">NewValueSelection</text></g><path d="M58.6114,389.544 L175.818,389.544 A10.1742,10.1742 0 0 1 185.9922,399.7182 L185.9922,410.9479 L48.4372,410.9479 L48.4372,399.7182 A10.1742,10.1742 0 0 1 58.6114,389.544 " fill="#F1F1F1" style="stroke:#F1F1F1;stroke-width:0.8139345596614033;"/><rect fill="none" height="80.0072" rx="10.1742" ry="10.1742" style="stroke:#181818;stroke-width:0.40696727983070163;" width="137.5549" x="48.4372" y="389.544"/><line style="stroke:#181818;stroke-width:0.40696727983070163;" x1="48.4372" x2="185.9922" y1="410.9479" y2="410.9479"/><text fill="#000000" font-family="sans-serif" font-size="11.3951" lengthAdjust="spacing" textLength="98.4861" x="67.9717" y="404.1908">NewValuePreview</text><g id="NotShooting.Configuring.NewValuePreview.State1"><rect fill="#F1F1F1" height="40.6967" rx="10.1742" ry="10.1742" style="stroke:#181818;stroke-width:0.40696727983070163;" width="52.9057" x="58.2045" y="420.7151"/><line style="stroke:#181818;stroke-width:0.40696727983070163;" x1="58.2045" x2="111.1102" y1="442.1191" y2="442.1191"/><text fill="#000000" font-family="sans-serif" font-size="11.3951" lengthAdjust="spacing" textLength="36.6271" x="66.3438" y="435.362">State1</text></g><g id="NotShooting.Configuring.NewValuePreview.State2"><rect fill="#F1F1F1" height="40.6967" rx="10.1742" ry="10.1742" style="stroke:#181818;stroke-width:0.40696727983070163;" width="52.9057" x="125.761" y="420.7151"/><line style="stroke:#181818;stroke-width:0.40696727983070163;" x1="125.761" x2="178.6668" y1="442.1191" y2="442.1191"/><text fill="#000000" font-family="sans-serif" font-size="11.3951" lengthAdjust="spacing" textLength="36.6271" x="133.9004" y="435.362">State2</text></g><!--link State1 to State2--><g id="link_State1_State2"><path d="M111.3137,441.0635 C115.9938,441.0635 115.7985,441.0635 120.4867,441.0635 " fill="none" id="State1-to-State2" style="stroke:#181818;stroke-width:0.8139345596614033;"/><polygon fill="#181818" points="125.3703,441.0635,118.0449,437.8078,121.3007,441.0635,118.0449,444.3192,125.3703,441.0635" style="stroke:#181818;stroke-width:0.8139345596614033;"/></g><!--link *start*Configuring to NewValueSelection--><g id="link_*start*Configuring_NewValueSelection"><path d="M117.2147,276.6594 C117.2147,284.0255 117.2147,290.6428 117.2147,300.6135 " fill="none" id="*start*Configuring-to-NewValueSelection" style="stroke:#181818;stroke-width:0.8139345596614033;"/><polygon fill="#181818" points="117.2147,305.4971,120.4705,298.1717,117.2147,301.4274,113.959,298.1717,117.2147,305.4971" style="stroke:#181818;stroke-width:0.8139345596614033;"/></g><!--link NewValueSelection to NewValuePreview--><g id="link_NewValueSelection_NewValuePreview"><path d="M55.0952,342.523 C46.8501,347.1787 39.4433,353.2262 34.1934,361.0563 C24.418,375.6583 29.1911,385.871 44.1268,396.5173 " fill="none" id="NewValueSelection-to-NewValuePreview" style="stroke:#181818;stroke-width:0.8139345596614033;"/><polygon fill="#181818" points="48.1035,399.3519,44.0282,392.4488,44.7896,396.9897,40.2487,397.7511,48.1035,399.3519" style="stroke:#181818;stroke-width:0.8139345596614033;"/><text fill="#000000" font-family="sans-serif" font-size="10.5811" lengthAdjust="spacing" textLength="63.4869" x="35.0073" y="371.6919">EvNewValue</text></g><!--link NewValuePreview to NewValueSelection--><g id="link_NewValuePreview_NewValueSelection"><path d="M117.2147,389.2998 C117.2147,374.7385 117.2147,363.7423 117.2147,351.6391 " fill="none" id="NewValuePreview-to-NewValueSelection" style="stroke:#181818;stroke-width:0.8139345596614033;"/><polygon fill="#181818" points="117.2147,346.7555,113.959,354.0809,117.2147,350.8251,120.4705,354.0809,117.2147,346.7555" style="stroke:#181818;stroke-width:0.8139345596614033;"/><text fill="#000000" font-family="sans-serif" font-size="10.5811" lengthAdjust="spacing" textLength="108.2533" x="118.0287" y="371.6919">EvNewValueRejected</text></g><!--link NewValuePreview to NewValueSelection--><g id="link_NewValuePreview_NewValueSelection"><path d="M186.1468,412.033 C217.7845,400.9147 244.8966,384.0825 227.9098,361.0563 C216.4496,345.5183 202.7424,338.0469 184.1847,333.2529 " fill="none" id="NewValuePreview-to-NewValueSelection-1" style="stroke:#181818;stroke-width:0.8139345596614033;"/><polygon fill="#181818" points="179.4563,332.0314,185.7345,337.0159,183.3966,333.0493,187.3632,330.7114,179.4563,332.0314" style="stroke:#181818;stroke-width:0.8139345596614033;"/><text fill="#000000" font-family="sans-serif" font-size="10.5811" lengthAdjust="spacing" textLength="96.0443" x="233.6074" y="371.6919">EvNewValueSaved</text></g><!--link *start*NotShooting to Idle--><g id="link_*start*NotShooting_Idle"><path d="M176.6319,116.8785 C176.6319,124.2446 176.6319,130.87 176.6319,140.8326 " fill="none" id="*start*NotShooting-to-Idle" style="stroke:#181818;stroke-width:0.8139345596614033;"/><polygon fill="#181818" points="176.6319,145.7162,179.8877,138.3907,176.6319,141.6465,173.3762,138.3907,176.6319,145.7162" style="stroke:#181818;stroke-width:0.8139345596614033;"/></g><!--link Idle to Configuring--><g id="link_Idle_Configuring"><path d="M155.9336,184.435 C151.4407,189.3675 147.314,195.0976 144.8885,201.2835 C141.3479,210.2937 139.7685,214.8963 139.0929,224.5333 " fill="none" id="Idle-to-Configuring" style="stroke:#181818;stroke-width:0.8139345596614033;"/><polygon fill="#181818" points="138.7514,229.4049,142.5115,222.3251,139.036,225.3452,136.0159,221.8698,138.7514,229.4049" style="stroke:#181818;stroke-width:0.8139345596614033;"/><text fill="#000000" font-family="sans-serif" font-size="10.5811" lengthAdjust="spacing" textLength="44.7664" x="145.7024" y="211.9191">EvConfig</text></g><!--link Configuring to Idle--><g id="link_Configuring_Idle"><path d="M194.7013,229.4863 C194.2373,219.9063 193.1548,210.4158 191.2828,201.2835 C190.2898,196.4731 190.449,196.0269 188.5607,191.42 " fill="none" id="Configuring-to-Idle" style="stroke:#181818;stroke-width:0.8139345596614033;"/><polygon fill="#181818" points="186.7084,186.9012,186.4743,194.9142,188.252,190.6669,192.4992,192.4446,186.7084,186.9012" style="stroke:#181818;stroke-width:0.8139345596614033;"/><text fill="#000000" font-family="sans-serif" font-size="10.5811" lengthAdjust="spacing" textLength="44.7664" x="193.7246" y="211.9191">EvConfig</text></g><!--link *start* to NotShooting--><g id="link_*start*_NotShooting"><path d="M175.411,21.4309 C175.411,30.8318 175.411,43.3827 175.411,64.895 " fill="none" id="*start*-to-NotShooting" style="stroke:#181818;stroke-width:0.8139345596614033;"/><polygon fill="#181818" points="175.411,69.7786,178.6668,62.4532,175.411,65.7089,172.1553,62.4532,175.411,69.7786" style="stroke:#181818;stroke-width:0.8139345596614033;"/></g><!--SRC=[dL2z2i8m4Dxp53SB1NzmSN0H1vSY1bp48RHd6ma9j6aoID_TIpIGgfDPak_lFd9z9HJ2QZq7BslRiili2aMnXT9OtXfZfMuOwwsmc5FmO039UgWL4WnNn3kZRx8Pkk3RmDwzC3bo8GLpnvYQScFULA8_2pKWHuMLbKQJziLDdCSEdKGVMnANXPByS_WaTC8xiLZ_5UR2KPAYxqL-30XVfCE3k02Q5bzBOcaZunC0]--></g></svg>