<?xml version="1.0" encoding="us-ascii" standalone="no"?><svg xmlns="http://www.w3.org/2000/svg" xmlns:xlink="http://www.w3.org/1999/xlink" contentStyleType="text/css" height="484.0228px" preserveAspectRatio="none" style="width:355px;height:484px;background:#FFFFFF;" version="1.1" viewBox="0 0 355 484" width="355.8048px" zoomAndPan="magnify"><defs/><g><ellipse cx="175.4983" cy="12.8218" fill="#222222" rx="8.0136" ry="8.0136" style="stroke:#222222;stroke-width:0.801362169152763;"/><path d="M15.6266,68.9171 L335.1748,68.9171 A10.017,10.017 0 0 1 345.1918,78.9342 L345.1918,89.9905 L5.6095,89.9905 L5.6095,78.9342 A10.017,10.017 0 0 1 15.6266,68.9171 " fill="#F1F1F1" style="stroke:#F1F1F1;stroke-width:0.801362169152763;"/><rect fill="none" height="411.0111" rx="10.017" ry="10.017" style="stroke:#181818;stroke-width:0.4006810845763815;" width="339.5823" x="5.6095" y="68.9171"/><line style="stroke:#181818;stroke-width:0.4006810845763815;" x1="5.6095" x2="345.1918" y1="89.9905" y2="89.9905"/><text fill="#000000" font-family="sans-serif" font-size="11.2191" lengthAdjust="spacing" textLength="72.924" x="138.9387" y="83.3378">NotShooting</text><ellipse cx="176.7004" cy="106.8191" fill="#222222" rx="8.0136" ry="8.0136" style="stroke:#222222;stroke-width:0.801362169152763;"/><g id="NotShooting.Idle"><rect fill="#F1F1F1" height="40.0681" rx="10.017" ry="10.017" style="stroke:#181818;stroke-width:0.4006810845763815;" width="40.0681" x="156.6663" y="144.4831"/><line style="stroke:#181818;stroke-width:0.4006810845763815;" x1="156.6663" x2="196.7344" y1="165.5564" y2="165.5564"/><text fill="#000000" font-family="sans-serif" font-size="11.2191" lengthAdjust="spacing" textLength="20.8354" x="166.2827" y="158.9037">Idle</text></g><path d="M25.2429,227.0234 L327.9625,227.0234 A10.017,10.017 0 0 1 337.9796,237.0404 L337.9796,248.0967 L15.2259,248.0967 L15.2259,237.0404 A10.017,10.017 0 0 1 25.2429,227.0234 " fill="#F1F1F1" style="stroke:#F1F1F1;stroke-width:0.801362169152763;"/><rect fill="none" height="244.8913" rx="10.017" ry="10.017" style="stroke:#181818;stroke-width:0.4006810845763815;" width="322.7537" x="15.2259" y="227.0234"/><line style="stroke:#181818;stroke-width:0.4006810845763815;" x1="15.2259" x2="337.9796" y1="248.0967" y2="248.0967"/><text fill="#000000" font-family="sans-serif" font-size="11.2191" lengthAdjust="spacing" textLength="66.5131" x="143.3462" y="241.444">Configuring</text><ellipse cx="116.8036" cy="264.9253" fill="#222222" rx="8.0136" ry="8.0136" style="stroke:#222222;stroke-width:0.801362169152763;"/><g id="NotShooting.Configuring.NewValueSelection"><rect fill="#F1F1F1" height="40.0681" rx="10.017" ry="10.017" style="stroke:#181818;stroke-width:0.4006810845763815;" width="125.8139" x="53.8968" y="302.5893"/><line style="stroke:#181818;stroke-width:0.4006810845763815;" x1="53.8968" x2="179.7107" y1="323.6627" y2="323.6627"/><text fill="#000000" font-family="sans-serif" font-size="11.2191" lengthAdjust="spacing" textLength="109.7866" x="61.9105" y="317.01">NewValueSelection</text></g><path d="M55.9002,385.1296 L177.3066,385.1296 A10.017,10.017 0 0 1 187.3236,395.1467 L187.3236,406.203 L45.8832,406.203 L45.8832,395.1467 A10.017,10.017 0 0 1 55.9002,385.1296 " fill="#F1F1F1" style="stroke:#F1F1F1;stroke-width:0.801362169152763;"/><rect fill="none" height="78.7714" rx="10.017" ry="10.017" style="stroke:#181818;stroke-width:0.4006810845763815;" width="141.4404" x="45.8832" y="385.1296"/><line style="stroke:#181818;stroke-width:0.4006810845763815;" x1="45.8832" x2="187.3236" y1="406.203" y2="406.203"/><text fill="#000000" font-family="sans-serif" font-size="11.2191" lengthAdjust="spacing" textLength="100.1703" x="66.5183" y="399.5503">NewValuePreview</text><g id="NotShooting.Configuring.NewValuePreview.State1"><rect fill="#F1F1F1" height="40.0681" rx="10.017" ry="10.017" style="stroke:#181818;stroke-width:0.4006810845763815;" width="55.294" x="55.4996" y="415.8193"/><line style="stroke:#181818;stroke-width:0.4006810845763815;" x1="55.4996" x2="110.7936" y1="436.8926" y2="436.8926"/><text fill="#000000" font-family="sans-serif" font-size="11.2191" lengthAdjust="spacing" textLength="39.2667" x="63.5132" y="430.2399">State1</text></g><g id="NotShooting.Configuring.NewValuePreview.State2"><rect fill="#F1F1F1" height="40.0681" rx="10.017" ry="10.017" style="stroke:#181818;stroke-width:0.4006810845763815;" width="54.4926" x="125.6188" y="415.8193"/><line style="stroke:#181818;stroke-width:0.4006810845763815;" x1="125.6188" x2="180.1114" y1="436.8926" y2="436.8926"/><text fill="#000000" font-family="sans-serif" font-size="11.2191" lengthAdjust="spacing" textLength="38.4654" x="133.6324" y="430.2399">State2</text></g><!--link State1 to State2--><g id="link_State1_State2"><path d="M110.9251,435.8534 C115.7307,435.8534 115.7281,435.8534 120.5337,435.8534 " fill="none" id="State1-to-State2" style="stroke:#181818;stroke-width:0.801362169152763;"/><polygon fill="#181818" points="125.3419,435.8534,118.1296,432.6479,121.3351,435.8534,118.1296,439.0588,125.3419,435.8534" style="stroke:#181818;stroke-width:0.801362169152763;"/></g><!--link *start*Configuring to NewValueSelection--><g id="link_*start*Configuring_NewValueSelection"><path d="M116.8036,273.06 C116.8036,280.4846 116.8036,287.4765 116.8036,297.6081 " fill="none" id="*start*Configuring-to-NewValueSelection" style="stroke:#181818;stroke-width:0.801362169152763;"/><polygon fill="#181818" points="116.8036,302.4163,120.0091,295.204,116.8036,298.4094,113.5982,295.204,116.8036,302.4163" style="stroke:#181818;stroke-width:0.801362169152763;"/></g><!--link NewValueSelection to NewValuePreview--><g id="link_NewValueSelection_NewValuePreview"><path d="M53.849,338.984 C45.8133,343.5478 38.6109,349.4498 33.4621,357.082 C24.0409,371.0473 27.9692,380.6477 41.9474,390.8838 " fill="none" id="NewValueSelection-to-NewValuePreview" style="stroke:#181818;stroke-width:0.801362169152763;"/><polygon fill="#181818" points="45.8266,393.7246,41.9016,386.8773,42.5939,391.3573,38.1139,392.0496,45.8266,393.7246" style="stroke:#181818;stroke-width:0.801362169152763;"/><text fill="#000000" font-family="sans-serif" font-size="10.4177" lengthAdjust="spacing" textLength="64.109" x="34.2634" y="367.5533">EvNewValue</text></g><!--link NewValuePreview to NewValueSelection--><g id="link_NewValuePreview_NewValueSelection"><path d="M116.8036,385.0546 C116.8036,370.5753 116.8036,359.543 116.8036,347.5466 " fill="none" id="NewValuePreview-to-NewValueSelection" style="stroke:#181818;stroke-width:0.801362169152763;"/><polygon fill="#181818" points="116.8036,342.7384,113.5982,349.9507,116.8036,346.7452,120.0091,349.9507,116.8036,342.7384" style="stroke:#181818;stroke-width:0.801362169152763;"/><text fill="#000000" font-family="sans-serif" font-size="10.4177" lengthAdjust="spacing" textLength="108.9853" x="117.605" y="367.5533">EvNewValueRejected</text></g><!--link NewValuePreview to NewValueSelection--><g id="link_NewValuePreview_NewValueSelection"><path d="M188.0151,406.7967 C219.0222,395.9434 244.9102,379.5962 228.193,357.082 C216.7519,341.6734 203.121,334.2589 184.6416,329.526 " fill="none" id="NewValuePreview-to-NewValueSelection-1" style="stroke:#181818;stroke-width:0.801362169152763;"/><polygon fill="#181818" points="179.9838,328.3331,186.1753,333.2277,183.8653,329.3272,187.7658,327.0173,179.9838,328.3331" style="stroke:#181818;stroke-width:0.801362169152763;"/><text fill="#000000" font-family="sans-serif" font-size="10.4177" lengthAdjust="spacing" textLength="96.1635" x="233.8025" y="367.5533">EvNewValueSaved</text></g><!--link *start*NotShooting to Idle--><g id="link_*start*NotShooting_Idle"><path d="M176.7004,114.9537 C176.7004,122.3783 176.7004,129.3702 176.7004,139.5018 " fill="none" id="*start*NotShooting-to-Idle" style="stroke:#181818;stroke-width:0.801362169152763;"/><polygon fill="#181818" points="176.7004,144.31,179.9058,137.0977,176.7004,140.3032,173.4949,137.0977,176.7004,144.31" style="stroke:#181818;stroke-width:0.801362169152763;"/></g><!--link Idle to Configuring--><g id="link_Idle_Configuring"><path d="M156.4772,181.6086 C151.6866,186.6203 147.2231,192.5328 144.6459,198.9757 C141.0886,207.8684 139.508,212.4275 138.8301,221.9389 " fill="none" id="Idle-to-Configuring" style="stroke:#181818;stroke-width:0.801362169152763;"/><polygon fill="#181818" points="138.4882,226.7349,142.1983,219.7688,138.7731,222.7382,135.8036,219.313,138.4882,226.7349" style="stroke:#181818;stroke-width:0.801362169152763;"/><text fill="#000000" font-family="sans-serif" font-size="10.4177" lengthAdjust="spacing" textLength="45.6776" x="145.4472" y="209.447">EvConfig</text></g><!--link Configuring to Idle--><g id="link_Configuring_Idle"><path d="M195.4851,227.0186 C195.0051,217.4904 193.8832,208.0503 191.9262,198.9757 C190.8989,194.2108 191.0505,193.7208 189.0848,189.1835 " fill="none" id="Configuring-to-Idle" style="stroke:#181818;stroke-width:0.801362169152763;"/><polygon fill="#181818" points="187.1734,184.7716,187.0992,192.6637,188.7662,188.4482,192.9818,190.1152,187.1734,184.7716" style="stroke:#181818;stroke-width:0.801362169152763;"/><text fill="#000000" font-family="sans-serif" font-size="10.4177" lengthAdjust="spacing" textLength="45.6776" x="194.3303" y="209.447">EvConfig</text></g><!--link *start* to NotShooting--><g id="link_*start*_NotShooting"><path d="M175.4983,20.8498 C175.4983,30.0367 175.4983,42.4938 175.4983,63.8638 " fill="none" id="*start*-to-NotShooting" style="stroke:#181818;stroke-width:0.801362169152763;"/><polygon fill="#181818" points="175.4983,68.6719,178.7038,61.4597,175.4983,64.6651,172.2929,61.4597,175.4983,68.6719" style="stroke:#181818;stroke-width:0.801362169152763;"/></g><!--SRC=[dL2z2i8m4Dxp53SB1NzmSN0H1vSY1bp48RHd6ma9j6aoID_TIpIGgfDPak_lFd9z9HJ2QZq7BslRiili2aMnXT9OtXfZfMuOwwsmc5FmO039UgWL4WnNn3kZRx8Pkk3RmDwzC3bo8GLpnvYQScFULA8_2pKWHuMLbKQJziLDdCSEdKGVMnANXPByS_WaTC8xiLZ_5UR2KPAYxqL-30XVfCE3k02Q5bzBOcaZunC0]--></g></svg>