<svg xmlns="http://www.w3.org/2000/svg" xmlns:xlink="http://www.w3.org/1999/xlink" contentStyleType="text/css" height="145px" preserveAspectRatio="none" style="width:703px;height:145px;background:#FFFFFF;" version="1.1" viewBox="0 0 703 145" width="703px" zoomAndPan="magnify"><defs/><g><!--entity ERC--><g id="elem_ERC"><rect fill="#F1F1F1" height="36.2969" rx="2.5" ry="2.5" style="stroke:#181818;stroke-width:0.5;" width="76" x="326" y="7"/><text fill="#000000" font-family="sans-serif" font-size="14" lengthAdjust="spacing" textLength="56" x="336" y="29.9951">&#19994;&#21153;&#31995;&#32479;</text></g><!--entity ERC_COMPONENTS--><g id="elem_ERC_COMPONENTS"><rect fill="#F1F1F1" height="36.2969" rx="2.5" ry="2.5" style="stroke:#181818;stroke-width:0.5;" width="108" x="249" y="103.29"/><text fill="#000000" font-family="sans-serif" font-size="14" lengthAdjust="spacing" textLength="88" x="259" y="126.2851">components</text></g><!--entity ERC_PAGES--><g id="elem_ERC_PAGES"><rect fill="#F1F1F1" height="36.2969" rx="2.5" ry="2.5" style="stroke:#181818;stroke-width:0.5;" width="63" x="392.5" y="103.29"/><text fill="#000000" font-family="sans-serif" font-size="14" lengthAdjust="spacing" textLength="43" x="402.5" y="126.2851">pages</text></g><!--entity ASSETS--><g id="elem_ASSETS"><rect fill="#F1F1F1" height="36.2969" rx="2.5" ry="2.5" style="stroke:#181818;stroke-width:0.5;" width="104" x="493" y="7"/><text fill="#000000" font-family="sans-serif" font-size="14" lengthAdjust="spacing" textLength="84" x="503" y="29.9951">&#36164;&#20135;&#31649;&#29702;&#31995;&#32479;</text></g><!--entity ASSETS_COMPONENTS--><g id="elem_ASSETS_COMPONENTS"><rect fill="#F1F1F1" height="36.2969" rx="2.5" ry="2.5" style="stroke:#181818;stroke-width:0.5;" width="108" x="491" y="103.29"/><text fill="#000000" font-family="sans-serif" font-size="14" lengthAdjust="spacing" textLength="88" x="501" y="126.2851">components</text></g><!--entity ASSETS_PAGES--><g id="elem_ASSETS_PAGES"><rect fill="#F1F1F1" height="36.2969" rx="2.5" ry="2.5" style="stroke:#181818;stroke-width:0.5;" width="63" x="634.5" y="103.29"/><text fill="#000000" font-family="sans-serif" font-size="14" lengthAdjust="spacing" textLength="43" x="644.5" y="126.2851">pages</text></g><!--entity TICKET--><g id="elem_TICKET"><rect fill="#F1F1F1" height="36.2969" rx="2.5" ry="2.5" style="stroke:#181818;stroke-width:0.5;" width="104" x="130" y="7"/><text fill="#000000" font-family="sans-serif" font-size="14" lengthAdjust="spacing" textLength="84" x="140" y="29.9951">&#24037;&#21333;&#31649;&#29702;&#31995;&#32479;</text></g><!--entity TICKET_COMPONENTS--><g id="elem_TICKET_COMPONENTS"><rect fill="#F1F1F1" height="36.2969" rx="2.5" ry="2.5" style="stroke:#181818;stroke-width:0.5;" width="108" x="7" y="103.29"/><text fill="#000000" font-family="sans-serif" font-size="14" lengthAdjust="spacing" textLength="88" x="17" y="126.2851">components</text></g><!--entity TICKET_PAGES--><g id="elem_TICKET_PAGES"><rect fill="#F1F1F1" height="36.2969" rx="2.5" ry="2.5" style="stroke:#181818;stroke-width:0.5;" width="63" x="150.5" y="103.29"/><text fill="#000000" font-family="sans-serif" font-size="14" lengthAdjust="spacing" textLength="43" x="160.5" y="126.2851">pages</text></g><!--link ERC to ERC_COMPONENTS--><g id="link_ERC_ERC_COMPONENTS"><path d="M352.81,43.44 C341.87,60.35 329.6568,79.244 318.6668,96.224 " fill="none" id="ERC-to-ERC_COMPONENTS" style="stroke:#181818;stroke-width:1.0;"/><polygon fill="#181818" points="314.32,102.94,321.1853,97.854,316.1483,94.5939,314.32,102.94" style="stroke:#181818;stroke-width:1.0;"/></g><!--link ERC to ERC_PAGES--><g id="link_ERC_ERC_PAGES"><path d="M375,43.44 C385.76,60.35 397.7665,79.2097 408.5665,96.1897 " fill="none" id="ERC-to-ERC_PAGES" style="stroke:#181818;stroke-width:1.0;"/><polygon fill="#181818" points="412.86,102.94,411.0979,94.5797,406.0352,97.7998,412.86,102.94" style="stroke:#181818;stroke-width:1.0;"/></g><!--reverse link ERC_COMPONENTS to ERC_PAGES--><g id="link_ERC_COMPONENTS_ERC_PAGES"><path d="M365.36,121.44 C376.98,121.44 380.61,121.44 392.24,121.44 " fill="none" id="ERC_COMPONENTS-backto-ERC_PAGES" style="stroke:#181818;stroke-width:1.0;"/><polygon fill="#181818" points="357.36,121.44,365.36,124.44,365.36,118.44,357.36,121.44" style="stroke:#181818;stroke-width:1.0;"/></g><!--link ASSETS to ASSETS_COMPONENTS--><g id="link_ASSETS_ASSETS_COMPONENTS"><path d="M545,43.44 C545,60.35 545,77.96 545,94.94 " fill="none" id="ASSETS-to-ASSETS_COMPONENTS" style="stroke:#181818;stroke-width:1.0;"/><polygon fill="#181818" points="545,102.94,548,94.94,542,94.94,545,102.94" style="stroke:#181818;stroke-width:1.0;"/></g><!--link ASSETS to ASSETS_PAGES--><g id="link_ASSETS_ASSETS_PAGES"><path d="M567.48,43.66 C589.21,60.6 615.6408,81.1912 637.3308,98.1012 " fill="none" id="ASSETS-to-ASSETS_PAGES" style="stroke:#181818;stroke-width:1.0;"/><polygon fill="#181818" points="643.64,103.02,639.1754,95.7353,635.4863,100.4672,643.64,103.02" style="stroke:#181818;stroke-width:1.0;"/></g><!--reverse link ASSETS_COMPONENTS to ASSETS_PAGES--><g id="link_ASSETS_COMPONENTS_ASSETS_PAGES"><path d="M607.36,121.44 C618.98,121.44 622.61,121.44 634.24,121.44 " fill="none" id="ASSETS_COMPONENTS-backto-ASSETS_PAGES" style="stroke:#181818;stroke-width:1.0;"/><polygon fill="#181818" points="599.36,121.44,607.36,124.44,607.36,118.44,599.36,121.44" style="stroke:#181818;stroke-width:1.0;"/></g><!--link TICKET to TICKET_COMPONENTS--><g id="link_TICKET_TICKET_COMPONENTS"><path d="M159.52,43.66 C137.79,60.6 111.3592,81.1912 89.6692,98.1012 " fill="none" id="TICKET-to-TICKET_COMPONENTS" style="stroke:#181818;stroke-width:1.0;"/><polygon fill="#181818" points="83.36,103.02,91.5137,100.4672,87.8246,95.7353,83.36,103.02" style="stroke:#181818;stroke-width:1.0;"/></g><!--link TICKET to TICKET_PAGES--><g id="link_TICKET_TICKET_PAGES"><path d="M182,43.44 C182,60.35 182,77.96 182,94.94 " fill="none" id="TICKET-to-TICKET_PAGES" style="stroke:#181818;stroke-width:1.0;"/><polygon fill="#181818" points="182,102.94,185,94.94,179,94.94,182,102.94" style="stroke:#181818;stroke-width:1.0;"/></g><!--reverse link TICKET_COMPONENTS to TICKET_PAGES--><g id="link_TICKET_COMPONENTS_TICKET_PAGES"><path d="M123.36,121.44 C134.98,121.44 138.61,121.44 150.24,121.44 " fill="none" id="TICKET_COMPONENTS-backto-TICKET_PAGES" style="stroke:#181818;stroke-width:1.0;"/><polygon fill="#181818" points="115.36,121.44,123.36,124.44,123.36,118.44,115.36,121.44" style="stroke:#181818;stroke-width:1.0;"/></g><!--link ASSETS to ERC_COMPONENTS--><g id="link_ASSETS_ERC_COMPONENTS"><path d="M499.77,43.77 C456.4,60.67 398.7642,83.1258 355.4642,99.9958 " fill="none" id="ASSETS-to-ERC_COMPONENTS" style="stroke:#181818;stroke-width:1.0;"/><polygon fill="#181818" points="348.01,102.9,356.5533,102.7911,354.3751,97.2004,348.01,102.9" style="stroke:#181818;stroke-width:1.0;"/></g><!--link TICKET to ERC_COMPONENTS--><g id="link_TICKET_ERC_COMPONENTS"><path d="M204.48,43.66 C226.21,60.6 252.6408,81.1912 274.3308,98.1012 " fill="none" id="TICKET-to-ERC_COMPONENTS" style="stroke:#181818;stroke-width:1.0;"/><polygon fill="#181818" points="280.64,103.02,276.1754,95.7353,272.4863,100.4672,280.64,103.02" style="stroke:#181818;stroke-width:1.0;"/></g><!--SRC=[AyxEp2j8B4hCLIXAJIv9p4lFIRMnIKhDI2pBp2-oirEevb80WgByqhmKv_oYlDGY1IDJhbekBhXg1QKdEsOzxLhuVFFkvxldAoae91Ohk0Ov8oj8piyjoCzBpIifLeBAnZlx-mRu-xdwXGGZAon8J4z5g0bmT7T5aNwnjUN9hkNFroryFg4DsJh7u61NL8FGR8Ge86WfL1c6lK-tBttQEnNJtX1FPs_N43psGXGGj1Ug368l5z3h2hef-ULvki3WHmih33c87ZXBGJSdDQq4YqOkYDyGcZ6318SAY0t878Gbc8PmGVo2C0Kp272eWDY3p47OWsa8XclH_8jk2Qeq0000]--></g></svg>