<?xml version="1.0" encoding="us-ascii" standalone="no"?><svg xmlns="http://www.w3.org/2000/svg" xmlns:xlink="http://www.w3.org/1999/xlink" contentStyleType="text/css" height="145px" preserveAspectRatio="none" style="width:710px;height:145px;background:#FFFFFF;" version="1.1" viewBox="0 0 710 145" width="710px" zoomAndPan="magnify"><defs/><g><!--entity ERC--><g id="elem_ERC"><rect fill="#F1F1F1" height="36.2969" rx="2.5" ry="2.5" style="stroke:#181818;stroke-width:0.5;" width="76" x="329.5" y="7"/><text fill="#000000" font-family="sans-serif" font-size="14" lengthAdjust="spacing" textLength="56" x="339.5" y="29.9951">&#19994;&#21153;&#31995;&#32479;</text></g><!--entity ERC_COMPONENTS--><g id="elem_ERC_COMPONENTS"><rect fill="#F1F1F1" height="36.2969" rx="2.5" ry="2.5" style="stroke:#181818;stroke-width:0.5;" width="111" x="251" y="103"/><text fill="#000000" font-family="sans-serif" font-size="14" lengthAdjust="spacing" textLength="91" x="261" y="125.9951">components</text></g><!--entity ERC_PAGES--><g id="elem_ERC_PAGES"><rect fill="#F1F1F1" height="36.2969" rx="2.5" ry="2.5" style="stroke:#181818;stroke-width:0.5;" width="63" x="397" y="103"/><text fill="#000000" font-family="sans-serif" font-size="14" lengthAdjust="spacing" textLength="43" x="407" y="125.9951">pages</text></g><!--entity ASSETS--><g id="elem_ASSETS"><rect fill="#F1F1F1" height="36.2969" rx="2.5" ry="2.5" style="stroke:#181818;stroke-width:0.5;" width="104" x="498.5" y="7"/><text fill="#000000" font-family="sans-serif" font-size="14" lengthAdjust="spacing" textLength="84" x="508.5" y="29.9951">&#36164;&#20135;&#31649;&#29702;&#31995;&#32479;</text></g><!--entity ASSETS_COMPONENTS--><g id="elem_ASSETS_COMPONENTS"><rect fill="#F1F1F1" height="36.2969" rx="2.5" ry="2.5" style="stroke:#181818;stroke-width:0.5;" width="111" x="495" y="103"/><text fill="#000000" font-family="sans-serif" font-size="14" lengthAdjust="spacing" textLength="91" x="505" y="125.9951">components</text></g><!--entity ASSETS_PAGES--><g id="elem_ASSETS_PAGES"><rect fill="#F1F1F1" height="36.2969" rx="2.5" ry="2.5" style="stroke:#181818;stroke-width:0.5;" width="63" x="641" y="103"/><text fill="#000000" font-family="sans-serif" font-size="14" lengthAdjust="spacing" textLength="43" x="651" y="125.9951">pages</text></g><!--entity TICKET--><g id="elem_TICKET"><rect fill="#F1F1F1" height="36.2969" rx="2.5" ry="2.5" style="stroke:#181818;stroke-width:0.5;" width="104" x="132.5" y="7"/><text fill="#000000" font-family="sans-serif" font-size="14" lengthAdjust="spacing" textLength="84" x="142.5" y="29.9951">&#24037;&#21333;&#31649;&#29702;&#31995;&#32479;</text></g><!--entity TICKET_COMPONENTS--><g id="elem_TICKET_COMPONENTS"><rect fill="#F1F1F1" height="36.2969" rx="2.5" ry="2.5" style="stroke:#181818;stroke-width:0.5;" width="111" x="7" y="103"/><text fill="#000000" font-family="sans-serif" font-size="14" lengthAdjust="spacing" textLength="91" x="17" y="125.9951">components</text></g><!--entity TICKET_PAGES--><g id="elem_TICKET_PAGES"><rect fill="#F1F1F1" height="36.2969" rx="2.5" ry="2.5" style="stroke:#181818;stroke-width:0.5;" width="63" x="153" y="103"/><text fill="#000000" font-family="sans-serif" font-size="14" lengthAdjust="spacing" textLength="43" x="163" y="125.9951">pages</text></g><!--link ERC to ERC_COMPONENTS--><g id="link_ERC_ERC_COMPONENTS"><path d="M356.312,43.241 C345.305,60.2017 332.9539,79.2347 321.9719,96.1575 " fill="none" id="ERC-to-ERC_COMPONENTS" style="stroke:#181818;stroke-width:1.0;"/><polygon fill="#181818" points="317.617,102.8683,324.4885,97.7906,319.4554,94.5244,317.617,102.8683" style="stroke:#181818;stroke-width:1.0;"/></g><!--link ERC to ERC_PAGES--><g id="link_ERC_ERC_PAGES"><path d="M378.688,43.241 C389.695,60.2017 402.0461,79.2347 413.0281,96.1575 " fill="none" id="ERC-to-ERC_PAGES" style="stroke:#181818;stroke-width:1.0;"/><polygon fill="#181818" points="417.383,102.8683,415.5446,94.5244,410.5115,97.7906,417.383,102.8683" style="stroke:#181818;stroke-width:1.0;"/></g><!--reverse link ERC_COMPONENTS to ERC_PAGES--><g id="link_ERC_COMPONENTS_ERC_PAGES"><path d="M370.258,121 C381.816,121 385.374,121 396.931,121 " fill="none" id="ERC_COMPONENTS-backto-ERC_PAGES" style="stroke:#181818;stroke-width:1.0;"/><polygon fill="#181818" points="362.258,121,370.258,124,370.258,118,362.258,121" style="stroke:#181818;stroke-width:1.0;"/></g><!--link ASSETS to ASSETS_COMPONENTS--><g id="link_ASSETS_ASSETS_COMPONENTS"><path d="M550.5,43.241 C550.5,60.2017 550.5,77.9455 550.5,94.8683 " fill="none" id="ASSETS-to-ASSETS_COMPONENTS" style="stroke:#181818;stroke-width:1.0;"/><polygon fill="#181818" points="550.5,102.8683,553.5,94.8683,547.5,94.8683,550.5,102.8683" style="stroke:#181818;stroke-width:1.0;"/></g><!--link ASSETS to ASSETS_PAGES--><g id="link_ASSETS_ASSETS_PAGES"><path d="M572.593,43.0227 C594.566,59.9528 621.7618,80.907 643.8218,97.9037 " fill="none" id="ASSETS-to-ASSETS_PAGES" style="stroke:#181818;stroke-width:1.0;"/><polygon fill="#181818" points="650.159,102.7863,645.6528,95.5272,641.9908,100.2801,650.159,102.7863" style="stroke:#181818;stroke-width:1.0;"/></g><!--reverse link ASSETS_COMPONENTS to ASSETS_PAGES--><g id="link_ASSETS_COMPONENTS_ASSETS_PAGES"><path d="M614.258,121 C625.816,121 629.374,121 640.931,121 " fill="none" id="ASSETS_COMPONENTS-backto-ASSETS_PAGES" style="stroke:#181818;stroke-width:1.0;"/><polygon fill="#181818" points="606.258,121,614.258,124,614.258,118,606.258,121" style="stroke:#181818;stroke-width:1.0;"/></g><!--link TICKET to TICKET_COMPONENTS--><g id="link_TICKET_TICKET_COMPONENTS"><path d="M162.407,43.0227 C140.434,59.9528 113.2379,80.9069 91.1783,97.9036 " fill="none" id="TICKET-to-TICKET_COMPONENTS" style="stroke:#181818;stroke-width:1.0;"/><polygon fill="#181818" points="84.8412,102.7863,93.0093,100.28,89.3473,95.5272,84.8412,102.7863" style="stroke:#181818;stroke-width:1.0;"/></g><!--link TICKET to TICKET_PAGES--><g id="link_TICKET_TICKET_PAGES"><path d="M184.5,43.241 C184.5,60.2017 184.5,77.9455 184.5,94.8683 " fill="none" id="TICKET-to-TICKET_PAGES" style="stroke:#181818;stroke-width:1.0;"/><polygon fill="#181818" points="184.5,102.8683,187.5,94.8683,181.5,94.8683,184.5,102.8683" style="stroke:#181818;stroke-width:1.0;"/></g><!--reverse link TICKET_COMPONENTS to TICKET_PAGES--><g id="link_TICKET_COMPONENTS_TICKET_PAGES"><path d="M126.258,121 C137.816,121 141.374,121 152.931,121 " fill="none" id="TICKET_COMPONENTS-backto-TICKET_PAGES" style="stroke:#181818;stroke-width:1.0;"/><polygon fill="#181818" points="118.258,121,126.258,124,126.258,118,118.258,121" style="stroke:#181818;stroke-width:1.0;"/></g><!--link ASSETS to ERC_COMPONENTS--><g id="link_ASSETS_ERC_COMPONENTS"><path d="M506.313,43.0227 C462.23,60.0057 402.3472,83.0752 358.2342,100.0695 " fill="none" id="ASSETS-to-ERC_COMPONENTS" style="stroke:#181818;stroke-width:1.0;"/><polygon fill="#181818" points="350.769,102.9454,359.3127,102.8689,357.1557,97.27,350.769,102.9454" style="stroke:#181818;stroke-width:1.0;"/></g><!--link TICKET to ERC_COMPONENTS--><g id="link_TICKET_ERC_COMPONENTS"><path d="M206.593,43.0227 C228.566,59.9528 255.7618,80.907 277.8218,97.9037 " fill="none" id="TICKET-to-ERC_COMPONENTS" style="stroke:#181818;stroke-width:1.0;"/><polygon fill="#181818" points="284.159,102.7863,279.6528,95.5272,275.9908,100.2801,284.159,102.7863" style="stroke:#181818;stroke-width:1.0;"/></g><!--SRC=[AyxEp2j8B4hCLIXAJIv9p4lFIRMnIKhDI2pBp2-oirEevb80WgByqhmKv_oYlDGY1IDJhbekBhXg1QKdEsOzxLhuVFFkvxldAoae91Ohk0Ov8oj8piyjoCzBpIifLeBAnZlx-mRu-xdwXGGZAon8J4z5g0bmT7T5aNwnjUN9hkNFroryFg4DsJh7u61NL8FGR8Ge86WfL1c6lK-tBttQEnNJtX1FPs_N43psGXGGj1Ug368l5z3h2hef-ULvki3WHmih33c87ZXBGJSdDQq4YqOkYDyGcZ6318SAY0t878Gbc8PmGVo2C0Kp272eWDY3p47OWsa8XclH_8jk2Qeq0000]--></g></svg>