<svg xmlns="http://www.w3.org/2000/svg" xmlns:xlink="http://www.w3.org/1999/xlink" contentStyleType="text/css" height="78px" preserveAspectRatio="none" style="width:229px;height:78px;background:#FFFFFF;" version="1.1" viewBox="0 0 229 78" width="229px" zoomAndPan="magnify"><defs/><g><rect fill="#F1E5E5" height="33.6094" style="stroke:none;stroke-width:1.0;" width="8" x="4" y="27"/><rect fill="#F1E5E5" height="33.6094" style="stroke:none;stroke-width:1.0;" width="8" x="32" y="27"/><rect fill="#F1E5E5" height="33.6094" style="stroke:none;stroke-width:1.0;" width="8" x="60" y="27"/><rect fill="#FA8072" height="33.6094" style="stroke:none;stroke-width:1.0;" width="20" x="68" y="27"/><rect fill="#F1E5E5" height="33.6094" style="stroke:none;stroke-width:1.0;" width="8" x="88" y="27"/><rect fill="#F1E5E5" height="33.6094" style="stroke:none;stroke-width:1.0;" width="8" x="116" y="27"/><rect fill="#F1E5E5" height="33.6094" style="stroke:none;stroke-width:1.0;" width="8" x="144" y="27"/><rect fill="#F1E5E5" height="33.6094" style="stroke:none;stroke-width:1.0;" width="8" x="172" y="27"/><text fill="#000000" font-family="sans-serif" font-size="10" lengthAdjust="spacing" textLength="6.3623" x="17" y="25.2822">1</text><text fill="#000000" font-family="sans-serif" font-size="10" lengthAdjust="spacing" textLength="6.3623" x="45" y="25.2822">2</text><text fill="#000000" font-family="sans-serif" font-size="10" lengthAdjust="spacing" textLength="6.3623" x="73" y="25.2822">3</text><text fill="#000000" font-family="sans-serif" font-size="10" lengthAdjust="spacing" textLength="6.3623" x="101" y="25.2822">4</text><text fill="#000000" font-family="sans-serif" font-size="10" lengthAdjust="spacing" textLength="6.3623" x="129" y="25.2822">5</text><text fill="#000000" font-family="sans-serif" font-size="10" lengthAdjust="spacing" textLength="6.3623" x="157" y="25.2822">6</text><text fill="#000000" font-family="sans-serif" font-size="10" lengthAdjust="spacing" textLength="6.3623" x="185" y="25.2822">7</text><line style="stroke:#C0C0C0;stroke-width:1.0;" x1="12" x2="12" y1="16" y2="60.6094"/><line style="stroke:#C0C0C0;stroke-width:1.0;" x1="40" x2="40" y1="16" y2="60.6094"/><line style="stroke:#C0C0C0;stroke-width:1.0;" x1="68" x2="68" y1="16" y2="60.6094"/><line style="stroke:#C0C0C0;stroke-width:1.0;" x1="96" x2="96" y1="16" y2="60.6094"/><line style="stroke:#C0C0C0;stroke-width:1.0;" x1="124" x2="124" y1="16" y2="60.6094"/><line style="stroke:#C0C0C0;stroke-width:1.0;" x1="152" x2="152" y1="16" y2="60.6094"/><line style="stroke:#C0C0C0;stroke-width:1.0;" x1="180" x2="180" y1="16" y2="60.6094"/><line style="stroke:#C0C0C0;stroke-width:1.0;" x1="188" x2="188" y1="16" y2="60.6094"/><line style="stroke:#C0C0C0;stroke-width:1.0;" x1="0" x2="0" y1="0" y2="16"/><line style="stroke:#C0C0C0;stroke-width:1.0;" x1="124" x2="124" y1="0" y2="16"/><text fill="#000000" font-family="sans-serif" font-size="12" font-weight="bold" lengthAdjust="spacing" textLength="58.6816" x="32.6592" y="11.1387">Jan 2021</text><line style="stroke:#C0C0C0;stroke-width:1.0;" x1="188" x2="188" y1="0" y2="16"/><text fill="#000000" font-family="sans-serif" font-size="12" font-weight="bold" lengthAdjust="spacing" textLength="62.502" x="124.749" y="11.1387">Feb 2021</text><line style="stroke:#C0C0C0;stroke-width:1.0;" x1="0" x2="188" y1="0" y2="0"/><line style="stroke:#C0C0C0;stroke-width:1.0;" x1="0" x2="188" y1="16" y2="16"/><line style="stroke:#C0C0C0;stroke-width:1.0;" x1="0" x2="188" y1="27" y2="27"/><line style="stroke:#181818;stroke-width:1.5;" x1="99" x2="99" y1="41.8047" y2="52.207"/><line style="stroke:#181818;stroke-width:1.5;" x1="99" x2="107" y1="52.207" y2="52.207"/><polygon fill="#181818" points="103,48.207,103,52.207,103,56.207,107,52.207" style="stroke:#181818;stroke-width:1.5;"/><rect fill="#E6E6FA" height="12.8047" style="stroke:none;stroke-width:1.0;" width="3" x="2" y="29"/><line style="stroke:#ADD8E6;stroke-width:1.0;" x1="2" x2="3" y1="29" y2="29"/><line style="stroke:#ADD8E6;stroke-width:1.0;" x1="2" x2="3" y1="41.8047" y2="41.8047"/><line style="stroke:#ADD8E6;stroke-width:1.0;" x1="2" x2="2" y1="29" y2="41.8047"/><rect fill="#E6E6FA" height="12.8047" style="stroke:none;stroke-width:1.0;" width="21" x="12" y="29"/><line style="stroke:#ADD8E6;stroke-width:1.0;" x1="13" x2="32" y1="29" y2="29"/><line style="stroke:#ADD8E6;stroke-width:1.0;" x1="13" x2="32" y1="41.8047" y2="41.8047"/><rect fill="#E6E6FA" height="12.8047" style="stroke:none;stroke-width:1.0;" width="21" x="40" y="29"/><line style="stroke:#ADD8E6;stroke-width:1.0;" x1="41" x2="60" y1="29" y2="29"/><line style="stroke:#ADD8E6;stroke-width:1.0;" x1="41" x2="60" y1="41.8047" y2="41.8047"/><rect fill="#E6E6FA" height="12.8047" style="stroke:none;stroke-width:1.0;" width="21" x="68" y="29"/><line style="stroke:#ADD8E6;stroke-width:1.0;" x1="69" x2="88" y1="29" y2="29"/><line style="stroke:#ADD8E6;stroke-width:1.0;" x1="69" x2="88" y1="41.8047" y2="41.8047"/><rect fill="#E6E6FA" height="12.8047" style="stroke:none;stroke-width:1.0;" width="10" x="96" y="29"/><line style="stroke:#ADD8E6;stroke-width:1.0;" x1="97" x2="106" y1="29" y2="29"/><line style="stroke:#ADD8E6;stroke-width:1.0;" x1="97" x2="106" y1="41.8047" y2="41.8047"/><line style="stroke:#ADD8E6;stroke-width:1.0;" x1="106" x2="106" y1="29" y2="41.8047"/><line style="stroke:#ADD8E6;stroke-width:1.0;stroke-dasharray:2.0,3.0;" x1="7" x2="9" y1="29" y2="29"/><line style="stroke:#ADD8E6;stroke-width:1.0;stroke-dasharray:2.0,3.0;" x1="7" x2="9" y1="41.8047" y2="41.8047"/><line style="stroke:#ADD8E6;stroke-width:1.0;stroke-dasharray:2.0,3.0;" x1="35" x2="37" y1="29" y2="29"/><line style="stroke:#ADD8E6;stroke-width:1.0;stroke-dasharray:2.0,3.0;" x1="35" x2="37" y1="41.8047" y2="41.8047"/><line style="stroke:#ADD8E6;stroke-width:1.0;stroke-dasharray:2.0,3.0;" x1="63" x2="65" y1="29" y2="29"/><line style="stroke:#ADD8E6;stroke-width:1.0;stroke-dasharray:2.0,3.0;" x1="63" x2="65" y1="41.8047" y2="41.8047"/><line style="stroke:#ADD8E6;stroke-width:1.0;stroke-dasharray:2.0,3.0;" x1="91" x2="93" y1="29" y2="29"/><line style="stroke:#ADD8E6;stroke-width:1.0;stroke-dasharray:2.0,3.0;" x1="91" x2="93" y1="41.8047" y2="41.8047"/><rect fill="#E2E2F0" height="12.8047" style="stroke:none;stroke-width:1.0;" width="7" x="110" y="45.8047"/><line style="stroke:#181818;stroke-width:1.0;" x1="110" x2="115" y1="45.8047" y2="45.8047"/><line style="stroke:#181818;stroke-width:1.0;" x1="110" x2="115" y1="58.6094" y2="58.6094"/><line style="stroke:#181818;stroke-width:1.0;" x1="110" x2="110" y1="45.8047" y2="58.6094"/><rect fill="#E2E2F0" height="12.8047" style="stroke:none;stroke-width:1.0;" width="21" x="124" y="45.8047"/><line style="stroke:#181818;stroke-width:1.0;" x1="125" x2="144" y1="45.8047" y2="45.8047"/><line style="stroke:#181818;stroke-width:1.0;" x1="125" x2="144" y1="58.6094" y2="58.6094"/><rect fill="#E2E2F0" height="12.8047" style="stroke:none;stroke-width:1.0;" width="21" x="152" y="45.8047"/><line style="stroke:#181818;stroke-width:1.0;" x1="153" x2="172" y1="45.8047" y2="45.8047"/><line style="stroke:#181818;stroke-width:1.0;" x1="153" x2="172" y1="58.6094" y2="58.6094"/><rect fill="#E2E2F0" height="12.8047" style="stroke:none;stroke-width:1.0;" width="6" x="180" y="45.8047"/><line style="stroke:#181818;stroke-width:1.0;" x1="181" x2="186" y1="45.8047" y2="45.8047"/><line style="stroke:#181818;stroke-width:1.0;" x1="181" x2="186" y1="58.6094" y2="58.6094"/><line style="stroke:#181818;stroke-width:1.0;" x1="186" x2="186" y1="45.8047" y2="58.6094"/><line style="stroke:#181818;stroke-width:1.0;stroke-dasharray:2.0,3.0;" x1="119" x2="121" y1="45.8047" y2="45.8047"/><line style="stroke:#181818;stroke-width:1.0;stroke-dasharray:2.0,3.0;" x1="119" x2="121" y1="58.6094" y2="58.6094"/><line style="stroke:#181818;stroke-width:1.0;stroke-dasharray:2.0,3.0;" x1="147" x2="149" y1="45.8047" y2="45.8047"/><line style="stroke:#181818;stroke-width:1.0;stroke-dasharray:2.0,3.0;" x1="147" x2="149" y1="58.6094" y2="58.6094"/><line style="stroke:#181818;stroke-width:1.0;stroke-dasharray:2.0,3.0;" x1="175" x2="177" y1="45.8047" y2="45.8047"/><line style="stroke:#181818;stroke-width:1.0;stroke-dasharray:2.0,3.0;" x1="175" x2="177" y1="58.6094" y2="58.6094"/><text fill="#000000" font-family="sans-serif" font-size="11" lengthAdjust="spacing" textLength="117.7075" x="110" y="39.2104">Prototype design end</text><text fill="#000000" font-family="sans-serif" font-size="11" lengthAdjust="spacing" textLength="40.541" x="114" y="56.0151">Testing</text><line style="stroke:#C0C0C0;stroke-width:1.0;" x1="0" x2="188" y1="60.6094" y2="60.6094"/><line style="stroke:#C0C0C0;stroke-width:1.0;" x1="0" x2="0" y1="60.6094" y2="76.6094"/><line style="stroke:#C0C0C0;stroke-width:1.0;" x1="124" x2="124" y1="60.6094" y2="76.6094"/><text fill="#000000" font-family="sans-serif" font-size="12" font-weight="bold" lengthAdjust="spacing" textLength="58.6816" x="32.6592" y="71.748">Jan 2021</text><line style="stroke:#C0C0C0;stroke-width:1.0;" x1="188" x2="188" y1="60.6094" y2="76.6094"/><text fill="#000000" font-family="sans-serif" font-size="12" font-weight="bold" lengthAdjust="spacing" textLength="62.502" x="124.749" y="71.748">Feb 2021</text><line style="stroke:#C0C0C0;stroke-width:1.0;" x1="0" x2="188" y1="76.6094" y2="76.6094"/><!--SRC=[VL1BJnj13BxFh_2jS5YQJLTHoA6Yl2g5ZHeHu1BbuEwQPM3M4uqzgVRVrm45sXvw6etzlVoTYMBI3bdLRPDdbGO3mI-Ybp0uGSsfnG4m4JGX2hLEClypSSiKdwbHUDKIq2U2KXJY8pmZPqm3Z4VZqgqDfr67BK5BuZi6udO3AB2- -xQwAJSGK8nVde8vY3jClK0JGqpKWcUeSMSqIfzhtptfUSXaG1BrtBqBL7y955_V0SxjanIZiYYde14El_7uzI36tapMLzn-sdlslLSbsloVz4SsmT171dTc2TywTSjWx_sYXXqbyROiJunVdKoELgWmpm564nYTpifgzcKAztSNU_dgs1rzNzOWCQV6slAYoV_CQlnZDySTmcrczJtDuCUMU7vvSnZ05UzyYjmJgvi_B3u0aweuzmehIfO47XRkaXun1pL64rihPsRkryNKrSXTniwqYTr5DDqqs6xr6m00]--></g></svg>